G04 EAGLE Gerber RS-274X export*
G75*
%MOMM*%
%FSLAX34Y34*%
%LPD*%
%INTop Copper*%
%IPPOS*%
%AMOC8*
5,1,8,0,0,1.08239X$1,22.5*%
G01*
%ADD10C,0.000000*%
%ADD11C,0.130000*%
%ADD12C,0.152400*%
%ADD13P,1.539592X8X22.500000*%
%ADD14C,1.752600*%
%ADD15C,1.422400*%
%ADD16P,1.539592X8X112.500000*%
%ADD17P,1.539592X8X292.500000*%
%ADD18P,1.539592X8X202.500000*%
%ADD19R,2.032000X2.032000*%
%ADD20C,2.032000*%
%ADD21R,2.413000X2.413000*%
%ADD22C,2.413000*%
%ADD23C,2.540000*%
%ADD24C,0.203200*%
%ADD25C,1.016000*%
%ADD26C,1.270000*%
%ADD27C,0.406400*%
%ADD28C,0.508000*%


D10*
X0Y0D02*
X1498000Y0D01*
X1498000Y713800D01*
X0Y713800D01*
X0Y0D01*
D11*
X0Y713800D02*
X125Y756212D01*
X20445Y756152D02*
X20320Y713740D01*
X-582Y736714D02*
X-51932Y736866D01*
X21038Y736650D02*
X96015Y736429D01*
X-582Y736714D02*
X-25923Y739981D01*
X-25942Y733597D01*
X-582Y736714D01*
X-25928Y738089D01*
X-25936Y735489D02*
X-582Y736714D01*
X-25925Y739389D01*
X-25940Y734189D02*
X-582Y736714D01*
X21038Y736650D02*
X46397Y739768D01*
X46378Y733383D01*
X21038Y736650D01*
X46391Y737876D01*
X46384Y735276D02*
X21038Y736650D01*
X46395Y739176D01*
X46380Y733976D02*
X21038Y736650D01*
D12*
X52193Y759318D02*
X52318Y759316D01*
X52443Y759309D01*
X52568Y759299D01*
X52692Y759285D01*
X52816Y759268D01*
X52940Y759246D01*
X53062Y759221D01*
X53184Y759192D01*
X53305Y759159D01*
X53424Y759122D01*
X53543Y759082D01*
X53660Y759038D01*
X53776Y758991D01*
X53890Y758940D01*
X54003Y758886D01*
X54114Y758828D01*
X54223Y758766D01*
X54330Y758702D01*
X54436Y758634D01*
X54539Y758563D01*
X54639Y758489D01*
X54738Y758411D01*
X54834Y758331D01*
X54927Y758248D01*
X55018Y758162D01*
X55106Y758073D01*
X55192Y757981D01*
X55274Y757887D01*
X55354Y757791D01*
X55431Y757692D01*
X55504Y757590D01*
X55575Y757487D01*
X55642Y757381D01*
X55706Y757274D01*
X55766Y757164D01*
X55823Y757053D01*
X55877Y756940D01*
X55927Y756825D01*
X55974Y756709D01*
X56017Y756591D01*
X56056Y756472D01*
X56092Y756352D01*
X56124Y756231D01*
X56152Y756110D01*
X56176Y755987D01*
X56197Y755863D01*
X56214Y755739D01*
X56227Y755615D01*
X56236Y755490D01*
X56241Y755365D01*
X56243Y755240D01*
X52193Y759318D02*
X52050Y759317D01*
X51908Y759311D01*
X51765Y759302D01*
X51623Y759289D01*
X51482Y759272D01*
X51340Y759251D01*
X51200Y759226D01*
X51060Y759198D01*
X50921Y759165D01*
X50783Y759129D01*
X50646Y759089D01*
X50510Y759045D01*
X50375Y758998D01*
X50242Y758947D01*
X50110Y758892D01*
X49980Y758834D01*
X49851Y758772D01*
X49724Y758707D01*
X49599Y758638D01*
X49476Y758566D01*
X49355Y758491D01*
X49236Y758412D01*
X49119Y758330D01*
X49004Y758245D01*
X48892Y758157D01*
X48782Y758065D01*
X48675Y757971D01*
X48571Y757874D01*
X48469Y757774D01*
X48370Y757672D01*
X48273Y757566D01*
X48180Y757458D01*
X48089Y757348D01*
X48002Y757235D01*
X47918Y757120D01*
X47837Y757002D01*
X47759Y756882D01*
X47685Y756761D01*
X47613Y756637D01*
X47546Y756511D01*
X47481Y756384D01*
X47421Y756255D01*
X47364Y756124D01*
X47310Y755992D01*
X47260Y755858D01*
X47214Y755723D01*
X54877Y752084D02*
X54971Y752175D01*
X55062Y752269D01*
X55150Y752366D01*
X55235Y752465D01*
X55317Y752567D01*
X55396Y752672D01*
X55472Y752778D01*
X55545Y752887D01*
X55614Y752998D01*
X55680Y753111D01*
X55743Y753226D01*
X55802Y753343D01*
X55858Y753462D01*
X55910Y753582D01*
X55958Y753704D01*
X56003Y753827D01*
X56044Y753951D01*
X56081Y754076D01*
X56114Y754203D01*
X56144Y754330D01*
X56170Y754459D01*
X56192Y754588D01*
X56210Y754718D01*
X56224Y754848D01*
X56234Y754978D01*
X56241Y755109D01*
X56243Y755240D01*
X54877Y752084D02*
X47169Y743080D01*
X56200Y743048D01*
X62175Y743027D02*
X62178Y743930D01*
X63081Y743927D01*
X63078Y743024D01*
X62175Y743027D01*
X69081Y751131D02*
X69086Y751451D01*
X69099Y751771D01*
X69119Y752090D01*
X69147Y752408D01*
X69182Y752726D01*
X69225Y753043D01*
X69275Y753359D01*
X69333Y753673D01*
X69399Y753986D01*
X69472Y754298D01*
X69552Y754607D01*
X69640Y754915D01*
X69735Y755220D01*
X69838Y755523D01*
X69947Y755824D01*
X70064Y756121D01*
X70188Y756416D01*
X70319Y756708D01*
X70456Y756997D01*
X70496Y757105D01*
X70539Y757211D01*
X70586Y757316D01*
X70637Y757420D01*
X70691Y757522D01*
X70748Y757621D01*
X70809Y757719D01*
X70873Y757814D01*
X70941Y757908D01*
X71012Y757999D01*
X71085Y758087D01*
X71162Y758173D01*
X71242Y758256D01*
X71324Y758336D01*
X71410Y758413D01*
X71497Y758488D01*
X71588Y758559D01*
X71681Y758627D01*
X71776Y758692D01*
X71873Y758754D01*
X71972Y758812D01*
X72073Y758867D01*
X72176Y758918D01*
X72281Y758966D01*
X72388Y759010D01*
X72495Y759051D01*
X72605Y759087D01*
X72715Y759120D01*
X72826Y759149D01*
X72939Y759174D01*
X73052Y759196D01*
X73166Y759213D01*
X73280Y759226D01*
X73395Y759236D01*
X73510Y759241D01*
X73625Y759243D01*
X73625Y759244D02*
X73740Y759242D01*
X73855Y759235D01*
X73969Y759225D01*
X74084Y759211D01*
X74197Y759192D01*
X74310Y759170D01*
X74423Y759144D01*
X74534Y759115D01*
X74644Y759081D01*
X74753Y759044D01*
X74860Y759002D01*
X74967Y758958D01*
X75071Y758909D01*
X75174Y758857D01*
X75275Y758802D01*
X75374Y758743D01*
X75470Y758680D01*
X75565Y758615D01*
X75657Y758546D01*
X75747Y758474D01*
X75834Y758399D01*
X75919Y758321D01*
X76001Y758240D01*
X76080Y758156D01*
X76156Y758070D01*
X76230Y757981D01*
X76300Y757890D01*
X76367Y757796D01*
X76430Y757700D01*
X76490Y757602D01*
X76547Y757502D01*
X76601Y757400D01*
X76651Y757296D01*
X76697Y757190D01*
X76739Y757083D01*
X76778Y756975D01*
X76913Y756686D01*
X77042Y756393D01*
X77164Y756097D01*
X77279Y755798D01*
X77386Y755497D01*
X77486Y755194D01*
X77579Y754888D01*
X77665Y754579D01*
X77743Y754269D01*
X77814Y753957D01*
X77877Y753644D01*
X77933Y753329D01*
X77981Y753013D01*
X78022Y752696D01*
X78055Y752378D01*
X78081Y752059D01*
X78099Y751740D01*
X78109Y751420D01*
X78112Y751100D01*
X69081Y751131D02*
X69084Y750811D01*
X69094Y750491D01*
X69112Y750172D01*
X69138Y749853D01*
X69171Y749535D01*
X69212Y749218D01*
X69260Y748902D01*
X69316Y748587D01*
X69379Y748274D01*
X69450Y747962D01*
X69528Y747652D01*
X69614Y747343D01*
X69707Y747037D01*
X69807Y746734D01*
X69914Y746433D01*
X70029Y746134D01*
X70151Y745838D01*
X70280Y745546D01*
X70415Y745256D01*
X70454Y745148D01*
X70496Y745041D01*
X70543Y744935D01*
X70592Y744831D01*
X70646Y744729D01*
X70703Y744629D01*
X70763Y744531D01*
X70826Y744435D01*
X70893Y744341D01*
X70963Y744250D01*
X71037Y744161D01*
X71113Y744075D01*
X71192Y743991D01*
X71274Y743910D01*
X71359Y743832D01*
X71446Y743757D01*
X71536Y743685D01*
X71628Y743616D01*
X71723Y743551D01*
X71819Y743488D01*
X71918Y743429D01*
X72019Y743374D01*
X72122Y743322D01*
X72226Y743273D01*
X72333Y743229D01*
X72440Y743187D01*
X72549Y743150D01*
X72659Y743116D01*
X72770Y743087D01*
X72883Y743061D01*
X72996Y743039D01*
X73109Y743020D01*
X73224Y743006D01*
X73338Y742996D01*
X73453Y742989D01*
X73568Y742987D01*
X76737Y745235D02*
X76875Y745524D01*
X77005Y745815D01*
X77129Y746110D01*
X77246Y746408D01*
X77355Y746708D01*
X77458Y747011D01*
X77553Y747317D01*
X77641Y747624D01*
X77721Y747934D01*
X77794Y748245D01*
X77859Y748558D01*
X77918Y748873D01*
X77968Y749188D01*
X78011Y749505D01*
X78046Y749823D01*
X78074Y750142D01*
X78094Y750461D01*
X78107Y750780D01*
X78112Y751100D01*
X76738Y745234D02*
X76698Y745126D01*
X76655Y745019D01*
X76608Y744914D01*
X76557Y744811D01*
X76503Y744709D01*
X76446Y744609D01*
X76385Y744512D01*
X76320Y744416D01*
X76253Y744323D01*
X76182Y744232D01*
X76108Y744143D01*
X76031Y744058D01*
X75952Y743974D01*
X75869Y743894D01*
X75784Y743817D01*
X75696Y743742D01*
X75606Y743671D01*
X75513Y743603D01*
X75418Y743538D01*
X75321Y743476D01*
X75221Y743418D01*
X75120Y743363D01*
X75017Y743312D01*
X74912Y743264D01*
X74806Y743220D01*
X74698Y743180D01*
X74589Y743143D01*
X74478Y743110D01*
X74367Y743081D01*
X74255Y743056D01*
X74141Y743034D01*
X74028Y743017D01*
X73913Y743004D01*
X73798Y742994D01*
X73683Y742989D01*
X73568Y742987D01*
X69968Y746613D02*
X77225Y755618D01*
X84684Y742949D02*
X89199Y742933D01*
X89199Y742932D02*
X89332Y742934D01*
X89464Y742939D01*
X89597Y742948D01*
X89728Y742961D01*
X89860Y742978D01*
X89991Y742999D01*
X90121Y743024D01*
X90251Y743052D01*
X90379Y743085D01*
X90507Y743121D01*
X90633Y743161D01*
X90759Y743204D01*
X90883Y743251D01*
X91005Y743302D01*
X91126Y743356D01*
X91245Y743414D01*
X91363Y743475D01*
X91478Y743540D01*
X91592Y743608D01*
X91704Y743680D01*
X91813Y743754D01*
X91921Y743832D01*
X92026Y743913D01*
X92128Y743997D01*
X92228Y744084D01*
X92326Y744174D01*
X92421Y744267D01*
X92513Y744362D01*
X92602Y744461D01*
X92688Y744561D01*
X92771Y744665D01*
X92851Y744770D01*
X92928Y744878D01*
X93002Y744988D01*
X93073Y745100D01*
X93140Y745215D01*
X93204Y745331D01*
X93264Y745449D01*
X93321Y745569D01*
X93375Y745690D01*
X93425Y745813D01*
X93471Y745937D01*
X93513Y746063D01*
X93552Y746189D01*
X93587Y746317D01*
X93618Y746446D01*
X93646Y746576D01*
X93670Y746706D01*
X93690Y746837D01*
X93706Y746969D01*
X93718Y747101D01*
X93726Y747233D01*
X93730Y747366D01*
X93731Y747499D01*
X93727Y747631D01*
X93720Y747763D01*
X93709Y747896D01*
X93694Y748027D01*
X93675Y748159D01*
X93652Y748289D01*
X93625Y748419D01*
X93595Y748548D01*
X93561Y748676D01*
X93523Y748803D01*
X93481Y748929D01*
X93436Y749054D01*
X93387Y749177D01*
X93334Y749299D01*
X93278Y749419D01*
X93219Y749537D01*
X93156Y749654D01*
X93089Y749769D01*
X93019Y749881D01*
X92946Y749992D01*
X92870Y750100D01*
X92791Y750207D01*
X92708Y750310D01*
X92622Y750412D01*
X92534Y750510D01*
X92443Y750607D01*
X92349Y750700D01*
X92252Y750791D01*
X92152Y750878D01*
X92050Y750963D01*
X91946Y751045D01*
X91839Y751123D01*
X91730Y751199D01*
X91619Y751271D01*
X91506Y751340D01*
X91390Y751405D01*
X91273Y751468D01*
X91154Y751526D01*
X91034Y751582D01*
X90912Y751633D01*
X90788Y751681D01*
X90663Y751725D01*
X90537Y751766D01*
X90410Y751803D01*
X90281Y751836D01*
X90152Y751866D01*
X90022Y751891D01*
X89891Y751913D01*
X89760Y751931D01*
X89628Y751945D01*
X89496Y751955D01*
X89363Y751962D01*
X89231Y751964D01*
X90159Y759186D02*
X84740Y759205D01*
X90159Y759185D02*
X90278Y759183D01*
X90397Y759176D01*
X90516Y759166D01*
X90635Y759152D01*
X90753Y759134D01*
X90870Y759112D01*
X90987Y759086D01*
X91103Y759056D01*
X91217Y759022D01*
X91331Y758985D01*
X91443Y758944D01*
X91554Y758899D01*
X91663Y758851D01*
X91770Y758799D01*
X91876Y758744D01*
X91980Y758685D01*
X92082Y758622D01*
X92182Y758557D01*
X92279Y758488D01*
X92374Y758416D01*
X92467Y758340D01*
X92557Y758262D01*
X92645Y758181D01*
X92730Y758097D01*
X92812Y758010D01*
X92891Y757921D01*
X92967Y757829D01*
X93040Y757734D01*
X93110Y757637D01*
X93177Y757538D01*
X93240Y757437D01*
X93300Y757333D01*
X93356Y757228D01*
X93409Y757121D01*
X93459Y757012D01*
X93505Y756902D01*
X93547Y756790D01*
X93585Y756677D01*
X93620Y756563D01*
X93651Y756447D01*
X93678Y756331D01*
X93701Y756214D01*
X93720Y756096D01*
X93735Y755978D01*
X93747Y755859D01*
X93754Y755740D01*
X93758Y755620D01*
X93757Y755501D01*
X93753Y755381D01*
X93745Y755262D01*
X93732Y755143D01*
X93716Y755025D01*
X93696Y754907D01*
X93672Y754790D01*
X93644Y754674D01*
X93613Y754559D01*
X93577Y754445D01*
X93538Y754332D01*
X93495Y754221D01*
X93449Y754111D01*
X93399Y754002D01*
X93345Y753895D01*
X93288Y753791D01*
X93227Y753688D01*
X93163Y753587D01*
X93096Y753488D01*
X93025Y753392D01*
X92951Y753298D01*
X92875Y753206D01*
X92795Y753117D01*
X92712Y753031D01*
X92627Y752948D01*
X92539Y752867D01*
X92448Y752789D01*
X92355Y752715D01*
X92259Y752643D01*
X92161Y752575D01*
X92061Y752510D01*
X91958Y752449D01*
X91854Y752390D01*
X91748Y752336D01*
X91640Y752284D01*
X91530Y752237D01*
X91419Y752193D01*
X91307Y752153D01*
X91193Y752116D01*
X91078Y752083D01*
X90962Y752054D01*
X90846Y752029D01*
X90728Y752008D01*
X90610Y751991D01*
X90491Y751978D01*
X90372Y751968D01*
X90253Y751963D01*
X90133Y751961D01*
X90134Y751961D02*
X86521Y751973D01*
D11*
X-60Y693420D02*
X-42472Y693545D01*
X-42412Y713865D02*
X0Y713740D01*
X-22974Y692838D02*
X-23126Y641488D01*
X-22910Y714458D02*
X-22689Y789435D01*
X-22974Y692838D02*
X-26241Y667497D01*
X-19857Y667478D01*
X-22974Y692838D01*
X-24349Y667492D01*
X-21749Y667484D02*
X-22974Y692838D01*
X-25649Y667495D01*
X-20449Y667480D02*
X-22974Y692838D01*
X-22910Y714458D02*
X-26028Y739817D01*
X-19643Y739798D01*
X-22910Y714458D01*
X-24136Y739811D01*
X-21536Y739804D02*
X-22910Y714458D01*
X-25436Y739815D01*
X-20236Y739800D02*
X-22910Y714458D01*
D12*
X-45578Y745613D02*
X-45576Y745738D01*
X-45569Y745863D01*
X-45559Y745988D01*
X-45545Y746112D01*
X-45528Y746236D01*
X-45506Y746360D01*
X-45481Y746482D01*
X-45452Y746604D01*
X-45419Y746725D01*
X-45382Y746844D01*
X-45342Y746963D01*
X-45298Y747080D01*
X-45251Y747196D01*
X-45200Y747310D01*
X-45146Y747423D01*
X-45088Y747534D01*
X-45026Y747643D01*
X-44962Y747750D01*
X-44894Y747856D01*
X-44823Y747959D01*
X-44749Y748059D01*
X-44671Y748158D01*
X-44591Y748254D01*
X-44508Y748347D01*
X-44422Y748438D01*
X-44333Y748526D01*
X-44241Y748612D01*
X-44147Y748694D01*
X-44051Y748774D01*
X-43952Y748851D01*
X-43850Y748924D01*
X-43747Y748995D01*
X-43641Y749062D01*
X-43534Y749126D01*
X-43424Y749186D01*
X-43313Y749243D01*
X-43200Y749297D01*
X-43085Y749347D01*
X-42969Y749394D01*
X-42851Y749437D01*
X-42732Y749476D01*
X-42612Y749512D01*
X-42491Y749544D01*
X-42370Y749572D01*
X-42247Y749596D01*
X-42123Y749617D01*
X-41999Y749634D01*
X-41875Y749647D01*
X-41750Y749656D01*
X-41625Y749661D01*
X-41500Y749663D01*
X-45578Y745613D02*
X-45577Y745470D01*
X-45571Y745328D01*
X-45562Y745185D01*
X-45549Y745043D01*
X-45532Y744902D01*
X-45511Y744760D01*
X-45486Y744620D01*
X-45458Y744480D01*
X-45425Y744341D01*
X-45389Y744203D01*
X-45349Y744066D01*
X-45305Y743930D01*
X-45258Y743795D01*
X-45207Y743662D01*
X-45152Y743530D01*
X-45094Y743400D01*
X-45032Y743271D01*
X-44967Y743144D01*
X-44898Y743019D01*
X-44826Y742896D01*
X-44751Y742775D01*
X-44672Y742656D01*
X-44590Y742539D01*
X-44505Y742424D01*
X-44417Y742312D01*
X-44325Y742202D01*
X-44231Y742095D01*
X-44134Y741991D01*
X-44034Y741889D01*
X-43932Y741790D01*
X-43826Y741693D01*
X-43718Y741600D01*
X-43608Y741509D01*
X-43495Y741422D01*
X-43380Y741338D01*
X-43262Y741257D01*
X-43142Y741179D01*
X-43021Y741105D01*
X-42897Y741033D01*
X-42771Y740966D01*
X-42644Y740901D01*
X-42515Y740841D01*
X-42384Y740784D01*
X-42252Y740730D01*
X-42118Y740680D01*
X-41983Y740634D01*
X-38344Y748297D02*
X-38435Y748391D01*
X-38529Y748482D01*
X-38626Y748570D01*
X-38725Y748655D01*
X-38827Y748737D01*
X-38932Y748816D01*
X-39038Y748892D01*
X-39147Y748965D01*
X-39258Y749034D01*
X-39371Y749100D01*
X-39486Y749163D01*
X-39603Y749222D01*
X-39722Y749278D01*
X-39842Y749330D01*
X-39964Y749378D01*
X-40087Y749423D01*
X-40211Y749464D01*
X-40336Y749501D01*
X-40463Y749534D01*
X-40590Y749564D01*
X-40719Y749590D01*
X-40848Y749612D01*
X-40978Y749630D01*
X-41108Y749644D01*
X-41238Y749654D01*
X-41369Y749661D01*
X-41500Y749663D01*
X-38344Y748297D02*
X-29340Y740589D01*
X-29308Y749620D01*
X-29287Y755595D02*
X-30190Y755598D01*
X-30187Y756501D01*
X-29284Y756498D01*
X-29287Y755595D01*
X-37391Y762501D02*
X-37711Y762506D01*
X-38031Y762519D01*
X-38350Y762539D01*
X-38668Y762567D01*
X-38986Y762602D01*
X-39303Y762645D01*
X-39619Y762695D01*
X-39933Y762753D01*
X-40246Y762819D01*
X-40558Y762892D01*
X-40867Y762972D01*
X-41175Y763060D01*
X-41480Y763155D01*
X-41783Y763258D01*
X-42084Y763367D01*
X-42381Y763484D01*
X-42676Y763608D01*
X-42968Y763739D01*
X-43257Y763876D01*
X-43365Y763916D01*
X-43471Y763959D01*
X-43576Y764006D01*
X-43680Y764057D01*
X-43782Y764111D01*
X-43881Y764168D01*
X-43979Y764229D01*
X-44074Y764293D01*
X-44168Y764361D01*
X-44259Y764432D01*
X-44347Y764505D01*
X-44433Y764582D01*
X-44516Y764662D01*
X-44596Y764744D01*
X-44673Y764830D01*
X-44748Y764917D01*
X-44819Y765008D01*
X-44887Y765101D01*
X-44952Y765196D01*
X-45014Y765293D01*
X-45072Y765392D01*
X-45127Y765493D01*
X-45178Y765596D01*
X-45226Y765701D01*
X-45270Y765808D01*
X-45311Y765915D01*
X-45347Y766025D01*
X-45380Y766135D01*
X-45409Y766246D01*
X-45434Y766359D01*
X-45456Y766472D01*
X-45473Y766586D01*
X-45486Y766700D01*
X-45496Y766815D01*
X-45501Y766930D01*
X-45503Y767045D01*
X-45504Y767045D02*
X-45502Y767160D01*
X-45495Y767275D01*
X-45485Y767389D01*
X-45471Y767504D01*
X-45452Y767617D01*
X-45430Y767730D01*
X-45404Y767843D01*
X-45375Y767954D01*
X-45341Y768064D01*
X-45304Y768173D01*
X-45262Y768280D01*
X-45218Y768387D01*
X-45169Y768491D01*
X-45117Y768594D01*
X-45062Y768695D01*
X-45003Y768794D01*
X-44940Y768890D01*
X-44875Y768985D01*
X-44806Y769077D01*
X-44734Y769167D01*
X-44659Y769254D01*
X-44581Y769339D01*
X-44500Y769421D01*
X-44416Y769500D01*
X-44330Y769576D01*
X-44241Y769650D01*
X-44150Y769720D01*
X-44056Y769787D01*
X-43960Y769850D01*
X-43862Y769910D01*
X-43762Y769967D01*
X-43660Y770021D01*
X-43556Y770071D01*
X-43450Y770117D01*
X-43343Y770159D01*
X-43235Y770198D01*
X-42946Y770333D01*
X-42653Y770462D01*
X-42357Y770584D01*
X-42058Y770699D01*
X-41757Y770806D01*
X-41454Y770906D01*
X-41148Y770999D01*
X-40839Y771085D01*
X-40529Y771163D01*
X-40217Y771234D01*
X-39904Y771297D01*
X-39589Y771353D01*
X-39273Y771401D01*
X-38956Y771442D01*
X-38638Y771475D01*
X-38319Y771501D01*
X-38000Y771519D01*
X-37680Y771529D01*
X-37360Y771532D01*
X-37391Y762501D02*
X-37071Y762504D01*
X-36751Y762514D01*
X-36432Y762532D01*
X-36113Y762558D01*
X-35795Y762591D01*
X-35478Y762632D01*
X-35162Y762680D01*
X-34847Y762736D01*
X-34534Y762799D01*
X-34222Y762870D01*
X-33912Y762948D01*
X-33603Y763034D01*
X-33297Y763127D01*
X-32994Y763227D01*
X-32693Y763334D01*
X-32394Y763449D01*
X-32098Y763571D01*
X-31806Y763700D01*
X-31516Y763835D01*
X-31408Y763874D01*
X-31301Y763916D01*
X-31195Y763963D01*
X-31091Y764012D01*
X-30989Y764066D01*
X-30889Y764123D01*
X-30791Y764183D01*
X-30695Y764246D01*
X-30601Y764313D01*
X-30510Y764383D01*
X-30421Y764457D01*
X-30335Y764533D01*
X-30251Y764612D01*
X-30170Y764694D01*
X-30092Y764779D01*
X-30017Y764866D01*
X-29945Y764956D01*
X-29876Y765048D01*
X-29811Y765143D01*
X-29748Y765239D01*
X-29689Y765338D01*
X-29634Y765439D01*
X-29582Y765542D01*
X-29533Y765646D01*
X-29489Y765753D01*
X-29447Y765860D01*
X-29410Y765969D01*
X-29376Y766079D01*
X-29347Y766190D01*
X-29321Y766303D01*
X-29299Y766416D01*
X-29280Y766529D01*
X-29266Y766644D01*
X-29256Y766758D01*
X-29249Y766873D01*
X-29247Y766988D01*
X-31495Y770157D02*
X-31784Y770295D01*
X-32075Y770425D01*
X-32370Y770549D01*
X-32668Y770666D01*
X-32968Y770775D01*
X-33271Y770878D01*
X-33577Y770973D01*
X-33884Y771061D01*
X-34194Y771141D01*
X-34505Y771214D01*
X-34818Y771279D01*
X-35133Y771338D01*
X-35448Y771388D01*
X-35765Y771431D01*
X-36083Y771466D01*
X-36402Y771494D01*
X-36721Y771514D01*
X-37040Y771527D01*
X-37360Y771532D01*
X-31494Y770158D02*
X-31386Y770118D01*
X-31279Y770075D01*
X-31174Y770028D01*
X-31071Y769977D01*
X-30969Y769923D01*
X-30869Y769866D01*
X-30772Y769805D01*
X-30676Y769740D01*
X-30583Y769673D01*
X-30492Y769602D01*
X-30403Y769528D01*
X-30318Y769451D01*
X-30234Y769372D01*
X-30154Y769289D01*
X-30077Y769204D01*
X-30002Y769116D01*
X-29931Y769026D01*
X-29863Y768933D01*
X-29798Y768838D01*
X-29736Y768741D01*
X-29678Y768641D01*
X-29623Y768540D01*
X-29572Y768437D01*
X-29524Y768332D01*
X-29480Y768226D01*
X-29440Y768118D01*
X-29403Y768009D01*
X-29370Y767898D01*
X-29341Y767787D01*
X-29316Y767675D01*
X-29294Y767561D01*
X-29277Y767448D01*
X-29264Y767333D01*
X-29254Y767218D01*
X-29249Y767103D01*
X-29247Y766988D01*
X-32873Y763388D02*
X-41878Y770645D01*
X-29209Y778104D02*
X-29193Y782619D01*
X-29192Y782619D02*
X-29194Y782752D01*
X-29199Y782884D01*
X-29208Y783017D01*
X-29221Y783148D01*
X-29238Y783280D01*
X-29259Y783411D01*
X-29284Y783541D01*
X-29312Y783671D01*
X-29345Y783799D01*
X-29381Y783927D01*
X-29421Y784053D01*
X-29464Y784179D01*
X-29511Y784303D01*
X-29562Y784425D01*
X-29616Y784546D01*
X-29674Y784665D01*
X-29735Y784783D01*
X-29800Y784898D01*
X-29868Y785012D01*
X-29940Y785124D01*
X-30014Y785233D01*
X-30092Y785341D01*
X-30173Y785446D01*
X-30257Y785548D01*
X-30344Y785648D01*
X-30434Y785746D01*
X-30527Y785841D01*
X-30622Y785933D01*
X-30721Y786022D01*
X-30821Y786108D01*
X-30925Y786191D01*
X-31030Y786271D01*
X-31138Y786348D01*
X-31248Y786422D01*
X-31360Y786493D01*
X-31475Y786560D01*
X-31591Y786624D01*
X-31709Y786684D01*
X-31829Y786741D01*
X-31950Y786795D01*
X-32073Y786845D01*
X-32197Y786891D01*
X-32323Y786933D01*
X-32449Y786972D01*
X-32577Y787007D01*
X-32706Y787038D01*
X-32836Y787066D01*
X-32966Y787090D01*
X-33097Y787110D01*
X-33229Y787126D01*
X-33361Y787138D01*
X-33493Y787146D01*
X-33626Y787150D01*
X-33759Y787151D01*
X-33891Y787147D01*
X-34023Y787140D01*
X-34156Y787129D01*
X-34287Y787114D01*
X-34419Y787095D01*
X-34549Y787072D01*
X-34679Y787045D01*
X-34808Y787015D01*
X-34936Y786981D01*
X-35063Y786943D01*
X-35189Y786901D01*
X-35314Y786856D01*
X-35437Y786807D01*
X-35559Y786754D01*
X-35679Y786698D01*
X-35797Y786639D01*
X-35914Y786576D01*
X-36029Y786509D01*
X-36141Y786439D01*
X-36252Y786366D01*
X-36360Y786290D01*
X-36467Y786211D01*
X-36570Y786128D01*
X-36672Y786042D01*
X-36770Y785954D01*
X-36867Y785863D01*
X-36960Y785769D01*
X-37051Y785672D01*
X-37138Y785572D01*
X-37223Y785470D01*
X-37305Y785366D01*
X-37383Y785259D01*
X-37459Y785150D01*
X-37531Y785039D01*
X-37600Y784926D01*
X-37665Y784810D01*
X-37728Y784693D01*
X-37786Y784574D01*
X-37842Y784454D01*
X-37893Y784332D01*
X-37941Y784208D01*
X-37985Y784083D01*
X-38026Y783957D01*
X-38063Y783830D01*
X-38096Y783701D01*
X-38126Y783572D01*
X-38151Y783442D01*
X-38173Y783311D01*
X-38191Y783180D01*
X-38205Y783048D01*
X-38215Y782916D01*
X-38222Y782783D01*
X-38224Y782651D01*
X-45446Y783579D02*
X-45465Y778160D01*
X-45445Y783579D02*
X-45443Y783698D01*
X-45436Y783817D01*
X-45426Y783936D01*
X-45412Y784055D01*
X-45394Y784173D01*
X-45372Y784290D01*
X-45346Y784407D01*
X-45316Y784523D01*
X-45282Y784637D01*
X-45245Y784751D01*
X-45204Y784863D01*
X-45159Y784974D01*
X-45111Y785083D01*
X-45059Y785190D01*
X-45004Y785296D01*
X-44945Y785400D01*
X-44882Y785502D01*
X-44817Y785602D01*
X-44748Y785699D01*
X-44676Y785794D01*
X-44600Y785887D01*
X-44522Y785977D01*
X-44441Y786065D01*
X-44357Y786150D01*
X-44270Y786232D01*
X-44181Y786311D01*
X-44089Y786387D01*
X-43994Y786460D01*
X-43897Y786530D01*
X-43798Y786597D01*
X-43697Y786660D01*
X-43593Y786720D01*
X-43488Y786776D01*
X-43381Y786829D01*
X-43272Y786879D01*
X-43162Y786925D01*
X-43050Y786967D01*
X-42937Y787005D01*
X-42823Y787040D01*
X-42707Y787071D01*
X-42591Y787098D01*
X-42474Y787121D01*
X-42356Y787140D01*
X-42238Y787155D01*
X-42119Y787167D01*
X-42000Y787174D01*
X-41880Y787178D01*
X-41761Y787177D01*
X-41641Y787173D01*
X-41522Y787165D01*
X-41403Y787152D01*
X-41285Y787136D01*
X-41167Y787116D01*
X-41050Y787092D01*
X-40934Y787064D01*
X-40819Y787033D01*
X-40705Y786997D01*
X-40592Y786958D01*
X-40481Y786915D01*
X-40371Y786869D01*
X-40262Y786819D01*
X-40155Y786765D01*
X-40051Y786708D01*
X-39948Y786647D01*
X-39847Y786583D01*
X-39748Y786516D01*
X-39652Y786445D01*
X-39558Y786371D01*
X-39466Y786295D01*
X-39377Y786215D01*
X-39291Y786132D01*
X-39208Y786047D01*
X-39127Y785959D01*
X-39049Y785868D01*
X-38975Y785775D01*
X-38903Y785679D01*
X-38835Y785581D01*
X-38770Y785481D01*
X-38709Y785378D01*
X-38650Y785274D01*
X-38596Y785168D01*
X-38544Y785060D01*
X-38497Y784950D01*
X-38453Y784839D01*
X-38413Y784727D01*
X-38376Y784613D01*
X-38343Y784498D01*
X-38314Y784382D01*
X-38289Y784266D01*
X-38268Y784148D01*
X-38251Y784030D01*
X-38238Y783911D01*
X-38228Y783792D01*
X-38223Y783673D01*
X-38221Y783553D01*
X-38221Y783554D02*
X-38233Y779941D01*
D11*
X-42472Y125D02*
X-60Y0D01*
X0Y20320D02*
X-42412Y20445D01*
X-22974Y-582D02*
X-23126Y-51932D01*
X-22910Y21038D02*
X-22689Y96015D01*
X-22974Y-582D02*
X-26241Y-25923D01*
X-19857Y-25942D01*
X-22974Y-582D01*
X-24349Y-25928D01*
X-21749Y-25936D02*
X-22974Y-582D01*
X-25649Y-25925D01*
X-20449Y-25940D02*
X-22974Y-582D01*
X-22910Y21038D02*
X-26028Y46397D01*
X-19643Y46378D01*
X-22910Y21038D01*
X-24136Y46391D01*
X-21536Y46384D02*
X-22910Y21038D01*
X-25436Y46395D01*
X-20236Y46380D02*
X-22910Y21038D01*
D12*
X-45578Y52193D02*
X-45576Y52318D01*
X-45569Y52443D01*
X-45559Y52568D01*
X-45545Y52692D01*
X-45528Y52816D01*
X-45506Y52940D01*
X-45481Y53062D01*
X-45452Y53184D01*
X-45419Y53305D01*
X-45382Y53424D01*
X-45342Y53543D01*
X-45298Y53660D01*
X-45251Y53776D01*
X-45200Y53890D01*
X-45146Y54003D01*
X-45088Y54114D01*
X-45026Y54223D01*
X-44962Y54330D01*
X-44894Y54436D01*
X-44823Y54539D01*
X-44749Y54639D01*
X-44671Y54738D01*
X-44591Y54834D01*
X-44508Y54927D01*
X-44422Y55018D01*
X-44333Y55106D01*
X-44241Y55192D01*
X-44147Y55274D01*
X-44051Y55354D01*
X-43952Y55431D01*
X-43850Y55504D01*
X-43747Y55575D01*
X-43641Y55642D01*
X-43534Y55706D01*
X-43424Y55766D01*
X-43313Y55823D01*
X-43200Y55877D01*
X-43085Y55927D01*
X-42969Y55974D01*
X-42851Y56017D01*
X-42732Y56056D01*
X-42612Y56092D01*
X-42491Y56124D01*
X-42370Y56152D01*
X-42247Y56176D01*
X-42123Y56197D01*
X-41999Y56214D01*
X-41875Y56227D01*
X-41750Y56236D01*
X-41625Y56241D01*
X-41500Y56243D01*
X-45578Y52193D02*
X-45577Y52050D01*
X-45571Y51908D01*
X-45562Y51765D01*
X-45549Y51623D01*
X-45532Y51482D01*
X-45511Y51340D01*
X-45486Y51200D01*
X-45458Y51060D01*
X-45425Y50921D01*
X-45389Y50783D01*
X-45349Y50646D01*
X-45305Y50510D01*
X-45258Y50375D01*
X-45207Y50242D01*
X-45152Y50110D01*
X-45094Y49980D01*
X-45032Y49851D01*
X-44967Y49724D01*
X-44898Y49599D01*
X-44826Y49476D01*
X-44751Y49355D01*
X-44672Y49236D01*
X-44590Y49119D01*
X-44505Y49004D01*
X-44417Y48892D01*
X-44325Y48782D01*
X-44231Y48675D01*
X-44134Y48571D01*
X-44034Y48469D01*
X-43932Y48370D01*
X-43826Y48273D01*
X-43718Y48180D01*
X-43608Y48089D01*
X-43495Y48002D01*
X-43380Y47918D01*
X-43262Y47837D01*
X-43142Y47759D01*
X-43021Y47685D01*
X-42897Y47613D01*
X-42771Y47546D01*
X-42644Y47481D01*
X-42515Y47421D01*
X-42384Y47364D01*
X-42252Y47310D01*
X-42118Y47260D01*
X-41983Y47214D01*
X-38344Y54877D02*
X-38435Y54971D01*
X-38529Y55062D01*
X-38626Y55150D01*
X-38725Y55235D01*
X-38827Y55317D01*
X-38932Y55396D01*
X-39038Y55472D01*
X-39147Y55545D01*
X-39258Y55614D01*
X-39371Y55680D01*
X-39486Y55743D01*
X-39603Y55802D01*
X-39722Y55858D01*
X-39842Y55910D01*
X-39964Y55958D01*
X-40087Y56003D01*
X-40211Y56044D01*
X-40336Y56081D01*
X-40463Y56114D01*
X-40590Y56144D01*
X-40719Y56170D01*
X-40848Y56192D01*
X-40978Y56210D01*
X-41108Y56224D01*
X-41238Y56234D01*
X-41369Y56241D01*
X-41500Y56243D01*
X-38344Y54877D02*
X-29340Y47169D01*
X-29308Y56200D01*
X-29287Y62175D02*
X-30190Y62178D01*
X-30187Y63081D01*
X-29284Y63078D01*
X-29287Y62175D01*
X-37391Y69081D02*
X-37711Y69086D01*
X-38031Y69099D01*
X-38350Y69119D01*
X-38668Y69147D01*
X-38986Y69182D01*
X-39303Y69225D01*
X-39619Y69275D01*
X-39933Y69333D01*
X-40246Y69399D01*
X-40558Y69472D01*
X-40867Y69552D01*
X-41175Y69640D01*
X-41480Y69735D01*
X-41783Y69838D01*
X-42084Y69947D01*
X-42381Y70064D01*
X-42676Y70188D01*
X-42968Y70319D01*
X-43257Y70456D01*
X-43365Y70496D01*
X-43471Y70539D01*
X-43576Y70586D01*
X-43680Y70637D01*
X-43782Y70691D01*
X-43881Y70748D01*
X-43979Y70809D01*
X-44074Y70873D01*
X-44168Y70941D01*
X-44259Y71012D01*
X-44347Y71085D01*
X-44433Y71162D01*
X-44516Y71242D01*
X-44596Y71324D01*
X-44673Y71410D01*
X-44748Y71497D01*
X-44819Y71588D01*
X-44887Y71681D01*
X-44952Y71776D01*
X-45014Y71873D01*
X-45072Y71972D01*
X-45127Y72073D01*
X-45178Y72176D01*
X-45226Y72281D01*
X-45270Y72388D01*
X-45311Y72495D01*
X-45347Y72605D01*
X-45380Y72715D01*
X-45409Y72826D01*
X-45434Y72939D01*
X-45456Y73052D01*
X-45473Y73166D01*
X-45486Y73280D01*
X-45496Y73395D01*
X-45501Y73510D01*
X-45503Y73625D01*
X-45504Y73625D02*
X-45502Y73740D01*
X-45495Y73855D01*
X-45485Y73969D01*
X-45471Y74084D01*
X-45452Y74197D01*
X-45430Y74310D01*
X-45404Y74423D01*
X-45375Y74534D01*
X-45341Y74644D01*
X-45304Y74753D01*
X-45262Y74860D01*
X-45218Y74967D01*
X-45169Y75071D01*
X-45117Y75174D01*
X-45062Y75275D01*
X-45003Y75374D01*
X-44940Y75470D01*
X-44875Y75565D01*
X-44806Y75657D01*
X-44734Y75747D01*
X-44659Y75834D01*
X-44581Y75919D01*
X-44500Y76001D01*
X-44416Y76080D01*
X-44330Y76156D01*
X-44241Y76230D01*
X-44150Y76300D01*
X-44056Y76367D01*
X-43960Y76430D01*
X-43862Y76490D01*
X-43762Y76547D01*
X-43660Y76601D01*
X-43556Y76651D01*
X-43450Y76697D01*
X-43343Y76739D01*
X-43235Y76778D01*
X-42946Y76913D01*
X-42653Y77042D01*
X-42357Y77164D01*
X-42058Y77279D01*
X-41757Y77386D01*
X-41454Y77486D01*
X-41148Y77579D01*
X-40839Y77665D01*
X-40529Y77743D01*
X-40217Y77814D01*
X-39904Y77877D01*
X-39589Y77933D01*
X-39273Y77981D01*
X-38956Y78022D01*
X-38638Y78055D01*
X-38319Y78081D01*
X-38000Y78099D01*
X-37680Y78109D01*
X-37360Y78112D01*
X-37391Y69081D02*
X-37071Y69084D01*
X-36751Y69094D01*
X-36432Y69112D01*
X-36113Y69138D01*
X-35795Y69171D01*
X-35478Y69212D01*
X-35162Y69260D01*
X-34847Y69316D01*
X-34534Y69379D01*
X-34222Y69450D01*
X-33912Y69528D01*
X-33603Y69614D01*
X-33297Y69707D01*
X-32994Y69807D01*
X-32693Y69914D01*
X-32394Y70029D01*
X-32098Y70151D01*
X-31806Y70280D01*
X-31516Y70415D01*
X-31408Y70454D01*
X-31301Y70496D01*
X-31195Y70543D01*
X-31091Y70592D01*
X-30989Y70646D01*
X-30889Y70703D01*
X-30791Y70763D01*
X-30695Y70826D01*
X-30601Y70893D01*
X-30510Y70963D01*
X-30421Y71037D01*
X-30335Y71113D01*
X-30251Y71192D01*
X-30170Y71274D01*
X-30092Y71359D01*
X-30017Y71446D01*
X-29945Y71536D01*
X-29876Y71628D01*
X-29811Y71723D01*
X-29748Y71819D01*
X-29689Y71918D01*
X-29634Y72019D01*
X-29582Y72122D01*
X-29533Y72226D01*
X-29489Y72333D01*
X-29447Y72440D01*
X-29410Y72549D01*
X-29376Y72659D01*
X-29347Y72770D01*
X-29321Y72883D01*
X-29299Y72996D01*
X-29280Y73109D01*
X-29266Y73224D01*
X-29256Y73338D01*
X-29249Y73453D01*
X-29247Y73568D01*
X-31495Y76737D02*
X-31784Y76875D01*
X-32075Y77005D01*
X-32370Y77129D01*
X-32668Y77246D01*
X-32968Y77355D01*
X-33271Y77458D01*
X-33577Y77553D01*
X-33884Y77641D01*
X-34194Y77721D01*
X-34505Y77794D01*
X-34818Y77859D01*
X-35133Y77918D01*
X-35448Y77968D01*
X-35765Y78011D01*
X-36083Y78046D01*
X-36402Y78074D01*
X-36721Y78094D01*
X-37040Y78107D01*
X-37360Y78112D01*
X-31494Y76738D02*
X-31386Y76698D01*
X-31279Y76655D01*
X-31174Y76608D01*
X-31071Y76557D01*
X-30969Y76503D01*
X-30869Y76446D01*
X-30772Y76385D01*
X-30676Y76320D01*
X-30583Y76253D01*
X-30492Y76182D01*
X-30403Y76108D01*
X-30318Y76031D01*
X-30234Y75952D01*
X-30154Y75869D01*
X-30077Y75784D01*
X-30002Y75696D01*
X-29931Y75606D01*
X-29863Y75513D01*
X-29798Y75418D01*
X-29736Y75321D01*
X-29678Y75221D01*
X-29623Y75120D01*
X-29572Y75017D01*
X-29524Y74912D01*
X-29480Y74806D01*
X-29440Y74698D01*
X-29403Y74589D01*
X-29370Y74478D01*
X-29341Y74367D01*
X-29316Y74255D01*
X-29294Y74141D01*
X-29277Y74028D01*
X-29264Y73913D01*
X-29254Y73798D01*
X-29249Y73683D01*
X-29247Y73568D01*
X-32873Y69968D02*
X-41878Y77225D01*
X-29209Y84684D02*
X-29193Y89199D01*
X-29192Y89199D02*
X-29194Y89332D01*
X-29199Y89464D01*
X-29208Y89597D01*
X-29221Y89728D01*
X-29238Y89860D01*
X-29259Y89991D01*
X-29284Y90121D01*
X-29312Y90251D01*
X-29345Y90379D01*
X-29381Y90507D01*
X-29421Y90633D01*
X-29464Y90759D01*
X-29511Y90883D01*
X-29562Y91005D01*
X-29616Y91126D01*
X-29674Y91245D01*
X-29735Y91363D01*
X-29800Y91478D01*
X-29868Y91592D01*
X-29940Y91704D01*
X-30014Y91813D01*
X-30092Y91921D01*
X-30173Y92026D01*
X-30257Y92128D01*
X-30344Y92228D01*
X-30434Y92326D01*
X-30527Y92421D01*
X-30622Y92513D01*
X-30721Y92602D01*
X-30821Y92688D01*
X-30925Y92771D01*
X-31030Y92851D01*
X-31138Y92928D01*
X-31248Y93002D01*
X-31360Y93073D01*
X-31475Y93140D01*
X-31591Y93204D01*
X-31709Y93264D01*
X-31829Y93321D01*
X-31950Y93375D01*
X-32073Y93425D01*
X-32197Y93471D01*
X-32323Y93513D01*
X-32449Y93552D01*
X-32577Y93587D01*
X-32706Y93618D01*
X-32836Y93646D01*
X-32966Y93670D01*
X-33097Y93690D01*
X-33229Y93706D01*
X-33361Y93718D01*
X-33493Y93726D01*
X-33626Y93730D01*
X-33759Y93731D01*
X-33891Y93727D01*
X-34023Y93720D01*
X-34156Y93709D01*
X-34287Y93694D01*
X-34419Y93675D01*
X-34549Y93652D01*
X-34679Y93625D01*
X-34808Y93595D01*
X-34936Y93561D01*
X-35063Y93523D01*
X-35189Y93481D01*
X-35314Y93436D01*
X-35437Y93387D01*
X-35559Y93334D01*
X-35679Y93278D01*
X-35797Y93219D01*
X-35914Y93156D01*
X-36029Y93089D01*
X-36141Y93019D01*
X-36252Y92946D01*
X-36360Y92870D01*
X-36467Y92791D01*
X-36570Y92708D01*
X-36672Y92622D01*
X-36770Y92534D01*
X-36867Y92443D01*
X-36960Y92349D01*
X-37051Y92252D01*
X-37138Y92152D01*
X-37223Y92050D01*
X-37305Y91946D01*
X-37383Y91839D01*
X-37459Y91730D01*
X-37531Y91619D01*
X-37600Y91506D01*
X-37665Y91390D01*
X-37728Y91273D01*
X-37786Y91154D01*
X-37842Y91034D01*
X-37893Y90912D01*
X-37941Y90788D01*
X-37985Y90663D01*
X-38026Y90537D01*
X-38063Y90410D01*
X-38096Y90281D01*
X-38126Y90152D01*
X-38151Y90022D01*
X-38173Y89891D01*
X-38191Y89760D01*
X-38205Y89628D01*
X-38215Y89496D01*
X-38222Y89363D01*
X-38224Y89231D01*
X-45446Y90159D02*
X-45465Y84740D01*
X-45445Y90159D02*
X-45443Y90278D01*
X-45436Y90397D01*
X-45426Y90516D01*
X-45412Y90635D01*
X-45394Y90753D01*
X-45372Y90870D01*
X-45346Y90987D01*
X-45316Y91103D01*
X-45282Y91217D01*
X-45245Y91331D01*
X-45204Y91443D01*
X-45159Y91554D01*
X-45111Y91663D01*
X-45059Y91770D01*
X-45004Y91876D01*
X-44945Y91980D01*
X-44882Y92082D01*
X-44817Y92182D01*
X-44748Y92279D01*
X-44676Y92374D01*
X-44600Y92467D01*
X-44522Y92557D01*
X-44441Y92645D01*
X-44357Y92730D01*
X-44270Y92812D01*
X-44181Y92891D01*
X-44089Y92967D01*
X-43994Y93040D01*
X-43897Y93110D01*
X-43798Y93177D01*
X-43697Y93240D01*
X-43593Y93300D01*
X-43488Y93356D01*
X-43381Y93409D01*
X-43272Y93459D01*
X-43162Y93505D01*
X-43050Y93547D01*
X-42937Y93585D01*
X-42823Y93620D01*
X-42707Y93651D01*
X-42591Y93678D01*
X-42474Y93701D01*
X-42356Y93720D01*
X-42238Y93735D01*
X-42119Y93747D01*
X-42000Y93754D01*
X-41880Y93758D01*
X-41761Y93757D01*
X-41641Y93753D01*
X-41522Y93745D01*
X-41403Y93732D01*
X-41285Y93716D01*
X-41167Y93696D01*
X-41050Y93672D01*
X-40934Y93644D01*
X-40819Y93613D01*
X-40705Y93577D01*
X-40592Y93538D01*
X-40481Y93495D01*
X-40371Y93449D01*
X-40262Y93399D01*
X-40155Y93345D01*
X-40051Y93288D01*
X-39948Y93227D01*
X-39847Y93163D01*
X-39748Y93096D01*
X-39652Y93025D01*
X-39558Y92951D01*
X-39466Y92875D01*
X-39377Y92795D01*
X-39291Y92712D01*
X-39208Y92627D01*
X-39127Y92539D01*
X-39049Y92448D01*
X-38975Y92355D01*
X-38903Y92259D01*
X-38835Y92161D01*
X-38770Y92061D01*
X-38709Y91958D01*
X-38650Y91854D01*
X-38596Y91748D01*
X-38544Y91640D01*
X-38497Y91530D01*
X-38453Y91419D01*
X-38413Y91307D01*
X-38376Y91193D01*
X-38343Y91078D01*
X-38314Y90962D01*
X-38289Y90846D01*
X-38268Y90728D01*
X-38251Y90610D01*
X-38238Y90491D01*
X-38228Y90372D01*
X-38223Y90253D01*
X-38221Y90133D01*
X-38221Y90134D02*
X-38233Y86521D01*
D11*
X20320Y-60D02*
X20195Y-42472D01*
X-125Y-42412D02*
X0Y0D01*
X-718Y-22910D02*
X-52067Y-22759D01*
X20902Y-22974D02*
X95880Y-23196D01*
X46262Y-19857D02*
X20902Y-22974D01*
X46262Y-19857D02*
X46243Y-26241D01*
X20902Y-22974D01*
X46256Y-21749D01*
X46248Y-24349D02*
X20902Y-22974D01*
X46260Y-20449D01*
X46245Y-25649D02*
X20902Y-22974D01*
X-718Y-22910D02*
X-26058Y-19643D01*
X-26077Y-26028D01*
X-718Y-22910D01*
X-26064Y-21536D01*
X-26071Y-24136D02*
X-718Y-22910D01*
X-26060Y-20236D01*
X-26075Y-25436D02*
X-718Y-22910D01*
D12*
X52057Y-306D02*
X52182Y-308D01*
X52307Y-315D01*
X52432Y-325D01*
X52556Y-339D01*
X52680Y-356D01*
X52804Y-378D01*
X52926Y-403D01*
X53048Y-432D01*
X53169Y-465D01*
X53288Y-502D01*
X53407Y-542D01*
X53524Y-586D01*
X53640Y-633D01*
X53754Y-684D01*
X53867Y-738D01*
X53978Y-796D01*
X54087Y-858D01*
X54194Y-922D01*
X54300Y-990D01*
X54403Y-1061D01*
X54503Y-1135D01*
X54602Y-1213D01*
X54698Y-1293D01*
X54791Y-1376D01*
X54882Y-1462D01*
X54970Y-1551D01*
X55056Y-1643D01*
X55138Y-1737D01*
X55218Y-1833D01*
X55295Y-1932D01*
X55368Y-2034D01*
X55439Y-2137D01*
X55506Y-2243D01*
X55570Y-2350D01*
X55630Y-2460D01*
X55687Y-2571D01*
X55741Y-2684D01*
X55791Y-2799D01*
X55838Y-2915D01*
X55881Y-3033D01*
X55920Y-3152D01*
X55956Y-3272D01*
X55988Y-3393D01*
X56016Y-3514D01*
X56040Y-3637D01*
X56061Y-3761D01*
X56078Y-3885D01*
X56091Y-4009D01*
X56100Y-4134D01*
X56105Y-4259D01*
X56107Y-4384D01*
X52057Y-306D02*
X51914Y-307D01*
X51772Y-313D01*
X51629Y-322D01*
X51487Y-335D01*
X51346Y-352D01*
X51204Y-373D01*
X51064Y-398D01*
X50924Y-426D01*
X50785Y-459D01*
X50647Y-495D01*
X50510Y-535D01*
X50374Y-579D01*
X50239Y-626D01*
X50106Y-677D01*
X49974Y-732D01*
X49844Y-790D01*
X49715Y-852D01*
X49588Y-917D01*
X49463Y-986D01*
X49340Y-1058D01*
X49219Y-1133D01*
X49100Y-1212D01*
X48983Y-1294D01*
X48868Y-1379D01*
X48756Y-1467D01*
X48646Y-1559D01*
X48539Y-1653D01*
X48435Y-1750D01*
X48333Y-1850D01*
X48234Y-1952D01*
X48137Y-2058D01*
X48044Y-2166D01*
X47953Y-2276D01*
X47866Y-2389D01*
X47782Y-2504D01*
X47701Y-2622D01*
X47623Y-2742D01*
X47549Y-2863D01*
X47477Y-2987D01*
X47410Y-3113D01*
X47345Y-3240D01*
X47285Y-3369D01*
X47228Y-3500D01*
X47174Y-3632D01*
X47124Y-3766D01*
X47078Y-3901D01*
X54742Y-7540D02*
X54836Y-7449D01*
X54927Y-7355D01*
X55015Y-7258D01*
X55100Y-7159D01*
X55182Y-7057D01*
X55261Y-6952D01*
X55337Y-6846D01*
X55410Y-6737D01*
X55479Y-6626D01*
X55545Y-6513D01*
X55608Y-6398D01*
X55667Y-6281D01*
X55723Y-6162D01*
X55775Y-6042D01*
X55823Y-5921D01*
X55868Y-5797D01*
X55909Y-5673D01*
X55946Y-5548D01*
X55979Y-5421D01*
X56009Y-5294D01*
X56035Y-5165D01*
X56057Y-5036D01*
X56075Y-4906D01*
X56089Y-4776D01*
X56099Y-4646D01*
X56106Y-4515D01*
X56108Y-4384D01*
X54742Y-7540D02*
X47034Y-16545D01*
X56065Y-16576D01*
X62040Y-16597D02*
X62043Y-15694D01*
X62946Y-15697D01*
X62943Y-16600D01*
X62040Y-16597D01*
X68946Y-8493D02*
X68951Y-8173D01*
X68964Y-7853D01*
X68984Y-7534D01*
X69012Y-7216D01*
X69047Y-6898D01*
X69090Y-6581D01*
X69140Y-6265D01*
X69198Y-5951D01*
X69264Y-5638D01*
X69337Y-5326D01*
X69417Y-5017D01*
X69505Y-4709D01*
X69600Y-4404D01*
X69703Y-4101D01*
X69812Y-3800D01*
X69929Y-3503D01*
X70053Y-3208D01*
X70184Y-2916D01*
X70321Y-2627D01*
X70361Y-2519D01*
X70404Y-2413D01*
X70451Y-2308D01*
X70502Y-2204D01*
X70556Y-2102D01*
X70613Y-2003D01*
X70674Y-1905D01*
X70738Y-1810D01*
X70806Y-1716D01*
X70877Y-1625D01*
X70950Y-1537D01*
X71027Y-1451D01*
X71107Y-1368D01*
X71189Y-1288D01*
X71275Y-1211D01*
X71362Y-1136D01*
X71453Y-1065D01*
X71546Y-997D01*
X71641Y-932D01*
X71738Y-870D01*
X71837Y-812D01*
X71938Y-757D01*
X72041Y-706D01*
X72146Y-658D01*
X72253Y-614D01*
X72360Y-573D01*
X72470Y-537D01*
X72580Y-504D01*
X72691Y-475D01*
X72804Y-450D01*
X72917Y-428D01*
X73031Y-411D01*
X73145Y-398D01*
X73260Y-388D01*
X73375Y-383D01*
X73490Y-381D01*
X73490Y-380D02*
X73605Y-382D01*
X73720Y-389D01*
X73834Y-399D01*
X73949Y-413D01*
X74062Y-432D01*
X74175Y-454D01*
X74288Y-480D01*
X74399Y-509D01*
X74509Y-543D01*
X74618Y-580D01*
X74725Y-622D01*
X74832Y-666D01*
X74936Y-715D01*
X75039Y-767D01*
X75140Y-822D01*
X75239Y-881D01*
X75335Y-944D01*
X75430Y-1009D01*
X75522Y-1078D01*
X75612Y-1150D01*
X75699Y-1225D01*
X75784Y-1303D01*
X75866Y-1384D01*
X75945Y-1468D01*
X76021Y-1554D01*
X76095Y-1643D01*
X76165Y-1734D01*
X76232Y-1828D01*
X76295Y-1924D01*
X76355Y-2022D01*
X76412Y-2122D01*
X76466Y-2224D01*
X76516Y-2328D01*
X76562Y-2434D01*
X76604Y-2541D01*
X76643Y-2649D01*
X76643Y-2650D02*
X76778Y-2940D01*
X76907Y-3232D01*
X77029Y-3528D01*
X77144Y-3827D01*
X77251Y-4128D01*
X77351Y-4431D01*
X77444Y-4737D01*
X77530Y-5046D01*
X77608Y-5356D01*
X77679Y-5668D01*
X77742Y-5981D01*
X77798Y-6296D01*
X77846Y-6612D01*
X77887Y-6929D01*
X77920Y-7247D01*
X77946Y-7566D01*
X77964Y-7885D01*
X77974Y-8205D01*
X77977Y-8525D01*
X68946Y-8493D02*
X68949Y-8813D01*
X68959Y-9133D01*
X68977Y-9452D01*
X69003Y-9771D01*
X69036Y-10089D01*
X69077Y-10406D01*
X69125Y-10722D01*
X69181Y-11037D01*
X69244Y-11350D01*
X69315Y-11662D01*
X69393Y-11972D01*
X69479Y-12281D01*
X69572Y-12587D01*
X69672Y-12890D01*
X69779Y-13191D01*
X69894Y-13490D01*
X70016Y-13786D01*
X70145Y-14078D01*
X70280Y-14368D01*
X70279Y-14368D02*
X70318Y-14476D01*
X70360Y-14583D01*
X70407Y-14689D01*
X70456Y-14793D01*
X70510Y-14895D01*
X70567Y-14995D01*
X70627Y-15093D01*
X70690Y-15189D01*
X70757Y-15283D01*
X70827Y-15374D01*
X70901Y-15463D01*
X70977Y-15549D01*
X71056Y-15633D01*
X71138Y-15714D01*
X71223Y-15792D01*
X71310Y-15867D01*
X71400Y-15939D01*
X71492Y-16008D01*
X71587Y-16073D01*
X71683Y-16136D01*
X71782Y-16195D01*
X71883Y-16250D01*
X71986Y-16302D01*
X72090Y-16351D01*
X72197Y-16395D01*
X72304Y-16437D01*
X72413Y-16474D01*
X72523Y-16508D01*
X72634Y-16537D01*
X72747Y-16563D01*
X72860Y-16585D01*
X72973Y-16604D01*
X73088Y-16618D01*
X73202Y-16628D01*
X73317Y-16635D01*
X73432Y-16637D01*
X76601Y-14390D02*
X76738Y-14102D01*
X76869Y-13810D01*
X76993Y-13515D01*
X77110Y-13217D01*
X77219Y-12917D01*
X77322Y-12614D01*
X77417Y-12308D01*
X77505Y-12001D01*
X77585Y-11691D01*
X77658Y-11380D01*
X77723Y-11067D01*
X77782Y-10752D01*
X77832Y-10437D01*
X77875Y-10120D01*
X77910Y-9802D01*
X77938Y-9483D01*
X77958Y-9164D01*
X77971Y-8845D01*
X77976Y-8525D01*
X76602Y-14390D02*
X76562Y-14498D01*
X76519Y-14605D01*
X76472Y-14710D01*
X76421Y-14813D01*
X76367Y-14915D01*
X76310Y-15015D01*
X76249Y-15113D01*
X76184Y-15208D01*
X76117Y-15301D01*
X76046Y-15392D01*
X75972Y-15481D01*
X75895Y-15566D01*
X75816Y-15650D01*
X75733Y-15730D01*
X75648Y-15807D01*
X75560Y-15882D01*
X75470Y-15953D01*
X75377Y-16021D01*
X75282Y-16086D01*
X75185Y-16148D01*
X75085Y-16206D01*
X74984Y-16261D01*
X74881Y-16312D01*
X74776Y-16360D01*
X74670Y-16404D01*
X74562Y-16444D01*
X74453Y-16481D01*
X74342Y-16514D01*
X74231Y-16543D01*
X74119Y-16568D01*
X74005Y-16590D01*
X73892Y-16607D01*
X73777Y-16620D01*
X73662Y-16630D01*
X73547Y-16635D01*
X73432Y-16637D01*
X69833Y-13012D02*
X77089Y-4006D01*
X84548Y-16676D02*
X89064Y-16691D01*
X89064Y-16692D02*
X89198Y-16690D01*
X89332Y-16685D01*
X89465Y-16676D01*
X89598Y-16662D01*
X89731Y-16645D01*
X89863Y-16624D01*
X89995Y-16598D01*
X90125Y-16569D01*
X90255Y-16536D01*
X90384Y-16500D01*
X90511Y-16459D01*
X90638Y-16415D01*
X90763Y-16367D01*
X90886Y-16315D01*
X91008Y-16260D01*
X91128Y-16201D01*
X91246Y-16138D01*
X91363Y-16072D01*
X91477Y-16003D01*
X91590Y-15930D01*
X91700Y-15854D01*
X91808Y-15775D01*
X91913Y-15693D01*
X92016Y-15607D01*
X92117Y-15519D01*
X92214Y-15427D01*
X92309Y-15333D01*
X92401Y-15236D01*
X92491Y-15136D01*
X92577Y-15034D01*
X92660Y-14929D01*
X92740Y-14822D01*
X92817Y-14712D01*
X92890Y-14600D01*
X92960Y-14486D01*
X93027Y-14370D01*
X93090Y-14252D01*
X93150Y-14132D01*
X93206Y-14011D01*
X93259Y-13888D01*
X93308Y-13763D01*
X93353Y-13637D01*
X93394Y-13510D01*
X93432Y-13382D01*
X93466Y-13252D01*
X93496Y-13122D01*
X93522Y-12990D01*
X93544Y-12858D01*
X93562Y-12726D01*
X93577Y-12593D01*
X93587Y-12459D01*
X93594Y-12326D01*
X93596Y-12192D01*
X93594Y-12058D01*
X93589Y-11924D01*
X93580Y-11791D01*
X93566Y-11658D01*
X93549Y-11525D01*
X93528Y-11393D01*
X93502Y-11261D01*
X93473Y-11131D01*
X93440Y-11001D01*
X93404Y-10872D01*
X93363Y-10745D01*
X93319Y-10618D01*
X93271Y-10493D01*
X93219Y-10370D01*
X93164Y-10248D01*
X93105Y-10128D01*
X93042Y-10010D01*
X92976Y-9893D01*
X92907Y-9779D01*
X92834Y-9666D01*
X92758Y-9556D01*
X92679Y-9448D01*
X92597Y-9343D01*
X92511Y-9240D01*
X92423Y-9139D01*
X92331Y-9042D01*
X92237Y-8947D01*
X92140Y-8855D01*
X92040Y-8765D01*
X91938Y-8679D01*
X91833Y-8596D01*
X91726Y-8516D01*
X91616Y-8439D01*
X91504Y-8366D01*
X91390Y-8296D01*
X91274Y-8229D01*
X91156Y-8166D01*
X91036Y-8106D01*
X90915Y-8050D01*
X90792Y-7997D01*
X90667Y-7948D01*
X90541Y-7903D01*
X90414Y-7862D01*
X90286Y-7824D01*
X90156Y-7790D01*
X90026Y-7760D01*
X89894Y-7734D01*
X89762Y-7712D01*
X89630Y-7694D01*
X89497Y-7679D01*
X89363Y-7669D01*
X89230Y-7662D01*
X89096Y-7660D01*
X90024Y-439D02*
X84605Y-420D01*
X90024Y-439D02*
X90143Y-441D01*
X90262Y-448D01*
X90381Y-458D01*
X90500Y-472D01*
X90618Y-490D01*
X90735Y-512D01*
X90852Y-538D01*
X90968Y-568D01*
X91082Y-602D01*
X91196Y-639D01*
X91308Y-680D01*
X91419Y-725D01*
X91528Y-773D01*
X91635Y-825D01*
X91741Y-880D01*
X91845Y-939D01*
X91947Y-1002D01*
X92047Y-1067D01*
X92144Y-1136D01*
X92239Y-1208D01*
X92332Y-1284D01*
X92422Y-1362D01*
X92510Y-1443D01*
X92595Y-1527D01*
X92677Y-1614D01*
X92756Y-1703D01*
X92832Y-1795D01*
X92905Y-1890D01*
X92975Y-1987D01*
X93042Y-2086D01*
X93105Y-2187D01*
X93165Y-2291D01*
X93221Y-2396D01*
X93274Y-2503D01*
X93324Y-2612D01*
X93370Y-2722D01*
X93412Y-2834D01*
X93450Y-2947D01*
X93485Y-3061D01*
X93516Y-3177D01*
X93543Y-3293D01*
X93566Y-3410D01*
X93585Y-3528D01*
X93600Y-3646D01*
X93612Y-3765D01*
X93619Y-3884D01*
X93623Y-4004D01*
X93622Y-4123D01*
X93618Y-4243D01*
X93610Y-4362D01*
X93597Y-4481D01*
X93581Y-4599D01*
X93561Y-4717D01*
X93537Y-4834D01*
X93509Y-4950D01*
X93478Y-5065D01*
X93442Y-5179D01*
X93403Y-5292D01*
X93360Y-5403D01*
X93314Y-5513D01*
X93264Y-5622D01*
X93210Y-5729D01*
X93153Y-5833D01*
X93092Y-5936D01*
X93028Y-6037D01*
X92961Y-6136D01*
X92890Y-6232D01*
X92816Y-6326D01*
X92740Y-6418D01*
X92660Y-6507D01*
X92577Y-6593D01*
X92492Y-6676D01*
X92404Y-6757D01*
X92313Y-6835D01*
X92220Y-6909D01*
X92124Y-6981D01*
X92026Y-7049D01*
X91926Y-7114D01*
X91823Y-7175D01*
X91719Y-7234D01*
X91613Y-7288D01*
X91505Y-7340D01*
X91395Y-7387D01*
X91284Y-7431D01*
X91172Y-7471D01*
X91058Y-7508D01*
X90943Y-7541D01*
X90827Y-7570D01*
X90711Y-7595D01*
X90593Y-7616D01*
X90475Y-7633D01*
X90356Y-7646D01*
X90237Y-7656D01*
X90118Y-7661D01*
X89998Y-7663D01*
X89999Y-7663D02*
X86386Y-7651D01*
D11*
X1498600Y-60D02*
X1498475Y-42472D01*
X1478155Y-42412D02*
X1478280Y0D01*
X1477562Y-22910D02*
X1426213Y-22759D01*
X1499182Y-22974D02*
X1574160Y-23196D01*
X1524542Y-19857D02*
X1499182Y-22974D01*
X1524542Y-19857D02*
X1524523Y-26241D01*
X1499182Y-22974D01*
X1524536Y-21749D01*
X1524528Y-24349D02*
X1499182Y-22974D01*
X1524540Y-20449D01*
X1524525Y-25649D02*
X1499182Y-22974D01*
X1477562Y-22910D02*
X1452222Y-19643D01*
X1452203Y-26028D01*
X1477562Y-22910D01*
X1452216Y-21536D01*
X1452209Y-24136D02*
X1477562Y-22910D01*
X1452220Y-20236D01*
X1452205Y-25436D02*
X1477562Y-22910D01*
D12*
X1530337Y-306D02*
X1530462Y-308D01*
X1530587Y-315D01*
X1530712Y-325D01*
X1530836Y-339D01*
X1530960Y-356D01*
X1531084Y-378D01*
X1531206Y-403D01*
X1531328Y-432D01*
X1531449Y-465D01*
X1531568Y-502D01*
X1531687Y-542D01*
X1531804Y-586D01*
X1531920Y-633D01*
X1532034Y-684D01*
X1532147Y-738D01*
X1532258Y-796D01*
X1532367Y-858D01*
X1532474Y-922D01*
X1532580Y-990D01*
X1532683Y-1061D01*
X1532783Y-1135D01*
X1532882Y-1213D01*
X1532978Y-1293D01*
X1533071Y-1376D01*
X1533162Y-1462D01*
X1533250Y-1551D01*
X1533336Y-1643D01*
X1533418Y-1737D01*
X1533498Y-1833D01*
X1533575Y-1932D01*
X1533648Y-2034D01*
X1533719Y-2137D01*
X1533786Y-2243D01*
X1533850Y-2350D01*
X1533910Y-2460D01*
X1533967Y-2571D01*
X1534021Y-2684D01*
X1534071Y-2799D01*
X1534118Y-2915D01*
X1534161Y-3033D01*
X1534200Y-3152D01*
X1534236Y-3272D01*
X1534268Y-3393D01*
X1534296Y-3514D01*
X1534320Y-3637D01*
X1534341Y-3761D01*
X1534358Y-3885D01*
X1534371Y-4009D01*
X1534380Y-4134D01*
X1534385Y-4259D01*
X1534387Y-4384D01*
X1530337Y-306D02*
X1530194Y-307D01*
X1530052Y-313D01*
X1529909Y-322D01*
X1529767Y-335D01*
X1529626Y-352D01*
X1529484Y-373D01*
X1529344Y-398D01*
X1529204Y-426D01*
X1529065Y-459D01*
X1528927Y-495D01*
X1528790Y-535D01*
X1528654Y-579D01*
X1528519Y-626D01*
X1528386Y-677D01*
X1528254Y-732D01*
X1528124Y-790D01*
X1527995Y-852D01*
X1527868Y-917D01*
X1527743Y-986D01*
X1527620Y-1058D01*
X1527499Y-1133D01*
X1527380Y-1212D01*
X1527263Y-1294D01*
X1527148Y-1379D01*
X1527036Y-1467D01*
X1526926Y-1559D01*
X1526819Y-1653D01*
X1526715Y-1750D01*
X1526613Y-1850D01*
X1526514Y-1952D01*
X1526417Y-2058D01*
X1526324Y-2166D01*
X1526233Y-2276D01*
X1526146Y-2389D01*
X1526062Y-2504D01*
X1525981Y-2622D01*
X1525903Y-2742D01*
X1525829Y-2863D01*
X1525757Y-2987D01*
X1525690Y-3113D01*
X1525625Y-3240D01*
X1525565Y-3369D01*
X1525508Y-3500D01*
X1525454Y-3632D01*
X1525404Y-3766D01*
X1525358Y-3901D01*
X1533022Y-7540D02*
X1533116Y-7449D01*
X1533207Y-7355D01*
X1533295Y-7258D01*
X1533380Y-7159D01*
X1533462Y-7057D01*
X1533541Y-6952D01*
X1533617Y-6846D01*
X1533690Y-6737D01*
X1533759Y-6626D01*
X1533825Y-6513D01*
X1533888Y-6398D01*
X1533947Y-6281D01*
X1534003Y-6162D01*
X1534055Y-6042D01*
X1534103Y-5921D01*
X1534148Y-5797D01*
X1534189Y-5673D01*
X1534226Y-5548D01*
X1534259Y-5421D01*
X1534289Y-5294D01*
X1534315Y-5165D01*
X1534337Y-5036D01*
X1534355Y-4906D01*
X1534369Y-4776D01*
X1534379Y-4646D01*
X1534386Y-4515D01*
X1534388Y-4384D01*
X1533022Y-7541D02*
X1525314Y-16545D01*
X1534345Y-16576D01*
X1540320Y-16597D02*
X1540323Y-15694D01*
X1541226Y-15697D01*
X1541223Y-16600D01*
X1540320Y-16597D01*
X1547226Y-8493D02*
X1547231Y-8173D01*
X1547244Y-7853D01*
X1547264Y-7534D01*
X1547292Y-7216D01*
X1547327Y-6898D01*
X1547370Y-6581D01*
X1547420Y-6265D01*
X1547478Y-5951D01*
X1547544Y-5638D01*
X1547617Y-5326D01*
X1547697Y-5017D01*
X1547785Y-4709D01*
X1547880Y-4404D01*
X1547983Y-4101D01*
X1548092Y-3800D01*
X1548209Y-3503D01*
X1548333Y-3208D01*
X1548464Y-2916D01*
X1548601Y-2627D01*
X1548641Y-2519D01*
X1548684Y-2413D01*
X1548731Y-2308D01*
X1548782Y-2204D01*
X1548836Y-2102D01*
X1548893Y-2003D01*
X1548954Y-1905D01*
X1549018Y-1810D01*
X1549086Y-1716D01*
X1549157Y-1625D01*
X1549230Y-1537D01*
X1549307Y-1451D01*
X1549387Y-1368D01*
X1549469Y-1288D01*
X1549555Y-1211D01*
X1549642Y-1136D01*
X1549733Y-1065D01*
X1549826Y-997D01*
X1549921Y-932D01*
X1550018Y-870D01*
X1550117Y-812D01*
X1550218Y-757D01*
X1550321Y-706D01*
X1550426Y-658D01*
X1550533Y-614D01*
X1550640Y-573D01*
X1550750Y-537D01*
X1550860Y-504D01*
X1550971Y-475D01*
X1551084Y-450D01*
X1551197Y-428D01*
X1551311Y-411D01*
X1551425Y-398D01*
X1551540Y-388D01*
X1551655Y-383D01*
X1551770Y-381D01*
X1551770Y-380D02*
X1551885Y-382D01*
X1552000Y-389D01*
X1552114Y-399D01*
X1552229Y-413D01*
X1552342Y-432D01*
X1552455Y-454D01*
X1552568Y-480D01*
X1552679Y-509D01*
X1552789Y-543D01*
X1552898Y-580D01*
X1553005Y-622D01*
X1553112Y-666D01*
X1553216Y-715D01*
X1553319Y-767D01*
X1553420Y-822D01*
X1553519Y-881D01*
X1553615Y-944D01*
X1553710Y-1009D01*
X1553802Y-1078D01*
X1553892Y-1150D01*
X1553979Y-1225D01*
X1554064Y-1303D01*
X1554146Y-1384D01*
X1554225Y-1468D01*
X1554301Y-1554D01*
X1554375Y-1643D01*
X1554445Y-1734D01*
X1554512Y-1828D01*
X1554575Y-1924D01*
X1554635Y-2022D01*
X1554692Y-2122D01*
X1554746Y-2224D01*
X1554796Y-2328D01*
X1554842Y-2434D01*
X1554884Y-2541D01*
X1554923Y-2649D01*
X1554923Y-2650D02*
X1555058Y-2940D01*
X1555187Y-3232D01*
X1555309Y-3528D01*
X1555424Y-3827D01*
X1555531Y-4128D01*
X1555631Y-4431D01*
X1555724Y-4737D01*
X1555810Y-5046D01*
X1555888Y-5356D01*
X1555959Y-5668D01*
X1556022Y-5981D01*
X1556078Y-6296D01*
X1556126Y-6612D01*
X1556167Y-6929D01*
X1556200Y-7247D01*
X1556226Y-7566D01*
X1556244Y-7885D01*
X1556254Y-8205D01*
X1556257Y-8525D01*
X1547226Y-8493D02*
X1547229Y-8813D01*
X1547239Y-9133D01*
X1547257Y-9452D01*
X1547283Y-9771D01*
X1547316Y-10089D01*
X1547357Y-10406D01*
X1547405Y-10722D01*
X1547461Y-11037D01*
X1547524Y-11350D01*
X1547595Y-11662D01*
X1547673Y-11972D01*
X1547759Y-12281D01*
X1547852Y-12587D01*
X1547952Y-12890D01*
X1548059Y-13191D01*
X1548174Y-13490D01*
X1548296Y-13786D01*
X1548425Y-14078D01*
X1548560Y-14368D01*
X1548599Y-14476D01*
X1548641Y-14583D01*
X1548688Y-14689D01*
X1548737Y-14793D01*
X1548791Y-14895D01*
X1548848Y-14995D01*
X1548908Y-15093D01*
X1548971Y-15189D01*
X1549038Y-15283D01*
X1549108Y-15374D01*
X1549182Y-15463D01*
X1549258Y-15549D01*
X1549337Y-15633D01*
X1549419Y-15714D01*
X1549504Y-15792D01*
X1549591Y-15867D01*
X1549681Y-15939D01*
X1549773Y-16008D01*
X1549868Y-16073D01*
X1549964Y-16136D01*
X1550063Y-16195D01*
X1550164Y-16250D01*
X1550267Y-16302D01*
X1550371Y-16351D01*
X1550478Y-16395D01*
X1550585Y-16437D01*
X1550694Y-16474D01*
X1550804Y-16508D01*
X1550915Y-16537D01*
X1551028Y-16563D01*
X1551141Y-16585D01*
X1551254Y-16604D01*
X1551369Y-16618D01*
X1551483Y-16628D01*
X1551598Y-16635D01*
X1551713Y-16637D01*
X1554881Y-14390D02*
X1555018Y-14102D01*
X1555149Y-13810D01*
X1555273Y-13515D01*
X1555390Y-13217D01*
X1555499Y-12917D01*
X1555602Y-12614D01*
X1555697Y-12308D01*
X1555785Y-12001D01*
X1555865Y-11691D01*
X1555938Y-11380D01*
X1556003Y-11067D01*
X1556062Y-10752D01*
X1556112Y-10437D01*
X1556155Y-10120D01*
X1556190Y-9802D01*
X1556218Y-9483D01*
X1556238Y-9164D01*
X1556251Y-8845D01*
X1556256Y-8525D01*
X1554883Y-14390D02*
X1554843Y-14498D01*
X1554800Y-14605D01*
X1554753Y-14710D01*
X1554702Y-14813D01*
X1554648Y-14915D01*
X1554591Y-15015D01*
X1554530Y-15113D01*
X1554465Y-15208D01*
X1554398Y-15301D01*
X1554327Y-15392D01*
X1554253Y-15481D01*
X1554176Y-15566D01*
X1554097Y-15650D01*
X1554014Y-15730D01*
X1553929Y-15807D01*
X1553841Y-15882D01*
X1553751Y-15953D01*
X1553658Y-16021D01*
X1553563Y-16086D01*
X1553466Y-16148D01*
X1553366Y-16206D01*
X1553265Y-16261D01*
X1553162Y-16312D01*
X1553057Y-16360D01*
X1552951Y-16404D01*
X1552843Y-16444D01*
X1552734Y-16481D01*
X1552623Y-16514D01*
X1552512Y-16543D01*
X1552400Y-16568D01*
X1552286Y-16590D01*
X1552173Y-16607D01*
X1552058Y-16620D01*
X1551943Y-16630D01*
X1551828Y-16635D01*
X1551713Y-16637D01*
X1548113Y-13012D02*
X1555369Y-4006D01*
X1562828Y-16676D02*
X1567344Y-16691D01*
X1567344Y-16692D02*
X1567478Y-16690D01*
X1567612Y-16685D01*
X1567745Y-16676D01*
X1567878Y-16662D01*
X1568011Y-16645D01*
X1568143Y-16624D01*
X1568275Y-16598D01*
X1568405Y-16569D01*
X1568535Y-16536D01*
X1568664Y-16500D01*
X1568791Y-16459D01*
X1568918Y-16415D01*
X1569043Y-16367D01*
X1569166Y-16315D01*
X1569288Y-16260D01*
X1569408Y-16201D01*
X1569526Y-16138D01*
X1569643Y-16072D01*
X1569757Y-16003D01*
X1569870Y-15930D01*
X1569980Y-15854D01*
X1570088Y-15775D01*
X1570193Y-15693D01*
X1570296Y-15607D01*
X1570397Y-15519D01*
X1570494Y-15427D01*
X1570589Y-15333D01*
X1570681Y-15236D01*
X1570771Y-15136D01*
X1570857Y-15034D01*
X1570940Y-14929D01*
X1571020Y-14822D01*
X1571097Y-14712D01*
X1571170Y-14600D01*
X1571240Y-14486D01*
X1571307Y-14370D01*
X1571370Y-14252D01*
X1571430Y-14132D01*
X1571486Y-14011D01*
X1571539Y-13888D01*
X1571588Y-13763D01*
X1571633Y-13637D01*
X1571674Y-13510D01*
X1571712Y-13382D01*
X1571746Y-13252D01*
X1571776Y-13122D01*
X1571802Y-12990D01*
X1571824Y-12858D01*
X1571842Y-12726D01*
X1571857Y-12593D01*
X1571867Y-12459D01*
X1571874Y-12326D01*
X1571876Y-12192D01*
X1571874Y-12058D01*
X1571869Y-11924D01*
X1571860Y-11791D01*
X1571846Y-11658D01*
X1571829Y-11525D01*
X1571808Y-11393D01*
X1571782Y-11261D01*
X1571753Y-11131D01*
X1571720Y-11001D01*
X1571684Y-10872D01*
X1571643Y-10745D01*
X1571599Y-10618D01*
X1571551Y-10493D01*
X1571499Y-10370D01*
X1571444Y-10248D01*
X1571385Y-10128D01*
X1571322Y-10010D01*
X1571256Y-9893D01*
X1571187Y-9779D01*
X1571114Y-9666D01*
X1571038Y-9556D01*
X1570959Y-9448D01*
X1570877Y-9343D01*
X1570791Y-9240D01*
X1570703Y-9139D01*
X1570611Y-9042D01*
X1570517Y-8947D01*
X1570420Y-8855D01*
X1570320Y-8765D01*
X1570218Y-8679D01*
X1570113Y-8596D01*
X1570006Y-8516D01*
X1569896Y-8439D01*
X1569784Y-8366D01*
X1569670Y-8296D01*
X1569554Y-8229D01*
X1569436Y-8166D01*
X1569316Y-8106D01*
X1569195Y-8050D01*
X1569072Y-7997D01*
X1568947Y-7948D01*
X1568821Y-7903D01*
X1568694Y-7862D01*
X1568566Y-7824D01*
X1568436Y-7790D01*
X1568306Y-7760D01*
X1568174Y-7734D01*
X1568042Y-7712D01*
X1567910Y-7694D01*
X1567777Y-7679D01*
X1567643Y-7669D01*
X1567510Y-7662D01*
X1567376Y-7660D01*
X1568304Y-439D02*
X1562885Y-420D01*
X1568304Y-439D02*
X1568423Y-441D01*
X1568542Y-448D01*
X1568661Y-458D01*
X1568780Y-472D01*
X1568898Y-490D01*
X1569015Y-512D01*
X1569132Y-538D01*
X1569248Y-568D01*
X1569362Y-602D01*
X1569476Y-639D01*
X1569588Y-680D01*
X1569699Y-725D01*
X1569808Y-773D01*
X1569915Y-825D01*
X1570021Y-880D01*
X1570125Y-939D01*
X1570227Y-1002D01*
X1570327Y-1067D01*
X1570424Y-1136D01*
X1570519Y-1208D01*
X1570612Y-1284D01*
X1570702Y-1362D01*
X1570790Y-1443D01*
X1570875Y-1527D01*
X1570957Y-1614D01*
X1571036Y-1703D01*
X1571112Y-1795D01*
X1571185Y-1890D01*
X1571255Y-1987D01*
X1571322Y-2086D01*
X1571385Y-2187D01*
X1571445Y-2291D01*
X1571501Y-2396D01*
X1571554Y-2503D01*
X1571604Y-2612D01*
X1571650Y-2722D01*
X1571692Y-2834D01*
X1571730Y-2947D01*
X1571765Y-3061D01*
X1571796Y-3177D01*
X1571823Y-3293D01*
X1571846Y-3410D01*
X1571865Y-3528D01*
X1571880Y-3646D01*
X1571892Y-3765D01*
X1571899Y-3884D01*
X1571903Y-4004D01*
X1571902Y-4123D01*
X1571898Y-4243D01*
X1571890Y-4362D01*
X1571877Y-4481D01*
X1571861Y-4599D01*
X1571841Y-4717D01*
X1571817Y-4834D01*
X1571789Y-4950D01*
X1571758Y-5065D01*
X1571722Y-5179D01*
X1571683Y-5292D01*
X1571640Y-5403D01*
X1571594Y-5513D01*
X1571544Y-5622D01*
X1571490Y-5729D01*
X1571433Y-5833D01*
X1571372Y-5936D01*
X1571308Y-6037D01*
X1571241Y-6136D01*
X1571170Y-6232D01*
X1571096Y-6326D01*
X1571020Y-6418D01*
X1570940Y-6507D01*
X1570857Y-6593D01*
X1570772Y-6676D01*
X1570684Y-6757D01*
X1570593Y-6835D01*
X1570500Y-6909D01*
X1570404Y-6981D01*
X1570306Y-7049D01*
X1570206Y-7114D01*
X1570103Y-7175D01*
X1569999Y-7234D01*
X1569893Y-7288D01*
X1569785Y-7340D01*
X1569675Y-7387D01*
X1569564Y-7431D01*
X1569452Y-7471D01*
X1569338Y-7508D01*
X1569223Y-7541D01*
X1569107Y-7570D01*
X1568991Y-7595D01*
X1568873Y-7616D01*
X1568755Y-7633D01*
X1568636Y-7646D01*
X1568517Y-7656D01*
X1568398Y-7661D01*
X1568278Y-7663D01*
X1568279Y-7663D02*
X1564666Y-7651D01*
D11*
X1541072Y20195D02*
X1498660Y20320D01*
X1498600Y0D02*
X1541012Y-125D01*
X1521510Y-718D02*
X1521359Y-52067D01*
X1521574Y20902D02*
X1521796Y95880D01*
X1518457Y46262D02*
X1521574Y20902D01*
X1518457Y46262D02*
X1524841Y46243D01*
X1521574Y20902D01*
X1520349Y46256D01*
X1522949Y46248D02*
X1521574Y20902D01*
X1519049Y46260D01*
X1524249Y46245D02*
X1521574Y20902D01*
X1521510Y-718D02*
X1518243Y-26058D01*
X1524628Y-26077D01*
X1521510Y-718D01*
X1520136Y-26064D01*
X1522736Y-26071D02*
X1521510Y-718D01*
X1518836Y-26060D01*
X1524036Y-26075D02*
X1521510Y-718D01*
D12*
X1498906Y52057D02*
X1498908Y52182D01*
X1498915Y52307D01*
X1498925Y52432D01*
X1498939Y52556D01*
X1498956Y52680D01*
X1498978Y52804D01*
X1499003Y52926D01*
X1499032Y53048D01*
X1499065Y53169D01*
X1499102Y53288D01*
X1499142Y53407D01*
X1499186Y53524D01*
X1499233Y53640D01*
X1499284Y53754D01*
X1499338Y53867D01*
X1499396Y53978D01*
X1499458Y54087D01*
X1499522Y54194D01*
X1499590Y54300D01*
X1499661Y54403D01*
X1499735Y54503D01*
X1499813Y54602D01*
X1499893Y54698D01*
X1499976Y54791D01*
X1500062Y54882D01*
X1500151Y54970D01*
X1500243Y55056D01*
X1500337Y55138D01*
X1500433Y55218D01*
X1500532Y55295D01*
X1500634Y55368D01*
X1500737Y55439D01*
X1500843Y55506D01*
X1500950Y55570D01*
X1501060Y55630D01*
X1501171Y55687D01*
X1501284Y55741D01*
X1501399Y55791D01*
X1501515Y55838D01*
X1501633Y55881D01*
X1501752Y55920D01*
X1501872Y55956D01*
X1501993Y55988D01*
X1502114Y56016D01*
X1502237Y56040D01*
X1502361Y56061D01*
X1502485Y56078D01*
X1502609Y56091D01*
X1502734Y56100D01*
X1502859Y56105D01*
X1502984Y56107D01*
X1498906Y52057D02*
X1498907Y51914D01*
X1498913Y51772D01*
X1498922Y51629D01*
X1498935Y51487D01*
X1498952Y51346D01*
X1498973Y51204D01*
X1498998Y51064D01*
X1499026Y50924D01*
X1499059Y50785D01*
X1499095Y50647D01*
X1499135Y50510D01*
X1499179Y50374D01*
X1499226Y50239D01*
X1499277Y50106D01*
X1499332Y49974D01*
X1499390Y49844D01*
X1499452Y49715D01*
X1499517Y49588D01*
X1499586Y49463D01*
X1499658Y49340D01*
X1499733Y49219D01*
X1499812Y49100D01*
X1499894Y48983D01*
X1499979Y48868D01*
X1500067Y48756D01*
X1500159Y48646D01*
X1500253Y48539D01*
X1500350Y48435D01*
X1500450Y48333D01*
X1500552Y48234D01*
X1500658Y48137D01*
X1500766Y48044D01*
X1500876Y47953D01*
X1500989Y47866D01*
X1501104Y47782D01*
X1501222Y47701D01*
X1501342Y47623D01*
X1501463Y47549D01*
X1501587Y47477D01*
X1501713Y47410D01*
X1501840Y47345D01*
X1501969Y47285D01*
X1502100Y47228D01*
X1502232Y47174D01*
X1502366Y47124D01*
X1502501Y47078D01*
X1506140Y54742D02*
X1506049Y54836D01*
X1505955Y54927D01*
X1505858Y55015D01*
X1505759Y55100D01*
X1505657Y55182D01*
X1505552Y55261D01*
X1505446Y55337D01*
X1505337Y55410D01*
X1505226Y55479D01*
X1505113Y55545D01*
X1504998Y55608D01*
X1504881Y55667D01*
X1504762Y55723D01*
X1504642Y55775D01*
X1504521Y55823D01*
X1504397Y55868D01*
X1504273Y55909D01*
X1504148Y55946D01*
X1504021Y55979D01*
X1503894Y56009D01*
X1503765Y56035D01*
X1503636Y56057D01*
X1503506Y56075D01*
X1503376Y56089D01*
X1503246Y56099D01*
X1503115Y56106D01*
X1502984Y56108D01*
X1506140Y54742D02*
X1515145Y47034D01*
X1515176Y56065D01*
X1515197Y62040D02*
X1514294Y62043D01*
X1514297Y62946D01*
X1515200Y62943D01*
X1515197Y62040D01*
X1507093Y68946D02*
X1506773Y68951D01*
X1506453Y68964D01*
X1506134Y68984D01*
X1505816Y69012D01*
X1505498Y69047D01*
X1505181Y69090D01*
X1504865Y69140D01*
X1504551Y69198D01*
X1504238Y69264D01*
X1503926Y69337D01*
X1503617Y69417D01*
X1503309Y69505D01*
X1503004Y69600D01*
X1502701Y69703D01*
X1502400Y69812D01*
X1502103Y69929D01*
X1501808Y70053D01*
X1501516Y70184D01*
X1501227Y70321D01*
X1501119Y70361D01*
X1501013Y70404D01*
X1500908Y70451D01*
X1500804Y70502D01*
X1500702Y70556D01*
X1500603Y70613D01*
X1500505Y70674D01*
X1500410Y70738D01*
X1500316Y70806D01*
X1500225Y70877D01*
X1500137Y70950D01*
X1500051Y71027D01*
X1499968Y71107D01*
X1499888Y71189D01*
X1499811Y71275D01*
X1499736Y71362D01*
X1499665Y71453D01*
X1499597Y71546D01*
X1499532Y71641D01*
X1499470Y71738D01*
X1499412Y71837D01*
X1499357Y71938D01*
X1499306Y72041D01*
X1499258Y72146D01*
X1499214Y72253D01*
X1499173Y72360D01*
X1499137Y72470D01*
X1499104Y72580D01*
X1499075Y72691D01*
X1499050Y72804D01*
X1499028Y72917D01*
X1499011Y73031D01*
X1498998Y73145D01*
X1498988Y73260D01*
X1498983Y73375D01*
X1498981Y73490D01*
X1498980Y73490D02*
X1498982Y73605D01*
X1498989Y73720D01*
X1498999Y73834D01*
X1499013Y73949D01*
X1499032Y74062D01*
X1499054Y74175D01*
X1499080Y74288D01*
X1499109Y74399D01*
X1499143Y74509D01*
X1499180Y74618D01*
X1499222Y74725D01*
X1499266Y74832D01*
X1499315Y74936D01*
X1499367Y75039D01*
X1499422Y75140D01*
X1499481Y75239D01*
X1499544Y75335D01*
X1499609Y75430D01*
X1499678Y75522D01*
X1499750Y75612D01*
X1499825Y75699D01*
X1499903Y75784D01*
X1499984Y75866D01*
X1500068Y75945D01*
X1500154Y76021D01*
X1500243Y76095D01*
X1500334Y76165D01*
X1500428Y76232D01*
X1500524Y76295D01*
X1500622Y76355D01*
X1500722Y76412D01*
X1500824Y76466D01*
X1500928Y76516D01*
X1501034Y76562D01*
X1501141Y76604D01*
X1501249Y76643D01*
X1501250Y76643D02*
X1501540Y76778D01*
X1501832Y76907D01*
X1502128Y77029D01*
X1502427Y77144D01*
X1502728Y77251D01*
X1503031Y77351D01*
X1503337Y77444D01*
X1503646Y77530D01*
X1503956Y77608D01*
X1504268Y77679D01*
X1504581Y77742D01*
X1504896Y77798D01*
X1505212Y77846D01*
X1505529Y77887D01*
X1505847Y77920D01*
X1506166Y77946D01*
X1506485Y77964D01*
X1506805Y77974D01*
X1507125Y77977D01*
X1507093Y68946D02*
X1507413Y68949D01*
X1507733Y68959D01*
X1508052Y68977D01*
X1508371Y69003D01*
X1508689Y69036D01*
X1509006Y69077D01*
X1509322Y69125D01*
X1509637Y69181D01*
X1509950Y69244D01*
X1510262Y69315D01*
X1510572Y69393D01*
X1510881Y69479D01*
X1511187Y69572D01*
X1511490Y69672D01*
X1511791Y69779D01*
X1512090Y69894D01*
X1512386Y70016D01*
X1512678Y70145D01*
X1512968Y70280D01*
X1512968Y70279D02*
X1513076Y70318D01*
X1513183Y70360D01*
X1513289Y70407D01*
X1513393Y70456D01*
X1513495Y70510D01*
X1513595Y70567D01*
X1513693Y70627D01*
X1513789Y70690D01*
X1513883Y70757D01*
X1513974Y70827D01*
X1514063Y70901D01*
X1514149Y70977D01*
X1514233Y71056D01*
X1514314Y71138D01*
X1514392Y71223D01*
X1514467Y71310D01*
X1514539Y71400D01*
X1514608Y71492D01*
X1514673Y71587D01*
X1514736Y71683D01*
X1514795Y71782D01*
X1514850Y71883D01*
X1514902Y71986D01*
X1514951Y72090D01*
X1514995Y72197D01*
X1515037Y72304D01*
X1515074Y72413D01*
X1515108Y72523D01*
X1515137Y72634D01*
X1515163Y72747D01*
X1515185Y72860D01*
X1515204Y72973D01*
X1515218Y73088D01*
X1515228Y73202D01*
X1515235Y73317D01*
X1515237Y73432D01*
X1512990Y76601D02*
X1512702Y76738D01*
X1512410Y76869D01*
X1512115Y76993D01*
X1511817Y77110D01*
X1511517Y77219D01*
X1511214Y77322D01*
X1510908Y77417D01*
X1510601Y77505D01*
X1510291Y77585D01*
X1509980Y77658D01*
X1509667Y77723D01*
X1509352Y77782D01*
X1509037Y77832D01*
X1508720Y77875D01*
X1508402Y77910D01*
X1508083Y77938D01*
X1507764Y77958D01*
X1507445Y77971D01*
X1507125Y77976D01*
X1512990Y76602D02*
X1513098Y76562D01*
X1513205Y76519D01*
X1513310Y76472D01*
X1513413Y76421D01*
X1513515Y76367D01*
X1513615Y76310D01*
X1513713Y76249D01*
X1513808Y76184D01*
X1513901Y76117D01*
X1513992Y76046D01*
X1514081Y75972D01*
X1514166Y75895D01*
X1514250Y75816D01*
X1514330Y75733D01*
X1514407Y75648D01*
X1514482Y75560D01*
X1514553Y75470D01*
X1514621Y75377D01*
X1514686Y75282D01*
X1514748Y75185D01*
X1514806Y75085D01*
X1514861Y74984D01*
X1514912Y74881D01*
X1514960Y74776D01*
X1515004Y74670D01*
X1515044Y74562D01*
X1515081Y74453D01*
X1515114Y74342D01*
X1515143Y74231D01*
X1515168Y74119D01*
X1515190Y74005D01*
X1515207Y73892D01*
X1515220Y73777D01*
X1515230Y73662D01*
X1515235Y73547D01*
X1515237Y73432D01*
X1511612Y69833D02*
X1502606Y77089D01*
X1515276Y84548D02*
X1515291Y89064D01*
X1515292Y89064D02*
X1515290Y89198D01*
X1515285Y89332D01*
X1515276Y89465D01*
X1515262Y89598D01*
X1515245Y89731D01*
X1515224Y89863D01*
X1515198Y89995D01*
X1515169Y90125D01*
X1515136Y90255D01*
X1515100Y90384D01*
X1515059Y90511D01*
X1515015Y90638D01*
X1514967Y90763D01*
X1514915Y90886D01*
X1514860Y91008D01*
X1514801Y91128D01*
X1514738Y91246D01*
X1514672Y91363D01*
X1514603Y91477D01*
X1514530Y91590D01*
X1514454Y91700D01*
X1514375Y91808D01*
X1514293Y91913D01*
X1514207Y92016D01*
X1514119Y92117D01*
X1514027Y92214D01*
X1513933Y92309D01*
X1513836Y92401D01*
X1513736Y92491D01*
X1513634Y92577D01*
X1513529Y92660D01*
X1513422Y92740D01*
X1513312Y92817D01*
X1513200Y92890D01*
X1513086Y92960D01*
X1512970Y93027D01*
X1512852Y93090D01*
X1512732Y93150D01*
X1512611Y93206D01*
X1512488Y93259D01*
X1512363Y93308D01*
X1512237Y93353D01*
X1512110Y93394D01*
X1511982Y93432D01*
X1511852Y93466D01*
X1511722Y93496D01*
X1511590Y93522D01*
X1511458Y93544D01*
X1511326Y93562D01*
X1511193Y93577D01*
X1511059Y93587D01*
X1510926Y93594D01*
X1510792Y93596D01*
X1510658Y93594D01*
X1510524Y93589D01*
X1510391Y93580D01*
X1510258Y93566D01*
X1510125Y93549D01*
X1509993Y93528D01*
X1509861Y93502D01*
X1509731Y93473D01*
X1509601Y93440D01*
X1509472Y93404D01*
X1509345Y93363D01*
X1509218Y93319D01*
X1509093Y93271D01*
X1508970Y93219D01*
X1508848Y93164D01*
X1508728Y93105D01*
X1508610Y93042D01*
X1508493Y92976D01*
X1508379Y92907D01*
X1508266Y92834D01*
X1508156Y92758D01*
X1508048Y92679D01*
X1507943Y92597D01*
X1507840Y92511D01*
X1507739Y92423D01*
X1507642Y92331D01*
X1507547Y92237D01*
X1507455Y92140D01*
X1507365Y92040D01*
X1507279Y91938D01*
X1507196Y91833D01*
X1507116Y91726D01*
X1507039Y91616D01*
X1506966Y91504D01*
X1506896Y91390D01*
X1506829Y91274D01*
X1506766Y91156D01*
X1506706Y91036D01*
X1506650Y90915D01*
X1506597Y90792D01*
X1506548Y90667D01*
X1506503Y90541D01*
X1506462Y90414D01*
X1506424Y90286D01*
X1506390Y90156D01*
X1506360Y90026D01*
X1506334Y89894D01*
X1506312Y89762D01*
X1506294Y89630D01*
X1506279Y89497D01*
X1506269Y89363D01*
X1506262Y89230D01*
X1506260Y89096D01*
X1499039Y90024D02*
X1499020Y84605D01*
X1499039Y90024D02*
X1499041Y90143D01*
X1499048Y90262D01*
X1499058Y90381D01*
X1499072Y90500D01*
X1499090Y90618D01*
X1499112Y90735D01*
X1499138Y90852D01*
X1499168Y90968D01*
X1499202Y91082D01*
X1499239Y91196D01*
X1499280Y91308D01*
X1499325Y91419D01*
X1499373Y91528D01*
X1499425Y91635D01*
X1499480Y91741D01*
X1499539Y91845D01*
X1499602Y91947D01*
X1499667Y92047D01*
X1499736Y92144D01*
X1499808Y92239D01*
X1499884Y92332D01*
X1499962Y92422D01*
X1500043Y92510D01*
X1500127Y92595D01*
X1500214Y92677D01*
X1500303Y92756D01*
X1500395Y92832D01*
X1500490Y92905D01*
X1500587Y92975D01*
X1500686Y93042D01*
X1500787Y93105D01*
X1500891Y93165D01*
X1500996Y93221D01*
X1501103Y93274D01*
X1501212Y93324D01*
X1501322Y93370D01*
X1501434Y93412D01*
X1501547Y93450D01*
X1501661Y93485D01*
X1501777Y93516D01*
X1501893Y93543D01*
X1502010Y93566D01*
X1502128Y93585D01*
X1502246Y93600D01*
X1502365Y93612D01*
X1502484Y93619D01*
X1502604Y93623D01*
X1502723Y93622D01*
X1502843Y93618D01*
X1502962Y93610D01*
X1503081Y93597D01*
X1503199Y93581D01*
X1503317Y93561D01*
X1503434Y93537D01*
X1503550Y93509D01*
X1503665Y93478D01*
X1503779Y93442D01*
X1503892Y93403D01*
X1504003Y93360D01*
X1504113Y93314D01*
X1504222Y93264D01*
X1504329Y93210D01*
X1504433Y93153D01*
X1504536Y93092D01*
X1504637Y93028D01*
X1504736Y92961D01*
X1504832Y92890D01*
X1504926Y92816D01*
X1505018Y92740D01*
X1505107Y92660D01*
X1505193Y92577D01*
X1505276Y92492D01*
X1505357Y92404D01*
X1505435Y92313D01*
X1505509Y92220D01*
X1505581Y92124D01*
X1505649Y92026D01*
X1505714Y91926D01*
X1505775Y91823D01*
X1505834Y91719D01*
X1505888Y91613D01*
X1505940Y91505D01*
X1505987Y91395D01*
X1506031Y91284D01*
X1506071Y91172D01*
X1506108Y91058D01*
X1506141Y90943D01*
X1506170Y90827D01*
X1506195Y90711D01*
X1506216Y90593D01*
X1506233Y90475D01*
X1506246Y90356D01*
X1506256Y90237D01*
X1506261Y90118D01*
X1506263Y89998D01*
X1506263Y89999D02*
X1506251Y86386D01*
D11*
X1498660Y712470D02*
X1541072Y712345D01*
X1541012Y692025D02*
X1498600Y692150D01*
X1521510Y691432D02*
X1521359Y640083D01*
X1521574Y713052D02*
X1521796Y788030D01*
X1518457Y738412D02*
X1521574Y713052D01*
X1518457Y738412D02*
X1524841Y738393D01*
X1521574Y713052D01*
X1520349Y738406D01*
X1522949Y738398D02*
X1521574Y713052D01*
X1519049Y738410D01*
X1524249Y738395D02*
X1521574Y713052D01*
X1521510Y691432D02*
X1518243Y666092D01*
X1524628Y666073D01*
X1521510Y691432D01*
X1520136Y666086D01*
X1522736Y666079D02*
X1521510Y691432D01*
X1518836Y666090D01*
X1524036Y666075D02*
X1521510Y691432D01*
D12*
X1498906Y744207D02*
X1498908Y744332D01*
X1498915Y744457D01*
X1498925Y744582D01*
X1498939Y744706D01*
X1498956Y744830D01*
X1498978Y744954D01*
X1499003Y745076D01*
X1499032Y745198D01*
X1499065Y745319D01*
X1499102Y745438D01*
X1499142Y745557D01*
X1499186Y745674D01*
X1499233Y745790D01*
X1499284Y745904D01*
X1499338Y746017D01*
X1499396Y746128D01*
X1499458Y746237D01*
X1499522Y746344D01*
X1499590Y746450D01*
X1499661Y746553D01*
X1499735Y746653D01*
X1499813Y746752D01*
X1499893Y746848D01*
X1499976Y746941D01*
X1500062Y747032D01*
X1500151Y747120D01*
X1500243Y747206D01*
X1500337Y747288D01*
X1500433Y747368D01*
X1500532Y747445D01*
X1500634Y747518D01*
X1500737Y747589D01*
X1500843Y747656D01*
X1500950Y747720D01*
X1501060Y747780D01*
X1501171Y747837D01*
X1501284Y747891D01*
X1501399Y747941D01*
X1501515Y747988D01*
X1501633Y748031D01*
X1501752Y748070D01*
X1501872Y748106D01*
X1501993Y748138D01*
X1502114Y748166D01*
X1502237Y748190D01*
X1502361Y748211D01*
X1502485Y748228D01*
X1502609Y748241D01*
X1502734Y748250D01*
X1502859Y748255D01*
X1502984Y748257D01*
X1498906Y744207D02*
X1498907Y744064D01*
X1498913Y743922D01*
X1498922Y743779D01*
X1498935Y743637D01*
X1498952Y743496D01*
X1498973Y743354D01*
X1498998Y743214D01*
X1499026Y743074D01*
X1499059Y742935D01*
X1499095Y742797D01*
X1499135Y742660D01*
X1499179Y742524D01*
X1499226Y742389D01*
X1499277Y742256D01*
X1499332Y742124D01*
X1499390Y741994D01*
X1499452Y741865D01*
X1499517Y741738D01*
X1499586Y741613D01*
X1499658Y741490D01*
X1499733Y741369D01*
X1499812Y741250D01*
X1499894Y741133D01*
X1499979Y741018D01*
X1500067Y740906D01*
X1500159Y740796D01*
X1500253Y740689D01*
X1500350Y740585D01*
X1500450Y740483D01*
X1500552Y740384D01*
X1500658Y740287D01*
X1500766Y740194D01*
X1500876Y740103D01*
X1500989Y740016D01*
X1501104Y739932D01*
X1501222Y739851D01*
X1501342Y739773D01*
X1501463Y739699D01*
X1501587Y739627D01*
X1501713Y739560D01*
X1501840Y739495D01*
X1501969Y739435D01*
X1502100Y739378D01*
X1502232Y739324D01*
X1502366Y739274D01*
X1502501Y739228D01*
X1506140Y746892D02*
X1506049Y746986D01*
X1505955Y747077D01*
X1505858Y747165D01*
X1505759Y747250D01*
X1505657Y747332D01*
X1505552Y747411D01*
X1505446Y747487D01*
X1505337Y747560D01*
X1505226Y747629D01*
X1505113Y747695D01*
X1504998Y747758D01*
X1504881Y747817D01*
X1504762Y747873D01*
X1504642Y747925D01*
X1504521Y747973D01*
X1504397Y748018D01*
X1504273Y748059D01*
X1504148Y748096D01*
X1504021Y748129D01*
X1503894Y748159D01*
X1503765Y748185D01*
X1503636Y748207D01*
X1503506Y748225D01*
X1503376Y748239D01*
X1503246Y748249D01*
X1503115Y748256D01*
X1502984Y748258D01*
X1506140Y746892D02*
X1515145Y739184D01*
X1515176Y748215D01*
X1515197Y754190D02*
X1514294Y754193D01*
X1514297Y755096D01*
X1515200Y755093D01*
X1515197Y754190D01*
X1507093Y761096D02*
X1506773Y761101D01*
X1506453Y761114D01*
X1506134Y761134D01*
X1505816Y761162D01*
X1505498Y761197D01*
X1505181Y761240D01*
X1504865Y761290D01*
X1504551Y761348D01*
X1504238Y761414D01*
X1503926Y761487D01*
X1503617Y761567D01*
X1503309Y761655D01*
X1503004Y761750D01*
X1502701Y761853D01*
X1502400Y761962D01*
X1502103Y762079D01*
X1501808Y762203D01*
X1501516Y762334D01*
X1501227Y762471D01*
X1501119Y762511D01*
X1501013Y762554D01*
X1500908Y762601D01*
X1500804Y762652D01*
X1500702Y762706D01*
X1500603Y762763D01*
X1500505Y762824D01*
X1500410Y762888D01*
X1500316Y762956D01*
X1500225Y763027D01*
X1500137Y763100D01*
X1500051Y763177D01*
X1499968Y763257D01*
X1499888Y763339D01*
X1499811Y763425D01*
X1499736Y763512D01*
X1499665Y763603D01*
X1499597Y763696D01*
X1499532Y763791D01*
X1499470Y763888D01*
X1499412Y763987D01*
X1499357Y764088D01*
X1499306Y764191D01*
X1499258Y764296D01*
X1499214Y764403D01*
X1499173Y764510D01*
X1499137Y764620D01*
X1499104Y764730D01*
X1499075Y764841D01*
X1499050Y764954D01*
X1499028Y765067D01*
X1499011Y765181D01*
X1498998Y765295D01*
X1498988Y765410D01*
X1498983Y765525D01*
X1498981Y765640D01*
X1498980Y765640D02*
X1498982Y765755D01*
X1498989Y765870D01*
X1498999Y765984D01*
X1499013Y766099D01*
X1499032Y766212D01*
X1499054Y766325D01*
X1499080Y766438D01*
X1499109Y766549D01*
X1499143Y766659D01*
X1499180Y766768D01*
X1499222Y766875D01*
X1499266Y766982D01*
X1499315Y767086D01*
X1499367Y767189D01*
X1499422Y767290D01*
X1499481Y767389D01*
X1499544Y767485D01*
X1499609Y767580D01*
X1499678Y767672D01*
X1499750Y767762D01*
X1499825Y767849D01*
X1499903Y767934D01*
X1499984Y768016D01*
X1500068Y768095D01*
X1500154Y768171D01*
X1500243Y768245D01*
X1500334Y768315D01*
X1500428Y768382D01*
X1500524Y768445D01*
X1500622Y768505D01*
X1500722Y768562D01*
X1500824Y768616D01*
X1500928Y768666D01*
X1501034Y768712D01*
X1501141Y768754D01*
X1501249Y768793D01*
X1501250Y768793D02*
X1501540Y768928D01*
X1501832Y769057D01*
X1502128Y769179D01*
X1502427Y769294D01*
X1502728Y769401D01*
X1503031Y769501D01*
X1503337Y769594D01*
X1503646Y769680D01*
X1503956Y769758D01*
X1504268Y769829D01*
X1504581Y769892D01*
X1504896Y769948D01*
X1505212Y769996D01*
X1505529Y770037D01*
X1505847Y770070D01*
X1506166Y770096D01*
X1506485Y770114D01*
X1506805Y770124D01*
X1507125Y770127D01*
X1507093Y761096D02*
X1507413Y761099D01*
X1507733Y761109D01*
X1508052Y761127D01*
X1508371Y761153D01*
X1508689Y761186D01*
X1509006Y761227D01*
X1509322Y761275D01*
X1509637Y761331D01*
X1509950Y761394D01*
X1510262Y761465D01*
X1510572Y761543D01*
X1510881Y761629D01*
X1511187Y761722D01*
X1511490Y761822D01*
X1511791Y761929D01*
X1512090Y762044D01*
X1512386Y762166D01*
X1512678Y762295D01*
X1512968Y762430D01*
X1513076Y762469D01*
X1513183Y762511D01*
X1513289Y762558D01*
X1513393Y762607D01*
X1513495Y762661D01*
X1513595Y762718D01*
X1513693Y762778D01*
X1513789Y762841D01*
X1513883Y762908D01*
X1513974Y762978D01*
X1514063Y763052D01*
X1514149Y763128D01*
X1514233Y763207D01*
X1514314Y763289D01*
X1514392Y763374D01*
X1514467Y763461D01*
X1514539Y763551D01*
X1514608Y763643D01*
X1514673Y763738D01*
X1514736Y763834D01*
X1514795Y763933D01*
X1514850Y764034D01*
X1514902Y764137D01*
X1514951Y764241D01*
X1514995Y764348D01*
X1515037Y764455D01*
X1515074Y764564D01*
X1515108Y764674D01*
X1515137Y764785D01*
X1515163Y764898D01*
X1515185Y765011D01*
X1515204Y765124D01*
X1515218Y765239D01*
X1515228Y765353D01*
X1515235Y765468D01*
X1515237Y765583D01*
X1512990Y768751D02*
X1512702Y768888D01*
X1512410Y769019D01*
X1512115Y769143D01*
X1511817Y769260D01*
X1511517Y769369D01*
X1511214Y769472D01*
X1510908Y769567D01*
X1510601Y769655D01*
X1510291Y769735D01*
X1509980Y769808D01*
X1509667Y769873D01*
X1509352Y769932D01*
X1509037Y769982D01*
X1508720Y770025D01*
X1508402Y770060D01*
X1508083Y770088D01*
X1507764Y770108D01*
X1507445Y770121D01*
X1507125Y770126D01*
X1512990Y768753D02*
X1513098Y768713D01*
X1513205Y768670D01*
X1513310Y768623D01*
X1513413Y768572D01*
X1513515Y768518D01*
X1513615Y768461D01*
X1513713Y768400D01*
X1513808Y768335D01*
X1513901Y768268D01*
X1513992Y768197D01*
X1514081Y768123D01*
X1514166Y768046D01*
X1514250Y767967D01*
X1514330Y767884D01*
X1514407Y767799D01*
X1514482Y767711D01*
X1514553Y767621D01*
X1514621Y767528D01*
X1514686Y767433D01*
X1514748Y767336D01*
X1514806Y767236D01*
X1514861Y767135D01*
X1514912Y767032D01*
X1514960Y766927D01*
X1515004Y766821D01*
X1515044Y766713D01*
X1515081Y766604D01*
X1515114Y766493D01*
X1515143Y766382D01*
X1515168Y766270D01*
X1515190Y766156D01*
X1515207Y766043D01*
X1515220Y765928D01*
X1515230Y765813D01*
X1515235Y765698D01*
X1515237Y765583D01*
X1511612Y761983D02*
X1502606Y769239D01*
X1515276Y776698D02*
X1515291Y781214D01*
X1515292Y781214D02*
X1515290Y781348D01*
X1515285Y781482D01*
X1515276Y781615D01*
X1515262Y781748D01*
X1515245Y781881D01*
X1515224Y782013D01*
X1515198Y782145D01*
X1515169Y782275D01*
X1515136Y782405D01*
X1515100Y782534D01*
X1515059Y782661D01*
X1515015Y782788D01*
X1514967Y782913D01*
X1514915Y783036D01*
X1514860Y783158D01*
X1514801Y783278D01*
X1514738Y783396D01*
X1514672Y783513D01*
X1514603Y783627D01*
X1514530Y783740D01*
X1514454Y783850D01*
X1514375Y783958D01*
X1514293Y784063D01*
X1514207Y784166D01*
X1514119Y784267D01*
X1514027Y784364D01*
X1513933Y784459D01*
X1513836Y784551D01*
X1513736Y784641D01*
X1513634Y784727D01*
X1513529Y784810D01*
X1513422Y784890D01*
X1513312Y784967D01*
X1513200Y785040D01*
X1513086Y785110D01*
X1512970Y785177D01*
X1512852Y785240D01*
X1512732Y785300D01*
X1512611Y785356D01*
X1512488Y785409D01*
X1512363Y785458D01*
X1512237Y785503D01*
X1512110Y785544D01*
X1511982Y785582D01*
X1511852Y785616D01*
X1511722Y785646D01*
X1511590Y785672D01*
X1511458Y785694D01*
X1511326Y785712D01*
X1511193Y785727D01*
X1511059Y785737D01*
X1510926Y785744D01*
X1510792Y785746D01*
X1510658Y785744D01*
X1510524Y785739D01*
X1510391Y785730D01*
X1510258Y785716D01*
X1510125Y785699D01*
X1509993Y785678D01*
X1509861Y785652D01*
X1509731Y785623D01*
X1509601Y785590D01*
X1509472Y785554D01*
X1509345Y785513D01*
X1509218Y785469D01*
X1509093Y785421D01*
X1508970Y785369D01*
X1508848Y785314D01*
X1508728Y785255D01*
X1508610Y785192D01*
X1508493Y785126D01*
X1508379Y785057D01*
X1508266Y784984D01*
X1508156Y784908D01*
X1508048Y784829D01*
X1507943Y784747D01*
X1507840Y784661D01*
X1507739Y784573D01*
X1507642Y784481D01*
X1507547Y784387D01*
X1507455Y784290D01*
X1507365Y784190D01*
X1507279Y784088D01*
X1507196Y783983D01*
X1507116Y783876D01*
X1507039Y783766D01*
X1506966Y783654D01*
X1506896Y783540D01*
X1506829Y783424D01*
X1506766Y783306D01*
X1506706Y783186D01*
X1506650Y783065D01*
X1506597Y782942D01*
X1506548Y782817D01*
X1506503Y782691D01*
X1506462Y782564D01*
X1506424Y782436D01*
X1506390Y782306D01*
X1506360Y782176D01*
X1506334Y782044D01*
X1506312Y781912D01*
X1506294Y781780D01*
X1506279Y781647D01*
X1506269Y781513D01*
X1506262Y781380D01*
X1506260Y781246D01*
X1499039Y782174D02*
X1499020Y776755D01*
X1499039Y782174D02*
X1499041Y782293D01*
X1499048Y782412D01*
X1499058Y782531D01*
X1499072Y782650D01*
X1499090Y782768D01*
X1499112Y782885D01*
X1499138Y783002D01*
X1499168Y783118D01*
X1499202Y783232D01*
X1499239Y783346D01*
X1499280Y783458D01*
X1499325Y783569D01*
X1499373Y783678D01*
X1499425Y783785D01*
X1499480Y783891D01*
X1499539Y783995D01*
X1499602Y784097D01*
X1499667Y784197D01*
X1499736Y784294D01*
X1499808Y784389D01*
X1499884Y784482D01*
X1499962Y784572D01*
X1500043Y784660D01*
X1500127Y784745D01*
X1500214Y784827D01*
X1500303Y784906D01*
X1500395Y784982D01*
X1500490Y785055D01*
X1500587Y785125D01*
X1500686Y785192D01*
X1500787Y785255D01*
X1500891Y785315D01*
X1500996Y785371D01*
X1501103Y785424D01*
X1501212Y785474D01*
X1501322Y785520D01*
X1501434Y785562D01*
X1501547Y785600D01*
X1501661Y785635D01*
X1501777Y785666D01*
X1501893Y785693D01*
X1502010Y785716D01*
X1502128Y785735D01*
X1502246Y785750D01*
X1502365Y785762D01*
X1502484Y785769D01*
X1502604Y785773D01*
X1502723Y785772D01*
X1502843Y785768D01*
X1502962Y785760D01*
X1503081Y785747D01*
X1503199Y785731D01*
X1503317Y785711D01*
X1503434Y785687D01*
X1503550Y785659D01*
X1503665Y785628D01*
X1503779Y785592D01*
X1503892Y785553D01*
X1504003Y785510D01*
X1504113Y785464D01*
X1504222Y785414D01*
X1504329Y785360D01*
X1504433Y785303D01*
X1504536Y785242D01*
X1504637Y785178D01*
X1504736Y785111D01*
X1504832Y785040D01*
X1504926Y784966D01*
X1505018Y784890D01*
X1505107Y784810D01*
X1505193Y784727D01*
X1505276Y784642D01*
X1505357Y784554D01*
X1505435Y784463D01*
X1505509Y784370D01*
X1505581Y784274D01*
X1505649Y784176D01*
X1505714Y784076D01*
X1505775Y783973D01*
X1505834Y783869D01*
X1505888Y783763D01*
X1505940Y783655D01*
X1505987Y783545D01*
X1506031Y783434D01*
X1506071Y783322D01*
X1506108Y783208D01*
X1506141Y783093D01*
X1506170Y782977D01*
X1506195Y782861D01*
X1506216Y782743D01*
X1506233Y782625D01*
X1506246Y782506D01*
X1506256Y782387D01*
X1506261Y782268D01*
X1506263Y782148D01*
X1506263Y782149D02*
X1506251Y778536D01*
D11*
X1478405Y754942D02*
X1478280Y712530D01*
X1498600Y712470D02*
X1498725Y754882D01*
X1477698Y735444D02*
X1426348Y735596D01*
X1499318Y735380D02*
X1574295Y735159D01*
X1477698Y735444D02*
X1452357Y738711D01*
X1452338Y732327D01*
X1477698Y735444D01*
X1452352Y736819D01*
X1452344Y734219D02*
X1477698Y735444D01*
X1452355Y738119D01*
X1452340Y732919D02*
X1477698Y735444D01*
X1499318Y735380D02*
X1524677Y738498D01*
X1524658Y732113D01*
X1499318Y735380D01*
X1524671Y736606D01*
X1524664Y734006D02*
X1499318Y735380D01*
X1524675Y737906D01*
X1524660Y732706D02*
X1499318Y735380D01*
D12*
X1530473Y758048D02*
X1530598Y758046D01*
X1530723Y758039D01*
X1530848Y758029D01*
X1530972Y758015D01*
X1531096Y757998D01*
X1531220Y757976D01*
X1531342Y757951D01*
X1531464Y757922D01*
X1531585Y757889D01*
X1531704Y757852D01*
X1531823Y757812D01*
X1531940Y757768D01*
X1532056Y757721D01*
X1532170Y757670D01*
X1532283Y757616D01*
X1532394Y757558D01*
X1532503Y757496D01*
X1532610Y757432D01*
X1532716Y757364D01*
X1532819Y757293D01*
X1532919Y757219D01*
X1533018Y757141D01*
X1533114Y757061D01*
X1533207Y756978D01*
X1533298Y756892D01*
X1533386Y756803D01*
X1533472Y756711D01*
X1533554Y756617D01*
X1533634Y756521D01*
X1533711Y756422D01*
X1533784Y756320D01*
X1533855Y756217D01*
X1533922Y756111D01*
X1533986Y756004D01*
X1534046Y755894D01*
X1534103Y755783D01*
X1534157Y755670D01*
X1534207Y755555D01*
X1534254Y755439D01*
X1534297Y755321D01*
X1534336Y755202D01*
X1534372Y755082D01*
X1534404Y754961D01*
X1534432Y754840D01*
X1534456Y754717D01*
X1534477Y754593D01*
X1534494Y754469D01*
X1534507Y754345D01*
X1534516Y754220D01*
X1534521Y754095D01*
X1534523Y753970D01*
X1530473Y758048D02*
X1530330Y758047D01*
X1530188Y758041D01*
X1530045Y758032D01*
X1529903Y758019D01*
X1529762Y758002D01*
X1529620Y757981D01*
X1529480Y757956D01*
X1529340Y757928D01*
X1529201Y757895D01*
X1529063Y757859D01*
X1528926Y757819D01*
X1528790Y757775D01*
X1528655Y757728D01*
X1528522Y757677D01*
X1528390Y757622D01*
X1528260Y757564D01*
X1528131Y757502D01*
X1528004Y757437D01*
X1527879Y757368D01*
X1527756Y757296D01*
X1527635Y757221D01*
X1527516Y757142D01*
X1527399Y757060D01*
X1527284Y756975D01*
X1527172Y756887D01*
X1527062Y756795D01*
X1526955Y756701D01*
X1526851Y756604D01*
X1526749Y756504D01*
X1526650Y756402D01*
X1526553Y756296D01*
X1526460Y756188D01*
X1526369Y756078D01*
X1526282Y755965D01*
X1526198Y755850D01*
X1526117Y755732D01*
X1526039Y755612D01*
X1525965Y755491D01*
X1525893Y755367D01*
X1525826Y755241D01*
X1525761Y755114D01*
X1525701Y754985D01*
X1525644Y754854D01*
X1525590Y754722D01*
X1525540Y754588D01*
X1525494Y754453D01*
X1533157Y750814D02*
X1533251Y750905D01*
X1533342Y750999D01*
X1533430Y751096D01*
X1533515Y751195D01*
X1533597Y751297D01*
X1533676Y751402D01*
X1533752Y751508D01*
X1533825Y751617D01*
X1533894Y751728D01*
X1533960Y751841D01*
X1534023Y751956D01*
X1534082Y752073D01*
X1534138Y752192D01*
X1534190Y752312D01*
X1534238Y752434D01*
X1534283Y752557D01*
X1534324Y752681D01*
X1534361Y752806D01*
X1534394Y752933D01*
X1534424Y753060D01*
X1534450Y753189D01*
X1534472Y753318D01*
X1534490Y753448D01*
X1534504Y753578D01*
X1534514Y753708D01*
X1534521Y753839D01*
X1534523Y753970D01*
X1533157Y750814D02*
X1525449Y741810D01*
X1534480Y741778D01*
X1540455Y741757D02*
X1540458Y742660D01*
X1541361Y742657D01*
X1541358Y741754D01*
X1540455Y741757D01*
X1547361Y749861D02*
X1547366Y750181D01*
X1547379Y750501D01*
X1547399Y750820D01*
X1547427Y751138D01*
X1547462Y751456D01*
X1547505Y751773D01*
X1547555Y752089D01*
X1547613Y752403D01*
X1547679Y752716D01*
X1547752Y753028D01*
X1547832Y753337D01*
X1547920Y753645D01*
X1548015Y753950D01*
X1548118Y754253D01*
X1548227Y754554D01*
X1548344Y754851D01*
X1548468Y755146D01*
X1548599Y755438D01*
X1548736Y755727D01*
X1548776Y755835D01*
X1548819Y755941D01*
X1548866Y756046D01*
X1548917Y756150D01*
X1548971Y756252D01*
X1549028Y756351D01*
X1549089Y756449D01*
X1549153Y756544D01*
X1549221Y756638D01*
X1549292Y756729D01*
X1549365Y756817D01*
X1549442Y756903D01*
X1549522Y756986D01*
X1549604Y757066D01*
X1549690Y757143D01*
X1549777Y757218D01*
X1549868Y757289D01*
X1549961Y757357D01*
X1550056Y757422D01*
X1550153Y757484D01*
X1550252Y757542D01*
X1550353Y757597D01*
X1550456Y757648D01*
X1550561Y757696D01*
X1550668Y757740D01*
X1550775Y757781D01*
X1550885Y757817D01*
X1550995Y757850D01*
X1551106Y757879D01*
X1551219Y757904D01*
X1551332Y757926D01*
X1551446Y757943D01*
X1551560Y757956D01*
X1551675Y757966D01*
X1551790Y757971D01*
X1551905Y757973D01*
X1551905Y757974D02*
X1552020Y757972D01*
X1552135Y757965D01*
X1552249Y757955D01*
X1552364Y757941D01*
X1552477Y757922D01*
X1552590Y757900D01*
X1552703Y757874D01*
X1552814Y757845D01*
X1552924Y757811D01*
X1553033Y757774D01*
X1553140Y757732D01*
X1553247Y757688D01*
X1553351Y757639D01*
X1553454Y757587D01*
X1553555Y757532D01*
X1553654Y757473D01*
X1553750Y757410D01*
X1553845Y757345D01*
X1553937Y757276D01*
X1554027Y757204D01*
X1554114Y757129D01*
X1554199Y757051D01*
X1554281Y756970D01*
X1554360Y756886D01*
X1554436Y756800D01*
X1554510Y756711D01*
X1554580Y756620D01*
X1554647Y756526D01*
X1554710Y756430D01*
X1554770Y756332D01*
X1554827Y756232D01*
X1554881Y756130D01*
X1554931Y756026D01*
X1554977Y755920D01*
X1555019Y755813D01*
X1555058Y755705D01*
X1555193Y755416D01*
X1555322Y755123D01*
X1555444Y754827D01*
X1555559Y754528D01*
X1555666Y754227D01*
X1555766Y753924D01*
X1555859Y753618D01*
X1555945Y753309D01*
X1556023Y752999D01*
X1556094Y752687D01*
X1556157Y752374D01*
X1556213Y752059D01*
X1556261Y751743D01*
X1556302Y751426D01*
X1556335Y751108D01*
X1556361Y750789D01*
X1556379Y750470D01*
X1556389Y750150D01*
X1556392Y749830D01*
X1547361Y749861D02*
X1547364Y749541D01*
X1547374Y749221D01*
X1547392Y748902D01*
X1547418Y748583D01*
X1547451Y748265D01*
X1547492Y747948D01*
X1547540Y747632D01*
X1547596Y747317D01*
X1547659Y747004D01*
X1547730Y746692D01*
X1547808Y746382D01*
X1547894Y746073D01*
X1547987Y745767D01*
X1548087Y745464D01*
X1548194Y745163D01*
X1548309Y744864D01*
X1548431Y744568D01*
X1548560Y744276D01*
X1548695Y743986D01*
X1548734Y743878D01*
X1548776Y743771D01*
X1548823Y743665D01*
X1548872Y743561D01*
X1548926Y743459D01*
X1548983Y743359D01*
X1549043Y743261D01*
X1549106Y743165D01*
X1549173Y743071D01*
X1549243Y742980D01*
X1549317Y742891D01*
X1549393Y742805D01*
X1549472Y742721D01*
X1549554Y742640D01*
X1549639Y742562D01*
X1549726Y742487D01*
X1549816Y742415D01*
X1549908Y742346D01*
X1550003Y742281D01*
X1550099Y742218D01*
X1550198Y742159D01*
X1550299Y742104D01*
X1550402Y742052D01*
X1550506Y742003D01*
X1550613Y741959D01*
X1550720Y741917D01*
X1550829Y741880D01*
X1550939Y741846D01*
X1551050Y741817D01*
X1551163Y741791D01*
X1551276Y741769D01*
X1551389Y741750D01*
X1551504Y741736D01*
X1551618Y741726D01*
X1551733Y741719D01*
X1551848Y741717D01*
X1555017Y743965D02*
X1555155Y744254D01*
X1555285Y744545D01*
X1555409Y744840D01*
X1555526Y745138D01*
X1555635Y745438D01*
X1555738Y745741D01*
X1555833Y746047D01*
X1555921Y746354D01*
X1556001Y746664D01*
X1556074Y746975D01*
X1556139Y747288D01*
X1556198Y747603D01*
X1556248Y747918D01*
X1556291Y748235D01*
X1556326Y748553D01*
X1556354Y748872D01*
X1556374Y749191D01*
X1556387Y749510D01*
X1556392Y749830D01*
X1555018Y743964D02*
X1554978Y743856D01*
X1554935Y743749D01*
X1554888Y743644D01*
X1554837Y743541D01*
X1554783Y743439D01*
X1554726Y743339D01*
X1554665Y743242D01*
X1554600Y743146D01*
X1554533Y743053D01*
X1554462Y742962D01*
X1554388Y742873D01*
X1554311Y742788D01*
X1554232Y742704D01*
X1554149Y742624D01*
X1554064Y742547D01*
X1553976Y742472D01*
X1553886Y742401D01*
X1553793Y742333D01*
X1553698Y742268D01*
X1553601Y742206D01*
X1553501Y742148D01*
X1553400Y742093D01*
X1553297Y742042D01*
X1553192Y741994D01*
X1553086Y741950D01*
X1552978Y741910D01*
X1552869Y741873D01*
X1552758Y741840D01*
X1552647Y741811D01*
X1552535Y741786D01*
X1552421Y741764D01*
X1552308Y741747D01*
X1552193Y741734D01*
X1552078Y741724D01*
X1551963Y741719D01*
X1551848Y741717D01*
X1548248Y745343D02*
X1555505Y754348D01*
X1562964Y741679D02*
X1567479Y741663D01*
X1567479Y741662D02*
X1567612Y741664D01*
X1567744Y741669D01*
X1567877Y741678D01*
X1568008Y741691D01*
X1568140Y741708D01*
X1568271Y741729D01*
X1568401Y741754D01*
X1568531Y741782D01*
X1568659Y741815D01*
X1568787Y741851D01*
X1568913Y741891D01*
X1569039Y741934D01*
X1569163Y741981D01*
X1569285Y742032D01*
X1569406Y742086D01*
X1569525Y742144D01*
X1569643Y742205D01*
X1569758Y742270D01*
X1569872Y742338D01*
X1569984Y742410D01*
X1570093Y742484D01*
X1570201Y742562D01*
X1570306Y742643D01*
X1570408Y742727D01*
X1570508Y742814D01*
X1570606Y742904D01*
X1570701Y742997D01*
X1570793Y743092D01*
X1570882Y743191D01*
X1570968Y743291D01*
X1571051Y743395D01*
X1571131Y743500D01*
X1571208Y743608D01*
X1571282Y743718D01*
X1571353Y743830D01*
X1571420Y743945D01*
X1571484Y744061D01*
X1571544Y744179D01*
X1571601Y744299D01*
X1571655Y744420D01*
X1571705Y744543D01*
X1571751Y744667D01*
X1571793Y744793D01*
X1571832Y744919D01*
X1571867Y745047D01*
X1571898Y745176D01*
X1571926Y745306D01*
X1571950Y745436D01*
X1571970Y745567D01*
X1571986Y745699D01*
X1571998Y745831D01*
X1572006Y745963D01*
X1572010Y746096D01*
X1572011Y746229D01*
X1572007Y746361D01*
X1572000Y746493D01*
X1571989Y746626D01*
X1571974Y746757D01*
X1571955Y746889D01*
X1571932Y747019D01*
X1571905Y747149D01*
X1571875Y747278D01*
X1571841Y747406D01*
X1571803Y747533D01*
X1571761Y747659D01*
X1571716Y747784D01*
X1571667Y747907D01*
X1571614Y748029D01*
X1571558Y748149D01*
X1571499Y748267D01*
X1571436Y748384D01*
X1571369Y748499D01*
X1571299Y748611D01*
X1571226Y748722D01*
X1571150Y748830D01*
X1571071Y748937D01*
X1570988Y749040D01*
X1570902Y749142D01*
X1570814Y749240D01*
X1570723Y749337D01*
X1570629Y749430D01*
X1570532Y749521D01*
X1570432Y749608D01*
X1570330Y749693D01*
X1570226Y749775D01*
X1570119Y749853D01*
X1570010Y749929D01*
X1569899Y750001D01*
X1569786Y750070D01*
X1569670Y750135D01*
X1569553Y750198D01*
X1569434Y750256D01*
X1569314Y750312D01*
X1569192Y750363D01*
X1569068Y750411D01*
X1568943Y750455D01*
X1568817Y750496D01*
X1568690Y750533D01*
X1568561Y750566D01*
X1568432Y750596D01*
X1568302Y750621D01*
X1568171Y750643D01*
X1568040Y750661D01*
X1567908Y750675D01*
X1567776Y750685D01*
X1567643Y750692D01*
X1567511Y750694D01*
X1568439Y757916D02*
X1563020Y757935D01*
X1568439Y757915D02*
X1568558Y757913D01*
X1568677Y757906D01*
X1568796Y757896D01*
X1568915Y757882D01*
X1569033Y757864D01*
X1569150Y757842D01*
X1569267Y757816D01*
X1569383Y757786D01*
X1569497Y757752D01*
X1569611Y757715D01*
X1569723Y757674D01*
X1569834Y757629D01*
X1569943Y757581D01*
X1570050Y757529D01*
X1570156Y757474D01*
X1570260Y757415D01*
X1570362Y757352D01*
X1570462Y757287D01*
X1570559Y757218D01*
X1570654Y757146D01*
X1570747Y757070D01*
X1570837Y756992D01*
X1570925Y756911D01*
X1571010Y756827D01*
X1571092Y756740D01*
X1571171Y756651D01*
X1571247Y756559D01*
X1571320Y756464D01*
X1571390Y756367D01*
X1571457Y756268D01*
X1571520Y756167D01*
X1571580Y756063D01*
X1571636Y755958D01*
X1571689Y755851D01*
X1571739Y755742D01*
X1571785Y755632D01*
X1571827Y755520D01*
X1571865Y755407D01*
X1571900Y755293D01*
X1571931Y755177D01*
X1571958Y755061D01*
X1571981Y754944D01*
X1572000Y754826D01*
X1572015Y754708D01*
X1572027Y754589D01*
X1572034Y754470D01*
X1572038Y754350D01*
X1572037Y754231D01*
X1572033Y754111D01*
X1572025Y753992D01*
X1572012Y753873D01*
X1571996Y753755D01*
X1571976Y753637D01*
X1571952Y753520D01*
X1571924Y753404D01*
X1571893Y753289D01*
X1571857Y753175D01*
X1571818Y753062D01*
X1571775Y752951D01*
X1571729Y752841D01*
X1571679Y752732D01*
X1571625Y752625D01*
X1571568Y752521D01*
X1571507Y752418D01*
X1571443Y752317D01*
X1571376Y752218D01*
X1571305Y752122D01*
X1571231Y752028D01*
X1571155Y751936D01*
X1571075Y751847D01*
X1570992Y751761D01*
X1570907Y751678D01*
X1570819Y751597D01*
X1570728Y751519D01*
X1570635Y751445D01*
X1570539Y751373D01*
X1570441Y751305D01*
X1570341Y751240D01*
X1570238Y751179D01*
X1570134Y751120D01*
X1570028Y751066D01*
X1569920Y751014D01*
X1569810Y750967D01*
X1569699Y750923D01*
X1569587Y750883D01*
X1569473Y750846D01*
X1569358Y750813D01*
X1569242Y750784D01*
X1569126Y750759D01*
X1569008Y750738D01*
X1568890Y750721D01*
X1568771Y750708D01*
X1568652Y750698D01*
X1568533Y750693D01*
X1568413Y750691D01*
X1568414Y750691D02*
X1564801Y750703D01*
D11*
X0Y0D02*
X0Y-70300D01*
X1498000Y-70300D02*
X1498000Y0D01*
X1497350Y-50800D02*
X650Y-50800D01*
X26000Y-47608D01*
X26000Y-53992D01*
X650Y-50800D01*
X26000Y-49500D01*
X26000Y-52100D02*
X650Y-50800D01*
X26000Y-48200D01*
X26000Y-53400D02*
X650Y-50800D01*
X1472000Y-47608D02*
X1497350Y-50800D01*
X1472000Y-47608D02*
X1472000Y-53992D01*
X1497350Y-50800D01*
X1472000Y-49500D01*
X1472000Y-52100D02*
X1497350Y-50800D01*
X1472000Y-48200D01*
X1472000Y-53400D02*
X1497350Y-50800D01*
D12*
X715271Y-28037D02*
X710756Y-31649D01*
X715271Y-28037D02*
X715271Y-44293D01*
X710756Y-44293D02*
X719787Y-44293D01*
X726387Y-40681D02*
X730000Y-28037D01*
X726387Y-40681D02*
X735418Y-40681D01*
X732709Y-37068D02*
X732709Y-44293D01*
X745631Y-37068D02*
X751049Y-37068D01*
X745631Y-37068D02*
X745513Y-37066D01*
X745395Y-37060D01*
X745277Y-37051D01*
X745160Y-37037D01*
X745043Y-37020D01*
X744926Y-36999D01*
X744811Y-36974D01*
X744696Y-36945D01*
X744582Y-36912D01*
X744470Y-36876D01*
X744359Y-36836D01*
X744249Y-36793D01*
X744140Y-36746D01*
X744033Y-36696D01*
X743928Y-36641D01*
X743825Y-36584D01*
X743724Y-36523D01*
X743624Y-36459D01*
X743527Y-36392D01*
X743432Y-36322D01*
X743340Y-36248D01*
X743249Y-36172D01*
X743162Y-36092D01*
X743077Y-36010D01*
X742995Y-35925D01*
X742915Y-35838D01*
X742839Y-35747D01*
X742765Y-35655D01*
X742695Y-35560D01*
X742628Y-35463D01*
X742564Y-35363D01*
X742503Y-35262D01*
X742446Y-35159D01*
X742391Y-35054D01*
X742341Y-34947D01*
X742294Y-34838D01*
X742251Y-34728D01*
X742211Y-34617D01*
X742175Y-34505D01*
X742142Y-34391D01*
X742113Y-34276D01*
X742088Y-34161D01*
X742067Y-34044D01*
X742050Y-33927D01*
X742036Y-33810D01*
X742027Y-33692D01*
X742021Y-33574D01*
X742019Y-33456D01*
X742018Y-33456D02*
X742018Y-32553D01*
X742020Y-32420D01*
X742026Y-32288D01*
X742036Y-32156D01*
X742049Y-32024D01*
X742067Y-31892D01*
X742088Y-31762D01*
X742113Y-31631D01*
X742142Y-31502D01*
X742175Y-31374D01*
X742211Y-31246D01*
X742251Y-31120D01*
X742295Y-30995D01*
X742343Y-30871D01*
X742394Y-30749D01*
X742449Y-30628D01*
X742507Y-30509D01*
X742569Y-30391D01*
X742634Y-30276D01*
X742703Y-30162D01*
X742774Y-30051D01*
X742850Y-29942D01*
X742928Y-29835D01*
X743009Y-29730D01*
X743094Y-29628D01*
X743181Y-29528D01*
X743271Y-29431D01*
X743364Y-29336D01*
X743460Y-29245D01*
X743558Y-29156D01*
X743659Y-29070D01*
X743763Y-28987D01*
X743869Y-28907D01*
X743977Y-28831D01*
X744087Y-28757D01*
X744200Y-28687D01*
X744314Y-28620D01*
X744431Y-28557D01*
X744549Y-28497D01*
X744669Y-28440D01*
X744791Y-28387D01*
X744914Y-28338D01*
X745038Y-28292D01*
X745164Y-28250D01*
X745291Y-28212D01*
X745419Y-28177D01*
X745548Y-28146D01*
X745677Y-28119D01*
X745808Y-28096D01*
X745939Y-28076D01*
X746071Y-28061D01*
X746203Y-28049D01*
X746335Y-28041D01*
X746468Y-28037D01*
X746600Y-28037D01*
X746733Y-28041D01*
X746865Y-28049D01*
X746997Y-28061D01*
X747129Y-28076D01*
X747260Y-28096D01*
X747391Y-28119D01*
X747520Y-28146D01*
X747649Y-28177D01*
X747777Y-28212D01*
X747904Y-28250D01*
X748030Y-28292D01*
X748154Y-28338D01*
X748277Y-28387D01*
X748399Y-28440D01*
X748519Y-28497D01*
X748637Y-28557D01*
X748754Y-28620D01*
X748868Y-28687D01*
X748981Y-28757D01*
X749091Y-28831D01*
X749199Y-28907D01*
X749305Y-28987D01*
X749409Y-29070D01*
X749510Y-29156D01*
X749608Y-29245D01*
X749704Y-29336D01*
X749797Y-29431D01*
X749887Y-29528D01*
X749974Y-29628D01*
X750059Y-29730D01*
X750140Y-29835D01*
X750218Y-29942D01*
X750294Y-30051D01*
X750365Y-30162D01*
X750434Y-30276D01*
X750499Y-30391D01*
X750561Y-30509D01*
X750619Y-30628D01*
X750674Y-30749D01*
X750725Y-30871D01*
X750773Y-30995D01*
X750817Y-31120D01*
X750857Y-31246D01*
X750893Y-31374D01*
X750926Y-31502D01*
X750955Y-31631D01*
X750980Y-31762D01*
X751001Y-31892D01*
X751019Y-32024D01*
X751032Y-32156D01*
X751042Y-32288D01*
X751048Y-32420D01*
X751050Y-32553D01*
X751049Y-32553D02*
X751049Y-37068D01*
X751050Y-37068D02*
X751048Y-37243D01*
X751042Y-37417D01*
X751031Y-37591D01*
X751016Y-37765D01*
X750997Y-37939D01*
X750974Y-38112D01*
X750947Y-38284D01*
X750915Y-38456D01*
X750880Y-38627D01*
X750840Y-38797D01*
X750796Y-38966D01*
X750748Y-39134D01*
X750696Y-39301D01*
X750640Y-39466D01*
X750580Y-39630D01*
X750517Y-39793D01*
X750449Y-39953D01*
X750377Y-40113D01*
X750302Y-40270D01*
X750222Y-40426D01*
X750139Y-40579D01*
X750053Y-40731D01*
X749962Y-40880D01*
X749868Y-41027D01*
X749771Y-41172D01*
X749670Y-41315D01*
X749566Y-41455D01*
X749458Y-41592D01*
X749347Y-41727D01*
X749233Y-41859D01*
X749116Y-41988D01*
X748995Y-42115D01*
X748872Y-42238D01*
X748745Y-42359D01*
X748616Y-42476D01*
X748484Y-42590D01*
X748349Y-42701D01*
X748212Y-42809D01*
X748072Y-42913D01*
X747929Y-43014D01*
X747784Y-43111D01*
X747637Y-43205D01*
X747488Y-43296D01*
X747336Y-43382D01*
X747183Y-43465D01*
X747027Y-43545D01*
X746870Y-43620D01*
X746710Y-43692D01*
X746550Y-43760D01*
X746387Y-43823D01*
X746223Y-43883D01*
X746058Y-43939D01*
X745891Y-43991D01*
X745723Y-44039D01*
X745554Y-44083D01*
X745384Y-44123D01*
X745213Y-44158D01*
X745041Y-44190D01*
X744869Y-44217D01*
X744696Y-44240D01*
X744522Y-44259D01*
X744348Y-44274D01*
X744174Y-44285D01*
X744000Y-44291D01*
X743825Y-44293D01*
X757024Y-44293D02*
X757024Y-43390D01*
X757927Y-43390D01*
X757927Y-44293D01*
X757024Y-44293D01*
X763902Y-39777D02*
X763904Y-39644D01*
X763910Y-39512D01*
X763920Y-39380D01*
X763933Y-39248D01*
X763951Y-39116D01*
X763972Y-38986D01*
X763997Y-38855D01*
X764026Y-38726D01*
X764059Y-38598D01*
X764095Y-38470D01*
X764135Y-38344D01*
X764179Y-38219D01*
X764227Y-38095D01*
X764278Y-37973D01*
X764333Y-37852D01*
X764391Y-37733D01*
X764453Y-37615D01*
X764518Y-37500D01*
X764587Y-37386D01*
X764658Y-37275D01*
X764734Y-37166D01*
X764812Y-37059D01*
X764893Y-36954D01*
X764978Y-36852D01*
X765065Y-36752D01*
X765155Y-36655D01*
X765248Y-36560D01*
X765344Y-36469D01*
X765442Y-36380D01*
X765543Y-36294D01*
X765647Y-36211D01*
X765753Y-36131D01*
X765861Y-36055D01*
X765971Y-35981D01*
X766084Y-35911D01*
X766198Y-35844D01*
X766315Y-35781D01*
X766433Y-35721D01*
X766553Y-35664D01*
X766675Y-35611D01*
X766798Y-35562D01*
X766922Y-35516D01*
X767048Y-35474D01*
X767175Y-35436D01*
X767303Y-35401D01*
X767432Y-35370D01*
X767561Y-35343D01*
X767692Y-35320D01*
X767823Y-35300D01*
X767955Y-35285D01*
X768087Y-35273D01*
X768219Y-35265D01*
X768352Y-35261D01*
X768484Y-35261D01*
X768617Y-35265D01*
X768749Y-35273D01*
X768881Y-35285D01*
X769013Y-35300D01*
X769144Y-35320D01*
X769275Y-35343D01*
X769404Y-35370D01*
X769533Y-35401D01*
X769661Y-35436D01*
X769788Y-35474D01*
X769914Y-35516D01*
X770038Y-35562D01*
X770161Y-35611D01*
X770283Y-35664D01*
X770403Y-35721D01*
X770521Y-35781D01*
X770638Y-35844D01*
X770752Y-35911D01*
X770865Y-35981D01*
X770975Y-36055D01*
X771083Y-36131D01*
X771189Y-36211D01*
X771293Y-36294D01*
X771394Y-36380D01*
X771492Y-36469D01*
X771588Y-36560D01*
X771681Y-36655D01*
X771771Y-36752D01*
X771858Y-36852D01*
X771943Y-36954D01*
X772024Y-37059D01*
X772102Y-37166D01*
X772178Y-37275D01*
X772249Y-37386D01*
X772318Y-37500D01*
X772383Y-37615D01*
X772445Y-37733D01*
X772503Y-37852D01*
X772558Y-37973D01*
X772609Y-38095D01*
X772657Y-38219D01*
X772701Y-38344D01*
X772741Y-38470D01*
X772777Y-38598D01*
X772810Y-38726D01*
X772839Y-38855D01*
X772864Y-38986D01*
X772885Y-39116D01*
X772903Y-39248D01*
X772916Y-39380D01*
X772926Y-39512D01*
X772932Y-39644D01*
X772934Y-39777D01*
X772932Y-39910D01*
X772926Y-40042D01*
X772916Y-40174D01*
X772903Y-40306D01*
X772885Y-40438D01*
X772864Y-40568D01*
X772839Y-40699D01*
X772810Y-40828D01*
X772777Y-40956D01*
X772741Y-41084D01*
X772701Y-41210D01*
X772657Y-41335D01*
X772609Y-41459D01*
X772558Y-41581D01*
X772503Y-41702D01*
X772445Y-41821D01*
X772383Y-41939D01*
X772318Y-42054D01*
X772249Y-42168D01*
X772178Y-42279D01*
X772102Y-42388D01*
X772024Y-42495D01*
X771943Y-42600D01*
X771858Y-42702D01*
X771771Y-42802D01*
X771681Y-42899D01*
X771588Y-42994D01*
X771492Y-43085D01*
X771394Y-43174D01*
X771293Y-43260D01*
X771189Y-43343D01*
X771083Y-43423D01*
X770975Y-43499D01*
X770865Y-43573D01*
X770752Y-43643D01*
X770638Y-43710D01*
X770521Y-43773D01*
X770403Y-43833D01*
X770283Y-43890D01*
X770161Y-43943D01*
X770038Y-43992D01*
X769914Y-44038D01*
X769788Y-44080D01*
X769661Y-44118D01*
X769533Y-44153D01*
X769404Y-44184D01*
X769275Y-44211D01*
X769144Y-44234D01*
X769013Y-44254D01*
X768881Y-44269D01*
X768749Y-44281D01*
X768617Y-44289D01*
X768484Y-44293D01*
X768352Y-44293D01*
X768219Y-44289D01*
X768087Y-44281D01*
X767955Y-44269D01*
X767823Y-44254D01*
X767692Y-44234D01*
X767561Y-44211D01*
X767432Y-44184D01*
X767303Y-44153D01*
X767175Y-44118D01*
X767048Y-44080D01*
X766922Y-44038D01*
X766798Y-43992D01*
X766675Y-43943D01*
X766553Y-43890D01*
X766433Y-43833D01*
X766315Y-43773D01*
X766198Y-43710D01*
X766084Y-43643D01*
X765971Y-43573D01*
X765861Y-43499D01*
X765753Y-43423D01*
X765647Y-43343D01*
X765543Y-43260D01*
X765442Y-43174D01*
X765344Y-43085D01*
X765248Y-42994D01*
X765155Y-42899D01*
X765065Y-42802D01*
X764978Y-42702D01*
X764893Y-42600D01*
X764812Y-42495D01*
X764734Y-42388D01*
X764658Y-42279D01*
X764587Y-42168D01*
X764518Y-42054D01*
X764453Y-41939D01*
X764391Y-41821D01*
X764333Y-41702D01*
X764278Y-41581D01*
X764227Y-41459D01*
X764179Y-41335D01*
X764135Y-41210D01*
X764095Y-41084D01*
X764059Y-40956D01*
X764026Y-40828D01*
X763997Y-40699D01*
X763972Y-40568D01*
X763951Y-40438D01*
X763933Y-40306D01*
X763920Y-40174D01*
X763910Y-40042D01*
X763904Y-39910D01*
X763902Y-39777D01*
X764806Y-31649D02*
X764808Y-31530D01*
X764814Y-31410D01*
X764824Y-31291D01*
X764838Y-31173D01*
X764855Y-31054D01*
X764877Y-30937D01*
X764902Y-30820D01*
X764932Y-30705D01*
X764965Y-30590D01*
X765002Y-30476D01*
X765042Y-30364D01*
X765087Y-30253D01*
X765135Y-30144D01*
X765186Y-30036D01*
X765241Y-29930D01*
X765300Y-29826D01*
X765362Y-29724D01*
X765427Y-29624D01*
X765496Y-29526D01*
X765568Y-29430D01*
X765643Y-29337D01*
X765720Y-29247D01*
X765801Y-29159D01*
X765885Y-29074D01*
X765972Y-28992D01*
X766061Y-28912D01*
X766153Y-28836D01*
X766247Y-28762D01*
X766344Y-28692D01*
X766442Y-28625D01*
X766543Y-28561D01*
X766647Y-28501D01*
X766752Y-28444D01*
X766859Y-28391D01*
X766967Y-28341D01*
X767077Y-28295D01*
X767189Y-28253D01*
X767302Y-28214D01*
X767416Y-28179D01*
X767531Y-28148D01*
X767648Y-28120D01*
X767765Y-28097D01*
X767882Y-28077D01*
X768001Y-28061D01*
X768120Y-28049D01*
X768239Y-28041D01*
X768358Y-28037D01*
X768478Y-28037D01*
X768597Y-28041D01*
X768716Y-28049D01*
X768835Y-28061D01*
X768954Y-28077D01*
X769071Y-28097D01*
X769188Y-28120D01*
X769305Y-28148D01*
X769420Y-28179D01*
X769534Y-28214D01*
X769647Y-28253D01*
X769759Y-28295D01*
X769869Y-28341D01*
X769977Y-28391D01*
X770084Y-28444D01*
X770189Y-28501D01*
X770293Y-28561D01*
X770394Y-28625D01*
X770492Y-28692D01*
X770589Y-28762D01*
X770683Y-28836D01*
X770775Y-28912D01*
X770864Y-28992D01*
X770951Y-29074D01*
X771035Y-29159D01*
X771116Y-29247D01*
X771193Y-29337D01*
X771268Y-29430D01*
X771340Y-29526D01*
X771409Y-29624D01*
X771474Y-29724D01*
X771536Y-29826D01*
X771595Y-29930D01*
X771650Y-30036D01*
X771701Y-30144D01*
X771749Y-30253D01*
X771794Y-30364D01*
X771834Y-30476D01*
X771871Y-30590D01*
X771904Y-30705D01*
X771934Y-30820D01*
X771959Y-30937D01*
X771981Y-31054D01*
X771998Y-31173D01*
X772012Y-31291D01*
X772022Y-31410D01*
X772028Y-31530D01*
X772030Y-31649D01*
X772028Y-31768D01*
X772022Y-31888D01*
X772012Y-32007D01*
X771998Y-32125D01*
X771981Y-32244D01*
X771959Y-32361D01*
X771934Y-32478D01*
X771904Y-32593D01*
X771871Y-32708D01*
X771834Y-32822D01*
X771794Y-32934D01*
X771749Y-33045D01*
X771701Y-33154D01*
X771650Y-33262D01*
X771595Y-33368D01*
X771536Y-33472D01*
X771474Y-33574D01*
X771409Y-33674D01*
X771340Y-33772D01*
X771268Y-33868D01*
X771193Y-33961D01*
X771116Y-34051D01*
X771035Y-34139D01*
X770951Y-34224D01*
X770864Y-34306D01*
X770775Y-34386D01*
X770683Y-34462D01*
X770589Y-34536D01*
X770492Y-34606D01*
X770394Y-34673D01*
X770293Y-34737D01*
X770189Y-34797D01*
X770084Y-34854D01*
X769977Y-34907D01*
X769869Y-34957D01*
X769759Y-35003D01*
X769647Y-35045D01*
X769534Y-35084D01*
X769420Y-35119D01*
X769305Y-35150D01*
X769188Y-35178D01*
X769071Y-35201D01*
X768954Y-35221D01*
X768835Y-35237D01*
X768716Y-35249D01*
X768597Y-35257D01*
X768478Y-35261D01*
X768358Y-35261D01*
X768239Y-35257D01*
X768120Y-35249D01*
X768001Y-35237D01*
X767882Y-35221D01*
X767765Y-35201D01*
X767648Y-35178D01*
X767531Y-35150D01*
X767416Y-35119D01*
X767302Y-35084D01*
X767189Y-35045D01*
X767077Y-35003D01*
X766967Y-34957D01*
X766859Y-34907D01*
X766752Y-34854D01*
X766647Y-34797D01*
X766543Y-34737D01*
X766442Y-34673D01*
X766344Y-34606D01*
X766247Y-34536D01*
X766153Y-34462D01*
X766061Y-34386D01*
X765972Y-34306D01*
X765885Y-34224D01*
X765801Y-34139D01*
X765720Y-34051D01*
X765643Y-33961D01*
X765568Y-33868D01*
X765496Y-33772D01*
X765427Y-33674D01*
X765362Y-33574D01*
X765300Y-33472D01*
X765241Y-33368D01*
X765186Y-33262D01*
X765135Y-33154D01*
X765087Y-33045D01*
X765042Y-32934D01*
X765002Y-32822D01*
X764965Y-32708D01*
X764932Y-32593D01*
X764902Y-32478D01*
X764877Y-32361D01*
X764855Y-32244D01*
X764838Y-32125D01*
X764824Y-32007D01*
X764814Y-31888D01*
X764808Y-31768D01*
X764806Y-31649D01*
X779534Y-36165D02*
X779538Y-35845D01*
X779549Y-35526D01*
X779568Y-35206D01*
X779595Y-34888D01*
X779629Y-34570D01*
X779671Y-34253D01*
X779721Y-33937D01*
X779778Y-33622D01*
X779842Y-33309D01*
X779914Y-32997D01*
X779993Y-32687D01*
X780080Y-32380D01*
X780174Y-32074D01*
X780275Y-31771D01*
X780384Y-31470D01*
X780499Y-31172D01*
X780622Y-30876D01*
X780752Y-30584D01*
X780889Y-30295D01*
X780889Y-30294D02*
X780928Y-30186D01*
X780971Y-30079D01*
X781017Y-29974D01*
X781067Y-29871D01*
X781121Y-29769D01*
X781178Y-29669D01*
X781239Y-29571D01*
X781303Y-29475D01*
X781370Y-29382D01*
X781440Y-29291D01*
X781514Y-29202D01*
X781590Y-29116D01*
X781670Y-29033D01*
X781752Y-28952D01*
X781837Y-28874D01*
X781924Y-28800D01*
X782015Y-28728D01*
X782107Y-28659D01*
X782202Y-28594D01*
X782299Y-28532D01*
X782398Y-28473D01*
X782499Y-28418D01*
X782602Y-28367D01*
X782707Y-28319D01*
X782813Y-28274D01*
X782920Y-28233D01*
X783029Y-28196D01*
X783140Y-28163D01*
X783251Y-28134D01*
X783363Y-28108D01*
X783476Y-28086D01*
X783590Y-28069D01*
X783704Y-28055D01*
X783819Y-28045D01*
X783934Y-28039D01*
X784049Y-28037D01*
X784164Y-28039D01*
X784279Y-28045D01*
X784394Y-28055D01*
X784508Y-28069D01*
X784622Y-28086D01*
X784735Y-28108D01*
X784847Y-28134D01*
X784959Y-28163D01*
X785069Y-28196D01*
X785178Y-28233D01*
X785286Y-28274D01*
X785392Y-28319D01*
X785497Y-28367D01*
X785599Y-28418D01*
X785701Y-28474D01*
X785800Y-28532D01*
X785897Y-28594D01*
X785992Y-28660D01*
X786084Y-28728D01*
X786174Y-28800D01*
X786262Y-28874D01*
X786347Y-28952D01*
X786429Y-29033D01*
X786508Y-29116D01*
X786585Y-29202D01*
X786658Y-29291D01*
X786729Y-29382D01*
X786796Y-29476D01*
X786860Y-29571D01*
X786921Y-29669D01*
X786978Y-29769D01*
X787031Y-29871D01*
X787082Y-29975D01*
X787128Y-30080D01*
X787171Y-30187D01*
X787210Y-30295D01*
X787209Y-30295D02*
X787346Y-30584D01*
X787476Y-30876D01*
X787599Y-31172D01*
X787714Y-31470D01*
X787823Y-31771D01*
X787924Y-32074D01*
X788018Y-32380D01*
X788105Y-32687D01*
X788184Y-32997D01*
X788256Y-33309D01*
X788320Y-33622D01*
X788377Y-33937D01*
X788427Y-34253D01*
X788469Y-34570D01*
X788503Y-34888D01*
X788530Y-35206D01*
X788549Y-35526D01*
X788560Y-35845D01*
X788564Y-36165D01*
X779534Y-36165D02*
X779538Y-36485D01*
X779549Y-36804D01*
X779568Y-37124D01*
X779595Y-37442D01*
X779629Y-37760D01*
X779671Y-38077D01*
X779721Y-38393D01*
X779778Y-38708D01*
X779842Y-39021D01*
X779914Y-39333D01*
X779993Y-39643D01*
X780080Y-39950D01*
X780174Y-40256D01*
X780275Y-40559D01*
X780384Y-40860D01*
X780499Y-41158D01*
X780622Y-41454D01*
X780752Y-41746D01*
X780889Y-42035D01*
X780888Y-42036D02*
X780927Y-42144D01*
X780970Y-42251D01*
X781016Y-42356D01*
X781067Y-42460D01*
X781120Y-42562D01*
X781177Y-42662D01*
X781238Y-42760D01*
X781302Y-42855D01*
X781369Y-42949D01*
X781440Y-43040D01*
X781513Y-43129D01*
X781590Y-43215D01*
X781669Y-43298D01*
X781751Y-43379D01*
X781836Y-43457D01*
X781924Y-43531D01*
X782014Y-43603D01*
X782107Y-43672D01*
X782201Y-43737D01*
X782298Y-43799D01*
X782398Y-43857D01*
X782499Y-43913D01*
X782601Y-43964D01*
X782706Y-44012D01*
X782812Y-44057D01*
X782920Y-44098D01*
X783029Y-44135D01*
X783139Y-44168D01*
X783251Y-44197D01*
X783363Y-44223D01*
X783476Y-44245D01*
X783590Y-44262D01*
X783704Y-44276D01*
X783819Y-44286D01*
X783934Y-44292D01*
X784049Y-44294D01*
X787209Y-42035D02*
X787346Y-41746D01*
X787476Y-41454D01*
X787599Y-41158D01*
X787714Y-40860D01*
X787823Y-40559D01*
X787924Y-40256D01*
X788018Y-39950D01*
X788105Y-39643D01*
X788184Y-39333D01*
X788256Y-39021D01*
X788320Y-38708D01*
X788377Y-38393D01*
X788427Y-38077D01*
X788469Y-37760D01*
X788503Y-37442D01*
X788530Y-37124D01*
X788549Y-36804D01*
X788560Y-36485D01*
X788564Y-36165D01*
X787210Y-42035D02*
X787171Y-42143D01*
X787128Y-42250D01*
X787082Y-42355D01*
X787031Y-42459D01*
X786978Y-42561D01*
X786921Y-42661D01*
X786860Y-42759D01*
X786796Y-42854D01*
X786729Y-42948D01*
X786658Y-43039D01*
X786585Y-43128D01*
X786508Y-43214D01*
X786429Y-43297D01*
X786347Y-43378D01*
X786262Y-43456D01*
X786174Y-43530D01*
X786084Y-43602D01*
X785991Y-43671D01*
X785897Y-43736D01*
X785800Y-43798D01*
X785700Y-43856D01*
X785599Y-43912D01*
X785496Y-43963D01*
X785392Y-44011D01*
X785286Y-44056D01*
X785178Y-44097D01*
X785069Y-44134D01*
X784959Y-44167D01*
X784847Y-44196D01*
X784735Y-44222D01*
X784622Y-44244D01*
X784508Y-44261D01*
X784394Y-44275D01*
X784279Y-44285D01*
X784164Y-44291D01*
X784049Y-44293D01*
X780436Y-40681D02*
X787661Y-31649D01*
D11*
X0Y713800D02*
X-83000Y713800D01*
X-83000Y0D02*
X0Y0D01*
X-63500Y650D02*
X-63500Y713150D01*
X-66692Y687800D01*
X-60308Y687800D01*
X-63500Y713150D01*
X-64800Y687800D01*
X-62200Y687800D02*
X-63500Y713150D01*
X-66100Y687800D01*
X-60900Y687800D02*
X-63500Y713150D01*
X-66692Y26000D02*
X-63500Y650D01*
X-66692Y26000D02*
X-60308Y26000D01*
X-63500Y650D01*
X-64800Y26000D01*
X-62200Y26000D02*
X-63500Y650D01*
X-66100Y26000D01*
X-60900Y26000D02*
X-63500Y650D01*
D12*
X-84457Y325752D02*
X-86263Y325752D01*
X-86263Y334783D01*
X-70007Y330268D01*
X-82651Y341383D02*
X-86263Y345899D01*
X-70007Y345899D01*
X-70007Y350414D02*
X-70007Y341383D01*
X-70007Y356389D02*
X-70910Y356389D01*
X-70910Y357292D01*
X-70007Y357292D01*
X-70007Y356389D01*
X-70007Y363267D02*
X-70007Y367782D01*
X-70009Y367915D01*
X-70015Y368047D01*
X-70025Y368179D01*
X-70038Y368311D01*
X-70056Y368443D01*
X-70077Y368573D01*
X-70102Y368704D01*
X-70131Y368833D01*
X-70164Y368961D01*
X-70200Y369089D01*
X-70240Y369215D01*
X-70284Y369340D01*
X-70332Y369464D01*
X-70383Y369586D01*
X-70438Y369707D01*
X-70496Y369826D01*
X-70558Y369944D01*
X-70623Y370059D01*
X-70692Y370173D01*
X-70763Y370284D01*
X-70839Y370393D01*
X-70917Y370500D01*
X-70998Y370605D01*
X-71083Y370707D01*
X-71170Y370807D01*
X-71260Y370904D01*
X-71353Y370999D01*
X-71449Y371090D01*
X-71547Y371179D01*
X-71648Y371265D01*
X-71752Y371348D01*
X-71858Y371428D01*
X-71966Y371504D01*
X-72076Y371578D01*
X-72189Y371648D01*
X-72303Y371715D01*
X-72420Y371778D01*
X-72538Y371838D01*
X-72658Y371895D01*
X-72780Y371948D01*
X-72903Y371997D01*
X-73027Y372043D01*
X-73153Y372085D01*
X-73280Y372123D01*
X-73408Y372158D01*
X-73537Y372189D01*
X-73666Y372216D01*
X-73797Y372239D01*
X-73928Y372259D01*
X-74060Y372274D01*
X-74192Y372286D01*
X-74324Y372294D01*
X-74457Y372298D01*
X-74589Y372298D01*
X-74722Y372294D01*
X-74854Y372286D01*
X-74986Y372274D01*
X-75118Y372259D01*
X-75249Y372239D01*
X-75380Y372216D01*
X-75509Y372189D01*
X-75638Y372158D01*
X-75766Y372123D01*
X-75893Y372085D01*
X-76019Y372043D01*
X-76143Y371997D01*
X-76266Y371948D01*
X-76388Y371895D01*
X-76508Y371838D01*
X-76626Y371778D01*
X-76743Y371715D01*
X-76857Y371648D01*
X-76970Y371578D01*
X-77080Y371504D01*
X-77188Y371428D01*
X-77294Y371348D01*
X-77398Y371265D01*
X-77499Y371179D01*
X-77597Y371090D01*
X-77693Y370999D01*
X-77786Y370904D01*
X-77876Y370807D01*
X-77963Y370707D01*
X-78048Y370605D01*
X-78129Y370500D01*
X-78207Y370393D01*
X-78283Y370284D01*
X-78354Y370173D01*
X-78423Y370059D01*
X-78488Y369944D01*
X-78550Y369826D01*
X-78608Y369707D01*
X-78663Y369586D01*
X-78714Y369464D01*
X-78762Y369340D01*
X-78806Y369215D01*
X-78846Y369089D01*
X-78882Y368961D01*
X-78915Y368833D01*
X-78944Y368704D01*
X-78969Y368573D01*
X-78990Y368443D01*
X-79008Y368311D01*
X-79021Y368179D01*
X-79031Y368047D01*
X-79037Y367915D01*
X-79039Y367782D01*
X-86263Y368686D02*
X-86263Y363267D01*
X-86263Y368686D02*
X-86261Y368805D01*
X-86255Y368925D01*
X-86245Y369044D01*
X-86231Y369162D01*
X-86214Y369281D01*
X-86192Y369398D01*
X-86167Y369515D01*
X-86137Y369630D01*
X-86104Y369745D01*
X-86067Y369859D01*
X-86027Y369971D01*
X-85982Y370082D01*
X-85934Y370191D01*
X-85883Y370299D01*
X-85828Y370405D01*
X-85769Y370509D01*
X-85707Y370611D01*
X-85642Y370711D01*
X-85573Y370809D01*
X-85501Y370905D01*
X-85426Y370998D01*
X-85349Y371088D01*
X-85268Y371176D01*
X-85184Y371261D01*
X-85097Y371343D01*
X-85008Y371423D01*
X-84916Y371499D01*
X-84822Y371573D01*
X-84725Y371643D01*
X-84627Y371710D01*
X-84526Y371774D01*
X-84422Y371834D01*
X-84317Y371891D01*
X-84210Y371944D01*
X-84102Y371994D01*
X-83992Y372040D01*
X-83880Y372082D01*
X-83767Y372121D01*
X-83653Y372156D01*
X-83538Y372187D01*
X-83421Y372215D01*
X-83304Y372238D01*
X-83187Y372258D01*
X-83068Y372274D01*
X-82949Y372286D01*
X-82830Y372294D01*
X-82711Y372298D01*
X-82591Y372298D01*
X-82472Y372294D01*
X-82353Y372286D01*
X-82234Y372274D01*
X-82115Y372258D01*
X-81998Y372238D01*
X-81881Y372215D01*
X-81764Y372187D01*
X-81649Y372156D01*
X-81535Y372121D01*
X-81422Y372082D01*
X-81310Y372040D01*
X-81200Y371994D01*
X-81092Y371944D01*
X-80985Y371891D01*
X-80880Y371834D01*
X-80776Y371774D01*
X-80675Y371710D01*
X-80577Y371643D01*
X-80480Y371573D01*
X-80386Y371499D01*
X-80294Y371423D01*
X-80205Y371343D01*
X-80118Y371261D01*
X-80034Y371176D01*
X-79953Y371088D01*
X-79876Y370998D01*
X-79801Y370905D01*
X-79729Y370809D01*
X-79660Y370711D01*
X-79595Y370611D01*
X-79533Y370509D01*
X-79474Y370405D01*
X-79419Y370299D01*
X-79368Y370191D01*
X-79320Y370082D01*
X-79275Y369971D01*
X-79235Y369859D01*
X-79198Y369745D01*
X-79165Y369630D01*
X-79135Y369515D01*
X-79110Y369398D01*
X-79088Y369281D01*
X-79071Y369162D01*
X-79057Y369044D01*
X-79047Y368925D01*
X-79041Y368805D01*
X-79039Y368686D01*
X-79038Y368686D02*
X-79038Y365073D01*
X-74523Y378898D02*
X-74656Y378900D01*
X-74788Y378906D01*
X-74920Y378916D01*
X-75052Y378929D01*
X-75184Y378947D01*
X-75314Y378968D01*
X-75445Y378993D01*
X-75574Y379022D01*
X-75702Y379055D01*
X-75830Y379091D01*
X-75956Y379131D01*
X-76081Y379175D01*
X-76205Y379223D01*
X-76327Y379274D01*
X-76448Y379329D01*
X-76567Y379387D01*
X-76685Y379449D01*
X-76800Y379514D01*
X-76914Y379583D01*
X-77025Y379654D01*
X-77134Y379730D01*
X-77241Y379808D01*
X-77346Y379889D01*
X-77448Y379974D01*
X-77548Y380061D01*
X-77645Y380151D01*
X-77740Y380244D01*
X-77831Y380340D01*
X-77920Y380438D01*
X-78006Y380539D01*
X-78089Y380643D01*
X-78169Y380749D01*
X-78245Y380857D01*
X-78319Y380967D01*
X-78389Y381080D01*
X-78456Y381194D01*
X-78519Y381311D01*
X-78579Y381429D01*
X-78636Y381549D01*
X-78689Y381671D01*
X-78738Y381794D01*
X-78784Y381918D01*
X-78826Y382044D01*
X-78864Y382171D01*
X-78899Y382299D01*
X-78930Y382428D01*
X-78957Y382557D01*
X-78980Y382688D01*
X-79000Y382819D01*
X-79015Y382951D01*
X-79027Y383083D01*
X-79035Y383215D01*
X-79039Y383348D01*
X-79039Y383480D01*
X-79035Y383613D01*
X-79027Y383745D01*
X-79015Y383877D01*
X-79000Y384009D01*
X-78980Y384140D01*
X-78957Y384271D01*
X-78930Y384400D01*
X-78899Y384529D01*
X-78864Y384657D01*
X-78826Y384784D01*
X-78784Y384910D01*
X-78738Y385034D01*
X-78689Y385157D01*
X-78636Y385279D01*
X-78579Y385399D01*
X-78519Y385517D01*
X-78456Y385634D01*
X-78389Y385748D01*
X-78319Y385861D01*
X-78245Y385971D01*
X-78169Y386079D01*
X-78089Y386185D01*
X-78006Y386289D01*
X-77920Y386390D01*
X-77831Y386488D01*
X-77740Y386584D01*
X-77645Y386677D01*
X-77548Y386767D01*
X-77448Y386854D01*
X-77346Y386939D01*
X-77241Y387020D01*
X-77134Y387098D01*
X-77025Y387174D01*
X-76914Y387245D01*
X-76800Y387314D01*
X-76685Y387379D01*
X-76567Y387441D01*
X-76448Y387499D01*
X-76327Y387554D01*
X-76205Y387605D01*
X-76081Y387653D01*
X-75956Y387697D01*
X-75830Y387737D01*
X-75702Y387773D01*
X-75574Y387806D01*
X-75445Y387835D01*
X-75314Y387860D01*
X-75184Y387881D01*
X-75052Y387899D01*
X-74920Y387912D01*
X-74788Y387922D01*
X-74656Y387928D01*
X-74523Y387930D01*
X-74390Y387928D01*
X-74258Y387922D01*
X-74126Y387912D01*
X-73994Y387899D01*
X-73862Y387881D01*
X-73732Y387860D01*
X-73601Y387835D01*
X-73472Y387806D01*
X-73344Y387773D01*
X-73216Y387737D01*
X-73090Y387697D01*
X-72965Y387653D01*
X-72841Y387605D01*
X-72719Y387554D01*
X-72598Y387499D01*
X-72479Y387441D01*
X-72361Y387379D01*
X-72246Y387314D01*
X-72132Y387245D01*
X-72021Y387174D01*
X-71912Y387098D01*
X-71805Y387020D01*
X-71700Y386939D01*
X-71598Y386854D01*
X-71498Y386767D01*
X-71401Y386677D01*
X-71306Y386584D01*
X-71215Y386488D01*
X-71126Y386390D01*
X-71040Y386289D01*
X-70957Y386185D01*
X-70877Y386079D01*
X-70801Y385971D01*
X-70727Y385861D01*
X-70657Y385748D01*
X-70590Y385634D01*
X-70527Y385517D01*
X-70467Y385399D01*
X-70410Y385279D01*
X-70357Y385157D01*
X-70308Y385034D01*
X-70262Y384910D01*
X-70220Y384784D01*
X-70182Y384657D01*
X-70147Y384529D01*
X-70116Y384400D01*
X-70089Y384271D01*
X-70066Y384140D01*
X-70046Y384009D01*
X-70031Y383877D01*
X-70019Y383745D01*
X-70011Y383613D01*
X-70007Y383480D01*
X-70007Y383348D01*
X-70011Y383215D01*
X-70019Y383083D01*
X-70031Y382951D01*
X-70046Y382819D01*
X-70066Y382688D01*
X-70089Y382557D01*
X-70116Y382428D01*
X-70147Y382299D01*
X-70182Y382171D01*
X-70220Y382044D01*
X-70262Y381918D01*
X-70308Y381794D01*
X-70357Y381671D01*
X-70410Y381549D01*
X-70467Y381429D01*
X-70527Y381311D01*
X-70590Y381194D01*
X-70657Y381080D01*
X-70727Y380967D01*
X-70801Y380857D01*
X-70877Y380749D01*
X-70957Y380643D01*
X-71040Y380539D01*
X-71126Y380438D01*
X-71215Y380340D01*
X-71306Y380244D01*
X-71401Y380151D01*
X-71498Y380061D01*
X-71598Y379974D01*
X-71700Y379889D01*
X-71805Y379808D01*
X-71912Y379730D01*
X-72021Y379654D01*
X-72132Y379583D01*
X-72246Y379514D01*
X-72361Y379449D01*
X-72479Y379387D01*
X-72598Y379329D01*
X-72719Y379274D01*
X-72841Y379223D01*
X-72965Y379175D01*
X-73090Y379131D01*
X-73216Y379091D01*
X-73344Y379055D01*
X-73472Y379022D01*
X-73601Y378993D01*
X-73732Y378968D01*
X-73862Y378947D01*
X-73994Y378929D01*
X-74126Y378916D01*
X-74258Y378906D01*
X-74390Y378900D01*
X-74523Y378898D01*
X-82651Y379802D02*
X-82770Y379804D01*
X-82890Y379810D01*
X-83009Y379820D01*
X-83127Y379834D01*
X-83246Y379851D01*
X-83363Y379873D01*
X-83480Y379898D01*
X-83595Y379928D01*
X-83710Y379961D01*
X-83824Y379998D01*
X-83936Y380038D01*
X-84047Y380083D01*
X-84156Y380131D01*
X-84264Y380182D01*
X-84370Y380237D01*
X-84474Y380296D01*
X-84576Y380358D01*
X-84676Y380423D01*
X-84774Y380492D01*
X-84870Y380564D01*
X-84963Y380639D01*
X-85053Y380716D01*
X-85141Y380797D01*
X-85226Y380881D01*
X-85308Y380968D01*
X-85388Y381057D01*
X-85464Y381149D01*
X-85538Y381243D01*
X-85608Y381340D01*
X-85675Y381438D01*
X-85739Y381539D01*
X-85799Y381643D01*
X-85856Y381748D01*
X-85909Y381855D01*
X-85959Y381963D01*
X-86005Y382073D01*
X-86047Y382185D01*
X-86086Y382298D01*
X-86121Y382412D01*
X-86152Y382527D01*
X-86180Y382644D01*
X-86203Y382761D01*
X-86223Y382878D01*
X-86239Y382997D01*
X-86251Y383116D01*
X-86259Y383235D01*
X-86263Y383354D01*
X-86263Y383474D01*
X-86259Y383593D01*
X-86251Y383712D01*
X-86239Y383831D01*
X-86223Y383950D01*
X-86203Y384067D01*
X-86180Y384184D01*
X-86152Y384301D01*
X-86121Y384416D01*
X-86086Y384530D01*
X-86047Y384643D01*
X-86005Y384755D01*
X-85959Y384865D01*
X-85909Y384973D01*
X-85856Y385080D01*
X-85799Y385185D01*
X-85739Y385289D01*
X-85675Y385390D01*
X-85608Y385488D01*
X-85538Y385585D01*
X-85464Y385679D01*
X-85388Y385771D01*
X-85308Y385860D01*
X-85226Y385947D01*
X-85141Y386031D01*
X-85053Y386112D01*
X-84963Y386189D01*
X-84870Y386264D01*
X-84774Y386336D01*
X-84676Y386405D01*
X-84576Y386470D01*
X-84474Y386532D01*
X-84370Y386591D01*
X-84264Y386646D01*
X-84156Y386697D01*
X-84047Y386745D01*
X-83936Y386790D01*
X-83824Y386830D01*
X-83710Y386867D01*
X-83595Y386900D01*
X-83480Y386930D01*
X-83363Y386955D01*
X-83246Y386977D01*
X-83127Y386994D01*
X-83009Y387008D01*
X-82890Y387018D01*
X-82770Y387024D01*
X-82651Y387026D01*
X-82532Y387024D01*
X-82412Y387018D01*
X-82293Y387008D01*
X-82175Y386994D01*
X-82056Y386977D01*
X-81939Y386955D01*
X-81822Y386930D01*
X-81707Y386900D01*
X-81592Y386867D01*
X-81478Y386830D01*
X-81366Y386790D01*
X-81255Y386745D01*
X-81146Y386697D01*
X-81038Y386646D01*
X-80932Y386591D01*
X-80828Y386532D01*
X-80726Y386470D01*
X-80626Y386405D01*
X-80528Y386336D01*
X-80432Y386264D01*
X-80339Y386189D01*
X-80249Y386112D01*
X-80161Y386031D01*
X-80076Y385947D01*
X-79994Y385860D01*
X-79914Y385771D01*
X-79838Y385679D01*
X-79764Y385585D01*
X-79694Y385488D01*
X-79627Y385390D01*
X-79563Y385289D01*
X-79503Y385185D01*
X-79446Y385080D01*
X-79393Y384973D01*
X-79343Y384865D01*
X-79297Y384755D01*
X-79255Y384643D01*
X-79216Y384530D01*
X-79181Y384416D01*
X-79150Y384301D01*
X-79122Y384184D01*
X-79099Y384067D01*
X-79079Y383950D01*
X-79063Y383831D01*
X-79051Y383712D01*
X-79043Y383593D01*
X-79039Y383474D01*
X-79039Y383354D01*
X-79043Y383235D01*
X-79051Y383116D01*
X-79063Y382997D01*
X-79079Y382878D01*
X-79099Y382761D01*
X-79122Y382644D01*
X-79150Y382527D01*
X-79181Y382412D01*
X-79216Y382298D01*
X-79255Y382185D01*
X-79297Y382073D01*
X-79343Y381963D01*
X-79393Y381855D01*
X-79446Y381748D01*
X-79503Y381643D01*
X-79563Y381539D01*
X-79627Y381438D01*
X-79694Y381340D01*
X-79764Y381243D01*
X-79838Y381149D01*
X-79914Y381057D01*
X-79994Y380968D01*
X-80076Y380881D01*
X-80161Y380797D01*
X-80249Y380716D01*
X-80339Y380639D01*
X-80432Y380564D01*
X-80528Y380492D01*
X-80626Y380423D01*
X-80726Y380358D01*
X-80828Y380296D01*
X-80932Y380237D01*
X-81038Y380182D01*
X-81146Y380131D01*
X-81255Y380083D01*
X-81366Y380038D01*
X-81478Y379998D01*
X-81592Y379961D01*
X-81707Y379928D01*
X-81822Y379898D01*
X-81939Y379873D01*
X-82056Y379851D01*
X-82175Y379834D01*
X-82293Y379820D01*
X-82412Y379810D01*
X-82532Y379804D01*
X-82651Y379802D01*
D10*
X1419100Y63500D02*
X1419105Y63893D01*
X1419119Y64285D01*
X1419143Y64677D01*
X1419177Y65068D01*
X1419220Y65459D01*
X1419273Y65848D01*
X1419336Y66235D01*
X1419407Y66621D01*
X1419489Y67006D01*
X1419579Y67388D01*
X1419680Y67767D01*
X1419789Y68145D01*
X1419908Y68519D01*
X1420035Y68890D01*
X1420172Y69258D01*
X1420318Y69623D01*
X1420473Y69984D01*
X1420636Y70341D01*
X1420808Y70694D01*
X1420989Y71042D01*
X1421179Y71386D01*
X1421376Y71726D01*
X1421582Y72060D01*
X1421796Y72389D01*
X1422019Y72713D01*
X1422249Y73031D01*
X1422486Y73344D01*
X1422732Y73650D01*
X1422985Y73951D01*
X1423245Y74245D01*
X1423512Y74533D01*
X1423786Y74814D01*
X1424067Y75088D01*
X1424355Y75355D01*
X1424649Y75615D01*
X1424950Y75868D01*
X1425256Y76114D01*
X1425569Y76351D01*
X1425887Y76581D01*
X1426211Y76804D01*
X1426540Y77018D01*
X1426874Y77224D01*
X1427214Y77421D01*
X1427558Y77611D01*
X1427906Y77792D01*
X1428259Y77964D01*
X1428616Y78127D01*
X1428977Y78282D01*
X1429342Y78428D01*
X1429710Y78565D01*
X1430081Y78692D01*
X1430455Y78811D01*
X1430833Y78920D01*
X1431212Y79021D01*
X1431594Y79111D01*
X1431979Y79193D01*
X1432365Y79264D01*
X1432752Y79327D01*
X1433141Y79380D01*
X1433532Y79423D01*
X1433923Y79457D01*
X1434315Y79481D01*
X1434707Y79495D01*
X1435100Y79500D01*
X1435493Y79495D01*
X1435885Y79481D01*
X1436277Y79457D01*
X1436668Y79423D01*
X1437059Y79380D01*
X1437448Y79327D01*
X1437835Y79264D01*
X1438221Y79193D01*
X1438606Y79111D01*
X1438988Y79021D01*
X1439367Y78920D01*
X1439745Y78811D01*
X1440119Y78692D01*
X1440490Y78565D01*
X1440858Y78428D01*
X1441223Y78282D01*
X1441584Y78127D01*
X1441941Y77964D01*
X1442294Y77792D01*
X1442642Y77611D01*
X1442986Y77421D01*
X1443326Y77224D01*
X1443660Y77018D01*
X1443989Y76804D01*
X1444313Y76581D01*
X1444631Y76351D01*
X1444944Y76114D01*
X1445250Y75868D01*
X1445551Y75615D01*
X1445845Y75355D01*
X1446133Y75088D01*
X1446414Y74814D01*
X1446688Y74533D01*
X1446955Y74245D01*
X1447215Y73951D01*
X1447468Y73650D01*
X1447714Y73344D01*
X1447951Y73031D01*
X1448181Y72713D01*
X1448404Y72389D01*
X1448618Y72060D01*
X1448824Y71726D01*
X1449021Y71386D01*
X1449211Y71042D01*
X1449392Y70694D01*
X1449564Y70341D01*
X1449727Y69984D01*
X1449882Y69623D01*
X1450028Y69258D01*
X1450165Y68890D01*
X1450292Y68519D01*
X1450411Y68145D01*
X1450520Y67767D01*
X1450621Y67388D01*
X1450711Y67006D01*
X1450793Y66621D01*
X1450864Y66235D01*
X1450927Y65848D01*
X1450980Y65459D01*
X1451023Y65068D01*
X1451057Y64677D01*
X1451081Y64285D01*
X1451095Y63893D01*
X1451100Y63500D01*
X1451095Y63107D01*
X1451081Y62715D01*
X1451057Y62323D01*
X1451023Y61932D01*
X1450980Y61541D01*
X1450927Y61152D01*
X1450864Y60765D01*
X1450793Y60379D01*
X1450711Y59994D01*
X1450621Y59612D01*
X1450520Y59233D01*
X1450411Y58855D01*
X1450292Y58481D01*
X1450165Y58110D01*
X1450028Y57742D01*
X1449882Y57377D01*
X1449727Y57016D01*
X1449564Y56659D01*
X1449392Y56306D01*
X1449211Y55958D01*
X1449021Y55614D01*
X1448824Y55274D01*
X1448618Y54940D01*
X1448404Y54611D01*
X1448181Y54287D01*
X1447951Y53969D01*
X1447714Y53656D01*
X1447468Y53350D01*
X1447215Y53049D01*
X1446955Y52755D01*
X1446688Y52467D01*
X1446414Y52186D01*
X1446133Y51912D01*
X1445845Y51645D01*
X1445551Y51385D01*
X1445250Y51132D01*
X1444944Y50886D01*
X1444631Y50649D01*
X1444313Y50419D01*
X1443989Y50196D01*
X1443660Y49982D01*
X1443326Y49776D01*
X1442986Y49579D01*
X1442642Y49389D01*
X1442294Y49208D01*
X1441941Y49036D01*
X1441584Y48873D01*
X1441223Y48718D01*
X1440858Y48572D01*
X1440490Y48435D01*
X1440119Y48308D01*
X1439745Y48189D01*
X1439367Y48080D01*
X1438988Y47979D01*
X1438606Y47889D01*
X1438221Y47807D01*
X1437835Y47736D01*
X1437448Y47673D01*
X1437059Y47620D01*
X1436668Y47577D01*
X1436277Y47543D01*
X1435885Y47519D01*
X1435493Y47505D01*
X1435100Y47500D01*
X1434707Y47505D01*
X1434315Y47519D01*
X1433923Y47543D01*
X1433532Y47577D01*
X1433141Y47620D01*
X1432752Y47673D01*
X1432365Y47736D01*
X1431979Y47807D01*
X1431594Y47889D01*
X1431212Y47979D01*
X1430833Y48080D01*
X1430455Y48189D01*
X1430081Y48308D01*
X1429710Y48435D01*
X1429342Y48572D01*
X1428977Y48718D01*
X1428616Y48873D01*
X1428259Y49036D01*
X1427906Y49208D01*
X1427558Y49389D01*
X1427214Y49579D01*
X1426874Y49776D01*
X1426540Y49982D01*
X1426211Y50196D01*
X1425887Y50419D01*
X1425569Y50649D01*
X1425256Y50886D01*
X1424950Y51132D01*
X1424649Y51385D01*
X1424355Y51645D01*
X1424067Y51912D01*
X1423786Y52186D01*
X1423512Y52467D01*
X1423245Y52755D01*
X1422985Y53049D01*
X1422732Y53350D01*
X1422486Y53656D01*
X1422249Y53969D01*
X1422019Y54287D01*
X1421796Y54611D01*
X1421582Y54940D01*
X1421376Y55274D01*
X1421179Y55614D01*
X1420989Y55958D01*
X1420808Y56306D01*
X1420636Y56659D01*
X1420473Y57016D01*
X1420318Y57377D01*
X1420172Y57742D01*
X1420035Y58110D01*
X1419908Y58481D01*
X1419789Y58855D01*
X1419680Y59233D01*
X1419579Y59612D01*
X1419489Y59994D01*
X1419407Y60379D01*
X1419336Y60765D01*
X1419273Y61152D01*
X1419220Y61541D01*
X1419177Y61932D01*
X1419143Y62323D01*
X1419119Y62715D01*
X1419105Y63107D01*
X1419100Y63500D01*
X1342900Y495300D02*
X1342905Y495693D01*
X1342919Y496085D01*
X1342943Y496477D01*
X1342977Y496868D01*
X1343020Y497259D01*
X1343073Y497648D01*
X1343136Y498035D01*
X1343207Y498421D01*
X1343289Y498806D01*
X1343379Y499188D01*
X1343480Y499567D01*
X1343589Y499945D01*
X1343708Y500319D01*
X1343835Y500690D01*
X1343972Y501058D01*
X1344118Y501423D01*
X1344273Y501784D01*
X1344436Y502141D01*
X1344608Y502494D01*
X1344789Y502842D01*
X1344979Y503186D01*
X1345176Y503526D01*
X1345382Y503860D01*
X1345596Y504189D01*
X1345819Y504513D01*
X1346049Y504831D01*
X1346286Y505144D01*
X1346532Y505450D01*
X1346785Y505751D01*
X1347045Y506045D01*
X1347312Y506333D01*
X1347586Y506614D01*
X1347867Y506888D01*
X1348155Y507155D01*
X1348449Y507415D01*
X1348750Y507668D01*
X1349056Y507914D01*
X1349369Y508151D01*
X1349687Y508381D01*
X1350011Y508604D01*
X1350340Y508818D01*
X1350674Y509024D01*
X1351014Y509221D01*
X1351358Y509411D01*
X1351706Y509592D01*
X1352059Y509764D01*
X1352416Y509927D01*
X1352777Y510082D01*
X1353142Y510228D01*
X1353510Y510365D01*
X1353881Y510492D01*
X1354255Y510611D01*
X1354633Y510720D01*
X1355012Y510821D01*
X1355394Y510911D01*
X1355779Y510993D01*
X1356165Y511064D01*
X1356552Y511127D01*
X1356941Y511180D01*
X1357332Y511223D01*
X1357723Y511257D01*
X1358115Y511281D01*
X1358507Y511295D01*
X1358900Y511300D01*
X1359293Y511295D01*
X1359685Y511281D01*
X1360077Y511257D01*
X1360468Y511223D01*
X1360859Y511180D01*
X1361248Y511127D01*
X1361635Y511064D01*
X1362021Y510993D01*
X1362406Y510911D01*
X1362788Y510821D01*
X1363167Y510720D01*
X1363545Y510611D01*
X1363919Y510492D01*
X1364290Y510365D01*
X1364658Y510228D01*
X1365023Y510082D01*
X1365384Y509927D01*
X1365741Y509764D01*
X1366094Y509592D01*
X1366442Y509411D01*
X1366786Y509221D01*
X1367126Y509024D01*
X1367460Y508818D01*
X1367789Y508604D01*
X1368113Y508381D01*
X1368431Y508151D01*
X1368744Y507914D01*
X1369050Y507668D01*
X1369351Y507415D01*
X1369645Y507155D01*
X1369933Y506888D01*
X1370214Y506614D01*
X1370488Y506333D01*
X1370755Y506045D01*
X1371015Y505751D01*
X1371268Y505450D01*
X1371514Y505144D01*
X1371751Y504831D01*
X1371981Y504513D01*
X1372204Y504189D01*
X1372418Y503860D01*
X1372624Y503526D01*
X1372821Y503186D01*
X1373011Y502842D01*
X1373192Y502494D01*
X1373364Y502141D01*
X1373527Y501784D01*
X1373682Y501423D01*
X1373828Y501058D01*
X1373965Y500690D01*
X1374092Y500319D01*
X1374211Y499945D01*
X1374320Y499567D01*
X1374421Y499188D01*
X1374511Y498806D01*
X1374593Y498421D01*
X1374664Y498035D01*
X1374727Y497648D01*
X1374780Y497259D01*
X1374823Y496868D01*
X1374857Y496477D01*
X1374881Y496085D01*
X1374895Y495693D01*
X1374900Y495300D01*
X1374895Y494907D01*
X1374881Y494515D01*
X1374857Y494123D01*
X1374823Y493732D01*
X1374780Y493341D01*
X1374727Y492952D01*
X1374664Y492565D01*
X1374593Y492179D01*
X1374511Y491794D01*
X1374421Y491412D01*
X1374320Y491033D01*
X1374211Y490655D01*
X1374092Y490281D01*
X1373965Y489910D01*
X1373828Y489542D01*
X1373682Y489177D01*
X1373527Y488816D01*
X1373364Y488459D01*
X1373192Y488106D01*
X1373011Y487758D01*
X1372821Y487414D01*
X1372624Y487074D01*
X1372418Y486740D01*
X1372204Y486411D01*
X1371981Y486087D01*
X1371751Y485769D01*
X1371514Y485456D01*
X1371268Y485150D01*
X1371015Y484849D01*
X1370755Y484555D01*
X1370488Y484267D01*
X1370214Y483986D01*
X1369933Y483712D01*
X1369645Y483445D01*
X1369351Y483185D01*
X1369050Y482932D01*
X1368744Y482686D01*
X1368431Y482449D01*
X1368113Y482219D01*
X1367789Y481996D01*
X1367460Y481782D01*
X1367126Y481576D01*
X1366786Y481379D01*
X1366442Y481189D01*
X1366094Y481008D01*
X1365741Y480836D01*
X1365384Y480673D01*
X1365023Y480518D01*
X1364658Y480372D01*
X1364290Y480235D01*
X1363919Y480108D01*
X1363545Y479989D01*
X1363167Y479880D01*
X1362788Y479779D01*
X1362406Y479689D01*
X1362021Y479607D01*
X1361635Y479536D01*
X1361248Y479473D01*
X1360859Y479420D01*
X1360468Y479377D01*
X1360077Y479343D01*
X1359685Y479319D01*
X1359293Y479305D01*
X1358900Y479300D01*
X1358507Y479305D01*
X1358115Y479319D01*
X1357723Y479343D01*
X1357332Y479377D01*
X1356941Y479420D01*
X1356552Y479473D01*
X1356165Y479536D01*
X1355779Y479607D01*
X1355394Y479689D01*
X1355012Y479779D01*
X1354633Y479880D01*
X1354255Y479989D01*
X1353881Y480108D01*
X1353510Y480235D01*
X1353142Y480372D01*
X1352777Y480518D01*
X1352416Y480673D01*
X1352059Y480836D01*
X1351706Y481008D01*
X1351358Y481189D01*
X1351014Y481379D01*
X1350674Y481576D01*
X1350340Y481782D01*
X1350011Y481996D01*
X1349687Y482219D01*
X1349369Y482449D01*
X1349056Y482686D01*
X1348750Y482932D01*
X1348449Y483185D01*
X1348155Y483445D01*
X1347867Y483712D01*
X1347586Y483986D01*
X1347312Y484267D01*
X1347045Y484555D01*
X1346785Y484849D01*
X1346532Y485150D01*
X1346286Y485456D01*
X1346049Y485769D01*
X1345819Y486087D01*
X1345596Y486411D01*
X1345382Y486740D01*
X1345176Y487074D01*
X1344979Y487414D01*
X1344789Y487758D01*
X1344608Y488106D01*
X1344436Y488459D01*
X1344273Y488816D01*
X1344118Y489177D01*
X1343972Y489542D01*
X1343835Y489910D01*
X1343708Y490281D01*
X1343589Y490655D01*
X1343480Y491033D01*
X1343379Y491412D01*
X1343289Y491794D01*
X1343207Y492179D01*
X1343136Y492565D01*
X1343073Y492952D01*
X1343020Y493341D01*
X1342977Y493732D01*
X1342943Y494123D01*
X1342919Y494515D01*
X1342905Y494907D01*
X1342900Y495300D01*
X121160Y312420D02*
X121165Y312813D01*
X121179Y313205D01*
X121203Y313597D01*
X121237Y313988D01*
X121280Y314379D01*
X121333Y314768D01*
X121396Y315155D01*
X121467Y315541D01*
X121549Y315926D01*
X121639Y316308D01*
X121740Y316687D01*
X121849Y317065D01*
X121968Y317439D01*
X122095Y317810D01*
X122232Y318178D01*
X122378Y318543D01*
X122533Y318904D01*
X122696Y319261D01*
X122868Y319614D01*
X123049Y319962D01*
X123239Y320306D01*
X123436Y320646D01*
X123642Y320980D01*
X123856Y321309D01*
X124079Y321633D01*
X124309Y321951D01*
X124546Y322264D01*
X124792Y322570D01*
X125045Y322871D01*
X125305Y323165D01*
X125572Y323453D01*
X125846Y323734D01*
X126127Y324008D01*
X126415Y324275D01*
X126709Y324535D01*
X127010Y324788D01*
X127316Y325034D01*
X127629Y325271D01*
X127947Y325501D01*
X128271Y325724D01*
X128600Y325938D01*
X128934Y326144D01*
X129274Y326341D01*
X129618Y326531D01*
X129966Y326712D01*
X130319Y326884D01*
X130676Y327047D01*
X131037Y327202D01*
X131402Y327348D01*
X131770Y327485D01*
X132141Y327612D01*
X132515Y327731D01*
X132893Y327840D01*
X133272Y327941D01*
X133654Y328031D01*
X134039Y328113D01*
X134425Y328184D01*
X134812Y328247D01*
X135201Y328300D01*
X135592Y328343D01*
X135983Y328377D01*
X136375Y328401D01*
X136767Y328415D01*
X137160Y328420D01*
X137553Y328415D01*
X137945Y328401D01*
X138337Y328377D01*
X138728Y328343D01*
X139119Y328300D01*
X139508Y328247D01*
X139895Y328184D01*
X140281Y328113D01*
X140666Y328031D01*
X141048Y327941D01*
X141427Y327840D01*
X141805Y327731D01*
X142179Y327612D01*
X142550Y327485D01*
X142918Y327348D01*
X143283Y327202D01*
X143644Y327047D01*
X144001Y326884D01*
X144354Y326712D01*
X144702Y326531D01*
X145046Y326341D01*
X145386Y326144D01*
X145720Y325938D01*
X146049Y325724D01*
X146373Y325501D01*
X146691Y325271D01*
X147004Y325034D01*
X147310Y324788D01*
X147611Y324535D01*
X147905Y324275D01*
X148193Y324008D01*
X148474Y323734D01*
X148748Y323453D01*
X149015Y323165D01*
X149275Y322871D01*
X149528Y322570D01*
X149774Y322264D01*
X150011Y321951D01*
X150241Y321633D01*
X150464Y321309D01*
X150678Y320980D01*
X150884Y320646D01*
X151081Y320306D01*
X151271Y319962D01*
X151452Y319614D01*
X151624Y319261D01*
X151787Y318904D01*
X151942Y318543D01*
X152088Y318178D01*
X152225Y317810D01*
X152352Y317439D01*
X152471Y317065D01*
X152580Y316687D01*
X152681Y316308D01*
X152771Y315926D01*
X152853Y315541D01*
X152924Y315155D01*
X152987Y314768D01*
X153040Y314379D01*
X153083Y313988D01*
X153117Y313597D01*
X153141Y313205D01*
X153155Y312813D01*
X153160Y312420D01*
X153155Y312027D01*
X153141Y311635D01*
X153117Y311243D01*
X153083Y310852D01*
X153040Y310461D01*
X152987Y310072D01*
X152924Y309685D01*
X152853Y309299D01*
X152771Y308914D01*
X152681Y308532D01*
X152580Y308153D01*
X152471Y307775D01*
X152352Y307401D01*
X152225Y307030D01*
X152088Y306662D01*
X151942Y306297D01*
X151787Y305936D01*
X151624Y305579D01*
X151452Y305226D01*
X151271Y304878D01*
X151081Y304534D01*
X150884Y304194D01*
X150678Y303860D01*
X150464Y303531D01*
X150241Y303207D01*
X150011Y302889D01*
X149774Y302576D01*
X149528Y302270D01*
X149275Y301969D01*
X149015Y301675D01*
X148748Y301387D01*
X148474Y301106D01*
X148193Y300832D01*
X147905Y300565D01*
X147611Y300305D01*
X147310Y300052D01*
X147004Y299806D01*
X146691Y299569D01*
X146373Y299339D01*
X146049Y299116D01*
X145720Y298902D01*
X145386Y298696D01*
X145046Y298499D01*
X144702Y298309D01*
X144354Y298128D01*
X144001Y297956D01*
X143644Y297793D01*
X143283Y297638D01*
X142918Y297492D01*
X142550Y297355D01*
X142179Y297228D01*
X141805Y297109D01*
X141427Y297000D01*
X141048Y296899D01*
X140666Y296809D01*
X140281Y296727D01*
X139895Y296656D01*
X139508Y296593D01*
X139119Y296540D01*
X138728Y296497D01*
X138337Y296463D01*
X137945Y296439D01*
X137553Y296425D01*
X137160Y296420D01*
X136767Y296425D01*
X136375Y296439D01*
X135983Y296463D01*
X135592Y296497D01*
X135201Y296540D01*
X134812Y296593D01*
X134425Y296656D01*
X134039Y296727D01*
X133654Y296809D01*
X133272Y296899D01*
X132893Y297000D01*
X132515Y297109D01*
X132141Y297228D01*
X131770Y297355D01*
X131402Y297492D01*
X131037Y297638D01*
X130676Y297793D01*
X130319Y297956D01*
X129966Y298128D01*
X129618Y298309D01*
X129274Y298499D01*
X128934Y298696D01*
X128600Y298902D01*
X128271Y299116D01*
X127947Y299339D01*
X127629Y299569D01*
X127316Y299806D01*
X127010Y300052D01*
X126709Y300305D01*
X126415Y300565D01*
X126127Y300832D01*
X125846Y301106D01*
X125572Y301387D01*
X125305Y301675D01*
X125045Y301969D01*
X124792Y302270D01*
X124546Y302576D01*
X124309Y302889D01*
X124079Y303207D01*
X123856Y303531D01*
X123642Y303860D01*
X123436Y304194D01*
X123239Y304534D01*
X123049Y304878D01*
X122868Y305226D01*
X122696Y305579D01*
X122533Y305936D01*
X122378Y306297D01*
X122232Y306662D01*
X122095Y307030D01*
X121968Y307401D01*
X121849Y307775D01*
X121740Y308153D01*
X121639Y308532D01*
X121549Y308914D01*
X121467Y309299D01*
X121396Y309685D01*
X121333Y310072D01*
X121280Y310461D01*
X121237Y310852D01*
X121203Y311243D01*
X121179Y311635D01*
X121165Y312027D01*
X121160Y312420D01*
X123700Y128270D02*
X123705Y128663D01*
X123719Y129055D01*
X123743Y129447D01*
X123777Y129838D01*
X123820Y130229D01*
X123873Y130618D01*
X123936Y131005D01*
X124007Y131391D01*
X124089Y131776D01*
X124179Y132158D01*
X124280Y132537D01*
X124389Y132915D01*
X124508Y133289D01*
X124635Y133660D01*
X124772Y134028D01*
X124918Y134393D01*
X125073Y134754D01*
X125236Y135111D01*
X125408Y135464D01*
X125589Y135812D01*
X125779Y136156D01*
X125976Y136496D01*
X126182Y136830D01*
X126396Y137159D01*
X126619Y137483D01*
X126849Y137801D01*
X127086Y138114D01*
X127332Y138420D01*
X127585Y138721D01*
X127845Y139015D01*
X128112Y139303D01*
X128386Y139584D01*
X128667Y139858D01*
X128955Y140125D01*
X129249Y140385D01*
X129550Y140638D01*
X129856Y140884D01*
X130169Y141121D01*
X130487Y141351D01*
X130811Y141574D01*
X131140Y141788D01*
X131474Y141994D01*
X131814Y142191D01*
X132158Y142381D01*
X132506Y142562D01*
X132859Y142734D01*
X133216Y142897D01*
X133577Y143052D01*
X133942Y143198D01*
X134310Y143335D01*
X134681Y143462D01*
X135055Y143581D01*
X135433Y143690D01*
X135812Y143791D01*
X136194Y143881D01*
X136579Y143963D01*
X136965Y144034D01*
X137352Y144097D01*
X137741Y144150D01*
X138132Y144193D01*
X138523Y144227D01*
X138915Y144251D01*
X139307Y144265D01*
X139700Y144270D01*
X140093Y144265D01*
X140485Y144251D01*
X140877Y144227D01*
X141268Y144193D01*
X141659Y144150D01*
X142048Y144097D01*
X142435Y144034D01*
X142821Y143963D01*
X143206Y143881D01*
X143588Y143791D01*
X143967Y143690D01*
X144345Y143581D01*
X144719Y143462D01*
X145090Y143335D01*
X145458Y143198D01*
X145823Y143052D01*
X146184Y142897D01*
X146541Y142734D01*
X146894Y142562D01*
X147242Y142381D01*
X147586Y142191D01*
X147926Y141994D01*
X148260Y141788D01*
X148589Y141574D01*
X148913Y141351D01*
X149231Y141121D01*
X149544Y140884D01*
X149850Y140638D01*
X150151Y140385D01*
X150445Y140125D01*
X150733Y139858D01*
X151014Y139584D01*
X151288Y139303D01*
X151555Y139015D01*
X151815Y138721D01*
X152068Y138420D01*
X152314Y138114D01*
X152551Y137801D01*
X152781Y137483D01*
X153004Y137159D01*
X153218Y136830D01*
X153424Y136496D01*
X153621Y136156D01*
X153811Y135812D01*
X153992Y135464D01*
X154164Y135111D01*
X154327Y134754D01*
X154482Y134393D01*
X154628Y134028D01*
X154765Y133660D01*
X154892Y133289D01*
X155011Y132915D01*
X155120Y132537D01*
X155221Y132158D01*
X155311Y131776D01*
X155393Y131391D01*
X155464Y131005D01*
X155527Y130618D01*
X155580Y130229D01*
X155623Y129838D01*
X155657Y129447D01*
X155681Y129055D01*
X155695Y128663D01*
X155700Y128270D01*
X155695Y127877D01*
X155681Y127485D01*
X155657Y127093D01*
X155623Y126702D01*
X155580Y126311D01*
X155527Y125922D01*
X155464Y125535D01*
X155393Y125149D01*
X155311Y124764D01*
X155221Y124382D01*
X155120Y124003D01*
X155011Y123625D01*
X154892Y123251D01*
X154765Y122880D01*
X154628Y122512D01*
X154482Y122147D01*
X154327Y121786D01*
X154164Y121429D01*
X153992Y121076D01*
X153811Y120728D01*
X153621Y120384D01*
X153424Y120044D01*
X153218Y119710D01*
X153004Y119381D01*
X152781Y119057D01*
X152551Y118739D01*
X152314Y118426D01*
X152068Y118120D01*
X151815Y117819D01*
X151555Y117525D01*
X151288Y117237D01*
X151014Y116956D01*
X150733Y116682D01*
X150445Y116415D01*
X150151Y116155D01*
X149850Y115902D01*
X149544Y115656D01*
X149231Y115419D01*
X148913Y115189D01*
X148589Y114966D01*
X148260Y114752D01*
X147926Y114546D01*
X147586Y114349D01*
X147242Y114159D01*
X146894Y113978D01*
X146541Y113806D01*
X146184Y113643D01*
X145823Y113488D01*
X145458Y113342D01*
X145090Y113205D01*
X144719Y113078D01*
X144345Y112959D01*
X143967Y112850D01*
X143588Y112749D01*
X143206Y112659D01*
X142821Y112577D01*
X142435Y112506D01*
X142048Y112443D01*
X141659Y112390D01*
X141268Y112347D01*
X140877Y112313D01*
X140485Y112289D01*
X140093Y112275D01*
X139700Y112270D01*
X139307Y112275D01*
X138915Y112289D01*
X138523Y112313D01*
X138132Y112347D01*
X137741Y112390D01*
X137352Y112443D01*
X136965Y112506D01*
X136579Y112577D01*
X136194Y112659D01*
X135812Y112749D01*
X135433Y112850D01*
X135055Y112959D01*
X134681Y113078D01*
X134310Y113205D01*
X133942Y113342D01*
X133577Y113488D01*
X133216Y113643D01*
X132859Y113806D01*
X132506Y113978D01*
X132158Y114159D01*
X131814Y114349D01*
X131474Y114546D01*
X131140Y114752D01*
X130811Y114966D01*
X130487Y115189D01*
X130169Y115419D01*
X129856Y115656D01*
X129550Y115902D01*
X129249Y116155D01*
X128955Y116415D01*
X128667Y116682D01*
X128386Y116956D01*
X128112Y117237D01*
X127845Y117525D01*
X127585Y117819D01*
X127332Y118120D01*
X127086Y118426D01*
X126849Y118739D01*
X126619Y119057D01*
X126396Y119381D01*
X126182Y119710D01*
X125976Y120044D01*
X125779Y120384D01*
X125589Y120728D01*
X125408Y121076D01*
X125236Y121429D01*
X125073Y121786D01*
X124918Y122147D01*
X124772Y122512D01*
X124635Y122880D01*
X124508Y123251D01*
X124389Y123625D01*
X124280Y124003D01*
X124179Y124382D01*
X124089Y124764D01*
X124007Y125149D01*
X123936Y125535D01*
X123873Y125922D01*
X123820Y126311D01*
X123777Y126702D01*
X123743Y127093D01*
X123719Y127485D01*
X123705Y127877D01*
X123700Y128270D01*
D13*
X304800Y444500D03*
X292100Y463550D03*
X279400Y444500D03*
X736600Y127000D03*
X723900Y146050D03*
X711200Y127000D03*
X1054100Y584200D03*
X1041400Y603250D03*
X1028700Y584200D03*
X1117600Y584200D03*
X1104900Y603250D03*
X1092200Y584200D03*
D14*
X647700Y215900D03*
X673100Y215900D03*
X698500Y215900D03*
X723900Y215900D03*
X749300Y215900D03*
X774700Y215900D03*
X800100Y215900D03*
X825500Y215900D03*
X850900Y215900D03*
X876300Y215900D03*
X901700Y215900D03*
X927100Y215900D03*
X952500Y215900D03*
X977900Y215900D03*
X1003300Y215900D03*
X1028700Y215900D03*
X1054100Y215900D03*
X1079500Y215900D03*
X647700Y241300D03*
X673100Y241300D03*
X698500Y241300D03*
X723900Y241300D03*
X749300Y241300D03*
X774700Y241300D03*
X800100Y241300D03*
X825500Y241300D03*
X850900Y241300D03*
X876300Y241300D03*
X901700Y241300D03*
X927100Y241300D03*
X952500Y241300D03*
X977900Y241300D03*
X1003300Y241300D03*
X1028700Y241300D03*
X1054100Y241300D03*
X1079500Y241300D03*
X647700Y266700D03*
X673100Y266700D03*
X698500Y266700D03*
X723900Y266700D03*
X749300Y266700D03*
X774700Y266700D03*
X800100Y266700D03*
X825500Y266700D03*
X850900Y266700D03*
X876300Y266700D03*
X901700Y266700D03*
X927100Y266700D03*
X952500Y266700D03*
X977900Y266700D03*
X1003300Y266700D03*
X1028700Y266700D03*
X1054100Y266700D03*
X1079500Y266700D03*
X647700Y393700D03*
X673100Y393700D03*
X698500Y393700D03*
X723900Y393700D03*
X749300Y393700D03*
X774700Y393700D03*
X800100Y393700D03*
X825500Y393700D03*
X850900Y393700D03*
X876300Y393700D03*
X901700Y393700D03*
X927100Y393700D03*
X952500Y393700D03*
X977900Y393700D03*
X1003300Y393700D03*
X1028700Y393700D03*
X1054100Y393700D03*
X1079500Y393700D03*
X647700Y419100D03*
X673100Y419100D03*
X698500Y419100D03*
X723900Y419100D03*
X749300Y419100D03*
X774700Y419100D03*
X800100Y419100D03*
X825500Y419100D03*
X850900Y419100D03*
X876300Y419100D03*
X901700Y419100D03*
X927100Y419100D03*
X952500Y419100D03*
X977900Y419100D03*
X1003300Y419100D03*
X1028700Y419100D03*
X1054100Y419100D03*
X1079500Y419100D03*
X647700Y444500D03*
X673100Y444500D03*
X698500Y444500D03*
X723900Y444500D03*
X749300Y444500D03*
X774700Y444500D03*
X800100Y444500D03*
X825500Y444500D03*
X850900Y444500D03*
X876300Y444500D03*
X901700Y444500D03*
X927100Y444500D03*
X952500Y444500D03*
X977900Y444500D03*
X1003300Y444500D03*
X1028700Y444500D03*
X1054100Y444500D03*
X1079500Y444500D03*
D15*
X203200Y317500D02*
X188976Y317500D01*
X188976Y292100D02*
X203200Y292100D01*
X279400Y292100D02*
X293624Y292100D01*
X293624Y317500D02*
X279400Y317500D01*
X406400Y203200D02*
X420624Y203200D01*
X420624Y228600D02*
X406400Y228600D01*
X330200Y228600D02*
X315976Y228600D01*
X315976Y203200D02*
X330200Y203200D01*
X1320800Y271780D02*
X1335024Y271780D01*
X1335024Y297180D02*
X1320800Y297180D01*
X1244600Y297180D02*
X1230376Y297180D01*
X1230376Y271780D02*
X1244600Y271780D01*
X330200Y165100D02*
X315976Y165100D01*
X315976Y139700D02*
X330200Y139700D01*
X406400Y139700D02*
X420624Y139700D01*
X420624Y165100D02*
X406400Y165100D01*
X203200Y233680D02*
X188976Y233680D01*
X188976Y208280D02*
X203200Y208280D01*
X279400Y208280D02*
X293624Y208280D01*
X293624Y233680D02*
X279400Y233680D01*
X1320800Y203200D02*
X1335024Y203200D01*
X1335024Y228600D02*
X1320800Y228600D01*
X1244600Y228600D02*
X1230376Y228600D01*
X1230376Y203200D02*
X1244600Y203200D01*
X1249680Y76200D02*
X1249680Y61976D01*
X1275080Y61976D02*
X1275080Y76200D01*
X1275080Y152400D02*
X1275080Y166624D01*
X1249680Y166624D02*
X1249680Y152400D01*
X1191260Y76200D02*
X1191260Y61976D01*
X1216660Y61976D02*
X1216660Y76200D01*
X1216660Y152400D02*
X1216660Y166624D01*
X1191260Y166624D02*
X1191260Y152400D01*
X1132840Y76200D02*
X1132840Y61976D01*
X1158240Y61976D02*
X1158240Y76200D01*
X1158240Y152400D02*
X1158240Y166624D01*
X1132840Y166624D02*
X1132840Y152400D01*
X725424Y546100D02*
X711200Y546100D01*
X711200Y571500D02*
X725424Y571500D01*
X635000Y571500D02*
X620776Y571500D01*
X620776Y546100D02*
X635000Y546100D01*
X330200Y292100D02*
X315976Y292100D01*
X315976Y266700D02*
X330200Y266700D01*
X406400Y266700D02*
X420624Y266700D01*
X420624Y292100D02*
X406400Y292100D01*
X1320800Y368300D02*
X1335024Y368300D01*
X1335024Y393700D02*
X1320800Y393700D01*
X1244600Y393700D02*
X1230376Y393700D01*
X1230376Y368300D02*
X1244600Y368300D01*
X774700Y342900D02*
X760476Y342900D01*
X760476Y317500D02*
X774700Y317500D01*
X850900Y317500D02*
X865124Y317500D01*
X865124Y342900D02*
X850900Y342900D01*
X1320800Y422910D02*
X1335024Y422910D01*
X1335024Y448310D02*
X1320800Y448310D01*
X1244600Y448310D02*
X1230376Y448310D01*
X1230376Y422910D02*
X1244600Y422910D01*
X1320800Y541020D02*
X1335024Y541020D01*
X1335024Y566420D02*
X1320800Y566420D01*
X1244600Y566420D02*
X1230376Y566420D01*
X1230376Y541020D02*
X1244600Y541020D01*
X330200Y368300D02*
X315976Y368300D01*
X315976Y342900D02*
X330200Y342900D01*
X406400Y342900D02*
X420624Y342900D01*
X420624Y368300D02*
X406400Y368300D01*
X455676Y139700D02*
X469900Y139700D01*
X469900Y114300D02*
X455676Y114300D01*
X546100Y114300D02*
X560324Y114300D01*
X560324Y139700D02*
X546100Y139700D01*
D13*
X914400Y584200D03*
X901700Y603250D03*
X889000Y584200D03*
X990600Y584200D03*
X977900Y603250D03*
X965200Y584200D03*
D16*
X1130300Y431800D03*
X1130300Y508000D03*
D17*
X774700Y546100D03*
X774700Y469900D03*
D13*
X647700Y482600D03*
X723900Y482600D03*
D16*
X139700Y406400D03*
X139700Y482600D03*
X1155700Y317500D03*
X1155700Y393700D03*
D17*
X1384300Y317500D03*
X1384300Y241300D03*
D16*
X876300Y469900D03*
X876300Y546100D03*
D17*
X1028700Y546100D03*
X1028700Y469900D03*
D13*
X482600Y546100D03*
X558800Y546100D03*
D16*
X1003300Y469900D03*
X1003300Y546100D03*
D17*
X1054100Y546100D03*
X1054100Y469900D03*
D16*
X1155700Y431800D03*
X1155700Y508000D03*
X1384300Y355600D03*
X1384300Y431800D03*
X876300Y114300D03*
X876300Y190500D03*
X825500Y114300D03*
X825500Y190500D03*
D17*
X850900Y190500D03*
X850900Y114300D03*
D16*
X901700Y469900D03*
X901700Y546100D03*
D18*
X558800Y584200D03*
X482600Y584200D03*
D16*
X927100Y469900D03*
X927100Y546100D03*
X431800Y508000D03*
X431800Y584200D03*
X850900Y469900D03*
X850900Y546100D03*
X952500Y114300D03*
X952500Y190500D03*
D17*
X1143000Y292100D03*
X1143000Y215900D03*
D13*
X203200Y127000D03*
X279400Y127000D03*
D17*
X1193800Y266700D03*
X1193800Y190500D03*
D16*
X977900Y114300D03*
X977900Y190500D03*
X152400Y177800D03*
X152400Y254000D03*
D17*
X1079500Y546100D03*
X1079500Y469900D03*
D16*
X1003300Y114300D03*
X1003300Y190500D03*
D13*
X596900Y165100D03*
X673100Y165100D03*
D18*
X1384300Y114300D03*
X1308100Y114300D03*
D16*
X1028700Y114300D03*
X1028700Y190500D03*
D13*
X596900Y139700D03*
X673100Y139700D03*
D18*
X1384300Y88900D03*
X1308100Y88900D03*
D16*
X1054100Y114300D03*
X1054100Y190500D03*
D17*
X1168400Y292100D03*
X1168400Y215900D03*
D18*
X1384300Y139700D03*
X1308100Y139700D03*
D16*
X1079500Y114300D03*
X1079500Y190500D03*
D17*
X901700Y190500D03*
X901700Y114300D03*
D13*
X698500Y177800D03*
X774700Y177800D03*
D18*
X1384300Y165100D03*
X1308100Y165100D03*
D16*
X825500Y469900D03*
X825500Y546100D03*
D17*
X927100Y190500D03*
X927100Y114300D03*
X749300Y546100D03*
X749300Y469900D03*
D16*
X800100Y469900D03*
X800100Y546100D03*
D19*
X533400Y469900D03*
D20*
X483400Y469900D03*
D19*
X495300Y203200D03*
D20*
X545300Y203200D03*
D19*
X1200150Y648970D03*
D20*
X1250150Y648970D03*
D19*
X1085850Y648970D03*
D20*
X1135850Y648970D03*
D19*
X971550Y648970D03*
D20*
X1021550Y648970D03*
D21*
X69220Y135890D03*
D22*
X69220Y185890D03*
X69220Y235890D03*
D19*
X57150Y648970D03*
D20*
X107150Y648970D03*
D19*
X1007110Y62230D03*
D20*
X957110Y62230D03*
D19*
X892810Y62230D03*
D20*
X842810Y62230D03*
D19*
X107950Y62230D03*
D20*
X57950Y62230D03*
D19*
X400050Y648970D03*
D20*
X450050Y648970D03*
D19*
X222250Y62230D03*
D20*
X172250Y62230D03*
D19*
X628650Y648970D03*
D20*
X678650Y648970D03*
D19*
X742950Y648970D03*
D20*
X792950Y648970D03*
D19*
X857250Y648970D03*
D20*
X907250Y648970D03*
D19*
X514350Y648970D03*
D20*
X564350Y648970D03*
D19*
X664210Y62230D03*
D20*
X614210Y62230D03*
D19*
X778510Y62230D03*
D20*
X728510Y62230D03*
D21*
X386410Y62230D03*
D22*
X336410Y62230D03*
X286410Y62230D03*
D21*
X550240Y62230D03*
D22*
X500240Y62230D03*
X450240Y62230D03*
D19*
X69220Y527210D03*
D20*
X69220Y577210D03*
D23*
X128778Y558800D02*
X128778Y533400D01*
X379222Y533400D02*
X379222Y558800D01*
D19*
X1314450Y648970D03*
D20*
X1364450Y648970D03*
D19*
X1435100Y650240D03*
D20*
X1435100Y600240D03*
D19*
X1435100Y535940D03*
D20*
X1435100Y485940D03*
D19*
X1435100Y421640D03*
D20*
X1435100Y371640D03*
D19*
X1435100Y307340D03*
D20*
X1435100Y257340D03*
D19*
X1435100Y193040D03*
D20*
X1435100Y143040D03*
D19*
X171450Y648970D03*
D20*
X221450Y648970D03*
D19*
X285750Y648970D03*
D20*
X335750Y648970D03*
D19*
X69220Y413190D03*
D20*
X69220Y463190D03*
D19*
X69220Y299650D03*
D20*
X69220Y349650D03*
D19*
X215900Y444500D03*
D20*
X215900Y394500D03*
D24*
X215900Y330200D02*
X203200Y317500D01*
X215900Y330200D02*
X336550Y330200D01*
X342900Y336550D01*
X342900Y381000D01*
X209550Y381000D01*
X196850Y393700D01*
X196850Y425450D01*
X234950Y425450D01*
X298450Y488950D01*
X488950Y488950D01*
X527050Y450850D01*
X577850Y450850D01*
X685800Y558800D01*
X736600Y558800D01*
X742950Y565150D01*
X831850Y565150D01*
X850900Y546100D01*
X596900Y165100D02*
X596900Y139700D01*
X977900Y114300D02*
X990600Y127000D01*
X996950Y127000D01*
X1009650Y139700D01*
X1009650Y165100D01*
X965200Y165100D01*
X958850Y158750D01*
X755650Y158750D01*
X742950Y171450D01*
X704850Y171450D01*
X698500Y177800D01*
X647700Y393700D02*
X647700Y419100D01*
X647700Y444500D02*
X647700Y482600D01*
X647700Y444500D02*
X647700Y419100D01*
X1155700Y292100D02*
X1168400Y292100D01*
X1155700Y292100D02*
X1143000Y292100D01*
X1155700Y292100D02*
X1155700Y317500D01*
X1054100Y546100D02*
X1028700Y546100D01*
X927100Y546100D02*
X901700Y546100D01*
X927100Y603250D02*
X977900Y603250D01*
X927100Y603250D02*
X901700Y603250D01*
X927100Y603250D02*
X927100Y558800D01*
X927100Y546100D01*
X1016000Y558800D02*
X1028700Y546100D01*
X990600Y558800D02*
X927100Y558800D01*
X990600Y558800D02*
X1016000Y558800D01*
X1073150Y361950D02*
X1143000Y292100D01*
X1073150Y361950D02*
X1016000Y361950D01*
X990600Y387350D01*
X990600Y558800D01*
X666750Y501650D02*
X647700Y482600D01*
X666750Y501650D02*
X838200Y501650D01*
X869950Y533400D01*
X889000Y533400D01*
X901700Y546100D01*
X717550Y552450D02*
X711200Y546100D01*
X717550Y552450D02*
X736600Y552450D01*
X742950Y558800D01*
X812800Y558800D01*
X825500Y546100D01*
X393700Y355600D02*
X330200Y292100D01*
X393700Y355600D02*
X755650Y355600D01*
X787400Y387350D01*
X787400Y482600D01*
D25*
X787400Y482600D03*
D24*
X812800Y381000D02*
X774700Y342900D01*
X812800Y381000D02*
X812800Y488950D01*
X850900Y488950D01*
D25*
X850900Y488950D03*
D24*
X1003300Y482600D02*
X1003300Y546100D01*
X1003300Y482600D02*
X1009650Y482600D01*
X1016000Y476250D01*
X1016000Y368300D01*
X1123950Y368300D01*
X1219200Y273050D01*
X1219200Y260350D01*
X1250950Y260350D01*
X1308100Y317500D01*
X1308100Y419100D01*
X1320800Y419100D01*
X1320800Y422910D01*
D26*
X379222Y546100D02*
X215900Y546100D01*
X203200Y546100D01*
X139700Y609600D01*
X25400Y609600D01*
X25400Y685800D01*
X393700Y685800D01*
X520700Y685800D01*
X635000Y685800D01*
X749300Y685800D01*
X850900Y685800D01*
X977900Y685800D01*
X1079500Y685800D01*
X1206500Y685800D01*
X1320800Y685800D02*
X1473200Y685800D01*
X1320800Y685800D02*
X1206500Y685800D01*
X25400Y609600D02*
X25400Y241300D01*
X25400Y63500D01*
X25400Y25400D01*
X165100Y25400D01*
X292100Y25400D01*
X444500Y25400D01*
X647700Y25400D01*
X1384300Y25400D01*
X1473200Y25400D01*
X26670Y62230D02*
X25400Y63500D01*
X26670Y62230D02*
X57950Y62230D01*
X400050Y648970D02*
X400050Y679450D01*
X393700Y685800D01*
X514350Y679450D02*
X514350Y648970D01*
X514350Y679450D02*
X520700Y685800D01*
X628650Y679450D02*
X628650Y648970D01*
X628650Y679450D02*
X635000Y685800D01*
X742950Y679450D02*
X742950Y648970D01*
X742950Y679450D02*
X749300Y685800D01*
X857250Y679450D02*
X857250Y648970D01*
X857250Y679450D02*
X850900Y685800D01*
X971550Y679450D02*
X971550Y648970D01*
X971550Y679450D02*
X977900Y685800D01*
X1085850Y679450D02*
X1085850Y648970D01*
X1085850Y679450D02*
X1079500Y685800D01*
X1200150Y679450D02*
X1200150Y648970D01*
X1200150Y679450D02*
X1206500Y685800D01*
X1435100Y535940D02*
X1470660Y571500D01*
X1473200Y571500D01*
X1473200Y685800D01*
X1320800Y685800D02*
X1314450Y679450D01*
X1314450Y648970D01*
D27*
X457200Y546100D02*
X379222Y546100D01*
X457200Y546100D02*
X482600Y546100D01*
X215900Y546100D02*
X215900Y444500D01*
D26*
X172250Y62230D02*
X172250Y32550D01*
X165100Y25400D01*
X286410Y31090D02*
X286410Y62230D01*
X286410Y31090D02*
X292100Y25400D01*
X450240Y31140D02*
X450240Y62230D01*
X450240Y31140D02*
X444500Y25400D01*
X1473200Y345440D02*
X1473200Y571500D01*
X1473200Y345440D02*
X1435100Y307340D01*
X1394460Y307340D01*
X1384300Y317500D01*
X1384300Y355600D01*
D24*
X177800Y63500D02*
X172250Y62230D01*
X533400Y469900D02*
X457200Y546100D01*
D28*
X177800Y67780D02*
X172250Y62230D01*
X177800Y67780D02*
X177800Y127000D01*
X203200Y127000D01*
X177800Y127000D02*
X177800Y152400D01*
X152400Y177800D01*
X647700Y241300D02*
X647700Y266700D01*
X647700Y241300D02*
X647700Y215900D01*
X647700Y25400D01*
X69220Y235890D02*
X30810Y235890D01*
X25400Y241300D01*
X1384300Y165100D02*
X1384300Y139700D01*
X1384300Y114300D01*
X1384300Y88900D01*
X1384300Y25400D01*
D24*
X317500Y165100D02*
X279400Y127000D01*
X317500Y165100D02*
X330200Y165100D01*
X730250Y44450D02*
X774700Y88900D01*
X927100Y88900D01*
X952500Y114300D01*
D25*
X730250Y44450D03*
D28*
X182880Y254000D02*
X152400Y254000D01*
X182880Y254000D02*
X203200Y233680D01*
D24*
X279400Y234950D02*
X298450Y254000D01*
X603250Y254000D01*
X635000Y285750D01*
X749300Y285750D01*
X831850Y304800D02*
X850900Y285750D01*
X1130300Y285750D01*
X1149350Y266700D01*
X1193800Y266700D01*
X279400Y234950D02*
X279400Y233680D01*
D25*
X749300Y285750D03*
X831850Y304800D03*
D24*
X1308100Y114300D02*
X1320800Y127000D01*
X1320800Y203200D01*
X1054100Y165100D02*
X1003300Y114300D01*
X1054100Y165100D02*
X1111250Y165100D01*
X1123950Y177800D01*
X1219200Y177800D01*
X1244600Y203200D01*
X1263650Y88900D02*
X1250950Y76200D01*
X1263650Y88900D02*
X1308100Y88900D01*
X1250950Y76200D02*
X1249680Y76200D01*
X1047750Y95250D02*
X1028700Y114300D01*
X1047750Y95250D02*
X1149350Y95250D01*
X1193800Y139700D01*
X1231900Y139700D01*
X1244600Y152400D01*
X1249680Y152400D01*
X1250950Y133350D02*
X1193800Y76200D01*
X1250950Y133350D02*
X1301750Y133350D01*
X1308100Y139700D01*
X1193800Y76200D02*
X1191260Y76200D01*
X1066800Y101600D02*
X1054100Y114300D01*
X1066800Y101600D02*
X1136650Y101600D01*
X1187450Y152400D01*
X1191260Y152400D01*
X1193800Y133350D02*
X1136650Y76200D01*
X1193800Y133350D02*
X1244600Y133350D01*
X1250950Y139700D01*
X1282700Y139700D01*
X1308100Y165100D01*
X1136650Y76200D02*
X1132840Y76200D01*
X1079500Y114300D02*
X1117600Y152400D01*
X1132840Y152400D01*
X901700Y393700D02*
X901700Y419100D01*
X901700Y444500D02*
X901700Y469900D01*
X901700Y444500D02*
X901700Y419100D01*
X927100Y419100D02*
X927100Y393700D01*
X927100Y444500D02*
X927100Y469900D01*
X927100Y444500D02*
X927100Y419100D01*
X800100Y241300D02*
X800100Y215900D01*
X800100Y241300D02*
X800100Y266700D01*
X158750Y279400D02*
X69850Y190500D01*
X158750Y279400D02*
X622300Y279400D01*
X641350Y298450D01*
X793750Y298450D01*
X69850Y190500D02*
X69220Y185890D01*
D25*
X793750Y298450D03*
D24*
X800100Y444500D02*
X800100Y469900D01*
X800100Y419100D02*
X800100Y393700D01*
X800100Y419100D02*
X800100Y444500D01*
X825500Y444500D02*
X825500Y469900D01*
X825500Y419100D02*
X825500Y393700D01*
X825500Y419100D02*
X825500Y444500D01*
X850900Y444500D02*
X850900Y469900D01*
X850900Y419100D02*
X850900Y393700D01*
X850900Y419100D02*
X850900Y444500D01*
X876300Y444500D02*
X876300Y469900D01*
X876300Y419100D02*
X876300Y393700D01*
X876300Y419100D02*
X876300Y444500D01*
X889000Y381000D02*
X850900Y342900D01*
X889000Y381000D02*
X889000Y514350D01*
X863600Y514350D01*
D25*
X863600Y514350D03*
D24*
X285750Y323850D02*
X279400Y317500D01*
X285750Y323850D02*
X342900Y323850D01*
X457200Y438150D01*
X577850Y438150D01*
X660400Y520700D01*
X666750Y520700D01*
D25*
X666750Y520700D03*
D24*
X1003300Y469900D02*
X1003300Y444500D01*
X1003300Y419100D02*
X1003300Y393700D01*
X1003300Y419100D02*
X1003300Y444500D01*
X1244600Y425450D02*
X1257300Y438150D01*
X1257300Y552450D01*
X1092200Y552450D01*
X1079500Y565150D01*
X1016000Y565150D01*
X1003300Y577850D01*
X1003300Y628650D01*
X927100Y628650D01*
X908050Y647700D01*
X1244600Y425450D02*
X1244600Y422910D01*
X908050Y647700D02*
X907250Y648970D01*
X749300Y469900D02*
X749300Y444500D01*
X749300Y419100D02*
X749300Y393700D01*
X749300Y419100D02*
X749300Y444500D01*
X1320800Y566420D02*
X1320800Y635000D01*
X1346200Y635000D01*
X1358900Y647700D01*
X1364450Y648970D01*
X1409700Y482600D02*
X1320800Y393700D01*
X1409700Y482600D02*
X1435100Y482600D01*
X1435100Y485940D01*
X1320800Y292100D02*
X1327150Y285750D01*
X1409700Y285750D01*
X1435100Y260350D01*
X1320800Y292100D02*
X1320800Y297180D01*
X1435100Y260350D02*
X1435100Y257340D01*
X876300Y215900D02*
X876300Y190500D01*
X876300Y241300D02*
X876300Y266700D01*
X876300Y241300D02*
X876300Y215900D01*
X901700Y215900D02*
X901700Y190500D01*
X901700Y241300D02*
X901700Y266700D01*
X901700Y241300D02*
X901700Y215900D01*
X1117600Y584200D02*
X1168400Y635000D01*
X1231900Y635000D01*
X1244600Y647700D01*
X1250150Y648970D01*
X927100Y215900D02*
X927100Y190500D01*
X927100Y241300D02*
X927100Y266700D01*
X927100Y241300D02*
X927100Y215900D01*
X952500Y241300D02*
X952500Y266700D01*
X1117600Y190500D02*
X1143000Y215900D01*
X1117600Y190500D02*
X1098550Y190500D01*
X1085850Y177800D01*
X965200Y177800D01*
X952500Y190500D01*
X952500Y215900D02*
X952500Y241300D01*
X203200Y208280D02*
X203200Y139700D01*
X209550Y139700D01*
X215900Y133350D01*
X215900Y82550D01*
X203200Y69850D01*
X203200Y44450D01*
X241300Y44450D01*
X279400Y82550D01*
X292100Y82550D01*
X330200Y44450D01*
X406400Y44450D01*
X444500Y82550D01*
X476250Y82550D01*
X495300Y63500D01*
X500240Y62230D01*
X977900Y241300D02*
X977900Y266700D01*
X1187450Y184150D02*
X1193800Y190500D01*
X1187450Y184150D02*
X1098550Y184150D01*
X1085850Y171450D01*
X958850Y171450D01*
X977900Y215900D02*
X977900Y241300D01*
D25*
X958850Y171450D03*
D24*
X330200Y139700D02*
X330200Y63500D01*
X336410Y62230D01*
X1003300Y215900D02*
X1003300Y241300D01*
X1003300Y266700D01*
X742950Y165100D02*
X673100Y165100D01*
X742950Y165100D02*
X755650Y152400D01*
X977900Y152400D01*
X984250Y146050D01*
X990600Y146050D01*
X996950Y152400D01*
D25*
X996950Y152400D03*
D24*
X1028700Y215900D02*
X1028700Y241300D01*
X1028700Y266700D01*
X692150Y158750D02*
X673100Y139700D01*
X692150Y158750D02*
X742950Y158750D01*
X755650Y146050D01*
X977900Y146050D01*
X984250Y139700D01*
X996950Y139700D01*
D25*
X996950Y139700D03*
D24*
X1155700Y228600D02*
X1168400Y215900D01*
X1155700Y228600D02*
X1066800Y228600D01*
X1054100Y241300D01*
X1066800Y228600D02*
X1054100Y215900D01*
X1079500Y254000D02*
X1079500Y266700D01*
X1079500Y254000D02*
X1079500Y241300D01*
X933450Y177800D02*
X774700Y177800D01*
X933450Y177800D02*
X939800Y184150D01*
X939800Y203200D01*
X1041400Y203200D02*
X1066800Y203200D01*
X1041400Y203200D02*
X939800Y203200D01*
X1066800Y203200D02*
X1079500Y215900D01*
X1066800Y203200D02*
X1079500Y190500D01*
X1079500Y254000D02*
X1047750Y254000D01*
X1041400Y247650D01*
X1041400Y203200D01*
X1295400Y254000D02*
X1320800Y228600D01*
X1295400Y254000D02*
X1111250Y254000D01*
X1085850Y279400D01*
X793750Y279400D01*
X787400Y273050D01*
X787400Y190500D01*
X755650Y190500D01*
X749300Y184150D01*
X736600Y184150D01*
D25*
X736600Y184150D03*
D24*
X1270000Y76200D02*
X1270000Y50800D01*
X1244600Y50800D01*
X1231900Y63500D01*
X1231900Y88900D01*
X1212850Y88900D01*
X1203960Y80010D01*
X1203960Y48260D01*
X1184910Y48260D01*
X1174750Y58420D01*
X1174750Y88900D01*
X1155700Y88900D01*
X1145540Y78740D01*
X1145540Y50800D01*
X1054100Y50800D01*
X1022350Y82550D01*
X800100Y82550D01*
X781050Y63500D01*
X1270000Y76200D02*
X1275080Y76200D01*
X781050Y63500D02*
X778510Y62230D01*
X1212850Y76200D02*
X1212850Y38100D01*
X1028700Y38100D01*
X1009650Y57150D01*
X1212850Y76200D02*
X1216660Y76200D01*
X1009650Y57150D02*
X1007110Y62230D01*
X1155700Y76200D02*
X1155700Y44450D01*
X1054100Y44450D01*
X1022350Y76200D01*
X908050Y76200D01*
X895350Y63500D01*
X1155700Y76200D02*
X1158240Y76200D01*
X895350Y63500D02*
X892810Y62230D01*
X825500Y190500D02*
X825500Y215900D01*
X825500Y241300D02*
X825500Y266700D01*
X825500Y241300D02*
X825500Y215900D01*
X850900Y215900D02*
X850900Y190500D01*
X850900Y241300D02*
X850900Y266700D01*
X850900Y241300D02*
X850900Y215900D01*
X1054100Y584200D02*
X1117600Y647700D01*
X1130300Y647700D01*
X1135850Y648970D01*
X762000Y209550D02*
X749300Y196850D01*
X762000Y209550D02*
X762000Y285750D01*
X800100Y285750D01*
X844550Y330200D01*
X908050Y330200D01*
X965200Y387350D01*
X965200Y546100D01*
X977900Y546100D01*
D25*
X749300Y196850D03*
X977900Y546100D03*
D24*
X482600Y127000D02*
X469900Y139700D01*
X482600Y127000D02*
X603250Y127000D01*
X635000Y158750D01*
X635000Y279400D01*
X654050Y279400D01*
X660400Y273050D01*
X660400Y101600D01*
X889000Y101600D01*
X901700Y114300D01*
X666750Y95250D02*
X660400Y88900D01*
X666750Y95250D02*
X908050Y95250D01*
X927100Y114300D01*
D25*
X660400Y88900D03*
D24*
X546100Y139700D02*
X501650Y184150D01*
X368300Y184150D01*
X336550Y215900D01*
X304800Y215900D01*
X298450Y222250D01*
X177800Y222250D01*
X107950Y152400D01*
X107950Y62230D01*
X222250Y95250D02*
X330200Y203200D01*
X222250Y95250D02*
X222250Y62230D01*
X69850Y635000D02*
X57150Y647700D01*
X69850Y635000D02*
X317500Y635000D01*
X330200Y647700D01*
X57150Y647700D02*
X57150Y648970D01*
X330200Y647700D02*
X335750Y648970D01*
X431800Y584200D02*
X482600Y584200D01*
X400050Y584200D02*
X336550Y647700D01*
X400050Y584200D02*
X431800Y584200D01*
X336550Y647700D02*
X335750Y648970D01*
X292100Y463550D02*
X298450Y457200D01*
X476250Y457200D01*
X488950Y444500D01*
X577850Y444500D01*
X666750Y533400D01*
X736600Y533400D01*
X749300Y546100D01*
X139700Y482600D02*
X139700Y444500D01*
X215900Y368300D01*
X330200Y368300D01*
X406400Y368300D02*
X469900Y431800D01*
X577850Y431800D01*
X654050Y508000D01*
X736600Y508000D01*
X774700Y546100D01*
X774700Y419100D02*
X774700Y393700D01*
X774700Y444500D02*
X774700Y469900D01*
X762000Y482600D02*
X723900Y482600D01*
X762000Y482600D02*
X774700Y469900D01*
X774700Y444500D02*
X774700Y419100D01*
X304800Y444500D02*
X260350Y400050D01*
X215900Y400050D01*
X215900Y394500D01*
X323850Y349250D02*
X330200Y342900D01*
X323850Y349250D02*
X69850Y349250D01*
X69220Y349650D01*
D26*
X126010Y406400D02*
X69220Y463190D01*
X126010Y406400D02*
X139700Y406400D01*
D24*
X1320800Y266700D02*
X1346200Y241300D01*
X1384300Y241300D01*
X1320800Y266700D02*
X1320800Y271780D01*
X1257300Y285750D02*
X1244600Y273050D01*
X1257300Y285750D02*
X1257300Y412750D01*
X1155700Y412750D01*
X1143000Y425450D01*
X1143000Y495300D01*
X1162050Y495300D01*
X1168400Y501650D01*
X1168400Y546100D01*
X1079500Y546100D01*
X1244600Y273050D02*
X1244600Y271780D01*
X1320800Y368300D02*
X1333500Y381000D01*
X1339850Y381000D01*
X1384300Y425450D01*
X1384300Y431800D01*
X1155700Y406400D02*
X1130300Y431800D01*
X1155700Y406400D02*
X1200150Y406400D01*
X1238250Y368300D01*
X1244600Y368300D01*
X615950Y635000D02*
X577850Y596900D01*
X615950Y635000D02*
X869950Y635000D01*
X901700Y666750D01*
X927100Y666750D01*
X958850Y635000D01*
X1003300Y635000D01*
X1016000Y622300D01*
X1016000Y571500D01*
X1219200Y571500D01*
X1225550Y577850D01*
X1289050Y577850D01*
X1320800Y546100D01*
X1320800Y541020D01*
D25*
X577850Y596900D03*
D24*
X1155700Y431800D02*
X1244600Y520700D01*
X1244600Y541020D01*
X1054100Y419100D02*
X1054100Y393700D01*
X1054100Y444500D02*
X1054100Y469900D01*
X1104900Y482600D02*
X1130300Y508000D01*
X1104900Y482600D02*
X1066800Y482600D01*
X1054100Y469900D01*
X1054100Y444500D02*
X1054100Y419100D01*
X1028700Y419100D02*
X1028700Y393700D01*
X1028700Y444500D02*
X1028700Y469900D01*
X1143000Y520700D02*
X1155700Y508000D01*
X1143000Y520700D02*
X1079500Y520700D01*
X1028700Y469900D01*
X1028700Y444500D02*
X1028700Y419100D01*
X730250Y139700D02*
X723900Y146050D01*
X730250Y139700D02*
X850900Y139700D01*
X876300Y114300D01*
X1079500Y444500D02*
X1079500Y469900D01*
X1079500Y444500D02*
X1079500Y419100D01*
X1079500Y393700D02*
X1155700Y393700D01*
X1079500Y393700D02*
X1079500Y419100D01*
X869950Y584200D02*
X558800Y584200D01*
X869950Y584200D02*
X882650Y571500D01*
X901700Y571500D01*
X914400Y584200D01*
X184150Y666750D02*
X171450Y654050D01*
X184150Y666750D02*
X355600Y666750D01*
X425450Y596900D01*
X546100Y596900D01*
X558800Y584200D01*
X171450Y648970D02*
X171450Y654050D01*
X69220Y577210D02*
X69850Y571500D01*
D26*
X69220Y577210D02*
X100330Y546100D01*
X128778Y546100D01*
D28*
X69220Y413190D02*
X50800Y394770D01*
X50800Y317500D01*
X51370Y317500D01*
X69220Y299650D01*
M02*
