G04 EAGLE Gerber RS-274X export*
G75*
%MOMM*%
%FSLAX34Y34*%
%LPD*%
%INTop Soldermask*%
%IPPOS*%
%AMOC8*
5,1,8,0,0,1.08239X$1,22.5*%
G01*
%ADD10C,3.403194*%
%ADD11P,1.759533X8X22.500000*%
%ADD12C,1.955800*%
%ADD13C,1.625600*%
%ADD14P,1.759533X8X112.500000*%
%ADD15P,1.759533X8X292.500000*%
%ADD16P,1.759533X8X202.500000*%
%ADD17R,2.235200X2.235200*%
%ADD18C,2.235200*%
%ADD19R,2.616200X2.616200*%
%ADD20C,2.616200*%
%ADD21C,2.743200*%


D10*
X1435100Y63500D03*
X1358900Y495300D03*
X137160Y312420D03*
X139700Y128270D03*
D11*
X304800Y444500D03*
X292100Y463550D03*
X279400Y444500D03*
X736600Y127000D03*
X723900Y146050D03*
X711200Y127000D03*
X1054100Y584200D03*
X1041400Y603250D03*
X1028700Y584200D03*
X1117600Y584200D03*
X1104900Y603250D03*
X1092200Y584200D03*
D12*
X647700Y215900D03*
X673100Y215900D03*
X698500Y215900D03*
X723900Y215900D03*
X749300Y215900D03*
X774700Y215900D03*
X800100Y215900D03*
X825500Y215900D03*
X850900Y215900D03*
X876300Y215900D03*
X901700Y215900D03*
X927100Y215900D03*
X952500Y215900D03*
X977900Y215900D03*
X1003300Y215900D03*
X1028700Y215900D03*
X1054100Y215900D03*
X1079500Y215900D03*
X647700Y241300D03*
X673100Y241300D03*
X698500Y241300D03*
X723900Y241300D03*
X749300Y241300D03*
X774700Y241300D03*
X800100Y241300D03*
X825500Y241300D03*
X850900Y241300D03*
X876300Y241300D03*
X901700Y241300D03*
X927100Y241300D03*
X952500Y241300D03*
X977900Y241300D03*
X1003300Y241300D03*
X1028700Y241300D03*
X1054100Y241300D03*
X1079500Y241300D03*
X647700Y266700D03*
X673100Y266700D03*
X698500Y266700D03*
X723900Y266700D03*
X749300Y266700D03*
X774700Y266700D03*
X800100Y266700D03*
X825500Y266700D03*
X850900Y266700D03*
X876300Y266700D03*
X901700Y266700D03*
X927100Y266700D03*
X952500Y266700D03*
X977900Y266700D03*
X1003300Y266700D03*
X1028700Y266700D03*
X1054100Y266700D03*
X1079500Y266700D03*
X647700Y393700D03*
X673100Y393700D03*
X698500Y393700D03*
X723900Y393700D03*
X749300Y393700D03*
X774700Y393700D03*
X800100Y393700D03*
X825500Y393700D03*
X850900Y393700D03*
X876300Y393700D03*
X901700Y393700D03*
X927100Y393700D03*
X952500Y393700D03*
X977900Y393700D03*
X1003300Y393700D03*
X1028700Y393700D03*
X1054100Y393700D03*
X1079500Y393700D03*
X647700Y419100D03*
X673100Y419100D03*
X698500Y419100D03*
X723900Y419100D03*
X749300Y419100D03*
X774700Y419100D03*
X800100Y419100D03*
X825500Y419100D03*
X850900Y419100D03*
X876300Y419100D03*
X901700Y419100D03*
X927100Y419100D03*
X952500Y419100D03*
X977900Y419100D03*
X1003300Y419100D03*
X1028700Y419100D03*
X1054100Y419100D03*
X1079500Y419100D03*
X647700Y444500D03*
X673100Y444500D03*
X698500Y444500D03*
X723900Y444500D03*
X749300Y444500D03*
X774700Y444500D03*
X800100Y444500D03*
X825500Y444500D03*
X850900Y444500D03*
X876300Y444500D03*
X901700Y444500D03*
X927100Y444500D03*
X952500Y444500D03*
X977900Y444500D03*
X1003300Y444500D03*
X1028700Y444500D03*
X1054100Y444500D03*
X1079500Y444500D03*
D13*
X203200Y317500D02*
X188976Y317500D01*
X188976Y292100D02*
X203200Y292100D01*
X279400Y292100D02*
X293624Y292100D01*
X293624Y317500D02*
X279400Y317500D01*
X406400Y203200D02*
X420624Y203200D01*
X420624Y228600D02*
X406400Y228600D01*
X330200Y228600D02*
X315976Y228600D01*
X315976Y203200D02*
X330200Y203200D01*
X1320800Y271780D02*
X1335024Y271780D01*
X1335024Y297180D02*
X1320800Y297180D01*
X1244600Y297180D02*
X1230376Y297180D01*
X1230376Y271780D02*
X1244600Y271780D01*
X330200Y165100D02*
X315976Y165100D01*
X315976Y139700D02*
X330200Y139700D01*
X406400Y139700D02*
X420624Y139700D01*
X420624Y165100D02*
X406400Y165100D01*
X203200Y233680D02*
X188976Y233680D01*
X188976Y208280D02*
X203200Y208280D01*
X279400Y208280D02*
X293624Y208280D01*
X293624Y233680D02*
X279400Y233680D01*
X1320800Y203200D02*
X1335024Y203200D01*
X1335024Y228600D02*
X1320800Y228600D01*
X1244600Y228600D02*
X1230376Y228600D01*
X1230376Y203200D02*
X1244600Y203200D01*
X1249680Y76200D02*
X1249680Y61976D01*
X1275080Y61976D02*
X1275080Y76200D01*
X1275080Y152400D02*
X1275080Y166624D01*
X1249680Y166624D02*
X1249680Y152400D01*
X1191260Y76200D02*
X1191260Y61976D01*
X1216660Y61976D02*
X1216660Y76200D01*
X1216660Y152400D02*
X1216660Y166624D01*
X1191260Y166624D02*
X1191260Y152400D01*
X1132840Y76200D02*
X1132840Y61976D01*
X1158240Y61976D02*
X1158240Y76200D01*
X1158240Y152400D02*
X1158240Y166624D01*
X1132840Y166624D02*
X1132840Y152400D01*
X725424Y546100D02*
X711200Y546100D01*
X711200Y571500D02*
X725424Y571500D01*
X635000Y571500D02*
X620776Y571500D01*
X620776Y546100D02*
X635000Y546100D01*
X330200Y292100D02*
X315976Y292100D01*
X315976Y266700D02*
X330200Y266700D01*
X406400Y266700D02*
X420624Y266700D01*
X420624Y292100D02*
X406400Y292100D01*
X1320800Y368300D02*
X1335024Y368300D01*
X1335024Y393700D02*
X1320800Y393700D01*
X1244600Y393700D02*
X1230376Y393700D01*
X1230376Y368300D02*
X1244600Y368300D01*
X774700Y342900D02*
X760476Y342900D01*
X760476Y317500D02*
X774700Y317500D01*
X850900Y317500D02*
X865124Y317500D01*
X865124Y342900D02*
X850900Y342900D01*
X1320800Y422910D02*
X1335024Y422910D01*
X1335024Y448310D02*
X1320800Y448310D01*
X1244600Y448310D02*
X1230376Y448310D01*
X1230376Y422910D02*
X1244600Y422910D01*
X1320800Y541020D02*
X1335024Y541020D01*
X1335024Y566420D02*
X1320800Y566420D01*
X1244600Y566420D02*
X1230376Y566420D01*
X1230376Y541020D02*
X1244600Y541020D01*
X330200Y368300D02*
X315976Y368300D01*
X315976Y342900D02*
X330200Y342900D01*
X406400Y342900D02*
X420624Y342900D01*
X420624Y368300D02*
X406400Y368300D01*
X455676Y139700D02*
X469900Y139700D01*
X469900Y114300D02*
X455676Y114300D01*
X546100Y114300D02*
X560324Y114300D01*
X560324Y139700D02*
X546100Y139700D01*
D11*
X914400Y584200D03*
X901700Y603250D03*
X889000Y584200D03*
X990600Y584200D03*
X977900Y603250D03*
X965200Y584200D03*
D14*
X1130300Y431800D03*
X1130300Y508000D03*
D15*
X774700Y546100D03*
X774700Y469900D03*
D11*
X647700Y482600D03*
X723900Y482600D03*
D14*
X139700Y406400D03*
X139700Y482600D03*
X1155700Y317500D03*
X1155700Y393700D03*
D15*
X1384300Y317500D03*
X1384300Y241300D03*
D14*
X876300Y469900D03*
X876300Y546100D03*
D15*
X1028700Y546100D03*
X1028700Y469900D03*
D11*
X482600Y546100D03*
X558800Y546100D03*
D14*
X1003300Y469900D03*
X1003300Y546100D03*
D15*
X1054100Y546100D03*
X1054100Y469900D03*
D14*
X1155700Y431800D03*
X1155700Y508000D03*
X1384300Y355600D03*
X1384300Y431800D03*
X876300Y114300D03*
X876300Y190500D03*
X825500Y114300D03*
X825500Y190500D03*
D15*
X850900Y190500D03*
X850900Y114300D03*
D14*
X901700Y469900D03*
X901700Y546100D03*
D16*
X558800Y584200D03*
X482600Y584200D03*
D14*
X927100Y469900D03*
X927100Y546100D03*
X431800Y508000D03*
X431800Y584200D03*
X850900Y469900D03*
X850900Y546100D03*
X952500Y114300D03*
X952500Y190500D03*
D15*
X1143000Y292100D03*
X1143000Y215900D03*
D11*
X203200Y127000D03*
X279400Y127000D03*
D15*
X1193800Y266700D03*
X1193800Y190500D03*
D14*
X977900Y114300D03*
X977900Y190500D03*
X152400Y177800D03*
X152400Y254000D03*
D15*
X1079500Y546100D03*
X1079500Y469900D03*
D14*
X1003300Y114300D03*
X1003300Y190500D03*
D11*
X596900Y165100D03*
X673100Y165100D03*
D16*
X1384300Y114300D03*
X1308100Y114300D03*
D14*
X1028700Y114300D03*
X1028700Y190500D03*
D11*
X596900Y139700D03*
X673100Y139700D03*
D16*
X1384300Y88900D03*
X1308100Y88900D03*
D14*
X1054100Y114300D03*
X1054100Y190500D03*
D15*
X1168400Y292100D03*
X1168400Y215900D03*
D16*
X1384300Y139700D03*
X1308100Y139700D03*
D14*
X1079500Y114300D03*
X1079500Y190500D03*
D15*
X901700Y190500D03*
X901700Y114300D03*
D11*
X698500Y177800D03*
X774700Y177800D03*
D16*
X1384300Y165100D03*
X1308100Y165100D03*
D14*
X825500Y469900D03*
X825500Y546100D03*
D15*
X927100Y190500D03*
X927100Y114300D03*
X749300Y546100D03*
X749300Y469900D03*
D14*
X800100Y469900D03*
X800100Y546100D03*
D17*
X533400Y469900D03*
D18*
X483400Y469900D03*
D17*
X495300Y203200D03*
D18*
X545300Y203200D03*
D17*
X1200150Y648970D03*
D18*
X1250150Y648970D03*
D17*
X1085850Y648970D03*
D18*
X1135850Y648970D03*
D17*
X971550Y648970D03*
D18*
X1021550Y648970D03*
D19*
X69220Y135890D03*
D20*
X69220Y185890D03*
X69220Y235890D03*
D17*
X57150Y648970D03*
D18*
X107150Y648970D03*
D17*
X1007110Y62230D03*
D18*
X957110Y62230D03*
D17*
X892810Y62230D03*
D18*
X842810Y62230D03*
D17*
X107950Y62230D03*
D18*
X57950Y62230D03*
D17*
X400050Y648970D03*
D18*
X450050Y648970D03*
D17*
X222250Y62230D03*
D18*
X172250Y62230D03*
D17*
X628650Y648970D03*
D18*
X678650Y648970D03*
D17*
X742950Y648970D03*
D18*
X792950Y648970D03*
D17*
X857250Y648970D03*
D18*
X907250Y648970D03*
D17*
X514350Y648970D03*
D18*
X564350Y648970D03*
D17*
X664210Y62230D03*
D18*
X614210Y62230D03*
D17*
X778510Y62230D03*
D18*
X728510Y62230D03*
D19*
X386410Y62230D03*
D20*
X336410Y62230D03*
X286410Y62230D03*
D19*
X550240Y62230D03*
D20*
X500240Y62230D03*
X450240Y62230D03*
D17*
X69220Y527210D03*
D18*
X69220Y577210D03*
D21*
X128778Y558800D02*
X128778Y533400D01*
X379222Y533400D02*
X379222Y558800D01*
D17*
X1314450Y648970D03*
D18*
X1364450Y648970D03*
D17*
X1435100Y650240D03*
D18*
X1435100Y600240D03*
D17*
X1435100Y535940D03*
D18*
X1435100Y485940D03*
D17*
X1435100Y421640D03*
D18*
X1435100Y371640D03*
D17*
X1435100Y307340D03*
D18*
X1435100Y257340D03*
D17*
X1435100Y193040D03*
D18*
X1435100Y143040D03*
D17*
X171450Y648970D03*
D18*
X221450Y648970D03*
D17*
X285750Y648970D03*
D18*
X335750Y648970D03*
D17*
X69220Y413190D03*
D18*
X69220Y463190D03*
D17*
X69220Y299650D03*
D18*
X69220Y349650D03*
D17*
X215900Y444500D03*
D18*
X215900Y394500D03*
M02*
