%
M48
M72
T01C0.02000
T02C0.03200
T03C0.03500
T04C0.05118
T05C0.05200
T06C0.12598
%
T01
X82340Y61755
X252340Y136755
X254840Y174255
X254840Y179255
X254840Y184255
X249840Y199255
X282340Y206755
X304840Y221755
X317340Y216755
X332340Y201755
X332340Y161755
X437340Y216755
X447340Y216755
X534840Y211755
X507340Y269255
X462340Y269255
X197340Y226755
X197340Y216755
X137340Y216755
X407340Y81755
X417340Y81755
X449840Y59255
X469840Y59255
X317340Y49255
T02
X347340Y66755
X357340Y66755
X367340Y66755
X377340Y66755
X387340Y66755
X397340Y66755
X407340Y66755
X417340Y66755
X427340Y66755
X437340Y66755
X447340Y66755
X467340Y51755
X477340Y51755
X489340Y51755
X499340Y51755
X511340Y51755
X521340Y51755
X537340Y56755
X537340Y66755
X537340Y76755
X537340Y86755
X521340Y81755
X511340Y81755
X499340Y81755
X489340Y81755
X477340Y81755
X467340Y81755
X447340Y96755
X437340Y96755
X427340Y96755
X417340Y96755
X407340Y96755
X397340Y96755
X387340Y96755
X377340Y96755
X367340Y96755
X357340Y96755
X347340Y96755
X327340Y91755
X307340Y79255
X302340Y71755
X312340Y71755
X287340Y76755
X287340Y86755
X297340Y91755
X257340Y86755
X257340Y76755
X182340Y76755
X182340Y86755
X182340Y101755
X182340Y111755
X182340Y126755
X182340Y136755
X182340Y151755
X182340Y161755
X152340Y161755
X152340Y151755
X132340Y151755
X132340Y141755
X152340Y136755
X152340Y126755
X132340Y126755
X132340Y116755
X152340Y111755
X152340Y101755
X132340Y101755
X132340Y91755
X152340Y86755
X152340Y76755
X107340Y66755
X77340Y66755
X102340Y91755
X102340Y101755
X102340Y116755
X102340Y126755
X102340Y141755
X102340Y151755
X77340Y181755
X77340Y211755
X187340Y251755
X217340Y251755
X232340Y251755
X262340Y251755
X262340Y236755
X262340Y226755
X287340Y221755
X292340Y229255
X297340Y221755
X317340Y236755
X327340Y236755
X337340Y236755
X347340Y236755
X357340Y236755
X367340Y236755
X377340Y236755
X387340Y236755
X417340Y236755
X427340Y236755
X437340Y236755
X447340Y236755
X467340Y221755
X477340Y221755
X447340Y206755
X437340Y206755
X427340Y206755
X417340Y206755
X387340Y206755
X377340Y206755
X367340Y206755
X357340Y206755
X347340Y206755
X337340Y206755
X327340Y206755
X317340Y206755
X232340Y226755
X232340Y236755
X372340Y251755
X377340Y259255
X382340Y251755
X402340Y251755
X412340Y251755
X407340Y259255
X427340Y251755
X437340Y251755
X432340Y259255
X452340Y251755
X462340Y251755
X457340Y259255
X512340Y243755
X512340Y233755
X512340Y221755
X512340Y211755
X512340Y199755
X512340Y189755
X512340Y178255
X512340Y168255
X512340Y156755
X512340Y146755
X512340Y134755
X512340Y124755
X492340Y126755
X482340Y136755
X472340Y136755
X477340Y146755
X477340Y176755
X477340Y191755
X467340Y191755
X542340Y189755
X542340Y199755
X562340Y206755
X542340Y211755
X542340Y221755
X542340Y233755
X542340Y243755
X562340Y236755
X542340Y178255
X542340Y168255
X567340Y166755
X542340Y156755
X542340Y146755
X542340Y134755
X542340Y124755
X567340Y126755
X567340Y136755
X542340Y112755
X542340Y102755
X567340Y96755
X567340Y86755
X567340Y76755
X567340Y66755
X567340Y56755
X492340Y96755
X482340Y106755
X472340Y106755
X512340Y102755
X512340Y112755
T03
X447340Y116755
X437340Y116755
X427340Y116755
X417340Y116755
X407340Y116755
X397340Y116755
X387340Y116755
X377340Y116755
X367340Y116755
X357340Y116755
X347340Y116755
X337340Y116755
X327340Y116755
X317340Y116755
X307340Y116755
X297340Y116755
X287340Y116755
X277340Y116755
X277340Y126755
X287340Y126755
X297340Y126755
X307340Y126755
X317340Y126755
X327340Y126755
X337340Y126755
X347340Y126755
X357340Y126755
X367340Y126755
X377340Y126755
X387340Y126755
X397340Y126755
X407340Y126755
X417340Y126755
X427340Y126755
X437340Y126755
X447340Y126755
X447340Y106755
X437340Y106755
X427340Y106755
X417340Y106755
X407340Y106755
X397340Y106755
X387340Y106755
X377340Y106755
X367340Y106755
X357340Y106755
X347340Y106755
X337340Y106755
X327340Y106755
X317340Y106755
X307340Y106755
X297340Y106755
X287340Y106755
X277340Y106755
X277340Y176755
X287340Y176755
X297340Y176755
X307340Y176755
X317340Y176755
X327340Y176755
X337340Y176755
X347340Y176755
X357340Y176755
X367340Y176755
X377340Y176755
X387340Y176755
X397340Y176755
X407340Y176755
X417340Y176755
X427340Y176755
X437340Y176755
X447340Y176755
X447340Y186755
X437340Y186755
X427340Y186755
X417340Y186755
X407340Y186755
X397340Y186755
X387340Y186755
X377340Y186755
X367340Y186755
X357340Y186755
X347340Y186755
X337340Y186755
X327340Y186755
X317340Y186755
X307340Y186755
X297340Y186755
X287340Y186755
X277340Y186755
X277340Y196755
X287340Y196755
X297340Y196755
X307340Y196755
X317340Y196755
X327340Y196755
X337340Y196755
X347340Y196755
X357340Y196755
X367340Y196755
X377340Y196755
X387340Y196755
X397340Y196755
X407340Y196755
X417340Y196755
X427340Y196755
X437340Y196755
X447340Y196755
T04
X45155Y46255
X64840Y46255
X90155Y46255
X109840Y46255
X135100Y46255
X154785Y46255
X174470Y46255
X199600Y46255
X219285Y46255
X238970Y46255
X264155Y46255
X283840Y46255
X309155Y46255
X328840Y46255
X354155Y46255
X373840Y46255
X399155Y46255
X418840Y46255
X587340Y78070
X587340Y97755
X587340Y123070
X587340Y142755
X587340Y168070
X587340Y187755
X587340Y213070
X587340Y232755
X587340Y258070
X587340Y277755
X559525Y277255
X539840Y277255
X514525Y277255
X494840Y277255
X469525Y277255
X449840Y277255
X424525Y277255
X404840Y277255
X379525Y277255
X359840Y277255
X334525Y277255
X314840Y277255
X289525Y277255
X269840Y277255
X244525Y277255
X224840Y277255
X199525Y277255
X179840Y277255
X154525Y277255
X134840Y277255
X109525Y277255
X89840Y277255
X64525Y277255
X44840Y277255
X49592Y249003
X49592Y229318
X49592Y204113
X49592Y184428
X49592Y159412
X49592Y139727
X49592Y114625
X49592Y94940
X49592Y75255
X217340Y101755
X237025Y101755
X107340Y177070
X107340Y196755
X212655Y206755
X232340Y206755
T05
X171640Y236755
X73040Y236755
T06
X232340Y156755
X207340Y76755
X82340Y126755
X587340Y46755
M30
