G75*
%MOIN*%
%OFA0B0*%
%FSLAX25Y25*%
%IPPOS*%
%LPD*%
%AMOC8*
5,1,8,0,0,1.08239X$1,22.5*
%
%ADD10C,0.00000*%
%ADD11C,0.00512*%
%ADD12C,0.00600*%
%ADD13OC8,0.05600*%
%ADD14C,0.06900*%
%ADD15C,0.05600*%
%ADD16R,0.08000X0.08000*%
%ADD17C,0.08000*%
%ADD18R,0.09500X0.09500*%
%ADD19C,0.09500*%
%ADD20C,0.10000*%
%ADD21C,0.00800*%
%ADD22C,0.04000*%
D10*
X0022340Y0021755D02*
X0022340Y0302779D01*
X0612104Y0302779D01*
X0612104Y0021755D01*
X0022340Y0021755D01*
X0201041Y0076755D02*
X0201043Y0076913D01*
X0201049Y0077071D01*
X0201059Y0077229D01*
X0201073Y0077387D01*
X0201091Y0077544D01*
X0201112Y0077701D01*
X0201138Y0077857D01*
X0201168Y0078013D01*
X0201201Y0078168D01*
X0201239Y0078321D01*
X0201280Y0078474D01*
X0201325Y0078626D01*
X0201374Y0078777D01*
X0201427Y0078926D01*
X0201483Y0079074D01*
X0201543Y0079220D01*
X0201607Y0079365D01*
X0201675Y0079508D01*
X0201746Y0079650D01*
X0201820Y0079790D01*
X0201898Y0079927D01*
X0201980Y0080063D01*
X0202064Y0080197D01*
X0202153Y0080328D01*
X0202244Y0080457D01*
X0202339Y0080584D01*
X0202436Y0080709D01*
X0202537Y0080831D01*
X0202641Y0080950D01*
X0202748Y0081067D01*
X0202858Y0081181D01*
X0202971Y0081292D01*
X0203086Y0081401D01*
X0203204Y0081506D01*
X0203325Y0081608D01*
X0203448Y0081708D01*
X0203574Y0081804D01*
X0203702Y0081897D01*
X0203832Y0081987D01*
X0203965Y0082073D01*
X0204100Y0082157D01*
X0204236Y0082236D01*
X0204375Y0082313D01*
X0204516Y0082385D01*
X0204658Y0082455D01*
X0204802Y0082520D01*
X0204948Y0082582D01*
X0205095Y0082640D01*
X0205244Y0082695D01*
X0205394Y0082746D01*
X0205545Y0082793D01*
X0205697Y0082836D01*
X0205850Y0082875D01*
X0206005Y0082911D01*
X0206160Y0082942D01*
X0206316Y0082970D01*
X0206472Y0082994D01*
X0206629Y0083014D01*
X0206787Y0083030D01*
X0206944Y0083042D01*
X0207103Y0083050D01*
X0207261Y0083054D01*
X0207419Y0083054D01*
X0207577Y0083050D01*
X0207736Y0083042D01*
X0207893Y0083030D01*
X0208051Y0083014D01*
X0208208Y0082994D01*
X0208364Y0082970D01*
X0208520Y0082942D01*
X0208675Y0082911D01*
X0208830Y0082875D01*
X0208983Y0082836D01*
X0209135Y0082793D01*
X0209286Y0082746D01*
X0209436Y0082695D01*
X0209585Y0082640D01*
X0209732Y0082582D01*
X0209878Y0082520D01*
X0210022Y0082455D01*
X0210164Y0082385D01*
X0210305Y0082313D01*
X0210444Y0082236D01*
X0210580Y0082157D01*
X0210715Y0082073D01*
X0210848Y0081987D01*
X0210978Y0081897D01*
X0211106Y0081804D01*
X0211232Y0081708D01*
X0211355Y0081608D01*
X0211476Y0081506D01*
X0211594Y0081401D01*
X0211709Y0081292D01*
X0211822Y0081181D01*
X0211932Y0081067D01*
X0212039Y0080950D01*
X0212143Y0080831D01*
X0212244Y0080709D01*
X0212341Y0080584D01*
X0212436Y0080457D01*
X0212527Y0080328D01*
X0212616Y0080197D01*
X0212700Y0080063D01*
X0212782Y0079927D01*
X0212860Y0079790D01*
X0212934Y0079650D01*
X0213005Y0079508D01*
X0213073Y0079365D01*
X0213137Y0079220D01*
X0213197Y0079074D01*
X0213253Y0078926D01*
X0213306Y0078777D01*
X0213355Y0078626D01*
X0213400Y0078474D01*
X0213441Y0078321D01*
X0213479Y0078168D01*
X0213512Y0078013D01*
X0213542Y0077857D01*
X0213568Y0077701D01*
X0213589Y0077544D01*
X0213607Y0077387D01*
X0213621Y0077229D01*
X0213631Y0077071D01*
X0213637Y0076913D01*
X0213639Y0076755D01*
X0213637Y0076597D01*
X0213631Y0076439D01*
X0213621Y0076281D01*
X0213607Y0076123D01*
X0213589Y0075966D01*
X0213568Y0075809D01*
X0213542Y0075653D01*
X0213512Y0075497D01*
X0213479Y0075342D01*
X0213441Y0075189D01*
X0213400Y0075036D01*
X0213355Y0074884D01*
X0213306Y0074733D01*
X0213253Y0074584D01*
X0213197Y0074436D01*
X0213137Y0074290D01*
X0213073Y0074145D01*
X0213005Y0074002D01*
X0212934Y0073860D01*
X0212860Y0073720D01*
X0212782Y0073583D01*
X0212700Y0073447D01*
X0212616Y0073313D01*
X0212527Y0073182D01*
X0212436Y0073053D01*
X0212341Y0072926D01*
X0212244Y0072801D01*
X0212143Y0072679D01*
X0212039Y0072560D01*
X0211932Y0072443D01*
X0211822Y0072329D01*
X0211709Y0072218D01*
X0211594Y0072109D01*
X0211476Y0072004D01*
X0211355Y0071902D01*
X0211232Y0071802D01*
X0211106Y0071706D01*
X0210978Y0071613D01*
X0210848Y0071523D01*
X0210715Y0071437D01*
X0210580Y0071353D01*
X0210444Y0071274D01*
X0210305Y0071197D01*
X0210164Y0071125D01*
X0210022Y0071055D01*
X0209878Y0070990D01*
X0209732Y0070928D01*
X0209585Y0070870D01*
X0209436Y0070815D01*
X0209286Y0070764D01*
X0209135Y0070717D01*
X0208983Y0070674D01*
X0208830Y0070635D01*
X0208675Y0070599D01*
X0208520Y0070568D01*
X0208364Y0070540D01*
X0208208Y0070516D01*
X0208051Y0070496D01*
X0207893Y0070480D01*
X0207736Y0070468D01*
X0207577Y0070460D01*
X0207419Y0070456D01*
X0207261Y0070456D01*
X0207103Y0070460D01*
X0206944Y0070468D01*
X0206787Y0070480D01*
X0206629Y0070496D01*
X0206472Y0070516D01*
X0206316Y0070540D01*
X0206160Y0070568D01*
X0206005Y0070599D01*
X0205850Y0070635D01*
X0205697Y0070674D01*
X0205545Y0070717D01*
X0205394Y0070764D01*
X0205244Y0070815D01*
X0205095Y0070870D01*
X0204948Y0070928D01*
X0204802Y0070990D01*
X0204658Y0071055D01*
X0204516Y0071125D01*
X0204375Y0071197D01*
X0204236Y0071274D01*
X0204100Y0071353D01*
X0203965Y0071437D01*
X0203832Y0071523D01*
X0203702Y0071613D01*
X0203574Y0071706D01*
X0203448Y0071802D01*
X0203325Y0071902D01*
X0203204Y0072004D01*
X0203086Y0072109D01*
X0202971Y0072218D01*
X0202858Y0072329D01*
X0202748Y0072443D01*
X0202641Y0072560D01*
X0202537Y0072679D01*
X0202436Y0072801D01*
X0202339Y0072926D01*
X0202244Y0073053D01*
X0202153Y0073182D01*
X0202064Y0073313D01*
X0201980Y0073447D01*
X0201898Y0073583D01*
X0201820Y0073720D01*
X0201746Y0073860D01*
X0201675Y0074002D01*
X0201607Y0074145D01*
X0201543Y0074290D01*
X0201483Y0074436D01*
X0201427Y0074584D01*
X0201374Y0074733D01*
X0201325Y0074884D01*
X0201280Y0075036D01*
X0201239Y0075189D01*
X0201201Y0075342D01*
X0201168Y0075497D01*
X0201138Y0075653D01*
X0201112Y0075809D01*
X0201091Y0075966D01*
X0201073Y0076123D01*
X0201059Y0076281D01*
X0201049Y0076439D01*
X0201043Y0076597D01*
X0201041Y0076755D01*
X0076041Y0126755D02*
X0076043Y0126913D01*
X0076049Y0127071D01*
X0076059Y0127229D01*
X0076073Y0127387D01*
X0076091Y0127544D01*
X0076112Y0127701D01*
X0076138Y0127857D01*
X0076168Y0128013D01*
X0076201Y0128168D01*
X0076239Y0128321D01*
X0076280Y0128474D01*
X0076325Y0128626D01*
X0076374Y0128777D01*
X0076427Y0128926D01*
X0076483Y0129074D01*
X0076543Y0129220D01*
X0076607Y0129365D01*
X0076675Y0129508D01*
X0076746Y0129650D01*
X0076820Y0129790D01*
X0076898Y0129927D01*
X0076980Y0130063D01*
X0077064Y0130197D01*
X0077153Y0130328D01*
X0077244Y0130457D01*
X0077339Y0130584D01*
X0077436Y0130709D01*
X0077537Y0130831D01*
X0077641Y0130950D01*
X0077748Y0131067D01*
X0077858Y0131181D01*
X0077971Y0131292D01*
X0078086Y0131401D01*
X0078204Y0131506D01*
X0078325Y0131608D01*
X0078448Y0131708D01*
X0078574Y0131804D01*
X0078702Y0131897D01*
X0078832Y0131987D01*
X0078965Y0132073D01*
X0079100Y0132157D01*
X0079236Y0132236D01*
X0079375Y0132313D01*
X0079516Y0132385D01*
X0079658Y0132455D01*
X0079802Y0132520D01*
X0079948Y0132582D01*
X0080095Y0132640D01*
X0080244Y0132695D01*
X0080394Y0132746D01*
X0080545Y0132793D01*
X0080697Y0132836D01*
X0080850Y0132875D01*
X0081005Y0132911D01*
X0081160Y0132942D01*
X0081316Y0132970D01*
X0081472Y0132994D01*
X0081629Y0133014D01*
X0081787Y0133030D01*
X0081944Y0133042D01*
X0082103Y0133050D01*
X0082261Y0133054D01*
X0082419Y0133054D01*
X0082577Y0133050D01*
X0082736Y0133042D01*
X0082893Y0133030D01*
X0083051Y0133014D01*
X0083208Y0132994D01*
X0083364Y0132970D01*
X0083520Y0132942D01*
X0083675Y0132911D01*
X0083830Y0132875D01*
X0083983Y0132836D01*
X0084135Y0132793D01*
X0084286Y0132746D01*
X0084436Y0132695D01*
X0084585Y0132640D01*
X0084732Y0132582D01*
X0084878Y0132520D01*
X0085022Y0132455D01*
X0085164Y0132385D01*
X0085305Y0132313D01*
X0085444Y0132236D01*
X0085580Y0132157D01*
X0085715Y0132073D01*
X0085848Y0131987D01*
X0085978Y0131897D01*
X0086106Y0131804D01*
X0086232Y0131708D01*
X0086355Y0131608D01*
X0086476Y0131506D01*
X0086594Y0131401D01*
X0086709Y0131292D01*
X0086822Y0131181D01*
X0086932Y0131067D01*
X0087039Y0130950D01*
X0087143Y0130831D01*
X0087244Y0130709D01*
X0087341Y0130584D01*
X0087436Y0130457D01*
X0087527Y0130328D01*
X0087616Y0130197D01*
X0087700Y0130063D01*
X0087782Y0129927D01*
X0087860Y0129790D01*
X0087934Y0129650D01*
X0088005Y0129508D01*
X0088073Y0129365D01*
X0088137Y0129220D01*
X0088197Y0129074D01*
X0088253Y0128926D01*
X0088306Y0128777D01*
X0088355Y0128626D01*
X0088400Y0128474D01*
X0088441Y0128321D01*
X0088479Y0128168D01*
X0088512Y0128013D01*
X0088542Y0127857D01*
X0088568Y0127701D01*
X0088589Y0127544D01*
X0088607Y0127387D01*
X0088621Y0127229D01*
X0088631Y0127071D01*
X0088637Y0126913D01*
X0088639Y0126755D01*
X0088637Y0126597D01*
X0088631Y0126439D01*
X0088621Y0126281D01*
X0088607Y0126123D01*
X0088589Y0125966D01*
X0088568Y0125809D01*
X0088542Y0125653D01*
X0088512Y0125497D01*
X0088479Y0125342D01*
X0088441Y0125189D01*
X0088400Y0125036D01*
X0088355Y0124884D01*
X0088306Y0124733D01*
X0088253Y0124584D01*
X0088197Y0124436D01*
X0088137Y0124290D01*
X0088073Y0124145D01*
X0088005Y0124002D01*
X0087934Y0123860D01*
X0087860Y0123720D01*
X0087782Y0123583D01*
X0087700Y0123447D01*
X0087616Y0123313D01*
X0087527Y0123182D01*
X0087436Y0123053D01*
X0087341Y0122926D01*
X0087244Y0122801D01*
X0087143Y0122679D01*
X0087039Y0122560D01*
X0086932Y0122443D01*
X0086822Y0122329D01*
X0086709Y0122218D01*
X0086594Y0122109D01*
X0086476Y0122004D01*
X0086355Y0121902D01*
X0086232Y0121802D01*
X0086106Y0121706D01*
X0085978Y0121613D01*
X0085848Y0121523D01*
X0085715Y0121437D01*
X0085580Y0121353D01*
X0085444Y0121274D01*
X0085305Y0121197D01*
X0085164Y0121125D01*
X0085022Y0121055D01*
X0084878Y0120990D01*
X0084732Y0120928D01*
X0084585Y0120870D01*
X0084436Y0120815D01*
X0084286Y0120764D01*
X0084135Y0120717D01*
X0083983Y0120674D01*
X0083830Y0120635D01*
X0083675Y0120599D01*
X0083520Y0120568D01*
X0083364Y0120540D01*
X0083208Y0120516D01*
X0083051Y0120496D01*
X0082893Y0120480D01*
X0082736Y0120468D01*
X0082577Y0120460D01*
X0082419Y0120456D01*
X0082261Y0120456D01*
X0082103Y0120460D01*
X0081944Y0120468D01*
X0081787Y0120480D01*
X0081629Y0120496D01*
X0081472Y0120516D01*
X0081316Y0120540D01*
X0081160Y0120568D01*
X0081005Y0120599D01*
X0080850Y0120635D01*
X0080697Y0120674D01*
X0080545Y0120717D01*
X0080394Y0120764D01*
X0080244Y0120815D01*
X0080095Y0120870D01*
X0079948Y0120928D01*
X0079802Y0120990D01*
X0079658Y0121055D01*
X0079516Y0121125D01*
X0079375Y0121197D01*
X0079236Y0121274D01*
X0079100Y0121353D01*
X0078965Y0121437D01*
X0078832Y0121523D01*
X0078702Y0121613D01*
X0078574Y0121706D01*
X0078448Y0121802D01*
X0078325Y0121902D01*
X0078204Y0122004D01*
X0078086Y0122109D01*
X0077971Y0122218D01*
X0077858Y0122329D01*
X0077748Y0122443D01*
X0077641Y0122560D01*
X0077537Y0122679D01*
X0077436Y0122801D01*
X0077339Y0122926D01*
X0077244Y0123053D01*
X0077153Y0123182D01*
X0077064Y0123313D01*
X0076980Y0123447D01*
X0076898Y0123583D01*
X0076820Y0123720D01*
X0076746Y0123860D01*
X0076675Y0124002D01*
X0076607Y0124145D01*
X0076543Y0124290D01*
X0076483Y0124436D01*
X0076427Y0124584D01*
X0076374Y0124733D01*
X0076325Y0124884D01*
X0076280Y0125036D01*
X0076239Y0125189D01*
X0076201Y0125342D01*
X0076168Y0125497D01*
X0076138Y0125653D01*
X0076112Y0125809D01*
X0076091Y0125966D01*
X0076073Y0126123D01*
X0076059Y0126281D01*
X0076049Y0126439D01*
X0076043Y0126597D01*
X0076041Y0126755D01*
X0226041Y0156755D02*
X0226043Y0156913D01*
X0226049Y0157071D01*
X0226059Y0157229D01*
X0226073Y0157387D01*
X0226091Y0157544D01*
X0226112Y0157701D01*
X0226138Y0157857D01*
X0226168Y0158013D01*
X0226201Y0158168D01*
X0226239Y0158321D01*
X0226280Y0158474D01*
X0226325Y0158626D01*
X0226374Y0158777D01*
X0226427Y0158926D01*
X0226483Y0159074D01*
X0226543Y0159220D01*
X0226607Y0159365D01*
X0226675Y0159508D01*
X0226746Y0159650D01*
X0226820Y0159790D01*
X0226898Y0159927D01*
X0226980Y0160063D01*
X0227064Y0160197D01*
X0227153Y0160328D01*
X0227244Y0160457D01*
X0227339Y0160584D01*
X0227436Y0160709D01*
X0227537Y0160831D01*
X0227641Y0160950D01*
X0227748Y0161067D01*
X0227858Y0161181D01*
X0227971Y0161292D01*
X0228086Y0161401D01*
X0228204Y0161506D01*
X0228325Y0161608D01*
X0228448Y0161708D01*
X0228574Y0161804D01*
X0228702Y0161897D01*
X0228832Y0161987D01*
X0228965Y0162073D01*
X0229100Y0162157D01*
X0229236Y0162236D01*
X0229375Y0162313D01*
X0229516Y0162385D01*
X0229658Y0162455D01*
X0229802Y0162520D01*
X0229948Y0162582D01*
X0230095Y0162640D01*
X0230244Y0162695D01*
X0230394Y0162746D01*
X0230545Y0162793D01*
X0230697Y0162836D01*
X0230850Y0162875D01*
X0231005Y0162911D01*
X0231160Y0162942D01*
X0231316Y0162970D01*
X0231472Y0162994D01*
X0231629Y0163014D01*
X0231787Y0163030D01*
X0231944Y0163042D01*
X0232103Y0163050D01*
X0232261Y0163054D01*
X0232419Y0163054D01*
X0232577Y0163050D01*
X0232736Y0163042D01*
X0232893Y0163030D01*
X0233051Y0163014D01*
X0233208Y0162994D01*
X0233364Y0162970D01*
X0233520Y0162942D01*
X0233675Y0162911D01*
X0233830Y0162875D01*
X0233983Y0162836D01*
X0234135Y0162793D01*
X0234286Y0162746D01*
X0234436Y0162695D01*
X0234585Y0162640D01*
X0234732Y0162582D01*
X0234878Y0162520D01*
X0235022Y0162455D01*
X0235164Y0162385D01*
X0235305Y0162313D01*
X0235444Y0162236D01*
X0235580Y0162157D01*
X0235715Y0162073D01*
X0235848Y0161987D01*
X0235978Y0161897D01*
X0236106Y0161804D01*
X0236232Y0161708D01*
X0236355Y0161608D01*
X0236476Y0161506D01*
X0236594Y0161401D01*
X0236709Y0161292D01*
X0236822Y0161181D01*
X0236932Y0161067D01*
X0237039Y0160950D01*
X0237143Y0160831D01*
X0237244Y0160709D01*
X0237341Y0160584D01*
X0237436Y0160457D01*
X0237527Y0160328D01*
X0237616Y0160197D01*
X0237700Y0160063D01*
X0237782Y0159927D01*
X0237860Y0159790D01*
X0237934Y0159650D01*
X0238005Y0159508D01*
X0238073Y0159365D01*
X0238137Y0159220D01*
X0238197Y0159074D01*
X0238253Y0158926D01*
X0238306Y0158777D01*
X0238355Y0158626D01*
X0238400Y0158474D01*
X0238441Y0158321D01*
X0238479Y0158168D01*
X0238512Y0158013D01*
X0238542Y0157857D01*
X0238568Y0157701D01*
X0238589Y0157544D01*
X0238607Y0157387D01*
X0238621Y0157229D01*
X0238631Y0157071D01*
X0238637Y0156913D01*
X0238639Y0156755D01*
X0238637Y0156597D01*
X0238631Y0156439D01*
X0238621Y0156281D01*
X0238607Y0156123D01*
X0238589Y0155966D01*
X0238568Y0155809D01*
X0238542Y0155653D01*
X0238512Y0155497D01*
X0238479Y0155342D01*
X0238441Y0155189D01*
X0238400Y0155036D01*
X0238355Y0154884D01*
X0238306Y0154733D01*
X0238253Y0154584D01*
X0238197Y0154436D01*
X0238137Y0154290D01*
X0238073Y0154145D01*
X0238005Y0154002D01*
X0237934Y0153860D01*
X0237860Y0153720D01*
X0237782Y0153583D01*
X0237700Y0153447D01*
X0237616Y0153313D01*
X0237527Y0153182D01*
X0237436Y0153053D01*
X0237341Y0152926D01*
X0237244Y0152801D01*
X0237143Y0152679D01*
X0237039Y0152560D01*
X0236932Y0152443D01*
X0236822Y0152329D01*
X0236709Y0152218D01*
X0236594Y0152109D01*
X0236476Y0152004D01*
X0236355Y0151902D01*
X0236232Y0151802D01*
X0236106Y0151706D01*
X0235978Y0151613D01*
X0235848Y0151523D01*
X0235715Y0151437D01*
X0235580Y0151353D01*
X0235444Y0151274D01*
X0235305Y0151197D01*
X0235164Y0151125D01*
X0235022Y0151055D01*
X0234878Y0150990D01*
X0234732Y0150928D01*
X0234585Y0150870D01*
X0234436Y0150815D01*
X0234286Y0150764D01*
X0234135Y0150717D01*
X0233983Y0150674D01*
X0233830Y0150635D01*
X0233675Y0150599D01*
X0233520Y0150568D01*
X0233364Y0150540D01*
X0233208Y0150516D01*
X0233051Y0150496D01*
X0232893Y0150480D01*
X0232736Y0150468D01*
X0232577Y0150460D01*
X0232419Y0150456D01*
X0232261Y0150456D01*
X0232103Y0150460D01*
X0231944Y0150468D01*
X0231787Y0150480D01*
X0231629Y0150496D01*
X0231472Y0150516D01*
X0231316Y0150540D01*
X0231160Y0150568D01*
X0231005Y0150599D01*
X0230850Y0150635D01*
X0230697Y0150674D01*
X0230545Y0150717D01*
X0230394Y0150764D01*
X0230244Y0150815D01*
X0230095Y0150870D01*
X0229948Y0150928D01*
X0229802Y0150990D01*
X0229658Y0151055D01*
X0229516Y0151125D01*
X0229375Y0151197D01*
X0229236Y0151274D01*
X0229100Y0151353D01*
X0228965Y0151437D01*
X0228832Y0151523D01*
X0228702Y0151613D01*
X0228574Y0151706D01*
X0228448Y0151802D01*
X0228325Y0151902D01*
X0228204Y0152004D01*
X0228086Y0152109D01*
X0227971Y0152218D01*
X0227858Y0152329D01*
X0227748Y0152443D01*
X0227641Y0152560D01*
X0227537Y0152679D01*
X0227436Y0152801D01*
X0227339Y0152926D01*
X0227244Y0153053D01*
X0227153Y0153182D01*
X0227064Y0153313D01*
X0226980Y0153447D01*
X0226898Y0153583D01*
X0226820Y0153720D01*
X0226746Y0153860D01*
X0226675Y0154002D01*
X0226607Y0154145D01*
X0226543Y0154290D01*
X0226483Y0154436D01*
X0226427Y0154584D01*
X0226374Y0154733D01*
X0226325Y0154884D01*
X0226280Y0155036D01*
X0226239Y0155189D01*
X0226201Y0155342D01*
X0226168Y0155497D01*
X0226138Y0155653D01*
X0226112Y0155809D01*
X0226091Y0155966D01*
X0226073Y0156123D01*
X0226059Y0156281D01*
X0226049Y0156439D01*
X0226043Y0156597D01*
X0226041Y0156755D01*
X0581041Y0046755D02*
X0581043Y0046913D01*
X0581049Y0047071D01*
X0581059Y0047229D01*
X0581073Y0047387D01*
X0581091Y0047544D01*
X0581112Y0047701D01*
X0581138Y0047857D01*
X0581168Y0048013D01*
X0581201Y0048168D01*
X0581239Y0048321D01*
X0581280Y0048474D01*
X0581325Y0048626D01*
X0581374Y0048777D01*
X0581427Y0048926D01*
X0581483Y0049074D01*
X0581543Y0049220D01*
X0581607Y0049365D01*
X0581675Y0049508D01*
X0581746Y0049650D01*
X0581820Y0049790D01*
X0581898Y0049927D01*
X0581980Y0050063D01*
X0582064Y0050197D01*
X0582153Y0050328D01*
X0582244Y0050457D01*
X0582339Y0050584D01*
X0582436Y0050709D01*
X0582537Y0050831D01*
X0582641Y0050950D01*
X0582748Y0051067D01*
X0582858Y0051181D01*
X0582971Y0051292D01*
X0583086Y0051401D01*
X0583204Y0051506D01*
X0583325Y0051608D01*
X0583448Y0051708D01*
X0583574Y0051804D01*
X0583702Y0051897D01*
X0583832Y0051987D01*
X0583965Y0052073D01*
X0584100Y0052157D01*
X0584236Y0052236D01*
X0584375Y0052313D01*
X0584516Y0052385D01*
X0584658Y0052455D01*
X0584802Y0052520D01*
X0584948Y0052582D01*
X0585095Y0052640D01*
X0585244Y0052695D01*
X0585394Y0052746D01*
X0585545Y0052793D01*
X0585697Y0052836D01*
X0585850Y0052875D01*
X0586005Y0052911D01*
X0586160Y0052942D01*
X0586316Y0052970D01*
X0586472Y0052994D01*
X0586629Y0053014D01*
X0586787Y0053030D01*
X0586944Y0053042D01*
X0587103Y0053050D01*
X0587261Y0053054D01*
X0587419Y0053054D01*
X0587577Y0053050D01*
X0587736Y0053042D01*
X0587893Y0053030D01*
X0588051Y0053014D01*
X0588208Y0052994D01*
X0588364Y0052970D01*
X0588520Y0052942D01*
X0588675Y0052911D01*
X0588830Y0052875D01*
X0588983Y0052836D01*
X0589135Y0052793D01*
X0589286Y0052746D01*
X0589436Y0052695D01*
X0589585Y0052640D01*
X0589732Y0052582D01*
X0589878Y0052520D01*
X0590022Y0052455D01*
X0590164Y0052385D01*
X0590305Y0052313D01*
X0590444Y0052236D01*
X0590580Y0052157D01*
X0590715Y0052073D01*
X0590848Y0051987D01*
X0590978Y0051897D01*
X0591106Y0051804D01*
X0591232Y0051708D01*
X0591355Y0051608D01*
X0591476Y0051506D01*
X0591594Y0051401D01*
X0591709Y0051292D01*
X0591822Y0051181D01*
X0591932Y0051067D01*
X0592039Y0050950D01*
X0592143Y0050831D01*
X0592244Y0050709D01*
X0592341Y0050584D01*
X0592436Y0050457D01*
X0592527Y0050328D01*
X0592616Y0050197D01*
X0592700Y0050063D01*
X0592782Y0049927D01*
X0592860Y0049790D01*
X0592934Y0049650D01*
X0593005Y0049508D01*
X0593073Y0049365D01*
X0593137Y0049220D01*
X0593197Y0049074D01*
X0593253Y0048926D01*
X0593306Y0048777D01*
X0593355Y0048626D01*
X0593400Y0048474D01*
X0593441Y0048321D01*
X0593479Y0048168D01*
X0593512Y0048013D01*
X0593542Y0047857D01*
X0593568Y0047701D01*
X0593589Y0047544D01*
X0593607Y0047387D01*
X0593621Y0047229D01*
X0593631Y0047071D01*
X0593637Y0046913D01*
X0593639Y0046755D01*
X0593637Y0046597D01*
X0593631Y0046439D01*
X0593621Y0046281D01*
X0593607Y0046123D01*
X0593589Y0045966D01*
X0593568Y0045809D01*
X0593542Y0045653D01*
X0593512Y0045497D01*
X0593479Y0045342D01*
X0593441Y0045189D01*
X0593400Y0045036D01*
X0593355Y0044884D01*
X0593306Y0044733D01*
X0593253Y0044584D01*
X0593197Y0044436D01*
X0593137Y0044290D01*
X0593073Y0044145D01*
X0593005Y0044002D01*
X0592934Y0043860D01*
X0592860Y0043720D01*
X0592782Y0043583D01*
X0592700Y0043447D01*
X0592616Y0043313D01*
X0592527Y0043182D01*
X0592436Y0043053D01*
X0592341Y0042926D01*
X0592244Y0042801D01*
X0592143Y0042679D01*
X0592039Y0042560D01*
X0591932Y0042443D01*
X0591822Y0042329D01*
X0591709Y0042218D01*
X0591594Y0042109D01*
X0591476Y0042004D01*
X0591355Y0041902D01*
X0591232Y0041802D01*
X0591106Y0041706D01*
X0590978Y0041613D01*
X0590848Y0041523D01*
X0590715Y0041437D01*
X0590580Y0041353D01*
X0590444Y0041274D01*
X0590305Y0041197D01*
X0590164Y0041125D01*
X0590022Y0041055D01*
X0589878Y0040990D01*
X0589732Y0040928D01*
X0589585Y0040870D01*
X0589436Y0040815D01*
X0589286Y0040764D01*
X0589135Y0040717D01*
X0588983Y0040674D01*
X0588830Y0040635D01*
X0588675Y0040599D01*
X0588520Y0040568D01*
X0588364Y0040540D01*
X0588208Y0040516D01*
X0588051Y0040496D01*
X0587893Y0040480D01*
X0587736Y0040468D01*
X0587577Y0040460D01*
X0587419Y0040456D01*
X0587261Y0040456D01*
X0587103Y0040460D01*
X0586944Y0040468D01*
X0586787Y0040480D01*
X0586629Y0040496D01*
X0586472Y0040516D01*
X0586316Y0040540D01*
X0586160Y0040568D01*
X0586005Y0040599D01*
X0585850Y0040635D01*
X0585697Y0040674D01*
X0585545Y0040717D01*
X0585394Y0040764D01*
X0585244Y0040815D01*
X0585095Y0040870D01*
X0584948Y0040928D01*
X0584802Y0040990D01*
X0584658Y0041055D01*
X0584516Y0041125D01*
X0584375Y0041197D01*
X0584236Y0041274D01*
X0584100Y0041353D01*
X0583965Y0041437D01*
X0583832Y0041523D01*
X0583702Y0041613D01*
X0583574Y0041706D01*
X0583448Y0041802D01*
X0583325Y0041902D01*
X0583204Y0042004D01*
X0583086Y0042109D01*
X0582971Y0042218D01*
X0582858Y0042329D01*
X0582748Y0042443D01*
X0582641Y0042560D01*
X0582537Y0042679D01*
X0582436Y0042801D01*
X0582339Y0042926D01*
X0582244Y0043053D01*
X0582153Y0043182D01*
X0582064Y0043313D01*
X0581980Y0043447D01*
X0581898Y0043583D01*
X0581820Y0043720D01*
X0581746Y0043860D01*
X0581675Y0044002D01*
X0581607Y0044145D01*
X0581543Y0044290D01*
X0581483Y0044436D01*
X0581427Y0044584D01*
X0581374Y0044733D01*
X0581325Y0044884D01*
X0581280Y0045036D01*
X0581239Y0045189D01*
X0581201Y0045342D01*
X0581168Y0045497D01*
X0581138Y0045653D01*
X0581112Y0045809D01*
X0581091Y0045966D01*
X0581073Y0046123D01*
X0581059Y0046281D01*
X0581049Y0046439D01*
X0581043Y0046597D01*
X0581041Y0046755D01*
D11*
X0013295Y0021526D02*
X0013236Y0001309D01*
X0022291Y0005057D02*
X0022340Y0021755D01*
X0022317Y0021755D02*
X0005619Y0021804D01*
X0013295Y0021526D02*
X0014289Y0011542D01*
X0014523Y0011542D02*
X0013295Y0021526D01*
X0012242Y0011548D01*
X0012074Y0011508D02*
X0022058Y0012735D01*
X0012074Y0011741D01*
X0012009Y0011549D02*
X0014523Y0011542D01*
X0013778Y0011544D02*
X0013295Y0021526D01*
X0012754Y0011547D01*
X0012074Y0011508D02*
X0012081Y0014021D01*
X0022058Y0012735D01*
X0012080Y0013788D01*
X0012079Y0013276D02*
X0022058Y0012735D01*
X0012076Y0012253D01*
X0012009Y0011549D02*
X0013295Y0021526D01*
X0013320Y0030037D02*
X0014374Y0040015D01*
X0014607Y0040014D02*
X0013320Y0030037D01*
X0012326Y0040021D01*
X0012093Y0040021D02*
X0014607Y0040014D01*
X0013862Y0040016D02*
X0013320Y0030037D01*
X0012838Y0040019D01*
X0012093Y0040021D02*
X0013320Y0030037D01*
X0013408Y0059556D01*
X0005643Y0029804D02*
X0022340Y0029755D01*
X0030340Y0021731D02*
X0030291Y0005034D01*
X0030570Y0012710D02*
X0040547Y0011657D01*
X0040546Y0011424D02*
X0030570Y0012710D01*
X0040553Y0013704D01*
X0040553Y0013937D02*
X0040546Y0011424D01*
X0040548Y0012169D02*
X0030570Y0012710D01*
X0040551Y0013192D01*
X0040553Y0013937D02*
X0030570Y0012710D01*
X0060088Y0012623D01*
X0022058Y0012735D02*
X0001841Y0012795D01*
X0013236Y0274309D02*
X0013295Y0294526D01*
X0014289Y0284542D01*
X0014523Y0284542D02*
X0013295Y0294526D01*
X0012242Y0284548D01*
X0012009Y0284549D02*
X0014523Y0284542D01*
X0013778Y0284544D02*
X0013295Y0294526D01*
X0012754Y0284547D01*
X0012009Y0284549D02*
X0013295Y0294526D01*
X0005619Y0294804D02*
X0022317Y0294755D01*
X0022340Y0302755D02*
X0005643Y0302804D01*
X0013320Y0303037D02*
X0014373Y0313015D01*
X0014607Y0313014D02*
X0013320Y0303037D01*
X0012326Y0313021D01*
X0012134Y0313086D02*
X0012127Y0310572D01*
X0022111Y0311800D01*
X0012128Y0310806D01*
X0012129Y0311318D02*
X0022111Y0311800D01*
X0012134Y0312853D01*
X0012093Y0313021D02*
X0014607Y0313014D01*
X0013862Y0313016D02*
X0013320Y0303037D01*
X0012838Y0313019D01*
X0012134Y0313086D02*
X0022111Y0311800D01*
X0012132Y0312341D01*
X0012093Y0313021D02*
X0013320Y0303037D01*
X0013408Y0332556D01*
X0022390Y0319476D02*
X0022340Y0302779D01*
X0030340Y0302755D02*
X0030390Y0319453D01*
X0030623Y0311775D02*
X0040606Y0312769D01*
X0040607Y0313002D02*
X0040599Y0310488D01*
X0030623Y0311775D01*
X0040600Y0310722D01*
X0040602Y0311233D02*
X0030623Y0311775D01*
X0040605Y0312257D01*
X0040607Y0313002D02*
X0030623Y0311775D01*
X0060141Y0311688D01*
X0022111Y0311800D02*
X0001895Y0311860D01*
X0583895Y0311360D02*
X0604111Y0311300D01*
X0594128Y0310306D01*
X0594127Y0310072D02*
X0604111Y0311300D01*
X0594134Y0312353D01*
X0594134Y0312586D02*
X0594127Y0310072D01*
X0594129Y0310818D02*
X0604111Y0311300D01*
X0594132Y0311841D01*
X0594134Y0312586D02*
X0604111Y0311300D01*
X0612623Y0311275D02*
X0622600Y0310222D01*
X0622599Y0309988D02*
X0612623Y0311275D01*
X0622606Y0312269D01*
X0622672Y0312461D02*
X0621385Y0302484D01*
X0622438Y0312461D01*
X0622607Y0312502D02*
X0622599Y0309988D01*
X0622602Y0310733D02*
X0612623Y0311275D01*
X0622605Y0311757D01*
X0622672Y0312461D02*
X0620158Y0312468D01*
X0621385Y0302484D01*
X0620391Y0312467D01*
X0620903Y0312466D02*
X0621385Y0302484D01*
X0621926Y0312463D01*
X0622607Y0312502D02*
X0612623Y0311275D01*
X0642141Y0311188D01*
X0629062Y0302206D02*
X0612364Y0302255D01*
X0612340Y0302255D02*
X0612390Y0318953D01*
X0604390Y0318976D02*
X0604340Y0302279D01*
X0612340Y0294255D02*
X0629038Y0294206D01*
X0621360Y0293972D02*
X0622354Y0283989D01*
X0622587Y0283988D02*
X0621360Y0293972D01*
X0620307Y0283995D01*
X0620074Y0283996D02*
X0622587Y0283988D01*
X0621842Y0283991D02*
X0621360Y0293972D01*
X0620819Y0283994D01*
X0620074Y0283996D02*
X0621360Y0293972D01*
X0621300Y0273756D01*
X0621385Y0302484D02*
X0621472Y0332003D01*
X0621472Y0059503D02*
X0621385Y0029984D01*
X0622438Y0039961D01*
X0622672Y0039961D02*
X0621385Y0029984D01*
X0620391Y0039967D01*
X0620158Y0039968D02*
X0622672Y0039961D01*
X0621926Y0039963D02*
X0621385Y0029984D01*
X0620903Y0039966D01*
X0620158Y0039968D02*
X0621385Y0029984D01*
X0629062Y0029706D02*
X0612364Y0029755D01*
X0612340Y0021755D02*
X0629038Y0021706D01*
X0621360Y0021472D02*
X0622354Y0011489D01*
X0622546Y0011424D02*
X0612570Y0012710D01*
X0622547Y0011657D01*
X0622587Y0011488D02*
X0621360Y0021472D01*
X0620307Y0011495D01*
X0620074Y0011496D02*
X0622587Y0011488D01*
X0622546Y0011424D02*
X0622553Y0013937D01*
X0612570Y0012710D01*
X0622553Y0013704D01*
X0622551Y0013192D02*
X0612570Y0012710D01*
X0622548Y0012169D01*
X0621842Y0011491D02*
X0621360Y0021472D01*
X0620819Y0011494D01*
X0620074Y0011496D02*
X0621360Y0021472D01*
X0621300Y0001256D01*
X0612291Y0005034D02*
X0612340Y0021731D01*
X0604340Y0021755D02*
X0604291Y0005057D01*
X0604058Y0012735D02*
X0594074Y0011741D01*
X0594074Y0011508D02*
X0604058Y0012735D01*
X0594080Y0013788D01*
X0594081Y0014021D02*
X0594074Y0011508D01*
X0594076Y0012253D02*
X0604058Y0012735D01*
X0594079Y0013276D01*
X0594081Y0014021D02*
X0604058Y0012735D01*
X0583841Y0012795D01*
X0612570Y0012710D02*
X0642088Y0012623D01*
D12*
X0639405Y0015183D02*
X0637627Y0015190D01*
X0639405Y0015183D02*
X0639488Y0015185D01*
X0639571Y0015190D01*
X0639654Y0015200D01*
X0639736Y0015213D01*
X0639818Y0015230D01*
X0639899Y0015251D01*
X0639978Y0015276D01*
X0640057Y0015304D01*
X0640134Y0015336D01*
X0640209Y0015372D01*
X0640283Y0015411D01*
X0640354Y0015454D01*
X0640424Y0015500D01*
X0640491Y0015549D01*
X0640556Y0015601D01*
X0640619Y0015656D01*
X0640679Y0015714D01*
X0640736Y0015775D01*
X0640790Y0015838D01*
X0640841Y0015904D01*
X0640889Y0015972D01*
X0640934Y0016043D01*
X0640975Y0016115D01*
X0641013Y0016189D01*
X0641047Y0016265D01*
X0641078Y0016343D01*
X0641105Y0016422D01*
X0641129Y0016502D01*
X0641148Y0016583D01*
X0641164Y0016664D01*
X0641176Y0016747D01*
X0641184Y0016830D01*
X0641188Y0016913D01*
X0641189Y0016996D01*
X0641185Y0017080D01*
X0641178Y0017163D01*
X0641166Y0017245D01*
X0641151Y0017327D01*
X0641132Y0017408D01*
X0641109Y0017489D01*
X0641082Y0017568D01*
X0641052Y0017645D01*
X0641018Y0017721D01*
X0640981Y0017796D01*
X0640940Y0017869D01*
X0640896Y0017939D01*
X0640848Y0018008D01*
X0640798Y0018074D01*
X0640744Y0018138D01*
X0640687Y0018199D01*
X0640628Y0018257D01*
X0640566Y0018313D01*
X0640501Y0018366D01*
X0640434Y0018415D01*
X0640365Y0018462D01*
X0640293Y0018505D01*
X0640220Y0018544D01*
X0640145Y0018580D01*
X0640068Y0018613D01*
X0639990Y0018642D01*
X0639911Y0018667D01*
X0639830Y0018689D01*
X0639749Y0018707D01*
X0639666Y0018721D01*
X0639584Y0018731D01*
X0639501Y0018737D01*
X0639417Y0018739D01*
X0639773Y0018738D02*
X0638351Y0018743D01*
X0632009Y0016098D02*
X0631950Y0016226D01*
X0631894Y0016355D01*
X0631841Y0016486D01*
X0631792Y0016617D01*
X0631746Y0016751D01*
X0631704Y0016885D01*
X0631666Y0017020D01*
X0631631Y0017157D01*
X0631600Y0017294D01*
X0631572Y0017432D01*
X0631549Y0017570D01*
X0631528Y0017710D01*
X0631512Y0017850D01*
X0631499Y0017990D01*
X0631491Y0018130D01*
X0631485Y0018271D01*
X0631484Y0018411D01*
X0635040Y0018399D02*
X0635039Y0018539D01*
X0635033Y0018680D01*
X0635025Y0018820D01*
X0635012Y0018960D01*
X0634996Y0019100D01*
X0634975Y0019240D01*
X0634952Y0019378D01*
X0634924Y0019516D01*
X0634893Y0019653D01*
X0634858Y0019790D01*
X0634820Y0019925D01*
X0634778Y0020059D01*
X0634732Y0020193D01*
X0634683Y0020324D01*
X0634630Y0020455D01*
X0634574Y0020584D01*
X0634515Y0020712D01*
X0634690Y0020178D02*
X0631834Y0016632D01*
X0633250Y0015204D02*
X0633321Y0015206D01*
X0633392Y0015211D01*
X0633462Y0015220D01*
X0633532Y0015234D01*
X0633601Y0015250D01*
X0633669Y0015271D01*
X0633736Y0015295D01*
X0633801Y0015323D01*
X0633865Y0015354D01*
X0633927Y0015388D01*
X0633987Y0015426D01*
X0634045Y0015467D01*
X0634100Y0015511D01*
X0634154Y0015559D01*
X0634204Y0015608D01*
X0634252Y0015661D01*
X0634297Y0015716D01*
X0634339Y0015773D01*
X0634377Y0015833D01*
X0634413Y0015894D01*
X0634445Y0015957D01*
X0634473Y0016022D01*
X0634498Y0016089D01*
X0633250Y0015204D02*
X0633179Y0015206D01*
X0633109Y0015212D01*
X0633038Y0015222D01*
X0632969Y0015235D01*
X0632900Y0015253D01*
X0632832Y0015274D01*
X0632766Y0015298D01*
X0632700Y0015327D01*
X0632637Y0015358D01*
X0632575Y0015393D01*
X0632515Y0015431D01*
X0632458Y0015473D01*
X0632403Y0015517D01*
X0632350Y0015565D01*
X0632300Y0015615D01*
X0632252Y0015668D01*
X0632208Y0015723D01*
X0632166Y0015781D01*
X0632128Y0015841D01*
X0632093Y0015902D01*
X0632061Y0015966D01*
X0632033Y0016031D01*
X0632009Y0016098D01*
X0629122Y0015575D02*
X0629121Y0015219D01*
X0628765Y0015221D01*
X0628766Y0015576D01*
X0629122Y0015575D01*
X0626413Y0015229D02*
X0622857Y0015241D01*
X0625892Y0018786D01*
X0624835Y0021635D02*
X0624746Y0021633D01*
X0624657Y0021628D01*
X0624568Y0021619D01*
X0624480Y0021605D01*
X0624393Y0021588D01*
X0624306Y0021568D01*
X0624220Y0021543D01*
X0624136Y0021515D01*
X0624052Y0021483D01*
X0623971Y0021448D01*
X0623890Y0021409D01*
X0623812Y0021366D01*
X0623735Y0021321D01*
X0623661Y0021272D01*
X0623589Y0021219D01*
X0623519Y0021164D01*
X0623451Y0021106D01*
X0623386Y0021045D01*
X0623324Y0020981D01*
X0623265Y0020914D01*
X0623208Y0020845D01*
X0623155Y0020774D01*
X0623105Y0020700D01*
X0623058Y0020625D01*
X0623014Y0020547D01*
X0622974Y0020467D01*
X0622937Y0020386D01*
X0622904Y0020303D01*
X0622874Y0020219D01*
X0625891Y0018787D02*
X0625950Y0018844D01*
X0626005Y0018905D01*
X0626057Y0018968D01*
X0626107Y0019033D01*
X0626153Y0019101D01*
X0626195Y0019170D01*
X0626235Y0019242D01*
X0626271Y0019315D01*
X0626304Y0019390D01*
X0626332Y0019467D01*
X0626358Y0019545D01*
X0626379Y0019624D01*
X0626397Y0019704D01*
X0626411Y0019784D01*
X0626421Y0019866D01*
X0626427Y0019947D01*
X0626429Y0020029D01*
X0626430Y0020028D02*
X0626428Y0020107D01*
X0626423Y0020185D01*
X0626413Y0020263D01*
X0626400Y0020341D01*
X0626383Y0020417D01*
X0626363Y0020493D01*
X0626338Y0020568D01*
X0626310Y0020641D01*
X0626279Y0020713D01*
X0626244Y0020783D01*
X0626205Y0020852D01*
X0626163Y0020918D01*
X0626118Y0020983D01*
X0626070Y0021045D01*
X0626019Y0021104D01*
X0625965Y0021161D01*
X0625909Y0021216D01*
X0625849Y0021267D01*
X0625788Y0021316D01*
X0625724Y0021361D01*
X0625657Y0021403D01*
X0625589Y0021442D01*
X0625519Y0021478D01*
X0625447Y0021510D01*
X0625374Y0021539D01*
X0625300Y0021563D01*
X0625224Y0021585D01*
X0625148Y0021602D01*
X0625070Y0021616D01*
X0624992Y0021626D01*
X0624914Y0021632D01*
X0624836Y0021634D01*
X0635040Y0018399D02*
X0635038Y0018258D01*
X0635031Y0018117D01*
X0635022Y0017977D01*
X0635008Y0017837D01*
X0634991Y0017697D01*
X0634970Y0017558D01*
X0634945Y0017420D01*
X0634916Y0017282D01*
X0634884Y0017145D01*
X0634848Y0017009D01*
X0634809Y0016874D01*
X0634766Y0016740D01*
X0634720Y0016607D01*
X0634670Y0016475D01*
X0634616Y0016345D01*
X0634559Y0016217D01*
X0634499Y0016089D01*
X0631484Y0018411D02*
X0631486Y0018552D01*
X0631493Y0018693D01*
X0631502Y0018833D01*
X0631516Y0018973D01*
X0631533Y0019113D01*
X0631554Y0019252D01*
X0631579Y0019390D01*
X0631608Y0019528D01*
X0631640Y0019665D01*
X0631675Y0019801D01*
X0631715Y0019936D01*
X0631758Y0020070D01*
X0631804Y0020203D01*
X0631854Y0020334D01*
X0631908Y0020465D01*
X0631965Y0020593D01*
X0632025Y0020720D01*
X0632026Y0020720D02*
X0632051Y0020787D01*
X0632079Y0020851D01*
X0632111Y0020915D01*
X0632147Y0020976D01*
X0632185Y0021036D01*
X0632227Y0021093D01*
X0632272Y0021148D01*
X0632320Y0021201D01*
X0632370Y0021250D01*
X0632424Y0021298D01*
X0632479Y0021342D01*
X0632537Y0021383D01*
X0632597Y0021421D01*
X0632659Y0021455D01*
X0632723Y0021486D01*
X0632788Y0021514D01*
X0632855Y0021538D01*
X0632923Y0021559D01*
X0632992Y0021575D01*
X0633062Y0021589D01*
X0633132Y0021598D01*
X0633203Y0021603D01*
X0633274Y0021605D01*
X0633345Y0021603D01*
X0633415Y0021597D01*
X0633486Y0021587D01*
X0633555Y0021574D01*
X0633624Y0021556D01*
X0633692Y0021535D01*
X0633758Y0021511D01*
X0633824Y0021482D01*
X0633887Y0021451D01*
X0633949Y0021416D01*
X0634009Y0021378D01*
X0634066Y0021336D01*
X0634121Y0021292D01*
X0634174Y0021244D01*
X0634224Y0021194D01*
X0634272Y0021141D01*
X0634316Y0021086D01*
X0634358Y0021028D01*
X0634396Y0020968D01*
X0634431Y0020907D01*
X0634463Y0020843D01*
X0634491Y0020778D01*
X0634515Y0020711D01*
X0637649Y0021590D02*
X0639783Y0021582D01*
X0639857Y0021580D01*
X0639932Y0021574D01*
X0640005Y0021564D01*
X0640078Y0021550D01*
X0640151Y0021532D01*
X0640222Y0021511D01*
X0640292Y0021486D01*
X0640361Y0021457D01*
X0640428Y0021425D01*
X0640493Y0021389D01*
X0640557Y0021350D01*
X0640618Y0021307D01*
X0640677Y0021262D01*
X0640733Y0021213D01*
X0640787Y0021162D01*
X0640838Y0021108D01*
X0640886Y0021051D01*
X0640931Y0020992D01*
X0640973Y0020930D01*
X0641012Y0020867D01*
X0641047Y0020801D01*
X0641079Y0020734D01*
X0641107Y0020665D01*
X0641132Y0020595D01*
X0641153Y0020523D01*
X0641170Y0020451D01*
X0641183Y0020378D01*
X0641193Y0020304D01*
X0641198Y0020229D01*
X0641200Y0020155D01*
X0641198Y0020081D01*
X0641192Y0020006D01*
X0641182Y0019933D01*
X0641168Y0019859D01*
X0641150Y0019787D01*
X0641129Y0019716D01*
X0641104Y0019646D01*
X0641075Y0019577D01*
X0641043Y0019510D01*
X0641007Y0019445D01*
X0640968Y0019381D01*
X0640925Y0019320D01*
X0640880Y0019261D01*
X0640831Y0019205D01*
X0640780Y0019151D01*
X0640726Y0019100D01*
X0640669Y0019052D01*
X0640610Y0019007D01*
X0640548Y0018965D01*
X0640485Y0018926D01*
X0640419Y0018891D01*
X0640352Y0018859D01*
X0640283Y0018831D01*
X0640213Y0018806D01*
X0640141Y0018785D01*
X0640069Y0018768D01*
X0639996Y0018755D01*
X0639922Y0018745D01*
X0639847Y0018740D01*
X0639773Y0018738D01*
X0618854Y0040272D02*
X0618866Y0043828D01*
X0618875Y0046180D02*
X0618876Y0046535D01*
X0618520Y0046537D01*
X0618519Y0046181D01*
X0618875Y0046180D01*
X0618006Y0051913D02*
X0617879Y0051973D01*
X0617750Y0052030D01*
X0617620Y0052084D01*
X0617488Y0052134D01*
X0617355Y0052180D01*
X0617221Y0052223D01*
X0617086Y0052262D01*
X0616950Y0052298D01*
X0616813Y0052330D01*
X0616675Y0052359D01*
X0616537Y0052384D01*
X0616398Y0052405D01*
X0616258Y0052422D01*
X0616118Y0052436D01*
X0615978Y0052445D01*
X0615837Y0052452D01*
X0615696Y0052454D01*
X0615684Y0048899D02*
X0615543Y0048901D01*
X0615402Y0048908D01*
X0615262Y0048917D01*
X0615122Y0048931D01*
X0614982Y0048948D01*
X0614843Y0048969D01*
X0614705Y0048994D01*
X0614567Y0049023D01*
X0614430Y0049055D01*
X0614294Y0049090D01*
X0614159Y0049130D01*
X0614025Y0049173D01*
X0613892Y0049219D01*
X0613761Y0049269D01*
X0613630Y0049323D01*
X0613502Y0049380D01*
X0613375Y0049440D01*
X0613308Y0049465D01*
X0613244Y0049493D01*
X0613180Y0049525D01*
X0613119Y0049561D01*
X0613059Y0049599D01*
X0613002Y0049641D01*
X0612947Y0049686D01*
X0612894Y0049734D01*
X0612845Y0049784D01*
X0612797Y0049838D01*
X0612753Y0049893D01*
X0612712Y0049951D01*
X0612674Y0050011D01*
X0612640Y0050073D01*
X0612609Y0050137D01*
X0612581Y0050202D01*
X0612557Y0050269D01*
X0612536Y0050337D01*
X0612520Y0050406D01*
X0612506Y0050476D01*
X0612497Y0050546D01*
X0612492Y0050617D01*
X0612490Y0050688D01*
X0612492Y0050759D01*
X0612498Y0050829D01*
X0612508Y0050900D01*
X0612521Y0050969D01*
X0612539Y0051038D01*
X0612560Y0051106D01*
X0612584Y0051172D01*
X0612613Y0051238D01*
X0612644Y0051301D01*
X0612679Y0051363D01*
X0612717Y0051423D01*
X0612759Y0051480D01*
X0612803Y0051535D01*
X0612851Y0051588D01*
X0612901Y0051638D01*
X0612954Y0051686D01*
X0613009Y0051730D01*
X0613067Y0051772D01*
X0613127Y0051810D01*
X0613188Y0051845D01*
X0613252Y0051877D01*
X0613317Y0051905D01*
X0613384Y0051929D01*
X0613917Y0052105D02*
X0617463Y0049248D01*
X0618891Y0050665D02*
X0618889Y0050736D01*
X0618884Y0050807D01*
X0618875Y0050877D01*
X0618861Y0050947D01*
X0618845Y0051016D01*
X0618824Y0051084D01*
X0618800Y0051151D01*
X0618772Y0051216D01*
X0618741Y0051280D01*
X0618707Y0051342D01*
X0618669Y0051402D01*
X0618628Y0051460D01*
X0618584Y0051515D01*
X0618536Y0051569D01*
X0618487Y0051619D01*
X0618434Y0051667D01*
X0618379Y0051712D01*
X0618322Y0051754D01*
X0618262Y0051792D01*
X0618201Y0051828D01*
X0618138Y0051860D01*
X0618073Y0051888D01*
X0618006Y0051913D01*
X0618891Y0050665D02*
X0618889Y0050594D01*
X0618883Y0050524D01*
X0618873Y0050453D01*
X0618860Y0050384D01*
X0618842Y0050315D01*
X0618821Y0050247D01*
X0618797Y0050181D01*
X0618768Y0050115D01*
X0618737Y0050052D01*
X0618702Y0049990D01*
X0618664Y0049930D01*
X0618622Y0049873D01*
X0618578Y0049818D01*
X0618530Y0049765D01*
X0618480Y0049715D01*
X0618427Y0049667D01*
X0618372Y0049623D01*
X0618314Y0049581D01*
X0618254Y0049543D01*
X0618193Y0049508D01*
X0618129Y0049476D01*
X0618064Y0049448D01*
X0617997Y0049424D01*
X0615696Y0052454D02*
X0615556Y0052453D01*
X0615415Y0052447D01*
X0615275Y0052439D01*
X0615135Y0052426D01*
X0614995Y0052410D01*
X0614855Y0052389D01*
X0614717Y0052366D01*
X0614579Y0052338D01*
X0614442Y0052307D01*
X0614305Y0052272D01*
X0614170Y0052234D01*
X0614036Y0052192D01*
X0613902Y0052146D01*
X0613771Y0052097D01*
X0613640Y0052044D01*
X0613511Y0051988D01*
X0613383Y0051929D01*
X0615684Y0048899D02*
X0615824Y0048900D01*
X0615965Y0048906D01*
X0616105Y0048914D01*
X0616245Y0048927D01*
X0616385Y0048943D01*
X0616525Y0048964D01*
X0616663Y0048987D01*
X0616801Y0049015D01*
X0616938Y0049046D01*
X0617075Y0049081D01*
X0617210Y0049119D01*
X0617344Y0049161D01*
X0617478Y0049207D01*
X0617609Y0049256D01*
X0617740Y0049309D01*
X0617869Y0049365D01*
X0617997Y0049424D01*
X0618905Y0055042D02*
X0618912Y0056819D01*
X0618912Y0056820D02*
X0618910Y0056903D01*
X0618905Y0056986D01*
X0618895Y0057069D01*
X0618882Y0057151D01*
X0618865Y0057233D01*
X0618844Y0057314D01*
X0618819Y0057393D01*
X0618791Y0057472D01*
X0618759Y0057549D01*
X0618723Y0057624D01*
X0618684Y0057698D01*
X0618641Y0057769D01*
X0618595Y0057839D01*
X0618546Y0057906D01*
X0618494Y0057971D01*
X0618439Y0058034D01*
X0618381Y0058094D01*
X0618320Y0058151D01*
X0618257Y0058205D01*
X0618191Y0058256D01*
X0618123Y0058304D01*
X0618052Y0058349D01*
X0617980Y0058390D01*
X0617906Y0058428D01*
X0617830Y0058462D01*
X0617752Y0058493D01*
X0617673Y0058520D01*
X0617593Y0058544D01*
X0617512Y0058563D01*
X0617431Y0058579D01*
X0617348Y0058591D01*
X0617265Y0058599D01*
X0617182Y0058603D01*
X0617099Y0058604D01*
X0617015Y0058600D01*
X0616932Y0058593D01*
X0616850Y0058581D01*
X0616768Y0058566D01*
X0616687Y0058547D01*
X0616606Y0058524D01*
X0616527Y0058497D01*
X0616450Y0058467D01*
X0616374Y0058433D01*
X0616299Y0058396D01*
X0616226Y0058355D01*
X0616156Y0058311D01*
X0616087Y0058263D01*
X0616021Y0058213D01*
X0615957Y0058159D01*
X0615896Y0058102D01*
X0615838Y0058043D01*
X0615782Y0057981D01*
X0615729Y0057916D01*
X0615680Y0057849D01*
X0615633Y0057780D01*
X0615590Y0057708D01*
X0615551Y0057635D01*
X0615515Y0057560D01*
X0615482Y0057483D01*
X0615453Y0057405D01*
X0615428Y0057326D01*
X0615406Y0057245D01*
X0615388Y0057164D01*
X0615374Y0057081D01*
X0615364Y0056999D01*
X0615358Y0056916D01*
X0615356Y0056832D01*
X0615357Y0057187D02*
X0615352Y0055765D01*
X0615357Y0057187D02*
X0615355Y0057261D01*
X0615350Y0057336D01*
X0615340Y0057410D01*
X0615327Y0057483D01*
X0615310Y0057555D01*
X0615289Y0057627D01*
X0615264Y0057697D01*
X0615236Y0057766D01*
X0615204Y0057833D01*
X0615169Y0057899D01*
X0615130Y0057962D01*
X0615088Y0058024D01*
X0615043Y0058083D01*
X0614995Y0058140D01*
X0614944Y0058194D01*
X0614890Y0058245D01*
X0614834Y0058294D01*
X0614775Y0058339D01*
X0614714Y0058382D01*
X0614650Y0058421D01*
X0614585Y0058457D01*
X0614518Y0058489D01*
X0614449Y0058518D01*
X0614379Y0058543D01*
X0614308Y0058564D01*
X0614236Y0058582D01*
X0614162Y0058596D01*
X0614089Y0058606D01*
X0614014Y0058612D01*
X0613940Y0058614D01*
X0613866Y0058612D01*
X0613791Y0058607D01*
X0613717Y0058597D01*
X0613644Y0058584D01*
X0613572Y0058567D01*
X0613500Y0058546D01*
X0613430Y0058521D01*
X0613361Y0058493D01*
X0613294Y0058461D01*
X0613228Y0058426D01*
X0613165Y0058387D01*
X0613103Y0058345D01*
X0613044Y0058300D01*
X0612987Y0058252D01*
X0612933Y0058201D01*
X0612882Y0058147D01*
X0612833Y0058091D01*
X0612788Y0058032D01*
X0612745Y0057971D01*
X0612706Y0057907D01*
X0612670Y0057842D01*
X0612638Y0057775D01*
X0612609Y0057706D01*
X0612584Y0057636D01*
X0612563Y0057565D01*
X0612545Y0057492D01*
X0612531Y0057419D01*
X0612521Y0057346D01*
X0612515Y0057271D01*
X0612513Y0057197D01*
X0612505Y0055064D01*
X0615309Y0043307D02*
X0618854Y0040272D01*
X0613876Y0040289D02*
X0613792Y0040319D01*
X0613709Y0040352D01*
X0613628Y0040389D01*
X0613548Y0040429D01*
X0613470Y0040473D01*
X0613395Y0040520D01*
X0613321Y0040570D01*
X0613250Y0040623D01*
X0613181Y0040680D01*
X0613114Y0040739D01*
X0613050Y0040801D01*
X0612989Y0040866D01*
X0612931Y0040934D01*
X0612876Y0041004D01*
X0612823Y0041076D01*
X0612774Y0041150D01*
X0612729Y0041227D01*
X0612686Y0041305D01*
X0612647Y0041386D01*
X0612612Y0041467D01*
X0612580Y0041551D01*
X0612552Y0041635D01*
X0612527Y0041721D01*
X0612507Y0041808D01*
X0612490Y0041895D01*
X0612476Y0041983D01*
X0612467Y0042072D01*
X0612462Y0042161D01*
X0612460Y0042250D01*
X0612461Y0042250D02*
X0612463Y0042328D01*
X0612469Y0042406D01*
X0612479Y0042484D01*
X0612493Y0042562D01*
X0612510Y0042638D01*
X0612532Y0042714D01*
X0612556Y0042788D01*
X0612585Y0042861D01*
X0612617Y0042933D01*
X0612653Y0043003D01*
X0612692Y0043071D01*
X0612734Y0043138D01*
X0612779Y0043202D01*
X0612828Y0043263D01*
X0612879Y0043323D01*
X0612934Y0043379D01*
X0612991Y0043433D01*
X0613050Y0043484D01*
X0613112Y0043532D01*
X0613177Y0043577D01*
X0613243Y0043619D01*
X0613312Y0043658D01*
X0613382Y0043693D01*
X0613454Y0043724D01*
X0613527Y0043752D01*
X0613602Y0043777D01*
X0613678Y0043797D01*
X0613754Y0043814D01*
X0613832Y0043827D01*
X0613910Y0043837D01*
X0613988Y0043842D01*
X0614067Y0043844D01*
X0614066Y0043844D02*
X0614148Y0043842D01*
X0614229Y0043836D01*
X0614311Y0043826D01*
X0614391Y0043812D01*
X0614471Y0043794D01*
X0614550Y0043773D01*
X0614628Y0043747D01*
X0614705Y0043719D01*
X0614780Y0043686D01*
X0614853Y0043650D01*
X0614925Y0043610D01*
X0614994Y0043568D01*
X0615062Y0043521D01*
X0615127Y0043472D01*
X0615190Y0043420D01*
X0615251Y0043365D01*
X0615308Y0043306D01*
X0618854Y0312772D02*
X0618866Y0316328D01*
X0618875Y0318680D02*
X0618876Y0319035D01*
X0618520Y0319037D01*
X0618519Y0318681D01*
X0618875Y0318680D01*
X0618006Y0324413D02*
X0617879Y0324473D01*
X0617750Y0324530D01*
X0617620Y0324584D01*
X0617488Y0324634D01*
X0617355Y0324680D01*
X0617221Y0324723D01*
X0617086Y0324762D01*
X0616950Y0324798D01*
X0616813Y0324830D01*
X0616675Y0324859D01*
X0616537Y0324884D01*
X0616398Y0324905D01*
X0616258Y0324922D01*
X0616118Y0324936D01*
X0615978Y0324945D01*
X0615837Y0324952D01*
X0615696Y0324954D01*
X0615684Y0321399D02*
X0615543Y0321401D01*
X0615402Y0321408D01*
X0615262Y0321417D01*
X0615122Y0321431D01*
X0614982Y0321448D01*
X0614843Y0321469D01*
X0614705Y0321494D01*
X0614567Y0321523D01*
X0614430Y0321555D01*
X0614294Y0321590D01*
X0614159Y0321630D01*
X0614025Y0321673D01*
X0613892Y0321719D01*
X0613761Y0321769D01*
X0613630Y0321823D01*
X0613502Y0321880D01*
X0613375Y0321940D01*
X0613308Y0321965D01*
X0613244Y0321993D01*
X0613180Y0322025D01*
X0613119Y0322061D01*
X0613059Y0322099D01*
X0613002Y0322141D01*
X0612947Y0322186D01*
X0612894Y0322234D01*
X0612845Y0322284D01*
X0612797Y0322338D01*
X0612753Y0322393D01*
X0612712Y0322451D01*
X0612674Y0322511D01*
X0612640Y0322573D01*
X0612609Y0322637D01*
X0612581Y0322702D01*
X0612557Y0322769D01*
X0612536Y0322837D01*
X0612520Y0322906D01*
X0612506Y0322976D01*
X0612497Y0323046D01*
X0612492Y0323117D01*
X0612490Y0323188D01*
X0612492Y0323259D01*
X0612498Y0323329D01*
X0612508Y0323400D01*
X0612521Y0323469D01*
X0612539Y0323538D01*
X0612560Y0323606D01*
X0612584Y0323672D01*
X0612613Y0323738D01*
X0612644Y0323801D01*
X0612679Y0323863D01*
X0612717Y0323923D01*
X0612759Y0323980D01*
X0612803Y0324035D01*
X0612851Y0324088D01*
X0612901Y0324138D01*
X0612954Y0324186D01*
X0613009Y0324230D01*
X0613067Y0324272D01*
X0613127Y0324310D01*
X0613188Y0324345D01*
X0613252Y0324377D01*
X0613317Y0324405D01*
X0613384Y0324429D01*
X0613917Y0324605D02*
X0617463Y0321748D01*
X0618891Y0323165D02*
X0618889Y0323236D01*
X0618884Y0323307D01*
X0618875Y0323377D01*
X0618861Y0323447D01*
X0618845Y0323516D01*
X0618824Y0323584D01*
X0618800Y0323651D01*
X0618772Y0323716D01*
X0618741Y0323780D01*
X0618707Y0323842D01*
X0618669Y0323902D01*
X0618628Y0323960D01*
X0618584Y0324015D01*
X0618536Y0324069D01*
X0618487Y0324119D01*
X0618434Y0324167D01*
X0618379Y0324212D01*
X0618322Y0324254D01*
X0618262Y0324292D01*
X0618201Y0324328D01*
X0618138Y0324360D01*
X0618073Y0324388D01*
X0618006Y0324413D01*
X0618891Y0323165D02*
X0618889Y0323094D01*
X0618883Y0323024D01*
X0618873Y0322953D01*
X0618860Y0322884D01*
X0618842Y0322815D01*
X0618821Y0322747D01*
X0618797Y0322681D01*
X0618768Y0322615D01*
X0618737Y0322552D01*
X0618702Y0322490D01*
X0618664Y0322430D01*
X0618622Y0322373D01*
X0618578Y0322318D01*
X0618530Y0322265D01*
X0618480Y0322215D01*
X0618427Y0322167D01*
X0618372Y0322123D01*
X0618314Y0322081D01*
X0618254Y0322043D01*
X0618193Y0322008D01*
X0618129Y0321976D01*
X0618064Y0321948D01*
X0617997Y0321924D01*
X0615696Y0324954D02*
X0615556Y0324953D01*
X0615415Y0324947D01*
X0615275Y0324939D01*
X0615135Y0324926D01*
X0614995Y0324910D01*
X0614855Y0324889D01*
X0614717Y0324866D01*
X0614579Y0324838D01*
X0614442Y0324807D01*
X0614305Y0324772D01*
X0614170Y0324734D01*
X0614036Y0324692D01*
X0613902Y0324646D01*
X0613771Y0324597D01*
X0613640Y0324544D01*
X0613511Y0324488D01*
X0613383Y0324429D01*
X0615684Y0321399D02*
X0615824Y0321400D01*
X0615965Y0321406D01*
X0616105Y0321414D01*
X0616245Y0321427D01*
X0616385Y0321443D01*
X0616525Y0321464D01*
X0616663Y0321487D01*
X0616801Y0321515D01*
X0616938Y0321546D01*
X0617075Y0321581D01*
X0617210Y0321619D01*
X0617344Y0321661D01*
X0617478Y0321707D01*
X0617609Y0321756D01*
X0617740Y0321809D01*
X0617869Y0321865D01*
X0617997Y0321924D01*
X0618905Y0327542D02*
X0618912Y0329319D01*
X0618912Y0329320D02*
X0618910Y0329403D01*
X0618905Y0329486D01*
X0618895Y0329569D01*
X0618882Y0329651D01*
X0618865Y0329733D01*
X0618844Y0329814D01*
X0618819Y0329893D01*
X0618791Y0329972D01*
X0618759Y0330049D01*
X0618723Y0330124D01*
X0618684Y0330198D01*
X0618641Y0330269D01*
X0618595Y0330339D01*
X0618546Y0330406D01*
X0618494Y0330471D01*
X0618439Y0330534D01*
X0618381Y0330594D01*
X0618320Y0330651D01*
X0618257Y0330705D01*
X0618191Y0330756D01*
X0618123Y0330804D01*
X0618052Y0330849D01*
X0617980Y0330890D01*
X0617906Y0330928D01*
X0617830Y0330962D01*
X0617752Y0330993D01*
X0617673Y0331020D01*
X0617593Y0331044D01*
X0617512Y0331063D01*
X0617431Y0331079D01*
X0617348Y0331091D01*
X0617265Y0331099D01*
X0617182Y0331103D01*
X0617099Y0331104D01*
X0617015Y0331100D01*
X0616932Y0331093D01*
X0616850Y0331081D01*
X0616768Y0331066D01*
X0616687Y0331047D01*
X0616606Y0331024D01*
X0616527Y0330997D01*
X0616450Y0330967D01*
X0616374Y0330933D01*
X0616299Y0330896D01*
X0616226Y0330855D01*
X0616156Y0330811D01*
X0616087Y0330763D01*
X0616021Y0330713D01*
X0615957Y0330659D01*
X0615896Y0330602D01*
X0615838Y0330543D01*
X0615782Y0330481D01*
X0615729Y0330416D01*
X0615680Y0330349D01*
X0615633Y0330280D01*
X0615590Y0330208D01*
X0615551Y0330135D01*
X0615515Y0330060D01*
X0615482Y0329983D01*
X0615453Y0329905D01*
X0615428Y0329826D01*
X0615406Y0329745D01*
X0615388Y0329664D01*
X0615374Y0329581D01*
X0615364Y0329499D01*
X0615358Y0329416D01*
X0615356Y0329332D01*
X0615357Y0329687D02*
X0615352Y0328265D01*
X0615357Y0329687D02*
X0615355Y0329761D01*
X0615350Y0329836D01*
X0615340Y0329910D01*
X0615327Y0329983D01*
X0615310Y0330055D01*
X0615289Y0330127D01*
X0615264Y0330197D01*
X0615236Y0330266D01*
X0615204Y0330333D01*
X0615169Y0330399D01*
X0615130Y0330462D01*
X0615088Y0330524D01*
X0615043Y0330583D01*
X0614995Y0330640D01*
X0614944Y0330694D01*
X0614890Y0330745D01*
X0614834Y0330794D01*
X0614775Y0330839D01*
X0614714Y0330882D01*
X0614650Y0330921D01*
X0614585Y0330957D01*
X0614518Y0330989D01*
X0614449Y0331018D01*
X0614379Y0331043D01*
X0614308Y0331064D01*
X0614236Y0331082D01*
X0614162Y0331096D01*
X0614089Y0331106D01*
X0614014Y0331112D01*
X0613940Y0331114D01*
X0613866Y0331112D01*
X0613791Y0331107D01*
X0613717Y0331097D01*
X0613644Y0331084D01*
X0613572Y0331067D01*
X0613500Y0331046D01*
X0613430Y0331021D01*
X0613361Y0330993D01*
X0613294Y0330961D01*
X0613228Y0330926D01*
X0613165Y0330887D01*
X0613103Y0330845D01*
X0613044Y0330800D01*
X0612987Y0330752D01*
X0612933Y0330701D01*
X0612882Y0330647D01*
X0612833Y0330591D01*
X0612788Y0330532D01*
X0612745Y0330471D01*
X0612706Y0330407D01*
X0612670Y0330342D01*
X0612638Y0330275D01*
X0612609Y0330206D01*
X0612584Y0330136D01*
X0612563Y0330065D01*
X0612545Y0329992D01*
X0612531Y0329919D01*
X0612521Y0329846D01*
X0612515Y0329771D01*
X0612513Y0329697D01*
X0612505Y0327564D01*
X0626483Y0318593D02*
X0626481Y0318511D01*
X0626475Y0318430D01*
X0626465Y0318348D01*
X0626451Y0318268D01*
X0626433Y0318188D01*
X0626412Y0318109D01*
X0626386Y0318031D01*
X0626358Y0317954D01*
X0626325Y0317879D01*
X0626289Y0317806D01*
X0626249Y0317734D01*
X0626207Y0317665D01*
X0626161Y0317597D01*
X0626111Y0317532D01*
X0626059Y0317469D01*
X0626004Y0317408D01*
X0625945Y0317351D01*
X0622911Y0313806D01*
X0626466Y0313794D01*
X0628819Y0313785D02*
X0629174Y0313784D01*
X0629175Y0314140D01*
X0628820Y0314141D01*
X0628819Y0313785D01*
X0634552Y0314654D02*
X0634612Y0314782D01*
X0634669Y0314910D01*
X0634723Y0315040D01*
X0634773Y0315172D01*
X0634819Y0315305D01*
X0634862Y0315439D01*
X0634901Y0315574D01*
X0634937Y0315710D01*
X0634969Y0315847D01*
X0634998Y0315985D01*
X0635023Y0316123D01*
X0635044Y0316262D01*
X0635061Y0316402D01*
X0635075Y0316542D01*
X0635084Y0316682D01*
X0635091Y0316823D01*
X0635093Y0316964D01*
X0631538Y0316976D02*
X0631540Y0317117D01*
X0631547Y0317258D01*
X0631556Y0317398D01*
X0631570Y0317538D01*
X0631587Y0317678D01*
X0631608Y0317817D01*
X0631633Y0317955D01*
X0631662Y0318093D01*
X0631694Y0318230D01*
X0631729Y0318366D01*
X0631769Y0318501D01*
X0631812Y0318635D01*
X0631858Y0318768D01*
X0631908Y0318899D01*
X0631962Y0319030D01*
X0632019Y0319158D01*
X0632079Y0319285D01*
X0632104Y0319352D01*
X0632132Y0319416D01*
X0632164Y0319480D01*
X0632200Y0319541D01*
X0632238Y0319601D01*
X0632280Y0319658D01*
X0632325Y0319713D01*
X0632373Y0319766D01*
X0632423Y0319815D01*
X0632477Y0319863D01*
X0632532Y0319907D01*
X0632590Y0319948D01*
X0632650Y0319986D01*
X0632712Y0320020D01*
X0632776Y0320051D01*
X0632841Y0320079D01*
X0632908Y0320103D01*
X0632976Y0320124D01*
X0633045Y0320140D01*
X0633115Y0320154D01*
X0633185Y0320163D01*
X0633256Y0320168D01*
X0633327Y0320170D01*
X0633398Y0320168D01*
X0633468Y0320162D01*
X0633539Y0320152D01*
X0633608Y0320139D01*
X0633677Y0320121D01*
X0633745Y0320100D01*
X0633811Y0320076D01*
X0633877Y0320047D01*
X0633940Y0320016D01*
X0634002Y0319981D01*
X0634062Y0319943D01*
X0634119Y0319901D01*
X0634174Y0319857D01*
X0634227Y0319809D01*
X0634277Y0319759D01*
X0634325Y0319706D01*
X0634369Y0319651D01*
X0634411Y0319593D01*
X0634449Y0319533D01*
X0634484Y0319472D01*
X0634516Y0319408D01*
X0634544Y0319343D01*
X0634568Y0319276D01*
X0634744Y0318742D02*
X0631887Y0315197D01*
X0633304Y0313769D02*
X0633375Y0313771D01*
X0633446Y0313776D01*
X0633516Y0313785D01*
X0633586Y0313799D01*
X0633655Y0313815D01*
X0633723Y0313836D01*
X0633790Y0313860D01*
X0633855Y0313888D01*
X0633919Y0313919D01*
X0633981Y0313953D01*
X0634041Y0313991D01*
X0634099Y0314032D01*
X0634154Y0314076D01*
X0634208Y0314124D01*
X0634258Y0314173D01*
X0634306Y0314226D01*
X0634351Y0314281D01*
X0634393Y0314338D01*
X0634431Y0314398D01*
X0634467Y0314459D01*
X0634499Y0314522D01*
X0634527Y0314587D01*
X0634552Y0314654D01*
X0633304Y0313769D02*
X0633233Y0313771D01*
X0633163Y0313777D01*
X0633092Y0313787D01*
X0633023Y0313800D01*
X0632954Y0313818D01*
X0632886Y0313839D01*
X0632820Y0313863D01*
X0632754Y0313892D01*
X0632691Y0313923D01*
X0632629Y0313958D01*
X0632569Y0313996D01*
X0632512Y0314038D01*
X0632457Y0314082D01*
X0632404Y0314130D01*
X0632354Y0314180D01*
X0632306Y0314233D01*
X0632262Y0314288D01*
X0632220Y0314346D01*
X0632182Y0314406D01*
X0632147Y0314467D01*
X0632115Y0314531D01*
X0632087Y0314596D01*
X0632063Y0314663D01*
X0635093Y0316964D02*
X0635092Y0317104D01*
X0635086Y0317245D01*
X0635078Y0317385D01*
X0635065Y0317525D01*
X0635049Y0317665D01*
X0635028Y0317805D01*
X0635005Y0317943D01*
X0634977Y0318081D01*
X0634946Y0318218D01*
X0634911Y0318355D01*
X0634873Y0318490D01*
X0634831Y0318624D01*
X0634785Y0318758D01*
X0634736Y0318889D01*
X0634683Y0319020D01*
X0634627Y0319149D01*
X0634568Y0319277D01*
X0631537Y0316975D02*
X0631538Y0316835D01*
X0631544Y0316694D01*
X0631552Y0316554D01*
X0631565Y0316414D01*
X0631581Y0316274D01*
X0631602Y0316134D01*
X0631625Y0315996D01*
X0631653Y0315858D01*
X0631684Y0315721D01*
X0631719Y0315584D01*
X0631757Y0315449D01*
X0631799Y0315315D01*
X0631845Y0315181D01*
X0631894Y0315050D01*
X0631947Y0314919D01*
X0632003Y0314790D01*
X0632062Y0314662D01*
X0637680Y0313754D02*
X0639458Y0313748D01*
X0639541Y0313750D01*
X0639624Y0313755D01*
X0639707Y0313765D01*
X0639789Y0313778D01*
X0639871Y0313795D01*
X0639952Y0313816D01*
X0640031Y0313841D01*
X0640110Y0313869D01*
X0640187Y0313901D01*
X0640262Y0313937D01*
X0640336Y0313976D01*
X0640407Y0314019D01*
X0640477Y0314065D01*
X0640544Y0314114D01*
X0640609Y0314166D01*
X0640672Y0314221D01*
X0640732Y0314279D01*
X0640789Y0314340D01*
X0640843Y0314403D01*
X0640894Y0314469D01*
X0640942Y0314537D01*
X0640987Y0314608D01*
X0641028Y0314680D01*
X0641066Y0314754D01*
X0641100Y0314830D01*
X0641131Y0314908D01*
X0641158Y0314987D01*
X0641182Y0315067D01*
X0641201Y0315148D01*
X0641217Y0315229D01*
X0641229Y0315312D01*
X0641237Y0315395D01*
X0641241Y0315478D01*
X0641242Y0315561D01*
X0641238Y0315645D01*
X0641231Y0315728D01*
X0641219Y0315810D01*
X0641204Y0315892D01*
X0641185Y0315973D01*
X0641162Y0316054D01*
X0641135Y0316133D01*
X0641105Y0316210D01*
X0641071Y0316286D01*
X0641034Y0316361D01*
X0640993Y0316434D01*
X0640949Y0316504D01*
X0640901Y0316573D01*
X0640851Y0316639D01*
X0640797Y0316703D01*
X0640740Y0316764D01*
X0640681Y0316822D01*
X0640619Y0316878D01*
X0640554Y0316931D01*
X0640487Y0316980D01*
X0640418Y0317027D01*
X0640346Y0317070D01*
X0640273Y0317109D01*
X0640198Y0317145D01*
X0640121Y0317178D01*
X0640043Y0317207D01*
X0639964Y0317232D01*
X0639883Y0317254D01*
X0639802Y0317272D01*
X0639719Y0317286D01*
X0639637Y0317296D01*
X0639554Y0317302D01*
X0639470Y0317304D01*
X0639826Y0317302D02*
X0638404Y0317307D01*
X0639826Y0317303D02*
X0639900Y0317305D01*
X0639975Y0317310D01*
X0640049Y0317320D01*
X0640122Y0317333D01*
X0640194Y0317350D01*
X0640266Y0317371D01*
X0640336Y0317396D01*
X0640405Y0317424D01*
X0640472Y0317456D01*
X0640538Y0317491D01*
X0640601Y0317530D01*
X0640663Y0317572D01*
X0640722Y0317617D01*
X0640779Y0317665D01*
X0640833Y0317716D01*
X0640884Y0317770D01*
X0640933Y0317826D01*
X0640978Y0317885D01*
X0641021Y0317946D01*
X0641060Y0318010D01*
X0641096Y0318075D01*
X0641128Y0318142D01*
X0641157Y0318211D01*
X0641182Y0318281D01*
X0641203Y0318352D01*
X0641221Y0318424D01*
X0641235Y0318498D01*
X0641245Y0318571D01*
X0641251Y0318646D01*
X0641253Y0318720D01*
X0641251Y0318794D01*
X0641246Y0318869D01*
X0641236Y0318943D01*
X0641223Y0319016D01*
X0641206Y0319088D01*
X0641185Y0319160D01*
X0641160Y0319230D01*
X0641132Y0319299D01*
X0641100Y0319366D01*
X0641065Y0319432D01*
X0641026Y0319495D01*
X0640984Y0319557D01*
X0640939Y0319616D01*
X0640891Y0319673D01*
X0640840Y0319727D01*
X0640786Y0319778D01*
X0640730Y0319827D01*
X0640671Y0319872D01*
X0640610Y0319915D01*
X0640546Y0319954D01*
X0640481Y0319990D01*
X0640414Y0320022D01*
X0640345Y0320051D01*
X0640275Y0320076D01*
X0640204Y0320097D01*
X0640131Y0320115D01*
X0640058Y0320129D01*
X0639985Y0320139D01*
X0639910Y0320145D01*
X0639836Y0320147D01*
X0637703Y0320154D01*
X0626483Y0318593D02*
X0626481Y0318672D01*
X0626476Y0318750D01*
X0626466Y0318828D01*
X0626453Y0318906D01*
X0626436Y0318982D01*
X0626416Y0319058D01*
X0626391Y0319133D01*
X0626363Y0319206D01*
X0626332Y0319278D01*
X0626297Y0319348D01*
X0626258Y0319417D01*
X0626216Y0319483D01*
X0626171Y0319548D01*
X0626123Y0319610D01*
X0626072Y0319669D01*
X0626018Y0319726D01*
X0625962Y0319781D01*
X0625902Y0319832D01*
X0625841Y0319881D01*
X0625777Y0319926D01*
X0625710Y0319968D01*
X0625642Y0320007D01*
X0625572Y0320043D01*
X0625500Y0320075D01*
X0625427Y0320104D01*
X0625353Y0320128D01*
X0625277Y0320150D01*
X0625201Y0320167D01*
X0625123Y0320181D01*
X0625045Y0320191D01*
X0624967Y0320197D01*
X0624889Y0320199D01*
X0624888Y0320200D02*
X0624799Y0320198D01*
X0624710Y0320193D01*
X0624621Y0320184D01*
X0624533Y0320170D01*
X0624446Y0320153D01*
X0624359Y0320133D01*
X0624273Y0320108D01*
X0624189Y0320080D01*
X0624105Y0320048D01*
X0624024Y0320013D01*
X0623943Y0319974D01*
X0623865Y0319931D01*
X0623788Y0319886D01*
X0623714Y0319837D01*
X0623642Y0319784D01*
X0623572Y0319729D01*
X0623504Y0319671D01*
X0623439Y0319610D01*
X0623377Y0319546D01*
X0623318Y0319479D01*
X0623261Y0319410D01*
X0623208Y0319339D01*
X0623158Y0319265D01*
X0623111Y0319190D01*
X0623067Y0319112D01*
X0623027Y0319032D01*
X0622990Y0318951D01*
X0622957Y0318868D01*
X0622927Y0318784D01*
X0618854Y0312772D02*
X0615309Y0315807D01*
X0612460Y0314750D02*
X0612462Y0314661D01*
X0612467Y0314572D01*
X0612476Y0314483D01*
X0612490Y0314395D01*
X0612507Y0314308D01*
X0612527Y0314221D01*
X0612552Y0314135D01*
X0612580Y0314051D01*
X0612612Y0313967D01*
X0612647Y0313886D01*
X0612686Y0313805D01*
X0612729Y0313727D01*
X0612774Y0313650D01*
X0612823Y0313576D01*
X0612876Y0313504D01*
X0612931Y0313434D01*
X0612989Y0313366D01*
X0613050Y0313301D01*
X0613114Y0313239D01*
X0613181Y0313180D01*
X0613250Y0313123D01*
X0613321Y0313070D01*
X0613395Y0313020D01*
X0613470Y0312973D01*
X0613548Y0312929D01*
X0613628Y0312889D01*
X0613709Y0312852D01*
X0613792Y0312819D01*
X0613876Y0312789D01*
X0615308Y0315806D02*
X0615251Y0315865D01*
X0615190Y0315920D01*
X0615127Y0315972D01*
X0615062Y0316021D01*
X0614994Y0316068D01*
X0614925Y0316110D01*
X0614853Y0316150D01*
X0614780Y0316186D01*
X0614705Y0316219D01*
X0614628Y0316247D01*
X0614550Y0316273D01*
X0614471Y0316294D01*
X0614391Y0316312D01*
X0614311Y0316326D01*
X0614229Y0316336D01*
X0614148Y0316342D01*
X0614066Y0316344D01*
X0614067Y0316344D02*
X0613988Y0316342D01*
X0613910Y0316337D01*
X0613832Y0316327D01*
X0613754Y0316314D01*
X0613678Y0316297D01*
X0613602Y0316277D01*
X0613527Y0316252D01*
X0613454Y0316224D01*
X0613382Y0316193D01*
X0613312Y0316158D01*
X0613243Y0316119D01*
X0613177Y0316077D01*
X0613112Y0316032D01*
X0613050Y0315984D01*
X0612991Y0315933D01*
X0612934Y0315879D01*
X0612879Y0315823D01*
X0612828Y0315763D01*
X0612779Y0315702D01*
X0612734Y0315638D01*
X0612692Y0315571D01*
X0612653Y0315503D01*
X0612617Y0315433D01*
X0612585Y0315361D01*
X0612556Y0315288D01*
X0612532Y0315214D01*
X0612510Y0315138D01*
X0612493Y0315062D01*
X0612479Y0314984D01*
X0612469Y0314906D01*
X0612463Y0314828D01*
X0612461Y0314750D01*
X0057826Y0317802D02*
X0056404Y0317807D01*
X0050062Y0315162D02*
X0050003Y0315290D01*
X0049947Y0315419D01*
X0049894Y0315550D01*
X0049845Y0315681D01*
X0049799Y0315815D01*
X0049757Y0315949D01*
X0049719Y0316084D01*
X0049684Y0316221D01*
X0049653Y0316358D01*
X0049625Y0316496D01*
X0049602Y0316634D01*
X0049581Y0316774D01*
X0049565Y0316914D01*
X0049552Y0317054D01*
X0049544Y0317194D01*
X0049538Y0317335D01*
X0049537Y0317475D01*
X0053093Y0317464D02*
X0053092Y0317604D01*
X0053086Y0317745D01*
X0053078Y0317885D01*
X0053065Y0318025D01*
X0053049Y0318165D01*
X0053028Y0318305D01*
X0053005Y0318443D01*
X0052977Y0318581D01*
X0052946Y0318718D01*
X0052911Y0318855D01*
X0052873Y0318990D01*
X0052831Y0319124D01*
X0052785Y0319258D01*
X0052736Y0319389D01*
X0052683Y0319520D01*
X0052627Y0319649D01*
X0052568Y0319777D01*
X0052744Y0319242D02*
X0049887Y0315697D01*
X0051304Y0314269D02*
X0051375Y0314271D01*
X0051446Y0314276D01*
X0051516Y0314285D01*
X0051586Y0314299D01*
X0051655Y0314315D01*
X0051723Y0314336D01*
X0051790Y0314360D01*
X0051855Y0314388D01*
X0051919Y0314419D01*
X0051981Y0314453D01*
X0052041Y0314491D01*
X0052099Y0314532D01*
X0052154Y0314576D01*
X0052208Y0314624D01*
X0052258Y0314673D01*
X0052306Y0314726D01*
X0052351Y0314781D01*
X0052393Y0314838D01*
X0052431Y0314898D01*
X0052467Y0314959D01*
X0052499Y0315022D01*
X0052527Y0315087D01*
X0052552Y0315154D01*
X0051304Y0314269D02*
X0051233Y0314271D01*
X0051163Y0314277D01*
X0051092Y0314287D01*
X0051023Y0314300D01*
X0050954Y0314318D01*
X0050886Y0314339D01*
X0050820Y0314363D01*
X0050754Y0314392D01*
X0050691Y0314423D01*
X0050629Y0314458D01*
X0050569Y0314496D01*
X0050512Y0314538D01*
X0050457Y0314582D01*
X0050404Y0314630D01*
X0050354Y0314680D01*
X0050306Y0314733D01*
X0050262Y0314788D01*
X0050220Y0314846D01*
X0050182Y0314906D01*
X0050147Y0314967D01*
X0050115Y0315031D01*
X0050087Y0315096D01*
X0050063Y0315163D01*
X0047175Y0314640D02*
X0047174Y0314284D01*
X0046819Y0314285D01*
X0046820Y0314641D01*
X0047175Y0314640D01*
X0044466Y0314294D02*
X0040911Y0314306D01*
X0043945Y0317851D01*
X0042888Y0320700D02*
X0042799Y0320698D01*
X0042710Y0320693D01*
X0042621Y0320684D01*
X0042533Y0320670D01*
X0042446Y0320653D01*
X0042359Y0320633D01*
X0042273Y0320608D01*
X0042189Y0320580D01*
X0042105Y0320548D01*
X0042024Y0320513D01*
X0041943Y0320474D01*
X0041865Y0320431D01*
X0041788Y0320386D01*
X0041714Y0320337D01*
X0041642Y0320284D01*
X0041572Y0320229D01*
X0041504Y0320171D01*
X0041439Y0320110D01*
X0041377Y0320046D01*
X0041318Y0319979D01*
X0041261Y0319910D01*
X0041208Y0319839D01*
X0041158Y0319765D01*
X0041111Y0319690D01*
X0041067Y0319612D01*
X0041027Y0319532D01*
X0040990Y0319451D01*
X0040957Y0319368D01*
X0040927Y0319284D01*
X0043945Y0317851D02*
X0044004Y0317908D01*
X0044059Y0317969D01*
X0044111Y0318032D01*
X0044161Y0318097D01*
X0044207Y0318165D01*
X0044249Y0318234D01*
X0044289Y0318306D01*
X0044325Y0318379D01*
X0044358Y0318454D01*
X0044386Y0318531D01*
X0044412Y0318609D01*
X0044433Y0318688D01*
X0044451Y0318768D01*
X0044465Y0318848D01*
X0044475Y0318930D01*
X0044481Y0319011D01*
X0044483Y0319093D01*
X0044481Y0319172D01*
X0044476Y0319250D01*
X0044466Y0319328D01*
X0044453Y0319406D01*
X0044436Y0319482D01*
X0044416Y0319558D01*
X0044391Y0319633D01*
X0044363Y0319706D01*
X0044332Y0319778D01*
X0044297Y0319848D01*
X0044258Y0319917D01*
X0044216Y0319983D01*
X0044171Y0320048D01*
X0044123Y0320110D01*
X0044072Y0320169D01*
X0044018Y0320226D01*
X0043962Y0320281D01*
X0043902Y0320332D01*
X0043841Y0320381D01*
X0043777Y0320426D01*
X0043710Y0320468D01*
X0043642Y0320507D01*
X0043572Y0320543D01*
X0043500Y0320575D01*
X0043427Y0320604D01*
X0043353Y0320628D01*
X0043277Y0320650D01*
X0043201Y0320667D01*
X0043123Y0320681D01*
X0043045Y0320691D01*
X0042967Y0320697D01*
X0042889Y0320699D01*
X0053093Y0317464D02*
X0053091Y0317323D01*
X0053084Y0317182D01*
X0053075Y0317042D01*
X0053061Y0316902D01*
X0053044Y0316762D01*
X0053023Y0316623D01*
X0052998Y0316485D01*
X0052969Y0316347D01*
X0052937Y0316210D01*
X0052901Y0316074D01*
X0052862Y0315939D01*
X0052819Y0315805D01*
X0052773Y0315672D01*
X0052723Y0315540D01*
X0052669Y0315410D01*
X0052612Y0315282D01*
X0052552Y0315154D01*
X0049538Y0317476D02*
X0049540Y0317617D01*
X0049547Y0317758D01*
X0049556Y0317898D01*
X0049570Y0318038D01*
X0049587Y0318178D01*
X0049608Y0318317D01*
X0049633Y0318455D01*
X0049662Y0318593D01*
X0049694Y0318730D01*
X0049729Y0318866D01*
X0049769Y0319001D01*
X0049812Y0319135D01*
X0049858Y0319268D01*
X0049908Y0319399D01*
X0049962Y0319530D01*
X0050019Y0319658D01*
X0050079Y0319785D01*
X0050104Y0319852D01*
X0050132Y0319916D01*
X0050164Y0319980D01*
X0050200Y0320041D01*
X0050238Y0320101D01*
X0050280Y0320158D01*
X0050325Y0320213D01*
X0050373Y0320266D01*
X0050423Y0320315D01*
X0050477Y0320363D01*
X0050532Y0320407D01*
X0050590Y0320448D01*
X0050650Y0320486D01*
X0050712Y0320520D01*
X0050776Y0320551D01*
X0050841Y0320579D01*
X0050908Y0320603D01*
X0050976Y0320624D01*
X0051045Y0320640D01*
X0051115Y0320654D01*
X0051185Y0320663D01*
X0051256Y0320668D01*
X0051327Y0320670D01*
X0051398Y0320668D01*
X0051468Y0320662D01*
X0051539Y0320652D01*
X0051608Y0320639D01*
X0051677Y0320621D01*
X0051745Y0320600D01*
X0051811Y0320576D01*
X0051877Y0320547D01*
X0051940Y0320516D01*
X0052002Y0320481D01*
X0052062Y0320443D01*
X0052119Y0320401D01*
X0052174Y0320357D01*
X0052227Y0320309D01*
X0052277Y0320259D01*
X0052325Y0320206D01*
X0052369Y0320151D01*
X0052411Y0320093D01*
X0052449Y0320033D01*
X0052484Y0319972D01*
X0052516Y0319908D01*
X0052544Y0319843D01*
X0052568Y0319776D01*
X0055703Y0320654D02*
X0057836Y0320647D01*
X0057910Y0320645D01*
X0057985Y0320639D01*
X0058058Y0320629D01*
X0058131Y0320615D01*
X0058204Y0320597D01*
X0058275Y0320576D01*
X0058345Y0320551D01*
X0058414Y0320522D01*
X0058481Y0320490D01*
X0058546Y0320454D01*
X0058610Y0320415D01*
X0058671Y0320372D01*
X0058730Y0320327D01*
X0058786Y0320278D01*
X0058840Y0320227D01*
X0058891Y0320173D01*
X0058939Y0320116D01*
X0058984Y0320057D01*
X0059026Y0319995D01*
X0059065Y0319932D01*
X0059100Y0319866D01*
X0059132Y0319799D01*
X0059160Y0319730D01*
X0059185Y0319660D01*
X0059206Y0319588D01*
X0059223Y0319516D01*
X0059236Y0319443D01*
X0059246Y0319369D01*
X0059251Y0319294D01*
X0059253Y0319220D01*
X0059251Y0319146D01*
X0059245Y0319071D01*
X0059235Y0318998D01*
X0059221Y0318924D01*
X0059203Y0318852D01*
X0059182Y0318781D01*
X0059157Y0318711D01*
X0059128Y0318642D01*
X0059096Y0318575D01*
X0059060Y0318510D01*
X0059021Y0318446D01*
X0058978Y0318385D01*
X0058933Y0318326D01*
X0058884Y0318270D01*
X0058833Y0318216D01*
X0058779Y0318165D01*
X0058722Y0318117D01*
X0058663Y0318072D01*
X0058601Y0318030D01*
X0058538Y0317991D01*
X0058472Y0317956D01*
X0058405Y0317924D01*
X0058336Y0317896D01*
X0058266Y0317871D01*
X0058194Y0317850D01*
X0058122Y0317833D01*
X0058049Y0317820D01*
X0057975Y0317810D01*
X0057900Y0317805D01*
X0057826Y0317803D01*
X0057470Y0317804D02*
X0057554Y0317802D01*
X0057637Y0317796D01*
X0057719Y0317786D01*
X0057802Y0317772D01*
X0057883Y0317754D01*
X0057964Y0317732D01*
X0058043Y0317707D01*
X0058121Y0317678D01*
X0058198Y0317645D01*
X0058273Y0317609D01*
X0058346Y0317570D01*
X0058418Y0317527D01*
X0058487Y0317480D01*
X0058554Y0317431D01*
X0058619Y0317378D01*
X0058681Y0317322D01*
X0058740Y0317264D01*
X0058797Y0317203D01*
X0058851Y0317139D01*
X0058901Y0317073D01*
X0058949Y0317004D01*
X0058993Y0316934D01*
X0059034Y0316861D01*
X0059071Y0316786D01*
X0059105Y0316710D01*
X0059135Y0316633D01*
X0059162Y0316554D01*
X0059185Y0316473D01*
X0059204Y0316392D01*
X0059219Y0316310D01*
X0059231Y0316228D01*
X0059238Y0316145D01*
X0059242Y0316061D01*
X0059241Y0315978D01*
X0059237Y0315895D01*
X0059229Y0315812D01*
X0059217Y0315729D01*
X0059201Y0315648D01*
X0059182Y0315567D01*
X0059158Y0315487D01*
X0059131Y0315408D01*
X0059100Y0315330D01*
X0059066Y0315254D01*
X0059028Y0315180D01*
X0058987Y0315108D01*
X0058942Y0315037D01*
X0058894Y0314969D01*
X0058843Y0314903D01*
X0058789Y0314840D01*
X0058732Y0314779D01*
X0058672Y0314721D01*
X0058609Y0314666D01*
X0058544Y0314614D01*
X0058477Y0314565D01*
X0058407Y0314519D01*
X0058336Y0314476D01*
X0058262Y0314437D01*
X0058187Y0314401D01*
X0058110Y0314369D01*
X0058031Y0314341D01*
X0057952Y0314316D01*
X0057871Y0314295D01*
X0057789Y0314278D01*
X0057707Y0314265D01*
X0057624Y0314255D01*
X0057541Y0314250D01*
X0057458Y0314248D01*
X0055680Y0314254D01*
X0010789Y0313325D02*
X0010802Y0316881D01*
X0010810Y0319233D02*
X0010811Y0319589D01*
X0010455Y0319590D01*
X0010454Y0319234D01*
X0010810Y0319233D01*
X0009941Y0324967D02*
X0009814Y0325027D01*
X0009685Y0325084D01*
X0009555Y0325138D01*
X0009423Y0325188D01*
X0009290Y0325234D01*
X0009156Y0325277D01*
X0009021Y0325316D01*
X0008885Y0325352D01*
X0008748Y0325384D01*
X0008610Y0325413D01*
X0008472Y0325438D01*
X0008333Y0325459D01*
X0008193Y0325476D01*
X0008053Y0325490D01*
X0007913Y0325499D01*
X0007772Y0325506D01*
X0007631Y0325508D01*
X0007619Y0321952D02*
X0007478Y0321954D01*
X0007337Y0321961D01*
X0007197Y0321970D01*
X0007057Y0321984D01*
X0006917Y0322001D01*
X0006778Y0322022D01*
X0006640Y0322047D01*
X0006502Y0322076D01*
X0006365Y0322108D01*
X0006229Y0322143D01*
X0006094Y0322183D01*
X0005960Y0322226D01*
X0005827Y0322272D01*
X0005696Y0322322D01*
X0005565Y0322376D01*
X0005437Y0322433D01*
X0005310Y0322493D01*
X0005243Y0322518D01*
X0005179Y0322546D01*
X0005115Y0322578D01*
X0005054Y0322614D01*
X0004994Y0322652D01*
X0004937Y0322694D01*
X0004882Y0322739D01*
X0004829Y0322787D01*
X0004780Y0322837D01*
X0004732Y0322891D01*
X0004688Y0322946D01*
X0004647Y0323004D01*
X0004609Y0323064D01*
X0004575Y0323126D01*
X0004544Y0323190D01*
X0004516Y0323255D01*
X0004492Y0323322D01*
X0004471Y0323390D01*
X0004455Y0323459D01*
X0004441Y0323529D01*
X0004432Y0323599D01*
X0004427Y0323670D01*
X0004425Y0323741D01*
X0004427Y0323812D01*
X0004433Y0323882D01*
X0004443Y0323953D01*
X0004456Y0324022D01*
X0004474Y0324091D01*
X0004495Y0324159D01*
X0004519Y0324225D01*
X0004548Y0324291D01*
X0004579Y0324354D01*
X0004614Y0324416D01*
X0004652Y0324476D01*
X0004694Y0324533D01*
X0004738Y0324588D01*
X0004786Y0324641D01*
X0004836Y0324691D01*
X0004889Y0324739D01*
X0004944Y0324783D01*
X0005002Y0324825D01*
X0005062Y0324863D01*
X0005123Y0324898D01*
X0005187Y0324930D01*
X0005252Y0324958D01*
X0005319Y0324982D01*
X0005853Y0325158D02*
X0009398Y0322301D01*
X0010826Y0323718D02*
X0010824Y0323789D01*
X0010819Y0323860D01*
X0010810Y0323930D01*
X0010796Y0324000D01*
X0010780Y0324069D01*
X0010759Y0324137D01*
X0010735Y0324204D01*
X0010707Y0324269D01*
X0010676Y0324333D01*
X0010642Y0324395D01*
X0010604Y0324455D01*
X0010563Y0324513D01*
X0010519Y0324568D01*
X0010471Y0324622D01*
X0010422Y0324672D01*
X0010369Y0324720D01*
X0010314Y0324765D01*
X0010257Y0324807D01*
X0010197Y0324845D01*
X0010136Y0324881D01*
X0010073Y0324913D01*
X0010008Y0324941D01*
X0009941Y0324966D01*
X0010826Y0323718D02*
X0010824Y0323647D01*
X0010818Y0323577D01*
X0010808Y0323506D01*
X0010795Y0323437D01*
X0010777Y0323368D01*
X0010756Y0323300D01*
X0010732Y0323234D01*
X0010703Y0323168D01*
X0010672Y0323105D01*
X0010637Y0323043D01*
X0010599Y0322983D01*
X0010557Y0322926D01*
X0010513Y0322871D01*
X0010465Y0322818D01*
X0010415Y0322768D01*
X0010362Y0322720D01*
X0010307Y0322676D01*
X0010249Y0322634D01*
X0010189Y0322596D01*
X0010128Y0322561D01*
X0010064Y0322529D01*
X0009999Y0322501D01*
X0009932Y0322477D01*
X0007631Y0325508D02*
X0007491Y0325507D01*
X0007350Y0325501D01*
X0007210Y0325493D01*
X0007070Y0325480D01*
X0006930Y0325464D01*
X0006790Y0325443D01*
X0006652Y0325420D01*
X0006514Y0325392D01*
X0006377Y0325361D01*
X0006240Y0325326D01*
X0006105Y0325288D01*
X0005971Y0325246D01*
X0005837Y0325200D01*
X0005706Y0325151D01*
X0005575Y0325098D01*
X0005446Y0325042D01*
X0005318Y0324983D01*
X0007620Y0321952D02*
X0007760Y0321953D01*
X0007901Y0321959D01*
X0008041Y0321967D01*
X0008181Y0321980D01*
X0008321Y0321996D01*
X0008461Y0322017D01*
X0008599Y0322040D01*
X0008737Y0322068D01*
X0008874Y0322099D01*
X0009011Y0322134D01*
X0009146Y0322172D01*
X0009280Y0322214D01*
X0009414Y0322260D01*
X0009545Y0322309D01*
X0009676Y0322362D01*
X0009805Y0322418D01*
X0009933Y0322477D01*
X0010841Y0328095D02*
X0010847Y0329873D01*
X0010845Y0329956D01*
X0010840Y0330039D01*
X0010830Y0330122D01*
X0010817Y0330204D01*
X0010800Y0330286D01*
X0010779Y0330367D01*
X0010754Y0330446D01*
X0010726Y0330525D01*
X0010694Y0330602D01*
X0010658Y0330677D01*
X0010619Y0330751D01*
X0010576Y0330822D01*
X0010530Y0330892D01*
X0010481Y0330959D01*
X0010429Y0331024D01*
X0010374Y0331087D01*
X0010316Y0331147D01*
X0010255Y0331204D01*
X0010192Y0331258D01*
X0010126Y0331309D01*
X0010058Y0331357D01*
X0009987Y0331402D01*
X0009915Y0331443D01*
X0009841Y0331481D01*
X0009765Y0331515D01*
X0009687Y0331546D01*
X0009608Y0331573D01*
X0009528Y0331597D01*
X0009447Y0331616D01*
X0009366Y0331632D01*
X0009283Y0331644D01*
X0009200Y0331652D01*
X0009117Y0331656D01*
X0009034Y0331657D01*
X0008950Y0331653D01*
X0008867Y0331646D01*
X0008785Y0331634D01*
X0008703Y0331619D01*
X0008622Y0331600D01*
X0008541Y0331577D01*
X0008462Y0331550D01*
X0008385Y0331520D01*
X0008309Y0331486D01*
X0008234Y0331449D01*
X0008161Y0331408D01*
X0008091Y0331364D01*
X0008022Y0331316D01*
X0007956Y0331266D01*
X0007892Y0331212D01*
X0007831Y0331155D01*
X0007773Y0331096D01*
X0007717Y0331034D01*
X0007664Y0330969D01*
X0007615Y0330902D01*
X0007568Y0330833D01*
X0007525Y0330761D01*
X0007486Y0330688D01*
X0007450Y0330613D01*
X0007417Y0330536D01*
X0007388Y0330458D01*
X0007363Y0330379D01*
X0007341Y0330298D01*
X0007323Y0330217D01*
X0007309Y0330134D01*
X0007299Y0330052D01*
X0007293Y0329969D01*
X0007291Y0329885D01*
X0007293Y0330241D02*
X0007288Y0328818D01*
X0007292Y0330241D02*
X0007290Y0330315D01*
X0007285Y0330390D01*
X0007275Y0330464D01*
X0007262Y0330537D01*
X0007245Y0330609D01*
X0007224Y0330681D01*
X0007199Y0330751D01*
X0007171Y0330820D01*
X0007139Y0330887D01*
X0007104Y0330953D01*
X0007065Y0331016D01*
X0007023Y0331078D01*
X0006978Y0331137D01*
X0006930Y0331194D01*
X0006879Y0331248D01*
X0006825Y0331299D01*
X0006769Y0331348D01*
X0006710Y0331393D01*
X0006649Y0331436D01*
X0006585Y0331475D01*
X0006520Y0331511D01*
X0006453Y0331543D01*
X0006384Y0331572D01*
X0006314Y0331597D01*
X0006243Y0331618D01*
X0006171Y0331636D01*
X0006097Y0331650D01*
X0006024Y0331660D01*
X0005949Y0331666D01*
X0005875Y0331668D01*
X0005801Y0331666D01*
X0005726Y0331661D01*
X0005652Y0331651D01*
X0005579Y0331638D01*
X0005507Y0331621D01*
X0005435Y0331600D01*
X0005365Y0331575D01*
X0005296Y0331547D01*
X0005229Y0331515D01*
X0005163Y0331480D01*
X0005100Y0331441D01*
X0005038Y0331399D01*
X0004979Y0331354D01*
X0004922Y0331306D01*
X0004868Y0331255D01*
X0004817Y0331201D01*
X0004768Y0331145D01*
X0004723Y0331086D01*
X0004680Y0331025D01*
X0004641Y0330961D01*
X0004605Y0330896D01*
X0004573Y0330829D01*
X0004544Y0330760D01*
X0004519Y0330690D01*
X0004498Y0330619D01*
X0004480Y0330546D01*
X0004466Y0330473D01*
X0004456Y0330400D01*
X0004450Y0330325D01*
X0004448Y0330251D01*
X0004441Y0328117D01*
X0007244Y0316360D02*
X0010789Y0313325D01*
X0005812Y0313342D02*
X0005728Y0313372D01*
X0005645Y0313405D01*
X0005564Y0313442D01*
X0005484Y0313482D01*
X0005406Y0313526D01*
X0005331Y0313573D01*
X0005257Y0313623D01*
X0005186Y0313676D01*
X0005117Y0313733D01*
X0005050Y0313792D01*
X0004986Y0313854D01*
X0004925Y0313919D01*
X0004867Y0313987D01*
X0004812Y0314057D01*
X0004759Y0314129D01*
X0004710Y0314203D01*
X0004665Y0314280D01*
X0004622Y0314358D01*
X0004583Y0314439D01*
X0004548Y0314520D01*
X0004516Y0314604D01*
X0004488Y0314688D01*
X0004463Y0314774D01*
X0004443Y0314861D01*
X0004426Y0314948D01*
X0004412Y0315036D01*
X0004403Y0315125D01*
X0004398Y0315214D01*
X0004396Y0315303D01*
X0004396Y0315304D02*
X0004398Y0315382D01*
X0004404Y0315460D01*
X0004414Y0315538D01*
X0004428Y0315616D01*
X0004445Y0315692D01*
X0004467Y0315768D01*
X0004491Y0315842D01*
X0004520Y0315915D01*
X0004552Y0315987D01*
X0004588Y0316057D01*
X0004627Y0316125D01*
X0004669Y0316192D01*
X0004714Y0316256D01*
X0004763Y0316317D01*
X0004814Y0316377D01*
X0004869Y0316433D01*
X0004926Y0316487D01*
X0004985Y0316538D01*
X0005047Y0316586D01*
X0005112Y0316631D01*
X0005178Y0316673D01*
X0005247Y0316712D01*
X0005317Y0316747D01*
X0005389Y0316778D01*
X0005462Y0316806D01*
X0005537Y0316831D01*
X0005613Y0316851D01*
X0005689Y0316868D01*
X0005767Y0316881D01*
X0005845Y0316891D01*
X0005923Y0316896D01*
X0006002Y0316898D01*
X0006002Y0316897D02*
X0006084Y0316895D01*
X0006165Y0316889D01*
X0006247Y0316879D01*
X0006327Y0316865D01*
X0006407Y0316847D01*
X0006486Y0316826D01*
X0006564Y0316800D01*
X0006641Y0316772D01*
X0006716Y0316739D01*
X0006789Y0316703D01*
X0006861Y0316663D01*
X0006930Y0316621D01*
X0006998Y0316574D01*
X0007063Y0316525D01*
X0007126Y0316473D01*
X0007187Y0316418D01*
X0007244Y0316359D01*
X0007292Y0057241D02*
X0007290Y0057315D01*
X0007285Y0057390D01*
X0007275Y0057464D01*
X0007262Y0057537D01*
X0007245Y0057609D01*
X0007224Y0057681D01*
X0007199Y0057751D01*
X0007171Y0057820D01*
X0007139Y0057887D01*
X0007104Y0057953D01*
X0007065Y0058016D01*
X0007023Y0058078D01*
X0006978Y0058137D01*
X0006930Y0058194D01*
X0006879Y0058248D01*
X0006825Y0058299D01*
X0006769Y0058348D01*
X0006710Y0058393D01*
X0006649Y0058436D01*
X0006585Y0058475D01*
X0006520Y0058511D01*
X0006453Y0058543D01*
X0006384Y0058572D01*
X0006314Y0058597D01*
X0006243Y0058618D01*
X0006171Y0058636D01*
X0006097Y0058650D01*
X0006024Y0058660D01*
X0005949Y0058666D01*
X0005875Y0058668D01*
X0005801Y0058666D01*
X0005726Y0058661D01*
X0005652Y0058651D01*
X0005579Y0058638D01*
X0005507Y0058621D01*
X0005435Y0058600D01*
X0005365Y0058575D01*
X0005296Y0058547D01*
X0005229Y0058515D01*
X0005163Y0058480D01*
X0005100Y0058441D01*
X0005038Y0058399D01*
X0004979Y0058354D01*
X0004922Y0058306D01*
X0004868Y0058255D01*
X0004817Y0058201D01*
X0004768Y0058145D01*
X0004723Y0058086D01*
X0004680Y0058025D01*
X0004641Y0057961D01*
X0004605Y0057896D01*
X0004573Y0057829D01*
X0004544Y0057760D01*
X0004519Y0057690D01*
X0004498Y0057619D01*
X0004480Y0057546D01*
X0004466Y0057473D01*
X0004456Y0057400D01*
X0004450Y0057325D01*
X0004448Y0057251D01*
X0004441Y0055117D01*
X0007288Y0055818D02*
X0007293Y0057241D01*
X0007291Y0056885D02*
X0007293Y0056969D01*
X0007299Y0057052D01*
X0007309Y0057134D01*
X0007323Y0057217D01*
X0007341Y0057298D01*
X0007363Y0057379D01*
X0007388Y0057458D01*
X0007417Y0057536D01*
X0007450Y0057613D01*
X0007486Y0057688D01*
X0007525Y0057761D01*
X0007568Y0057833D01*
X0007615Y0057902D01*
X0007664Y0057969D01*
X0007717Y0058034D01*
X0007773Y0058096D01*
X0007831Y0058155D01*
X0007892Y0058212D01*
X0007956Y0058266D01*
X0008022Y0058316D01*
X0008091Y0058364D01*
X0008161Y0058408D01*
X0008234Y0058449D01*
X0008309Y0058486D01*
X0008385Y0058520D01*
X0008462Y0058550D01*
X0008541Y0058577D01*
X0008622Y0058600D01*
X0008703Y0058619D01*
X0008785Y0058634D01*
X0008867Y0058646D01*
X0008950Y0058653D01*
X0009034Y0058657D01*
X0009117Y0058656D01*
X0009200Y0058652D01*
X0009283Y0058644D01*
X0009366Y0058632D01*
X0009447Y0058616D01*
X0009528Y0058597D01*
X0009608Y0058573D01*
X0009687Y0058546D01*
X0009765Y0058515D01*
X0009841Y0058481D01*
X0009915Y0058443D01*
X0009987Y0058402D01*
X0010058Y0058357D01*
X0010126Y0058309D01*
X0010192Y0058258D01*
X0010255Y0058204D01*
X0010316Y0058147D01*
X0010374Y0058087D01*
X0010429Y0058024D01*
X0010481Y0057959D01*
X0010530Y0057892D01*
X0010576Y0057822D01*
X0010619Y0057751D01*
X0010658Y0057677D01*
X0010694Y0057602D01*
X0010726Y0057525D01*
X0010754Y0057446D01*
X0010779Y0057367D01*
X0010800Y0057286D01*
X0010817Y0057204D01*
X0010830Y0057122D01*
X0010840Y0057039D01*
X0010845Y0056956D01*
X0010847Y0056873D01*
X0010841Y0055095D01*
X0009933Y0049477D02*
X0009805Y0049418D01*
X0009676Y0049362D01*
X0009545Y0049309D01*
X0009414Y0049260D01*
X0009280Y0049214D01*
X0009146Y0049172D01*
X0009011Y0049134D01*
X0008874Y0049099D01*
X0008737Y0049068D01*
X0008599Y0049040D01*
X0008461Y0049017D01*
X0008321Y0048996D01*
X0008181Y0048980D01*
X0008041Y0048967D01*
X0007901Y0048959D01*
X0007760Y0048953D01*
X0007620Y0048952D01*
X0007631Y0052508D02*
X0007491Y0052507D01*
X0007350Y0052501D01*
X0007210Y0052493D01*
X0007070Y0052480D01*
X0006930Y0052464D01*
X0006790Y0052443D01*
X0006652Y0052420D01*
X0006514Y0052392D01*
X0006377Y0052361D01*
X0006240Y0052326D01*
X0006105Y0052288D01*
X0005971Y0052246D01*
X0005837Y0052200D01*
X0005706Y0052151D01*
X0005575Y0052098D01*
X0005446Y0052042D01*
X0005318Y0051983D01*
X0005853Y0052158D02*
X0009398Y0049301D01*
X0010826Y0050718D02*
X0010824Y0050789D01*
X0010819Y0050860D01*
X0010810Y0050930D01*
X0010796Y0051000D01*
X0010780Y0051069D01*
X0010759Y0051137D01*
X0010735Y0051204D01*
X0010707Y0051269D01*
X0010676Y0051333D01*
X0010642Y0051395D01*
X0010604Y0051455D01*
X0010563Y0051513D01*
X0010519Y0051568D01*
X0010471Y0051622D01*
X0010422Y0051672D01*
X0010369Y0051720D01*
X0010314Y0051765D01*
X0010257Y0051807D01*
X0010197Y0051845D01*
X0010136Y0051881D01*
X0010073Y0051913D01*
X0010008Y0051941D01*
X0009941Y0051966D01*
X0010826Y0050718D02*
X0010824Y0050647D01*
X0010818Y0050577D01*
X0010808Y0050506D01*
X0010795Y0050437D01*
X0010777Y0050368D01*
X0010756Y0050300D01*
X0010732Y0050234D01*
X0010703Y0050168D01*
X0010672Y0050105D01*
X0010637Y0050043D01*
X0010599Y0049983D01*
X0010557Y0049926D01*
X0010513Y0049871D01*
X0010465Y0049818D01*
X0010415Y0049768D01*
X0010362Y0049720D01*
X0010307Y0049676D01*
X0010249Y0049634D01*
X0010189Y0049596D01*
X0010128Y0049561D01*
X0010064Y0049529D01*
X0009999Y0049501D01*
X0009932Y0049477D01*
X0010455Y0046590D02*
X0010811Y0046589D01*
X0010810Y0046233D01*
X0010454Y0046234D01*
X0010455Y0046590D01*
X0010802Y0043881D02*
X0010789Y0040325D01*
X0007244Y0043360D01*
X0004396Y0042303D02*
X0004398Y0042214D01*
X0004403Y0042125D01*
X0004412Y0042036D01*
X0004426Y0041948D01*
X0004443Y0041861D01*
X0004463Y0041774D01*
X0004488Y0041688D01*
X0004516Y0041604D01*
X0004548Y0041520D01*
X0004583Y0041439D01*
X0004622Y0041358D01*
X0004665Y0041280D01*
X0004710Y0041203D01*
X0004759Y0041129D01*
X0004812Y0041057D01*
X0004867Y0040987D01*
X0004925Y0040919D01*
X0004986Y0040854D01*
X0005050Y0040792D01*
X0005117Y0040733D01*
X0005186Y0040676D01*
X0005257Y0040623D01*
X0005331Y0040573D01*
X0005406Y0040526D01*
X0005484Y0040482D01*
X0005564Y0040442D01*
X0005645Y0040405D01*
X0005728Y0040372D01*
X0005812Y0040342D01*
X0007244Y0043359D02*
X0007187Y0043418D01*
X0007126Y0043473D01*
X0007063Y0043525D01*
X0006998Y0043574D01*
X0006930Y0043621D01*
X0006861Y0043663D01*
X0006789Y0043703D01*
X0006716Y0043739D01*
X0006641Y0043772D01*
X0006564Y0043800D01*
X0006486Y0043826D01*
X0006407Y0043847D01*
X0006327Y0043865D01*
X0006247Y0043879D01*
X0006165Y0043889D01*
X0006084Y0043895D01*
X0006002Y0043897D01*
X0006002Y0043898D02*
X0005923Y0043896D01*
X0005845Y0043891D01*
X0005767Y0043881D01*
X0005689Y0043868D01*
X0005613Y0043851D01*
X0005537Y0043831D01*
X0005462Y0043806D01*
X0005389Y0043778D01*
X0005317Y0043747D01*
X0005247Y0043712D01*
X0005178Y0043673D01*
X0005112Y0043631D01*
X0005047Y0043586D01*
X0004985Y0043538D01*
X0004926Y0043487D01*
X0004869Y0043433D01*
X0004814Y0043377D01*
X0004763Y0043317D01*
X0004714Y0043256D01*
X0004669Y0043192D01*
X0004627Y0043125D01*
X0004588Y0043057D01*
X0004552Y0042987D01*
X0004520Y0042915D01*
X0004491Y0042842D01*
X0004467Y0042768D01*
X0004445Y0042692D01*
X0004428Y0042616D01*
X0004414Y0042538D01*
X0004404Y0042460D01*
X0004398Y0042382D01*
X0004396Y0042304D01*
X0007631Y0052508D02*
X0007772Y0052506D01*
X0007913Y0052499D01*
X0008053Y0052490D01*
X0008193Y0052476D01*
X0008333Y0052459D01*
X0008472Y0052438D01*
X0008610Y0052413D01*
X0008748Y0052384D01*
X0008885Y0052352D01*
X0009021Y0052316D01*
X0009156Y0052277D01*
X0009290Y0052234D01*
X0009423Y0052188D01*
X0009555Y0052138D01*
X0009685Y0052084D01*
X0009814Y0052027D01*
X0009941Y0051967D01*
X0007619Y0048952D02*
X0007478Y0048954D01*
X0007337Y0048961D01*
X0007197Y0048970D01*
X0007057Y0048984D01*
X0006917Y0049001D01*
X0006778Y0049022D01*
X0006640Y0049047D01*
X0006502Y0049076D01*
X0006365Y0049108D01*
X0006229Y0049143D01*
X0006094Y0049183D01*
X0005960Y0049226D01*
X0005827Y0049272D01*
X0005696Y0049322D01*
X0005565Y0049376D01*
X0005437Y0049433D01*
X0005310Y0049493D01*
X0005243Y0049518D01*
X0005179Y0049546D01*
X0005115Y0049578D01*
X0005054Y0049614D01*
X0004994Y0049652D01*
X0004937Y0049694D01*
X0004882Y0049739D01*
X0004829Y0049787D01*
X0004780Y0049837D01*
X0004732Y0049891D01*
X0004688Y0049946D01*
X0004647Y0050004D01*
X0004609Y0050064D01*
X0004575Y0050126D01*
X0004544Y0050190D01*
X0004516Y0050255D01*
X0004492Y0050322D01*
X0004471Y0050390D01*
X0004455Y0050459D01*
X0004441Y0050529D01*
X0004432Y0050599D01*
X0004427Y0050670D01*
X0004425Y0050741D01*
X0004427Y0050812D01*
X0004433Y0050882D01*
X0004443Y0050953D01*
X0004456Y0051022D01*
X0004474Y0051091D01*
X0004495Y0051159D01*
X0004519Y0051225D01*
X0004548Y0051291D01*
X0004579Y0051354D01*
X0004614Y0051416D01*
X0004652Y0051476D01*
X0004694Y0051533D01*
X0004738Y0051588D01*
X0004786Y0051641D01*
X0004836Y0051691D01*
X0004889Y0051739D01*
X0004944Y0051783D01*
X0005002Y0051825D01*
X0005062Y0051863D01*
X0005123Y0051898D01*
X0005187Y0051930D01*
X0005252Y0051958D01*
X0005319Y0051982D01*
X0050026Y0020720D02*
X0050051Y0020787D01*
X0050079Y0020851D01*
X0050111Y0020915D01*
X0050147Y0020976D01*
X0050185Y0021036D01*
X0050227Y0021093D01*
X0050272Y0021148D01*
X0050320Y0021201D01*
X0050370Y0021250D01*
X0050424Y0021298D01*
X0050479Y0021342D01*
X0050537Y0021383D01*
X0050597Y0021421D01*
X0050659Y0021455D01*
X0050723Y0021486D01*
X0050788Y0021514D01*
X0050855Y0021538D01*
X0050923Y0021559D01*
X0050992Y0021575D01*
X0051062Y0021589D01*
X0051132Y0021598D01*
X0051203Y0021603D01*
X0051274Y0021605D01*
X0051345Y0021603D01*
X0051415Y0021597D01*
X0051486Y0021587D01*
X0051555Y0021574D01*
X0051624Y0021556D01*
X0051692Y0021535D01*
X0051758Y0021511D01*
X0051824Y0021482D01*
X0051887Y0021451D01*
X0051949Y0021416D01*
X0052009Y0021378D01*
X0052066Y0021336D01*
X0052121Y0021292D01*
X0052174Y0021244D01*
X0052224Y0021194D01*
X0052272Y0021141D01*
X0052316Y0021086D01*
X0052358Y0021028D01*
X0052396Y0020968D01*
X0052431Y0020907D01*
X0052463Y0020843D01*
X0052491Y0020778D01*
X0052515Y0020711D01*
X0052690Y0020178D02*
X0049834Y0016632D01*
X0051250Y0015204D02*
X0051321Y0015206D01*
X0051392Y0015211D01*
X0051462Y0015220D01*
X0051532Y0015234D01*
X0051601Y0015250D01*
X0051669Y0015271D01*
X0051736Y0015295D01*
X0051801Y0015323D01*
X0051865Y0015354D01*
X0051927Y0015388D01*
X0051987Y0015426D01*
X0052045Y0015467D01*
X0052100Y0015511D01*
X0052154Y0015559D01*
X0052204Y0015608D01*
X0052252Y0015661D01*
X0052297Y0015716D01*
X0052339Y0015773D01*
X0052377Y0015833D01*
X0052413Y0015894D01*
X0052445Y0015957D01*
X0052473Y0016022D01*
X0052498Y0016089D01*
X0051250Y0015204D02*
X0051179Y0015206D01*
X0051109Y0015212D01*
X0051038Y0015222D01*
X0050969Y0015235D01*
X0050900Y0015253D01*
X0050832Y0015274D01*
X0050766Y0015298D01*
X0050700Y0015327D01*
X0050637Y0015358D01*
X0050575Y0015393D01*
X0050515Y0015431D01*
X0050458Y0015473D01*
X0050403Y0015517D01*
X0050350Y0015565D01*
X0050300Y0015615D01*
X0050252Y0015668D01*
X0050208Y0015723D01*
X0050166Y0015781D01*
X0050128Y0015841D01*
X0050093Y0015902D01*
X0050061Y0015966D01*
X0050033Y0016031D01*
X0050009Y0016098D01*
X0047122Y0015575D02*
X0047121Y0015219D01*
X0046765Y0015221D01*
X0046766Y0015576D01*
X0047122Y0015575D01*
X0044413Y0015229D02*
X0040857Y0015241D01*
X0043892Y0018786D01*
X0042835Y0021635D02*
X0042746Y0021633D01*
X0042657Y0021628D01*
X0042568Y0021619D01*
X0042480Y0021605D01*
X0042393Y0021588D01*
X0042306Y0021568D01*
X0042220Y0021543D01*
X0042136Y0021515D01*
X0042052Y0021483D01*
X0041971Y0021448D01*
X0041890Y0021409D01*
X0041812Y0021366D01*
X0041735Y0021321D01*
X0041661Y0021272D01*
X0041589Y0021219D01*
X0041519Y0021164D01*
X0041451Y0021106D01*
X0041386Y0021045D01*
X0041324Y0020981D01*
X0041265Y0020914D01*
X0041208Y0020845D01*
X0041155Y0020774D01*
X0041105Y0020700D01*
X0041058Y0020625D01*
X0041014Y0020547D01*
X0040974Y0020467D01*
X0040937Y0020386D01*
X0040904Y0020303D01*
X0040874Y0020219D01*
X0043891Y0018787D02*
X0043950Y0018844D01*
X0044005Y0018905D01*
X0044057Y0018968D01*
X0044107Y0019033D01*
X0044153Y0019101D01*
X0044195Y0019170D01*
X0044235Y0019242D01*
X0044271Y0019315D01*
X0044304Y0019390D01*
X0044332Y0019467D01*
X0044358Y0019545D01*
X0044379Y0019624D01*
X0044397Y0019704D01*
X0044411Y0019784D01*
X0044421Y0019866D01*
X0044427Y0019947D01*
X0044429Y0020029D01*
X0044430Y0020028D02*
X0044428Y0020107D01*
X0044423Y0020185D01*
X0044413Y0020263D01*
X0044400Y0020341D01*
X0044383Y0020417D01*
X0044363Y0020493D01*
X0044338Y0020568D01*
X0044310Y0020641D01*
X0044279Y0020713D01*
X0044244Y0020783D01*
X0044205Y0020852D01*
X0044163Y0020918D01*
X0044118Y0020983D01*
X0044070Y0021045D01*
X0044019Y0021104D01*
X0043965Y0021161D01*
X0043909Y0021216D01*
X0043849Y0021267D01*
X0043788Y0021316D01*
X0043724Y0021361D01*
X0043657Y0021403D01*
X0043589Y0021442D01*
X0043519Y0021478D01*
X0043447Y0021510D01*
X0043374Y0021539D01*
X0043300Y0021563D01*
X0043224Y0021585D01*
X0043148Y0021602D01*
X0043070Y0021616D01*
X0042992Y0021626D01*
X0042914Y0021632D01*
X0042836Y0021634D01*
X0053040Y0018399D02*
X0053038Y0018258D01*
X0053031Y0018117D01*
X0053022Y0017977D01*
X0053008Y0017837D01*
X0052991Y0017697D01*
X0052970Y0017558D01*
X0052945Y0017420D01*
X0052916Y0017282D01*
X0052884Y0017145D01*
X0052848Y0017009D01*
X0052809Y0016874D01*
X0052766Y0016740D01*
X0052720Y0016607D01*
X0052670Y0016475D01*
X0052616Y0016345D01*
X0052559Y0016217D01*
X0052499Y0016089D01*
X0049484Y0018411D02*
X0049486Y0018552D01*
X0049493Y0018693D01*
X0049502Y0018833D01*
X0049516Y0018973D01*
X0049533Y0019113D01*
X0049554Y0019252D01*
X0049579Y0019390D01*
X0049608Y0019528D01*
X0049640Y0019665D01*
X0049675Y0019801D01*
X0049715Y0019936D01*
X0049758Y0020070D01*
X0049804Y0020203D01*
X0049854Y0020334D01*
X0049908Y0020465D01*
X0049965Y0020593D01*
X0050025Y0020720D01*
X0052515Y0020712D02*
X0052574Y0020584D01*
X0052630Y0020455D01*
X0052683Y0020324D01*
X0052732Y0020193D01*
X0052778Y0020059D01*
X0052820Y0019925D01*
X0052858Y0019790D01*
X0052893Y0019653D01*
X0052924Y0019516D01*
X0052952Y0019378D01*
X0052975Y0019240D01*
X0052996Y0019100D01*
X0053012Y0018960D01*
X0053025Y0018820D01*
X0053033Y0018680D01*
X0053039Y0018539D01*
X0053040Y0018399D01*
X0049484Y0018411D02*
X0049485Y0018271D01*
X0049491Y0018130D01*
X0049499Y0017990D01*
X0049512Y0017850D01*
X0049528Y0017710D01*
X0049549Y0017570D01*
X0049572Y0017432D01*
X0049600Y0017294D01*
X0049631Y0017157D01*
X0049666Y0017020D01*
X0049704Y0016885D01*
X0049746Y0016751D01*
X0049792Y0016617D01*
X0049841Y0016486D01*
X0049894Y0016355D01*
X0049950Y0016226D01*
X0050009Y0016098D01*
X0055627Y0015190D02*
X0057405Y0015183D01*
X0057488Y0015185D01*
X0057571Y0015190D01*
X0057654Y0015200D01*
X0057736Y0015213D01*
X0057818Y0015230D01*
X0057899Y0015251D01*
X0057978Y0015276D01*
X0058057Y0015304D01*
X0058134Y0015336D01*
X0058209Y0015372D01*
X0058283Y0015411D01*
X0058354Y0015454D01*
X0058424Y0015500D01*
X0058491Y0015549D01*
X0058556Y0015601D01*
X0058619Y0015656D01*
X0058679Y0015714D01*
X0058736Y0015775D01*
X0058790Y0015838D01*
X0058841Y0015904D01*
X0058889Y0015972D01*
X0058934Y0016043D01*
X0058975Y0016115D01*
X0059013Y0016189D01*
X0059047Y0016265D01*
X0059078Y0016343D01*
X0059105Y0016422D01*
X0059129Y0016502D01*
X0059148Y0016583D01*
X0059164Y0016664D01*
X0059176Y0016747D01*
X0059184Y0016830D01*
X0059188Y0016913D01*
X0059189Y0016996D01*
X0059185Y0017080D01*
X0059178Y0017163D01*
X0059166Y0017245D01*
X0059151Y0017327D01*
X0059132Y0017408D01*
X0059109Y0017489D01*
X0059082Y0017568D01*
X0059052Y0017645D01*
X0059018Y0017721D01*
X0058981Y0017796D01*
X0058940Y0017869D01*
X0058896Y0017939D01*
X0058848Y0018008D01*
X0058798Y0018074D01*
X0058744Y0018138D01*
X0058687Y0018199D01*
X0058628Y0018257D01*
X0058566Y0018313D01*
X0058501Y0018366D01*
X0058434Y0018415D01*
X0058365Y0018462D01*
X0058293Y0018505D01*
X0058220Y0018544D01*
X0058145Y0018580D01*
X0058068Y0018613D01*
X0057990Y0018642D01*
X0057911Y0018667D01*
X0057830Y0018689D01*
X0057749Y0018707D01*
X0057666Y0018721D01*
X0057584Y0018731D01*
X0057501Y0018737D01*
X0057417Y0018739D01*
X0057773Y0018738D02*
X0056351Y0018743D01*
X0057773Y0018738D02*
X0057847Y0018740D01*
X0057922Y0018745D01*
X0057996Y0018755D01*
X0058069Y0018768D01*
X0058141Y0018785D01*
X0058213Y0018806D01*
X0058283Y0018831D01*
X0058352Y0018859D01*
X0058419Y0018891D01*
X0058485Y0018926D01*
X0058548Y0018965D01*
X0058610Y0019007D01*
X0058669Y0019052D01*
X0058726Y0019100D01*
X0058780Y0019151D01*
X0058831Y0019205D01*
X0058880Y0019261D01*
X0058925Y0019320D01*
X0058968Y0019381D01*
X0059007Y0019445D01*
X0059043Y0019510D01*
X0059075Y0019577D01*
X0059104Y0019646D01*
X0059129Y0019716D01*
X0059150Y0019787D01*
X0059168Y0019859D01*
X0059182Y0019933D01*
X0059192Y0020006D01*
X0059198Y0020081D01*
X0059200Y0020155D01*
X0059198Y0020229D01*
X0059193Y0020304D01*
X0059183Y0020378D01*
X0059170Y0020451D01*
X0059153Y0020523D01*
X0059132Y0020595D01*
X0059107Y0020665D01*
X0059079Y0020734D01*
X0059047Y0020801D01*
X0059012Y0020867D01*
X0058973Y0020930D01*
X0058931Y0020992D01*
X0058886Y0021051D01*
X0058838Y0021108D01*
X0058787Y0021162D01*
X0058733Y0021213D01*
X0058677Y0021262D01*
X0058618Y0021307D01*
X0058557Y0021350D01*
X0058493Y0021389D01*
X0058428Y0021425D01*
X0058361Y0021457D01*
X0058292Y0021486D01*
X0058222Y0021511D01*
X0058151Y0021532D01*
X0058078Y0021550D01*
X0058005Y0021564D01*
X0057932Y0021574D01*
X0057857Y0021580D01*
X0057783Y0021582D01*
X0055649Y0021590D01*
D13*
X0077340Y0066755D03*
X0107340Y0066755D03*
X0257340Y0076755D03*
X0257340Y0086755D03*
X0287340Y0086755D03*
X0297340Y0091755D03*
X0307340Y0079255D03*
X0302340Y0071755D03*
X0312340Y0071755D03*
X0287340Y0076755D03*
X0327340Y0091755D03*
X0347340Y0096755D03*
X0357340Y0096755D03*
X0367340Y0096755D03*
X0377340Y0096755D03*
X0387340Y0096755D03*
X0397340Y0096755D03*
X0407340Y0096755D03*
X0417340Y0096755D03*
X0427340Y0096755D03*
X0437340Y0096755D03*
X0447340Y0096755D03*
X0472340Y0106755D03*
X0482340Y0106755D03*
X0492340Y0096755D03*
X0537340Y0086755D03*
X0537340Y0076755D03*
X0537340Y0066755D03*
X0537340Y0056755D03*
X0567340Y0056755D03*
X0567340Y0066755D03*
X0567340Y0076755D03*
X0567340Y0086755D03*
X0567340Y0096755D03*
X0567340Y0126755D03*
X0567340Y0136755D03*
X0567340Y0166755D03*
X0562340Y0206755D03*
X0562340Y0236755D03*
X0477340Y0221755D03*
X0467340Y0221755D03*
X0447340Y0236755D03*
X0437340Y0236755D03*
X0427340Y0236755D03*
X0417340Y0236755D03*
X0387340Y0236755D03*
X0377340Y0236755D03*
X0367340Y0236755D03*
X0357340Y0236755D03*
X0347340Y0236755D03*
X0337340Y0236755D03*
X0327340Y0236755D03*
X0317340Y0236755D03*
X0297340Y0221755D03*
X0292340Y0229255D03*
X0287340Y0221755D03*
X0262340Y0226755D03*
X0262340Y0236755D03*
X0232340Y0236755D03*
X0232340Y0226755D03*
X0232340Y0251755D03*
X0217340Y0251755D03*
X0187340Y0251755D03*
X0262340Y0251755D03*
X0317340Y0206755D03*
X0327340Y0206755D03*
X0337340Y0206755D03*
X0347340Y0206755D03*
X0357340Y0206755D03*
X0367340Y0206755D03*
X0377340Y0206755D03*
X0387340Y0206755D03*
X0417340Y0206755D03*
X0427340Y0206755D03*
X0437340Y0206755D03*
X0447340Y0206755D03*
X0467340Y0191755D03*
X0477340Y0191755D03*
X0477340Y0176755D03*
X0477340Y0146755D03*
X0472340Y0136755D03*
X0482340Y0136755D03*
X0492340Y0126755D03*
X0447340Y0066755D03*
X0437340Y0066755D03*
X0427340Y0066755D03*
X0417340Y0066755D03*
X0407340Y0066755D03*
X0397340Y0066755D03*
X0387340Y0066755D03*
X0377340Y0066755D03*
X0367340Y0066755D03*
X0357340Y0066755D03*
X0347340Y0066755D03*
X0077340Y0181755D03*
X0077340Y0211755D03*
X0372340Y0251755D03*
X0377340Y0259255D03*
X0382340Y0251755D03*
X0402340Y0251755D03*
X0412340Y0251755D03*
X0407340Y0259255D03*
X0427340Y0251755D03*
X0437340Y0251755D03*
X0432340Y0259255D03*
X0452340Y0251755D03*
X0462340Y0251755D03*
X0457340Y0259255D03*
D14*
X0447340Y0196755D03*
X0437340Y0196755D03*
X0427340Y0196755D03*
X0417340Y0196755D03*
X0407340Y0196755D03*
X0397340Y0196755D03*
X0387340Y0196755D03*
X0377340Y0196755D03*
X0367340Y0196755D03*
X0357340Y0196755D03*
X0347340Y0196755D03*
X0337340Y0196755D03*
X0327340Y0196755D03*
X0317340Y0196755D03*
X0307340Y0196755D03*
X0297340Y0196755D03*
X0287340Y0196755D03*
X0277340Y0196755D03*
X0277340Y0186755D03*
X0287340Y0186755D03*
X0297340Y0186755D03*
X0307340Y0186755D03*
X0317340Y0186755D03*
X0327340Y0186755D03*
X0337340Y0186755D03*
X0347340Y0186755D03*
X0357340Y0186755D03*
X0367340Y0186755D03*
X0377340Y0186755D03*
X0387340Y0186755D03*
X0397340Y0186755D03*
X0407340Y0186755D03*
X0417340Y0186755D03*
X0427340Y0186755D03*
X0437340Y0186755D03*
X0447340Y0186755D03*
X0447340Y0176755D03*
X0437340Y0176755D03*
X0427340Y0176755D03*
X0417340Y0176755D03*
X0407340Y0176755D03*
X0397340Y0176755D03*
X0387340Y0176755D03*
X0377340Y0176755D03*
X0367340Y0176755D03*
X0357340Y0176755D03*
X0347340Y0176755D03*
X0337340Y0176755D03*
X0327340Y0176755D03*
X0317340Y0176755D03*
X0307340Y0176755D03*
X0297340Y0176755D03*
X0287340Y0176755D03*
X0277340Y0176755D03*
X0277340Y0126755D03*
X0287340Y0126755D03*
X0297340Y0126755D03*
X0307340Y0126755D03*
X0317340Y0126755D03*
X0327340Y0126755D03*
X0337340Y0126755D03*
X0347340Y0126755D03*
X0357340Y0126755D03*
X0367340Y0126755D03*
X0377340Y0126755D03*
X0387340Y0126755D03*
X0397340Y0126755D03*
X0407340Y0126755D03*
X0417340Y0126755D03*
X0427340Y0126755D03*
X0437340Y0126755D03*
X0447340Y0126755D03*
X0447340Y0116755D03*
X0437340Y0116755D03*
X0427340Y0116755D03*
X0417340Y0116755D03*
X0407340Y0116755D03*
X0397340Y0116755D03*
X0387340Y0116755D03*
X0377340Y0116755D03*
X0367340Y0116755D03*
X0357340Y0116755D03*
X0347340Y0116755D03*
X0337340Y0116755D03*
X0327340Y0116755D03*
X0317340Y0116755D03*
X0307340Y0116755D03*
X0297340Y0116755D03*
X0287340Y0116755D03*
X0277340Y0116755D03*
X0277340Y0106755D03*
X0287340Y0106755D03*
X0297340Y0106755D03*
X0307340Y0106755D03*
X0317340Y0106755D03*
X0327340Y0106755D03*
X0337340Y0106755D03*
X0347340Y0106755D03*
X0357340Y0106755D03*
X0367340Y0106755D03*
X0377340Y0106755D03*
X0387340Y0106755D03*
X0397340Y0106755D03*
X0407340Y0106755D03*
X0417340Y0106755D03*
X0427340Y0106755D03*
X0437340Y0106755D03*
X0447340Y0106755D03*
D15*
X0467340Y0087355D02*
X0467340Y0081755D01*
X0477340Y0081755D02*
X0477340Y0087355D01*
X0489340Y0087355D02*
X0489340Y0081755D01*
X0499340Y0081755D02*
X0499340Y0087355D01*
X0511340Y0087355D02*
X0511340Y0081755D01*
X0521340Y0081755D02*
X0521340Y0087355D01*
X0512340Y0102755D02*
X0506740Y0102755D01*
X0506740Y0112755D02*
X0512340Y0112755D01*
X0512340Y0124755D02*
X0506740Y0124755D01*
X0506740Y0134755D02*
X0512340Y0134755D01*
X0512340Y0146755D02*
X0506740Y0146755D01*
X0506740Y0156755D02*
X0512340Y0156755D01*
X0512340Y0168255D02*
X0506740Y0168255D01*
X0506740Y0178255D02*
X0512340Y0178255D01*
X0512340Y0189755D02*
X0506740Y0189755D01*
X0506740Y0199755D02*
X0512340Y0199755D01*
X0512340Y0211755D02*
X0506740Y0211755D01*
X0506740Y0221755D02*
X0512340Y0221755D01*
X0512340Y0233755D02*
X0506740Y0233755D01*
X0506740Y0243755D02*
X0512340Y0243755D01*
X0542340Y0243755D02*
X0547940Y0243755D01*
X0547940Y0233755D02*
X0542340Y0233755D01*
X0542340Y0221755D02*
X0547940Y0221755D01*
X0547940Y0211755D02*
X0542340Y0211755D01*
X0542340Y0199755D02*
X0547940Y0199755D01*
X0547940Y0189755D02*
X0542340Y0189755D01*
X0542340Y0178255D02*
X0547940Y0178255D01*
X0547940Y0168255D02*
X0542340Y0168255D01*
X0542340Y0156755D02*
X0547940Y0156755D01*
X0547940Y0146755D02*
X0542340Y0146755D01*
X0542340Y0134755D02*
X0547940Y0134755D01*
X0547940Y0124755D02*
X0542340Y0124755D01*
X0542340Y0112755D02*
X0547940Y0112755D01*
X0547940Y0102755D02*
X0542340Y0102755D01*
X0521340Y0051755D02*
X0521340Y0046155D01*
X0511340Y0046155D02*
X0511340Y0051755D01*
X0499340Y0051755D02*
X0499340Y0046155D01*
X0489340Y0046155D02*
X0489340Y0051755D01*
X0477340Y0051755D02*
X0477340Y0046155D01*
X0467340Y0046155D02*
X0467340Y0051755D01*
X0187940Y0076755D02*
X0182340Y0076755D01*
X0182340Y0086755D02*
X0187940Y0086755D01*
X0187940Y0101755D02*
X0182340Y0101755D01*
X0182340Y0111755D02*
X0187940Y0111755D01*
X0187940Y0126755D02*
X0182340Y0126755D01*
X0182340Y0136755D02*
X0187940Y0136755D01*
X0187940Y0151755D02*
X0182340Y0151755D01*
X0182340Y0161755D02*
X0187940Y0161755D01*
X0152340Y0161755D02*
X0146740Y0161755D01*
X0146740Y0151755D02*
X0152340Y0151755D01*
X0137940Y0151755D02*
X0132340Y0151755D01*
X0132340Y0141755D02*
X0137940Y0141755D01*
X0146740Y0136755D02*
X0152340Y0136755D01*
X0152340Y0126755D02*
X0146740Y0126755D01*
X0137940Y0126755D02*
X0132340Y0126755D01*
X0132340Y0116755D02*
X0137940Y0116755D01*
X0146740Y0111755D02*
X0152340Y0111755D01*
X0152340Y0101755D02*
X0146740Y0101755D01*
X0137940Y0101755D02*
X0132340Y0101755D01*
X0132340Y0091755D02*
X0137940Y0091755D01*
X0146740Y0086755D02*
X0152340Y0086755D01*
X0152340Y0076755D02*
X0146740Y0076755D01*
X0102340Y0091755D02*
X0096740Y0091755D01*
X0096740Y0101755D02*
X0102340Y0101755D01*
X0102340Y0116755D02*
X0096740Y0116755D01*
X0096740Y0126755D02*
X0102340Y0126755D01*
X0102340Y0141755D02*
X0096740Y0141755D01*
X0096740Y0151755D02*
X0102340Y0151755D01*
D16*
X0049592Y0139727D03*
X0049592Y0184428D03*
X0107340Y0196755D03*
X0049592Y0229318D03*
X0044840Y0277255D03*
X0089840Y0277255D03*
X0134840Y0277255D03*
X0179840Y0277255D03*
X0224840Y0277255D03*
X0269840Y0277255D03*
X0314840Y0277255D03*
X0359840Y0277255D03*
X0404840Y0277255D03*
X0449840Y0277255D03*
X0494840Y0277255D03*
X0539840Y0277255D03*
X0587340Y0277755D03*
X0587340Y0232755D03*
X0587340Y0187755D03*
X0587340Y0142755D03*
X0587340Y0097755D03*
X0418840Y0046255D03*
X0373840Y0046255D03*
X0328840Y0046255D03*
X0283840Y0046255D03*
X0217340Y0101755D03*
X0109840Y0046255D03*
X0064840Y0046255D03*
X0232340Y0206755D03*
D17*
X0212655Y0206755D03*
X0107340Y0177070D03*
X0049592Y0159412D03*
X0049592Y0204113D03*
X0049592Y0249003D03*
X0064525Y0277255D03*
X0109525Y0277255D03*
X0154525Y0277255D03*
X0199525Y0277255D03*
X0244525Y0277255D03*
X0289525Y0277255D03*
X0334525Y0277255D03*
X0379525Y0277255D03*
X0424525Y0277255D03*
X0469525Y0277255D03*
X0514525Y0277255D03*
X0559525Y0277255D03*
X0587340Y0258070D03*
X0587340Y0213070D03*
X0587340Y0168070D03*
X0587340Y0123070D03*
X0587340Y0078070D03*
X0399155Y0046255D03*
X0354155Y0046255D03*
X0309155Y0046255D03*
X0264155Y0046255D03*
X0237025Y0101755D03*
X0090155Y0046255D03*
X0045155Y0046255D03*
D18*
X0049592Y0075255D03*
X0174470Y0046255D03*
X0238970Y0046255D03*
D19*
X0219285Y0046255D03*
X0199600Y0046255D03*
X0154785Y0046255D03*
X0135100Y0046255D03*
X0049592Y0094940D03*
X0049592Y0114625D03*
D20*
X0073040Y0231755D02*
X0073040Y0241755D01*
X0171640Y0241755D02*
X0171640Y0231755D01*
D21*
X0171640Y0236755D02*
X0232340Y0236755D01*
X0247340Y0231755D02*
X0259840Y0244255D01*
X0329840Y0244255D01*
X0337340Y0236755D01*
X0332340Y0239255D02*
X0332340Y0231755D01*
X0362340Y0231755D01*
X0367340Y0236755D01*
X0357340Y0236755D02*
X0352340Y0241755D01*
X0337340Y0241755D01*
X0332340Y0246755D01*
X0259840Y0246755D01*
X0257340Y0244255D01*
X0184840Y0244255D01*
X0179840Y0249255D01*
X0169840Y0249255D01*
X0137340Y0216755D01*
X0109840Y0199255D02*
X0224840Y0199255D01*
X0232340Y0206755D01*
X0239840Y0204255D02*
X0227340Y0191755D01*
X0119840Y0191755D01*
X0107340Y0179255D01*
X0107340Y0177070D01*
X0107340Y0196755D02*
X0087340Y0176755D01*
X0029840Y0176755D01*
X0029840Y0134255D01*
X0047340Y0116755D01*
X0049592Y0114625D01*
X0047340Y0114255D01*
X0047340Y0101755D01*
X0042340Y0096755D01*
X0042340Y0046755D01*
X0044840Y0046755D01*
X0045155Y0046255D01*
X0047340Y0046755D01*
X0052340Y0051755D01*
X0077340Y0051755D01*
X0129840Y0051755D01*
X0134840Y0046755D01*
X0135100Y0046255D01*
X0137340Y0044255D01*
X0142340Y0039255D01*
X0192340Y0039255D01*
X0197340Y0044255D01*
X0199600Y0046255D01*
X0199840Y0046755D01*
X0202340Y0046755D01*
X0252340Y0096755D01*
X0267340Y0096755D01*
X0277340Y0106755D01*
X0282340Y0109255D02*
X0279840Y0111755D01*
X0264840Y0111755D01*
X0247340Y0094255D01*
X0189840Y0094255D01*
X0182340Y0086755D01*
X0152340Y0086755D02*
X0127340Y0086755D01*
X0107340Y0066755D01*
X0092340Y0061755D02*
X0082340Y0061755D01*
X0077340Y0066755D02*
X0077340Y0051755D01*
X0077340Y0046755D01*
X0089840Y0046755D01*
X0090155Y0046255D01*
X0092340Y0061755D02*
X0132340Y0101755D01*
X0152340Y0111755D02*
X0172340Y0131755D01*
X0234840Y0131755D01*
X0264840Y0161755D01*
X0332340Y0161755D01*
X0332340Y0171755D02*
X0482340Y0171755D01*
X0494840Y0184255D01*
X0514840Y0184255D01*
X0517340Y0186755D01*
X0517340Y0211755D01*
X0512340Y0211755D01*
X0504840Y0216755D02*
X0537340Y0216755D01*
X0542340Y0211755D01*
X0539840Y0216755D02*
X0549840Y0216755D01*
X0552340Y0214255D01*
X0552340Y0169255D01*
X0542340Y0169255D01*
X0542340Y0168255D01*
X0542340Y0164255D02*
X0537340Y0159255D01*
X0537340Y0151755D01*
X0559840Y0151755D01*
X0587340Y0124255D01*
X0587340Y0123070D01*
X0589840Y0116755D02*
X0594840Y0121755D01*
X0594840Y0141755D01*
X0587340Y0141755D01*
X0587340Y0142755D01*
X0587340Y0146755D01*
X0572340Y0161755D01*
X0594840Y0184255D01*
X0594840Y0219255D01*
X0574840Y0219255D01*
X0562340Y0206755D01*
X0579840Y0211755D02*
X0587340Y0211755D01*
X0587340Y0213070D01*
X0579840Y0211755D02*
X0579840Y0186755D01*
X0554840Y0161755D01*
X0547340Y0161755D01*
X0542340Y0156755D01*
X0542340Y0164255D02*
X0554840Y0164255D01*
X0554840Y0221755D01*
X0549840Y0226755D01*
X0537340Y0226755D01*
X0537340Y0236755D01*
X0542340Y0241755D01*
X0542340Y0243755D01*
X0544840Y0236755D02*
X0562340Y0236755D01*
X0544840Y0236755D02*
X0542340Y0234255D01*
X0542340Y0233755D01*
X0527340Y0229255D02*
X0539840Y0216755D01*
X0534840Y0211755D02*
X0534840Y0184255D01*
X0524840Y0184255D01*
X0514840Y0174255D01*
X0487340Y0174255D01*
X0482340Y0169255D01*
X0274840Y0169255D01*
X0254840Y0189255D01*
X0127340Y0189255D01*
X0099840Y0161755D01*
X0049840Y0161755D01*
X0049592Y0159412D01*
X0077340Y0181755D02*
X0057340Y0201755D01*
X0049840Y0201755D01*
X0049592Y0204113D01*
X0077340Y0211755D02*
X0209840Y0211755D01*
X0212340Y0214255D01*
X0272340Y0214255D01*
X0274840Y0211755D01*
X0499840Y0211755D01*
X0504840Y0216755D01*
X0527340Y0229255D02*
X0424840Y0229255D01*
X0417340Y0236755D01*
X0422340Y0241755D02*
X0427340Y0236755D01*
X0434840Y0236755D01*
X0437340Y0236755D01*
X0434840Y0236755D02*
X0414840Y0256755D01*
X0409840Y0256755D01*
X0407340Y0259255D01*
X0377340Y0259255D01*
X0359840Y0276755D02*
X0354840Y0271755D01*
X0399840Y0271755D01*
X0444840Y0271755D01*
X0449840Y0276755D01*
X0449840Y0277255D01*
X0449840Y0276755D02*
X0459840Y0276755D01*
X0464840Y0271755D01*
X0489840Y0271755D01*
X0494840Y0276755D01*
X0494840Y0277255D01*
X0494840Y0276755D02*
X0504840Y0276755D01*
X0509840Y0271755D01*
X0534840Y0271755D01*
X0539840Y0276755D01*
X0539840Y0277255D01*
X0539840Y0276755D02*
X0582340Y0234255D01*
X0587340Y0234255D01*
X0587340Y0232755D01*
X0587340Y0231755D01*
X0574840Y0219255D01*
X0542340Y0189755D02*
X0542340Y0189255D01*
X0517340Y0164255D01*
X0409840Y0164255D01*
X0407340Y0166755D01*
X0272340Y0166755D01*
X0254840Y0184255D01*
X0254840Y0179255D02*
X0132340Y0179255D01*
X0132340Y0151755D01*
X0182340Y0161755D02*
X0194840Y0174255D01*
X0254840Y0174255D01*
X0277340Y0176755D02*
X0277340Y0186755D01*
X0277340Y0196755D01*
X0252340Y0196755D01*
X0249840Y0199255D01*
X0239840Y0204255D02*
X0279840Y0204255D01*
X0282340Y0206755D01*
X0274840Y0214255D02*
X0314840Y0214255D01*
X0317340Y0216755D01*
X0304840Y0221755D02*
X0362340Y0221755D01*
X0377340Y0236755D01*
X0387340Y0236755D01*
X0392340Y0241755D01*
X0422340Y0241755D01*
X0412340Y0251755D02*
X0407340Y0246755D01*
X0334840Y0246755D01*
X0324840Y0256755D01*
X0182340Y0256755D01*
X0187340Y0251755D01*
X0182340Y0256755D02*
X0159840Y0279255D01*
X0159840Y0284255D01*
X0114840Y0284255D01*
X0109840Y0279255D01*
X0109525Y0277255D01*
X0147340Y0271755D02*
X0152340Y0276755D01*
X0154525Y0277255D01*
X0154840Y0276755D01*
X0184840Y0246755D01*
X0212340Y0246755D01*
X0217340Y0251755D01*
X0232340Y0251755D01*
X0259840Y0241755D02*
X0329840Y0241755D01*
X0332340Y0239255D01*
X0317340Y0236755D02*
X0299840Y0236755D01*
X0292340Y0229255D01*
X0274840Y0214255D02*
X0262340Y0226755D01*
X0247340Y0231755D02*
X0202340Y0231755D01*
X0197340Y0226755D01*
X0202340Y0221755D02*
X0239840Y0221755D01*
X0259840Y0241755D01*
X0264840Y0271755D02*
X0219840Y0271755D01*
X0224840Y0276755D01*
X0224840Y0277255D01*
X0219840Y0271755D02*
X0184840Y0271755D01*
X0179840Y0276755D01*
X0179840Y0277255D01*
X0147340Y0271755D02*
X0049840Y0271755D01*
X0044840Y0276755D01*
X0044840Y0277255D01*
X0049592Y0249003D02*
X0049840Y0246755D01*
X0059840Y0236755D01*
X0073040Y0236755D01*
X0109840Y0199255D02*
X0107340Y0196755D01*
X0197340Y0216755D02*
X0202340Y0221755D01*
X0264840Y0271755D02*
X0309840Y0271755D01*
X0354840Y0271755D01*
X0359840Y0276755D02*
X0359840Y0277255D01*
X0399840Y0271755D02*
X0404840Y0276755D01*
X0404840Y0277255D01*
X0424525Y0277255D02*
X0424840Y0279255D01*
X0429840Y0284255D01*
X0597340Y0284255D01*
X0597340Y0079255D01*
X0547340Y0029255D01*
X0317340Y0029255D01*
X0317340Y0049255D01*
X0328840Y0046255D02*
X0329840Y0046755D01*
X0334840Y0051755D01*
X0424840Y0051755D01*
X0434840Y0041755D01*
X0482340Y0041755D01*
X0482340Y0051755D01*
X0487340Y0056755D01*
X0492340Y0056755D01*
X0497340Y0051755D01*
X0499340Y0051755D01*
X0489840Y0051755D02*
X0489340Y0051755D01*
X0489840Y0051755D02*
X0489840Y0041755D01*
X0524840Y0041755D01*
X0537340Y0054255D01*
X0537340Y0056755D01*
X0537340Y0066755D02*
X0542340Y0066755D01*
X0542340Y0079255D01*
X0539840Y0081755D01*
X0534840Y0081755D01*
X0519840Y0066755D01*
X0482340Y0066755D01*
X0467340Y0051755D01*
X0467340Y0056755D02*
X0452340Y0056755D01*
X0449840Y0054255D01*
X0292340Y0054255D01*
X0284840Y0046755D01*
X0283840Y0046255D01*
X0252340Y0066755D02*
X0339840Y0066755D01*
X0344840Y0071755D01*
X0359840Y0071755D01*
X0362340Y0069255D01*
X0362340Y0061755D01*
X0392340Y0061755D01*
X0397340Y0066755D01*
X0407340Y0066755D02*
X0422340Y0081755D01*
X0422340Y0086755D01*
X0454840Y0086755D01*
X0459840Y0091755D01*
X0497340Y0091755D01*
X0497340Y0111755D01*
X0492340Y0116755D01*
X0482340Y0116755D01*
X0482340Y0136755D01*
X0477340Y0136755D01*
X0477340Y0146755D01*
X0477340Y0136755D02*
X0472340Y0136755D01*
X0492340Y0126755D02*
X0512340Y0126755D01*
X0512340Y0124755D01*
X0492340Y0114255D02*
X0467340Y0114255D01*
X0449840Y0131755D01*
X0412340Y0131755D01*
X0407340Y0126755D01*
X0407340Y0116755D01*
X0407340Y0106755D01*
X0417340Y0106755D02*
X0417340Y0116755D01*
X0417340Y0126755D01*
X0427340Y0126755D02*
X0427340Y0116755D01*
X0427340Y0106755D01*
X0437340Y0106755D02*
X0442340Y0111755D01*
X0437340Y0116755D01*
X0437340Y0126755D01*
X0447340Y0126755D02*
X0447340Y0116755D01*
X0442340Y0111755D02*
X0477340Y0111755D01*
X0482340Y0106755D01*
X0472340Y0106755D02*
X0457340Y0091755D01*
X0402340Y0091755D01*
X0397340Y0096755D01*
X0392340Y0094255D02*
X0389840Y0091755D01*
X0327340Y0091755D01*
X0317340Y0086755D02*
X0312340Y0091755D01*
X0297340Y0091755D01*
X0262340Y0091755D01*
X0257340Y0086755D01*
X0257340Y0076755D01*
X0252340Y0066755D02*
X0252340Y0089255D01*
X0257340Y0094255D01*
X0282340Y0094255D01*
X0282340Y0109255D01*
X0277340Y0116755D02*
X0277340Y0126755D01*
X0252340Y0136755D02*
X0267340Y0151755D01*
X0527340Y0151755D01*
X0542340Y0136755D01*
X0542340Y0134755D01*
X0552340Y0136755D02*
X0567340Y0136755D01*
X0552340Y0136755D02*
X0542340Y0146755D01*
X0567340Y0166755D02*
X0572340Y0161755D01*
X0512340Y0189755D02*
X0512340Y0191755D01*
X0477340Y0191755D01*
X0477340Y0176755D02*
X0447340Y0176755D01*
X0447340Y0186755D01*
X0447340Y0196755D01*
X0447340Y0206755D01*
X0437340Y0206755D02*
X0437340Y0196755D01*
X0437340Y0186755D01*
X0437340Y0176755D01*
X0427340Y0176755D02*
X0427340Y0186755D01*
X0427340Y0196755D01*
X0427340Y0206755D01*
X0417340Y0206755D02*
X0417340Y0196755D01*
X0417340Y0186755D01*
X0417340Y0176755D01*
X0387340Y0176755D02*
X0387340Y0186755D01*
X0387340Y0196755D01*
X0387340Y0206755D01*
X0377340Y0206755D02*
X0377340Y0196755D01*
X0377340Y0186755D01*
X0377340Y0176755D01*
X0367340Y0176755D02*
X0367340Y0186755D01*
X0367340Y0196755D01*
X0367340Y0206755D01*
X0357340Y0206755D02*
X0357340Y0196755D01*
X0357340Y0186755D01*
X0357340Y0176755D01*
X0347340Y0176755D02*
X0347340Y0186755D01*
X0347340Y0196755D01*
X0347340Y0206755D01*
X0337340Y0206755D02*
X0337340Y0196755D01*
X0337340Y0186755D01*
X0337340Y0176755D01*
X0332340Y0171755D02*
X0332340Y0201755D01*
X0327340Y0196755D02*
X0327340Y0206755D01*
X0317340Y0206755D02*
X0317340Y0196755D01*
X0317340Y0186755D01*
X0317340Y0176755D01*
X0327340Y0176755D02*
X0327340Y0186755D01*
X0327340Y0196755D01*
X0437340Y0216755D02*
X0447340Y0226755D01*
X0472340Y0226755D01*
X0477340Y0221755D01*
X0467340Y0221755D02*
X0462340Y0216755D01*
X0447340Y0216755D01*
X0449840Y0234255D02*
X0512340Y0234255D01*
X0512340Y0233755D01*
X0479840Y0269255D02*
X0462340Y0251755D01*
X0454840Y0269255D02*
X0437340Y0251755D01*
X0447340Y0236755D02*
X0449840Y0234255D01*
X0454840Y0269255D02*
X0462340Y0269255D01*
X0479840Y0269255D02*
X0507340Y0269255D01*
X0314840Y0276755D02*
X0309840Y0271755D01*
X0314840Y0276755D02*
X0314840Y0277255D01*
X0269840Y0277255D02*
X0269840Y0276755D01*
X0264840Y0271755D01*
X0237340Y0131755D02*
X0332340Y0131755D01*
X0337340Y0126755D01*
X0337340Y0116755D01*
X0337340Y0106755D01*
X0347340Y0106755D02*
X0347340Y0116755D01*
X0347340Y0126755D01*
X0357340Y0126755D02*
X0357340Y0116755D01*
X0357340Y0106755D01*
X0357340Y0096755D01*
X0367340Y0096755D02*
X0367340Y0106755D01*
X0367340Y0116755D01*
X0367340Y0126755D01*
X0377340Y0126755D02*
X0377340Y0116755D01*
X0377340Y0106755D01*
X0377340Y0096755D01*
X0387340Y0096755D02*
X0387340Y0106755D01*
X0387340Y0116755D01*
X0387340Y0126755D01*
X0397340Y0126755D02*
X0397340Y0116755D01*
X0397340Y0106755D01*
X0392340Y0101755D02*
X0442340Y0101755D01*
X0447340Y0096755D01*
X0442340Y0101755D02*
X0447340Y0106755D01*
X0422340Y0086755D02*
X0317340Y0086755D01*
X0314840Y0086755D02*
X0319840Y0081755D01*
X0407340Y0081755D01*
X0404840Y0079255D02*
X0407340Y0076755D01*
X0412340Y0076755D01*
X0417340Y0081755D01*
X0404840Y0079255D02*
X0319840Y0079255D01*
X0314840Y0084255D01*
X0294840Y0084255D01*
X0287340Y0076755D01*
X0287340Y0086755D02*
X0314840Y0086755D01*
X0307340Y0079255D02*
X0309840Y0076755D01*
X0357340Y0076755D01*
X0367340Y0066755D01*
X0354840Y0059255D02*
X0449840Y0059255D01*
X0447340Y0066755D02*
X0449840Y0069255D01*
X0504840Y0069255D01*
X0517340Y0081755D01*
X0517340Y0101755D01*
X0512340Y0101755D01*
X0512340Y0102755D01*
X0492340Y0096755D02*
X0492340Y0114255D01*
X0537340Y0101755D02*
X0542340Y0101755D01*
X0542340Y0102755D01*
X0537340Y0101755D02*
X0537340Y0086755D01*
X0537340Y0076755D02*
X0512340Y0051755D01*
X0511340Y0051755D01*
X0489840Y0036755D02*
X0487340Y0039255D01*
X0379840Y0039255D01*
X0374840Y0044255D01*
X0373840Y0046255D01*
X0354840Y0059255D02*
X0347340Y0066755D01*
X0347340Y0096755D02*
X0347340Y0106755D01*
X0392340Y0101755D02*
X0392340Y0094255D01*
X0417340Y0066755D02*
X0432340Y0081755D01*
X0467340Y0081755D01*
X0482340Y0076755D02*
X0487340Y0081755D01*
X0489340Y0081755D01*
X0482340Y0076755D02*
X0437340Y0076755D01*
X0427340Y0066755D01*
X0437340Y0066755D02*
X0444840Y0074255D01*
X0502340Y0074255D01*
X0509840Y0081755D01*
X0511340Y0081755D01*
X0542340Y0111755D02*
X0547340Y0106755D01*
X0549840Y0106755D01*
X0552340Y0104255D01*
X0552340Y0036755D01*
X0489840Y0036755D01*
X0467340Y0056755D02*
X0469840Y0059255D01*
X0567340Y0056755D02*
X0567340Y0066755D01*
X0567340Y0076755D01*
X0567340Y0086755D01*
X0567340Y0096755D01*
X0587340Y0116755D01*
X0589840Y0116755D01*
X0567340Y0126755D02*
X0542340Y0126755D01*
X0542340Y0124755D01*
X0542340Y0112755D02*
X0542340Y0111755D01*
X0237340Y0131755D02*
X0212340Y0106755D01*
X0059840Y0106755D01*
X0049840Y0096755D01*
X0049592Y0094940D01*
X0152340Y0076755D02*
X0152340Y0046755D01*
X0154785Y0046255D01*
D22*
X0082340Y0061755D03*
X0252340Y0136755D03*
X0254840Y0174255D03*
X0254840Y0179255D03*
X0254840Y0184255D03*
X0249840Y0199255D03*
X0282340Y0206755D03*
X0304840Y0221755D03*
X0317340Y0216755D03*
X0332340Y0201755D03*
X0332340Y0161755D03*
X0437340Y0216755D03*
X0447340Y0216755D03*
X0534840Y0211755D03*
X0507340Y0269255D03*
X0462340Y0269255D03*
X0197340Y0226755D03*
X0197340Y0216755D03*
X0137340Y0216755D03*
X0407340Y0081755D03*
X0417340Y0081755D03*
X0449840Y0059255D03*
X0469840Y0059255D03*
X0317340Y0049255D03*
M02*
