M48
;GenerationSoftware,Autodesk,EAGLE,9.3.2*%
;CreationDate,2019-03-30T01:44:13Z*%
FMAT,2
ICI,OFF
METRIC,TZ,000.000
T6C0.508
T5C0.813
T4C0.889
T3C1.300
T2C1.321
T1C3.200
%
G90
M71
T1
X13716Y31242
X13970Y12827
X143510Y6350
X135890Y49530
T2
X37922Y54610
X12878Y54610
T3
X5715Y64897
X6922Y23589
X6922Y18589
X6922Y13589
X21590Y44450
X6922Y34965
X6922Y29965
X6922Y46319
X6922Y41319
X33575Y64897
X28575Y64897
X22145Y64897
X17145Y64897
X143510Y14304
X143510Y19304
X143510Y25734
X143510Y30734
X143510Y37164
X143510Y42164
X143510Y48594
X143510Y53594
X143510Y60024
X143510Y65024
X136445Y64897
X102155Y64897
X97155Y64897
X113585Y64897
X108585Y64897
X125015Y64897
X120015Y64897
X54530Y20320
X49530Y20320
X48340Y46990
X53340Y46990
X45005Y64897
X100711Y6223
X10715Y64897
X131445Y64897
X6922Y57721
X6922Y52721
X21590Y39450
X45024Y6223
X50024Y6223
X55024Y6223
X28641Y6223
X33641Y6223
X38641Y6223
X72851Y6223
X77851Y6223
X61421Y6223
X66421Y6223
X56435Y64897
X51435Y64897
X90725Y64897
X85725Y64897
X79295Y64897
X74295Y64897
X67865Y64897
X62865Y64897
X17225Y6223
X22225Y6223
X40005Y64897
X5795Y6223
X10795Y6223
X84281Y6223
X89281Y6223
X95711Y6223
T4
X105410Y21590
X100330Y44450
X102870Y44450
X105410Y44450
X107950Y44450
X85090Y39370
X64770Y21590
X67310Y21590
X69850Y21590
X72390Y21590
X74930Y21590
X77470Y21590
X80010Y21590
X82550Y21590
X85090Y21590
X87630Y21590
X90170Y21590
X92710Y21590
X95250Y21590
X97790Y21590
X100330Y21590
X102870Y21590
X107950Y21590
X64770Y24130
X67310Y24130
X69850Y24130
X72390Y24130
X74930Y24130
X77470Y24130
X80010Y24130
X82550Y24130
X85090Y24130
X87630Y24130
X90170Y24130
X92710Y24130
X95250Y24130
X97790Y24130
X100330Y24130
X102870Y24130
X105410Y24130
X107950Y24130
X64770Y26670
X67310Y26670
X69850Y26670
X72390Y26670
X74930Y26670
X77470Y26670
X80010Y26670
X82550Y26670
X85090Y26670
X87630Y26670
X90170Y26670
X92710Y26670
X95250Y26670
X97790Y26670
X100330Y26670
X102870Y26670
X105410Y26670
X107950Y26670
X64770Y39370
X67310Y39370
X69850Y39370
X72390Y39370
X74930Y39370
X77470Y39370
X80010Y39370
X82550Y39370
X87630Y39370
X90170Y39370
X92710Y39370
X95250Y39370
X97790Y39370
X100330Y39370
X102870Y39370
X105410Y39370
X107950Y39370
X64770Y41910
X67310Y41910
X69850Y41910
X72390Y41910
X74930Y41910
X77470Y41910
X80010Y41910
X82550Y41910
X85090Y41910
X87630Y41910
X90170Y41910
X92710Y41910
X95250Y41910
X97790Y41910
X100330Y41910
X102870Y41910
X105410Y41910
X107950Y41910
X64770Y44450
X67310Y44450
X69850Y44450
X72390Y44450
X74930Y44450
X77470Y44450
X80010Y44450
X82550Y44450
X85090Y44450
X87630Y44450
X90170Y44450
X92710Y44450
X95250Y44450
X97790Y44450
T5
X54610Y11430
X73660Y12700
X27940Y44450
X29210Y46355
X30480Y44450
X54610Y31750
X57150Y31750
X57150Y39370
X54610Y39370
X132080Y42291
X132080Y44831
X124460Y44831
X124460Y42291
X132080Y54102
X132080Y56642
X124460Y56642
X124460Y54102
X33020Y36830
X33020Y34290
X40640Y34290
X40640Y36830
X46990Y13970
X46990Y11430
X102870Y46990
X54610Y13970
X91440Y58420
X90170Y60325
X88900Y58420
X99060Y58420
X97790Y60325
X96520Y58420
X113030Y43180
X113030Y50800
X77470Y54610
X77470Y46990
X64770Y48260
X72390Y48260
X13970Y40640
X13970Y48260
X115570Y31750
X115570Y39370
X138430Y31750
X138430Y24130
X87630Y46990
X87630Y54610
X102870Y54610
X138430Y8890
X48260Y54610
X55880Y54610
X100330Y46990
X100330Y54610
X105410Y54610
X105410Y46990
X115570Y43180
X115570Y50800
X138430Y35560
X138430Y43180
X87630Y11430
X87630Y19050
X82550Y11430
X82550Y19050
X85090Y19050
X85090Y11430
X90170Y46990
X90170Y54610
X55880Y58420
X48260Y58420
X92710Y46990
X92710Y54610
X43180Y50800
X43180Y58420
X85090Y46990
X85090Y54610
X95250Y11430
X95250Y19050
X114300Y29210
X114300Y21590
X20320Y12700
X27940Y12700
X119380Y26670
X119380Y19050
X97790Y11430
X97790Y19050
X15240Y17780
X15240Y25400
X107950Y54610
X107950Y46990
X100330Y11430
X100330Y19050
X59690Y16510
X67310Y16510
X138430Y11430
X130810Y11430
X102870Y11430
X102870Y19050
X59690Y13970
X67310Y13970
X124460Y39370
X130810Y8890
X105410Y11430
X105410Y19050
X116840Y29210
X116840Y21590
X138430Y13970
X130810Y13970
X107950Y11430
X107950Y19050
X90170Y19050
X90170Y11430
X69850Y17780
X77470Y17780
X138430Y16510
X130810Y16510
X82550Y46990
X82550Y54610
X92710Y19050
X92710Y11430
X74930Y54610
X74930Y46990
X80010Y46990
X80010Y54610
X132080Y39370
X132080Y36830
X40640Y29210
X40640Y26670
X33020Y26670
X33020Y29210
X63500Y54610
X63500Y57150
X71120Y57150
X71120Y54610
X113284Y15240
X115824Y15240
X115824Y7620
X113284Y7620
X119126Y15240
X121666Y15240
X121666Y7620
X119126Y7620
X124968Y15240
X127508Y15240
X127508Y7620
X124968Y7620
X124460Y36830
X124460Y20320
X124460Y22860
X132080Y22860
X132080Y20320
X27940Y23368
X27940Y20828
X20320Y20828
X20320Y23368
X40640Y16510
X40640Y13970
X33020Y13970
X33020Y16510
X124460Y27178
X124460Y29718
X132080Y29718
X132080Y27178
X33020Y20320
X33020Y22860
X40640Y22860
X40640Y20320
X27940Y31750
X27940Y29210
X20320Y29210
X20320Y31750
X109220Y58420
X110490Y60325
X111760Y58420
X102870Y58420
X104140Y60325
X105410Y58420
X71120Y12700
X72390Y14605
T6
X74930Y28575
X83185Y30480
X79375Y29845
X66675Y52070
X73025Y4445
X57785Y59690
X66040Y8890
X97790Y54610
X74930Y19685
X73660Y18415
X99695Y13970
X99695Y15240
X95885Y17145
X78740Y48260
M30